<?xml version="1.0" encoding="utf-8" ?>
<svg baseProfile="full" height="300mm" version="1.1" viewBox="0,0,200,300" width="200mm" xmlns="http://www.w3.org/2000/svg" xmlns:ev="http://www.w3.org/2001/xml-events" xmlns:xlink="http://www.w3.org/1999/xlink"><defs /><rect fill="#222222" height="300" width="200" x="0" y="0" /><text fill="#FFFFFF" style="font-size:12px; font-family:Arial; font-weight:bold;" x="10" y="20">Over 50km Workouts</text><text fill="#FFFFFF" style="font-size:4px; font-family:Arial" x="10" y="280">ATHLETE</text><text fill="#FFFFFF" style="font-size:9px; font-family:Arial" x="10" y="290">adong</text><text fill="#FFFFFF" style="font-size:4px; font-family:Arial" x="65" y="280">SPECIAL TRACKS</text><rect fill="yellow" height="2.6" width="2.6" x="65" y="283" /><text fill="#FFFFFF" style="font-size:3px; font-family:Arial" x="70" y="285.5">Over 20.0 km</text><rect fill="red" height="2.6" width="2.6" x="65" y="287" /><text fill="#FFFFFF" style="font-size:3px; font-family:Arial" x="70" y="289.5">Over 40.0 km</text><text fill="#FFFFFF" style="font-size:4px; font-family:Arial" x="120" y="280">STATISTICS</text><text fill="#FFFFFF" style="font-size:3px; font-family:Arial" x="120" y="285">Number: 7</text><text fill="#FFFFFF" style="font-size:3px; font-family:Arial" x="120" y="290">Weekly: 1.0</text><text fill="#FFFFFF" style="font-size:3px; font-family:Arial" x="141" y="285">Total: 498.4 km</text><text fill="#FFFFFF" style="font-size:3px; font-family:Arial" x="141" y="290">Avg: 71.2 km</text><text fill="#FFFFFF" style="font-size:3px; font-family:Arial" x="167" y="285">Min: 53.3 km</text><text fill="#FFFFFF" style="font-size:3px; font-family:Arial" x="167" y="290">Max: 103.1 km</text><polyline fill="none" points="35.71516882794094,66.9339103529419 36.34430977870943,66.30498247381911 37.30708608208806,65.86679175466998 37.926694594178116,66.28951696463628 38.184070437651826,67.0267025236135 37.72174716324662,67.60407333062903 37.45007266182802,67.10402924073787 37.57876058353577,66.74832565116594 37.27372254681541,66.79987700541824 37.32615095941583,67.0267025236135 37.08783999318257,67.2225967116101 37.297553643467836,67.15042523096417 37.43577400382492,67.56283271295251 36.882892562280176,68.1195790494603 36.854295246332185,69.05778994345746 36.67317891205312,69.14026943480712 36.45869904247229,69.81556670086138 36.73513976324466,70.14548060932066 36.35384221732966,70.51663194149296 36.30618002411211,71.23315477226424 36.358608436683426,71.5836813183414 36.682711350673344,71.91874185597044 36.93532097485149,73.06824533841427 37.35951449465938,73.23834966963113 38.41284896520665,73.08370938520238 39.0324574772967,72.7641184072163 39.366092829965055,72.92906876727284 39.13731430241023,73.04247191969989 38.85134114298853,73.69195924674204 38.51293957102462,73.86206209838201 38.45097871980397,74.83112519247516 38.90376955555985,75.47544181051853 39.871312078263145,75.85172003810658 40.17635011501261,75.7177033614862 40.32886913337279,75.96511856889629 40.75306265318068,75.7177033614862 41.08193178649526,76.16614279648275 41.434632016462274,76.16614279648275 41.62051457009511,75.7589392886548 41.44893067446537,75.614613439815 41.86359175562393,75.39812412199535 42.163863573019626,75.67131291506666 42.87403025224921,75.48575082936077 43.3935481585213,75.83625658819801 43.874936310225166,76.76921209870852 44.470713725721,77.15579231779338 44.56127189286053,77.56298789548237 44.356324461929034,78.04749607769554 45.31910076533677,79.42884186663287 45.948241716076154,80.8771646721616 46.71560302720172,81.25856866157847 46.877654484211234,82.07806497031197 47.51156165427528,82.4388465416232 47.99771602527471,82.95939961216573 48.4362082030857,83.54179609675339 48.56012990549789,84.21180390538211 49.08918025044841,84.26849658678839 49.932801070739515,85.60333859981256 50.328397274628514,85.79918205786089 50.49998117025825,85.4951090911236 51.024265295884106,85.41780219928842 51.272108700708486,85.74249058547866 51.639107588649495,85.41264840352596 51.6248089306755,84.99003589275162 52.558987918135244,84.54680546414602 53.84110091623734,85.56210833002842 54.36538504183409,86.73716173846333 54.79911100032041,86.7010858235335 55.3043302486185,87.0 55.65703047858551,86.63924135575871 56.62457300128881,86.81962090450179 57.03923408247647,86.59801168098784 57.35857077714172,86.69593211992469 58.80750145157799,86.16509866604974 59.4604734989407,86.35578686340159 59.8560697028297,86.26817343022776 59.75121287768707,85.63941506644551 60.003822501865216,85.4487249660051 60.499509311513975,84.26849658678839 61.21444221009733,83.6242589338217 60.9189366119972,83.19648193733883 61.447986956947716,82.16568351868045 61.45275317627238,81.408037239642 61.34313013183419,81.02663404472696 60.866508199454984,80.72254085564055 60.70922296179924,80.34113401683862 61.190611113474006,79.93395420800152 61.16678001685068,79.21751830130233 61.46228561492171,79.33091151130793 61.829284502833616,79.16082162908788 62.02946571446955,78.37737211645435 62.28684155794326,78.12481091036898 62.22011448739795,77.3774307037238 62.63000934923184,77.29496068663502 63.106631281611044,76.81560183500915 63.969316979229916,76.60427057108245 63.66904516183422,75.37235154062728 63.397370660386514,75.2692611225466 63.058969088393496,74.74349768526008 63.154293474857695,74.24350338970908 63.144761036208365,73.27443235468672 62.55851605939097,71.5836813183414 62.0771279076871,71.51151422836483 61.919842670002254,71.16614214920264 61.74825877434341,71.38264424414592 61.457519395597046,70.95994906997657 61.11435160430847,70.9651039041928 61.009494779165834,71.19191624241284 60.27549700331292,71.40326345718131 60.108679326978745,71.87750372045411 59.52720056948601,72.40844290208042 58.268918668007245,72.54246576334481 57.606414181995206,71.78471782881024 57.349038338521495,70.69189718041525 57.07736383707379,70.5784903100357 58.41667146701366,69.75886259494291 58.86469608347397,69.56297533846009 59.19356521681766,68.82581586521337 59.13160436559701,68.35671043510956 59.71308312311885,67.36693945488878 59.67495336852153,66.98546157370947 59.40327886707382,66.81018727182527 59.169734120194335,65.41313265780263 59.946627869969234,65.13474951737226 59.71308312311885,64.53673763282495 60.02288737913477,64.10884675577108 60.494743092218414,63.882012001467956 60.56623638205929,63.49020482528067 61.07622184968204,63.0519968926601 60.775950032286346,62.49005573915929 61.333597693184856,61.84046689489696 61.133416481578024,61.541447828145465 61.571908659359906,61.53629231603918 62.60617825263762,60.49487126512395 62.29637399659259,60.092734332069085 62.71103507775115,59.88650938808132 63.001774456497515,59.60294912059544 63.54035724006826,58.46354109107051 63.526058582094265,57.834538847728254 62.65860666517983,57.35504982023485 61.87694669610937,57.57674944703467 61.31929903521086,57.628307401409984 61.123884042928694,57.42207536119167 60.79501490958501,57.39114050392527 60.31839297723491,56.81368738218589 59.96092652794323,56.95289525714179 59.5557978854049,55.890783885293786 58.144996965595055,55.968122623791714 57.873322464118246,55.56596027141859 57.973413069936214,54.97302447784023 57.472960040933685,55.153483717440395 57.05829895977513,54.957556521869265 56.51018373752595,55.30816270363357 55.852445470838575,55.380346116191504 54.856305632187286,55.06067616531436 54.56556625344092,54.828656758698344 52.23488500411622,54.746160788479756 51.42462771906867,54.42648800608367 50.747824575111736,54.48836026890058 50.38082568717073,54.20477862521511 50.0710214311257,54.40070788079174 49.961398386687506,54.766784789957455 49.04151805717265,54.75647278996257 48.30275406202418,54.354303631873336 48.216962114180205,54.45742414418419 48.01678090260248,54.050097255199944 47.21605605620425,53.94697615619589 47.10643301176606,53.77166994700019 46.491590718971565,53.60667547560661 46.17702024360187,52.99309894867474 44.56127189286053,53.19418763347494 44.44688262909767,52.998255075854104 43.57943071218324,52.97247443624656 43.23149670154089,53.33340254590439 42.54992733823019,53.64792412910174 41.27734677880653,54.715224775151 40.85315325896954,55.30300674281534 40.40512864253833,54.849280736398214 39.95710402610712,54.24602693408815 39.35179417199106,54.02431699437511 39.0324574772967,54.06556540724705 38.52723822896951,54.48836026890058 38.16500556038227,54.31305538536253 37.89809727825923,54.462580165898544 37.14503462507855,54.354303631873336 36.57308830626425,54.48320424904523 35.2719104308635,53.993380669122416 35.033599464659346,53.57058288429835 34.442588268517284,53.34887085279843 33.63709720279439,52.611544506835344 31.949855562183075,52.11655193008119 31.539960700349184,52.21967566584499 30.500924887746805,51.100775193834124 31.773505447199568,51.131712769194564 32.14050433511147,50.84296154579715 32.66955468006199,50.18295437501001 32.62665870616911,49.49715922631003 32.87450211099349,49.25996538970867 32.85543723372393,48.924798845535406 33.184306367038516,48.734011034666764 33.46551330713555,48.24414810957023 33.93736902019009,48.26993045239578 33.95643389748875,47.80069035910492 34.60940594485146,47.46036045418441 35.08602787723066,46.666251047612604 35.69133773134672,46.92923630767473 37.016346703341696,46.764226061393856 37.3976442492567,46.47545721471761 37.84090264636325,46.4290478270741 38.2555637275218,46.99627161151511 38.13164202510961,46.06292826912613 38.5558355449466,44.696409146759834 38.35565433333977,45.49054041731506 38.51293957102462,46.14027762759724 38.86087358163786,46.34654217472416 39.404222584562376,45.897916024878214 39.84748098166892,45.02128209564762 40.276440720801475,44.82532716017886 40.934178987459745,45.418347029713914 41.86359175562393,44.94908823449805 42.273486617486924,44.48498310181458 42.56899221552885,44.7737599826869 43.38878193922574,44.61905822718836 43.66522265999811,44.990341878361505 43.984559354692465,45.057378998903005 44.41828531314968,44.86142416231087 44.651830060000066,44.201361816252756 45.056958702538395,44.21683209719049 45.47638600302162,42.93278739393645 45.390594055177644,41.90656641986061 43.9797931353678,41.086610435897455 43.80820923970896,40.844231709656015 44.079883741156664,39.9417505051897 43.81297545903362,39.322899667957245 43.36495084260241,39.12692911963313 42.85019915562589,39.51371258053041 42.664316602022154,38.590585925110645 42.28301905610715,38.33272718800072 41.977981019357685,38.43587079443387 41.73967005321174,37.84279302548384 42.144798695720965,37.48178675746749 42.49273270636331,37.4508432782568 42.85019915562589,36.790712531135796 43.283925114083104,36.5998923514162 43.33635352665442,35.85207862974494 43.603261808806565,35.76956077433351 44.075117521832,35.160988648975035 43.80344302038429,33.67563831632651 43.6795213179721,33.51059748507032 43.43167791314772,33.64985071156116 43.02178305128473,34.052136286296445 42.688147698616376,33.71689846458321 41.68724164064042,34.201703422582796 41.42033335848828,33.783946154711884 41.434632016462274,33.216617560381565 41.02473715462838,33.0 40.552881441573845,33.39713169251263 40.34316779134679,34.04697879325613 39.81411744639627,34.340955302606744 39.709260621253634,34.57819862154429 39.22787246957887,34.92374726433263 38.36042055263533,35.47559014032595 38.169771779706934,36.22340780036029 37.736045821220614,37.24455307454264 36.77326951781288,39.6220115746728 36.43963416517363,39.52918387544196 36.61121806080337,39.53434097301215 36.577854525559815,39.358999447216775 36.001141987362644,39.90565102011533 35.72946748591494,40.6585793637787 35.005002148711355,40.85970271673068 33.84204463372589,40.29243026902623 33.08421576124965,40.59153812043587 32.359750424016966,40.30274435368847 31.811635201825993,40.488397623332276 31.55902557761874,40.41619918686047 31.163429373758845,40.52965384002164 30.78689804719761,41.11239535843197 30.443730255879927,41.15365121513969 30.20065307035111,41.50948199148479 29.180682135076495,41.463069381930836 28.484814113820903,41.225848907131876 28.26556802491541,41.617777963318076 27.65549195150379,41.87046792656474 27.512505371763837,42.159255362810654 26.91672795629711,41.9890771932769 26.43533980459324,42.23660894237764 24.995941568806302,42.257236549463414 24.142788309865864,42.401629632513504 23.442154069285607,42.669787441969675 23.06562274269527,43.09780647790103 21.621458287583664,43.335020744132635 21.15913501320756,43.252511523362045 20.835032099159434,43.458784396832925 20.56335759771173,43.3762753188239 19.13825801992789,44.29934020566725 18.613973894302035,44.12401036139636 17.908573434397113,44.35606447504688 17.10308236864512,45.02643879723837 16.99822554353159,45.71227679519143 17.522509669157444,46.47545721471761 17.594002958998317,46.84673123210814 17.53680832713144,47.22315986623653 18.061092452757293,47.64599514844667 17.97530050491332,48.61541294993003 18.251741225714795,49.39403156786648 18.9047132730484,50.048889674726524 19.123959361953894,50.64186625563889 20.387007482757326,50.72436695585566 21.044745749415597,51.229681669618 20.930356485652737,51.69889928098564 21.22586208372377,51.80717983141221 21.902665227709804,51.662805727777595 22.255365457647713,51.78139876282876 22.303027650894364,52.04952142217007 22.627130564913386,52.204207114948076 22.33639118616702,53.30762202699043 22.836844215140445,53.41074404693791 23.604205526295118,53.745889585912664 23.76149076395086,54.07072145717393 24.04746392337256,53.9830685577399 24.628942680865293,54.51929638027286 25.186590341763804,55.813445063267864 25.262849850958446,56.64354405639824 25.262849850958446,57.48394503561212 24.972110472182976,58.00983511015875 23.93784087896347,57.74173477038494 23.017960549448617,57.96343320010055 22.779649583273567,57.82422728951133 22.97506457552663,57.53550305680619 22.222001922375057,57.612840018995485 21.573796094337013,57.28286839829161 21.00184977549361,57.82422728951133 20.320280412212014,58.00983511015875 19.943749085621675,58.43776241918022 19.929450427676784,59.22142989850545 19.409932521375595,59.76277413668868 19.781697628612164,60.09788994806149 19.65300970687531,60.6082940944616 18.547246823756723,60.30411428347361 17.732223319413606,60.64953871515536 16.979160666262032,62.05699716410163 16.61692799764569,63.40256345317175 16.030683020799188,63.340698890671774" stroke="red" stroke-linecap="round" stroke-linejoin="round" stroke-width="0.5"><title>2025-01-18 55.8km</title><desc>13428948464</desc></polyline><polyline fill="none" points="166.73416024137987,73.45151377216825 165.99648005363997,73.172816342023 165.2090177673672,74.03378831013106 166.39926248745178,74.90470161252233 165.34026148173143,76.63653876862736 164.93747904794873,75.70095455566843 162.03654039558023,75.20827424669551 160.60191082803067,73.42165339282656 159.69678176337038,72.88914089231184 159.3347301374597,71.91368563326614 156.8139456922654,69.54963633561056 154.6733154542453,68.71846506284419 154.35652028160985,67.73796733096242 155.51508548442507,67.30495073032944 156.103419376479,65.388691712109 157.37060006707907,64.12940368869022 156.86825343617238,61.411643953473686 157.42490781095694,60.331475737228175 156.53788132753107,59.13679782305553 154.80455916863866,61.54106377311837 152.97167281262227,62.088606187873665 152.59604425076395,62.840224753777875 151.19761984579964,62.770538645745546 150.6816962789453,63.17869902653547 150.43278578613536,64.8859750403717 150.09788803217816,65.0402746483669 150.61833724437747,65.17466431811408 151.74069728460745,66.48370408302071 152.00318471339415,67.39454061875949 152.8223265169363,68.05152919756074 151.86741535368492,69.28585264165304 152.51005698961671,69.53968225423887 152.66845457596355,70.03240737408487 152.29282601410523,70.76402233445333 151.78595373788266,71.28162228856672 150.62286288972246,71.58023569122088 149.95306738183717,72.61044094754834 150.42826014081948,73.26239779475873 150.306067717087,73.8297440056449 150.7314783775073,73.77002359503967 150.91250419043354,74.89474838638125 150.33322158901137,75.71090765310146 149.47787462288397,76.37776156118343 147.01592356688343,77.0545612194328 147.15621857193764,77.5372741340907 146.6674488769786,76.63156229400192 146.4321153201745,76.94507941988195 145.68085819645785,76.83559742808939 145.69896077777958,77.25859496924386 144.69879316125298,77.18892498339846 143.1962789138488,78.52757037476476 142.51290647001588,78.83112536949193 141.95625209523132,78.67188358931162 140.95608447873383,79.13965516132521 139.76583975864924,78.23396659695572 139.8427757291647,77.30338277616465 138.93312101913034,74.70066015881457 137.69309420048376,72.50592814697302 136.1362722092017,71.67977317414625 135.0953737848031,71.58521256913446 133.0,68.68362530630839 133.33942339927307,68.51938047736985 133.8100905129104,68.97727407297862 135.14515588336508,68.47458635797375 135.52531009051017,67.85244248103481 135.26734830706846,67.18052011599138 134.70164264165214,66.66288609303956 133.72410325176315,67.55878841296726 133.40730807909858,66.80722678188249 136.09554140127148,64.25384039769779 140.33607106938143,61.127914946118835 141.57157224271214,61.25235765236721 145.25092189072166,63.60178928076857 146.21940998994978,63.576901698306756 147.60878310428234,64.17917840211885 148.45960442509386,61.889500412238704 149.8716057660058,61.2374245407409 150.8038887026778,60.06765300322513 150.4689909487206,58.818213174508855 150.98038887025905,58.39509041787096 150.86272209187155,57.8226256405469 151.59135098895058,58.0018325716228 151.7542742205842,57.64839618523547 151.22477371775312,56.846934410274116 149.02983573585516,57.69319809173612 147.86674488772405,56.53331612432157 147.12906469998416,56.309302095552994 146.45926919212798,56.87182468273386 146.50452564534498,57.62848421643503 145.6220248072641,57.73799996600064 145.83925578280468,58.00681053457083 141.2230975528364,58.45482556960269 141.0375460945652,59.19653226317678 141.51726449883427,60.18214225149495 141.0828025477822,60.63014163430125 141.31361045929953,60.177164462464134 138.6118002011499,56.926583247179224 138.90144150186097,56.38397352804168 138.5122360040259,55.7318399927899 137.9420046932646,55.60738625171143 136.4259135099128,54.09898712485665 136.69292658398626,53.2626312610264 135.3307073416072,53.461764628998935 136.43949044588953,52.814578853380226 137.82886356019299,52.351587976550945 138.8923902112001,52.137515761445684 139.09151860544807,51.380789470455056 138.7747234327835,51.18662795176351 139.10056989607983,51.00242287400397 136.8739523969416,50.41495438860511 137.62068387531326,49.150384760592715 138.0868253436347,49.00102444595177 137.65236339258263,48.89647201234766 137.43965806235792,46.93483663515508 138.19091518607456,48.05008870028905 138.1094535702432,48.57285622330164 138.53033858531853,48.32391985544382 139.0598390881787,48.55294135052827 139.33590345291304,49.25991543010605 139.7748910493101,49.07072597073784 140.71622527658474,49.68807892440964 140.57593027155963,49.090640677764895 141.51273885351839,49.58352764537267 142.20516258801217,50.46971863437648 143.41803553470527,50.96757320335746 143.84797184044146,52.03794703837775 145.14230640296591,51.664562907964864 146.13342272880254,51.8836152027834 146.76701307410258,52.48102663309328 147.7852832718927,52.03794703837775 148.6134763660957,53.24769623273096 149.2561180020275,53.00375693006936 149.76751592356595,53.49163457924806 150.256285618525,53.05354053888368 150.4689909487206,53.541417797780014 150.84009386523394,53.40202468550342 152.26114649683586,55.44808510002986 152.36071069395985,54.90546249259569 153.72292993633891,54.13881331423181 154.8633925578324,54.13383504194644 154.7230975528073,52.15742948694242 153.9854173650674,49.578549008649134 152.04844116664026,48.154642556331964 151.47820985584985,47.099138418441726 151.39222259470262,45.595511971554515 151.8990948709543,45.55070135411006 152.85853167952155,44.221305017108534 152.87663426081417,44.53996440630726 153.2024807241105,44.15657712916436 153.38350653706584,44.714230569177744 154.71857190749142,42.51346202752393 154.66878980892943,41.95578885208306 155.8409319476923,41.89603785807776 155.61012403620407,41.696867463353556 156.19393228294211,40.86034483867843 157.73265169296064,45.60546988214264 160.2851156553952,46.451886456503416 160.87344954744913,46.15315251016 162.4483741200238,46.32243525590093 163.0186054307851,47.960470969544986 165.17281260478194,50.350232945089374 165.4398256788554,52.85938423931657 164.80623533358448,52.28686854732223 165.58012068388052,54.60676913037969 164.50301709689666,54.064139188260015 162.29902782436693,54.532095565853524 161.66996312441188,54.07409574356279 159.71035869931802,54.4723566497305 159.37546094536083,54.82581106949874 159.6922561180254,55.81149025648847 159.34830707343644,56.080309144042985 159.9502179014671,56.28938969843148 160.927757291327,57.75791189977099 160.23080791151733,57.807691706344485 159.3799865906767,58.61411902737018 159.5745893396088,59.515114975947654 160.47066711366642,60.107475374308706 160.54307743883692,61.13787037176735 160.17197452232358,61.59084055521453 160.6652698625694,62.083628551245056 160.15387194100185,62.83524717722321 160.48876969495905,63.44250858120358 161.43915521289455,63.372823147059535 162.00938652365585,62.99950699362671 162.3985920214618,62.50672624470462 162.82400268188212,62.75062831483956 163.7291317465715,62.48183822466308 163.7789138451335,63.13887861933836 164.35367080121068,63.16874392712998 164.9465303386096,62.695874872038985 164.71119678177638,62.05874036210662 165.56654374790378,62.39721888210261 165.34478712707642,61.814835582266824 166.07341602415545,61.108004090037866 166.3494803888898,61.36186702813575 166.54408313779277,60.70480788473287 167.1550452564843,61.048271483625285 167.43110962118953,62.038829803648696 167.91987931614858,61.62568427900624 168.1506872276368,61.86461214553128 168.06469996648957,61.39671088003888 167.43563526653452,61.31706776133069 167.38585316797253,60.46089780184411 166.7975192759186,60.192097828337864 167.2500838082633,59.51013713359134 166.63007039894,59.00239512325061 166.4671471673064,57.69319809173612 165.45792826014804,58.10139175486984 165.06872276234208,57.32482590312793 164.53017096885014,57.59363825571927 164.4713375796273,57.205353373828984 165.04609453573357,56.707548700458574 165.67515923568862,56.856890520459274 166.95591686223634,56.637855728517025 167.39943010394927,56.29436779831667 168.59872611466562,56.712526766903466 169.5310090513085,56.622921510093875 169.89306067719008,55.22904535079215 171.49061347637326,53.466742955031805 172.72611464970396,49.03089653756979 174.17432115320116,46.65104162366333 176.01625879987841,45.16732030746425 177.2336573918874,44.61962899849095 178.78142809253768,44.2710956543051 180.10291652701562,41.711805265087605 181.26600737514673,44.43042542544208 182.99027824340737,45.122509381519194 183.58313778077718,46.05357420921791 182.83640630240552,47.23356682745725 182.5060341937642,46.994582788378466 182.52413677508594,47.66672305810789 184.91820315120276,48.36872847518316 184.63308749583666,49.00102444595177 185.1218571907666,49.51880533698204 184.5561515253503,50.7086893246269 184.7417029835924,50.46971863437648 183.25276567216497,50.3153829091425 182.5331880657177,50.81323871299901 183.40211196782184,51.10199325402573 183.18940663762623,51.500273180830845 183.21203486426384,51.92344280990437 183.3659068052657,52.660248943844636 184.28461280593183,53.337306348676066 184.2891384512186,53.72561536013745 183.56503519945545,54.04920435231543 183.3613811599207,54.636638531108474 182.63727790815756,54.48231313973156 183.28897083475022,55.26887081707173 182.66895742542692,56.29436779831667 182.14398256791173,56.40886398562725 181.79098223266192,56.015593592022924 181.92222594705527,56.86186857494613 181.22075092190062,56.85191246555769 181.51491786792758,57.538880278028955 181.0849815621914,58.17108308841125 182.06252095208038,58.81323527645145 182.3928930606926,58.4150021414971 182.70968823335716,58.91777105229994 183.48809922896908,58.78834578013266 185.04039557493525,59.03724029550722 185.62872946698917,62.65107656484906 186.5519611130003,62.09358382409846 187.0,62.47188301385904 185.52011397923343,63.03932748994339 185.4341267180862,63.46739621736924 184.96345960444887,63.552014105920534 184.35702313110232,63.46739621736924 184.35249748575734,62.68591969545014 183.981394569244,62.65605415612299 183.49262487431406,63.28322747430502 183.931612470682,63.03932748994339 183.80036875628866,63.98007930971653 181.99011062688078,64.9905006230365 181.80003352329368,65.43348805035203 181.26600737514673,64.96063618873814 181.66426416361355,63.930304437180894 180.83154542409466,63.36784561307286 180.64599396582344,62.76556106361022 179.16610794502776,62.82529202289879 178.3243379148771,62.083628551245056 176.69057995307958,62.09358382409846 176.0434126718319,62.695874872038985 175.20164264165214,62.67098692757645 174.1154877640074,61.501242318801815 174.3100905129104,60.77449630436604 173.15605095541105,61.207558306756255 173.09269192090142,61.73519299828695 172.20566543750465,61.67048332380364 171.9567549446947,62.87009020478217 172.41837076770025,63.59681176507729 173.44569225612213,63.52214898191232 172.42289641301613,65.0402746483669 171.37747234330163,65.27918941635289 171.2914850821544,65.67240131023573 169.73918873618823,66.4687722255876 169.04676500169444,65.31403107680308 169.21873952398892,64.19908827634936 169.52648340599262,64.34841213027903 169.81159906138782,63.98007930971653 170.09671471672482,63.32802532680944 170.01977874623844,63.05923772854294 168.97888032183982,62.35242036008276 168.11448206505156,62.72076280654801 168.39507207510178,62.00896395400923 167.94250754275708,61.62568427900624 167.4401609118504,62.01394159661868 167.91987931614858,61.63066195223655 168.4131746563944,62.01394159661868 168.04659738519695,62.55650225495265 168.36339255786152,62.87506777855015 167.63928930609836,63.3230477892248 167.6800201139995,63.73120454923628 167.0147502514301,63.72622704387322 166.96044250755222,65.18461909693724 166.54860878310865,65.49321645121745 166.3721086154983,65.09004863392329 166.0824673147872,65.65746925832354 165.48055648675654,65.77692557328919 165.41267180693103,67.215360713064 165.11397921555908,67.04613477337989 165.11397921555908,67.78276197996092 165.7973516594211,67.73299014575605 165.42624874290777,68.92750319297193 167.77958431112347,66.73754511178413 168.44485417366377,66.797272262349 169.06939322830294,67.55381121343453 168.06469996648957,68.57910591979817 167.9651357693947,69.67406221877536 167.02380154209095,70.03240737408487 166.4897753939149,70.77895316257491 166.21371102918056,71.5951663238011 166.25444183708169,73.35197911873547 166.73868588669575,73.4266301237185" stroke="red" stroke-linecap="round" stroke-linejoin="round" stroke-width="0.5"><title>2024-11-23 102.2km</title><desc>12969619653</desc></polyline><polyline fill="none" points="13.415191053121816,137.72274929892956 13.549394221816328,137.25739397331927 13.696178937563673,137.54938204330392 14.056849953398341,137.54938204330392 13.52423112768156,138.97736607787374 13.7255358807015,140.00385153523894 14.551724137927522,139.88979844790083 14.274930102517828,140.3460095187802 14.358807082942803,140.9253926646852 16.44315004660166,141.5047703123164 16.602516309416387,141.79217608164254 17.655172413782566,142.12063816147202 18.45619757687382,141.84235790265302 19.487884436166496,140.63798281500203 19.44175209692912,140.35057161226723 20.08760484623781,140.27301597653786 20.217614165885607,139.72099948758114 20.55312208761461,139.78943155477464 20.683131407262408,139.40164882635872 20.972506989754038,139.35602716695212 20.909599254417117,138.9180575017599 20.322460391413188,138.94543069789142 20.217614165885607,138.5530803803158 19.936626281458302,138.6853848389983 19.873718546135933,139.10966961694066 19.546598322456703,139.01386363454003 19.0055917987047,138.56220483493598 19.060111835977295,138.15160302610093 18.565237651433563,138.1744143101605 18.32618825721147,138.56220483493598 18.112301957124146,138.51202031758294 18.481360671008588,137.85505555744749 19.20270270270703,137.75012303111362 19.387232059641974,137.50375899944993 19.747903075476643,137.53113282986305 20.112767940358026,137.87786695234172 21.106710158433998,137.88699150791217 21.861602982273325,137.72731158849274 22.36067101584922,137.19808372590705 22.088070829442586,136.2856111166002 21.689655172420316,136.04836600345516 21.555452003725804,135.6149350496271 21.73998136066075,135.17237605716218 21.232525629078737,134.16405956123344 20.48602050326008,133.60286261950387 19.99953401676612,133.74886557265927 19.877912395138992,133.62111300775723 19.689189189186436,133.15116377066443 19.982758620695677,132.1519392838818 19.643056849949062,130.95649853167924 21.681267474370543,130.65535327395992 23.165890027958085,130.93368454905794 23.924976700844127,130.61428789635102 24.315004659831175,129.21348568079702 23.56849953402707,129.28649245415 23.96272134204628,128.72525063754802 23.97949673810217,128.29633064537484 23.81174277725222,128.081869518006 23.388164026109735,128.2278856866651 23.367194780992577,127.95410508363057 22.863932898413623,127.92672695573128 22.545200372784166,127.57537322319331 22.922646784732933,127.10537740273867 22.49906803354679,127.16926054251962 22.28937558249163,126.95023235606277 22.390027958987048,126.60343611845383 22.13420316867996,126.08323806368935 22.59133271202154,125.83682690973365 22.146784715747344,125.503713951799 22.4277726001892,124.49067432053926 22.78424976700626,124.42222508968553 23.21621621621307,123.74685522490472 24.013047530286713,124.39940866230245 24.478564771663514,124.34008591118618 24.319198508863337,123.9567682815541 24.675675675680395,123.63733508230871 24.210158434289042,122.62426443490403 23.90820130474458,122.43716395986121 25.237651444549556,120.34707570558749 25.673811742773978,120.49767398047697 25.97157502331538,120.36076647322989 25.921248835045844,119.80856973857954 26.20643056850531,119.81769699800134 26.70130475301994,118.88670949455627 26.99487418452918,118.72241610560377 27.363932898413623,118.97341971568312 28.24044734389463,118.98711079195346 28.227865796827246,118.69503383104166 28.79822926374618,118.46684773116067 29.09179869525542,117.80053942852828 30.152842497671372,118.58094088792132 30.945479962712852,118.44402907416952 31.280987884441856,117.77315673965495 30.932898415645468,117.18442595222223 31.863932898428175,116.80562716641725 32.25815470643283,116.96992572419549 32.8410997204046,116.1438645998096 33.24370922645903,116.0617142623596 34.08247903075244,114.27263498980028 34.58574091331684,113.45110139167446 34.83737185460632,113.40546031129998 34.75349487418134,112.69345502857686 35.03028890960559,112.3693985856844 35.14771668220055,111.36526907990628 36.15424044734391,110.7217046441001 36.175209692446515,110.34742999998343 36.867194780978025,109.90012313909028 36.92590866728278,109.40716891449483 36.61136999068549,109.3843468629857 36.70363466916024,108.850308415178 37.752096924508805,108.50797361280274 37.69338303820405,107.96936295992418 38.670549860195024,107.2801169528284 39.291239515383495,106.2119984500714 39.73159366262553,105.97007157023836 39.76095060577791,104.84258833254353 40.55358807083394,104.2537325080084 41.333643988808035,104.0665755875234 41.84529356943676,103.47314739931244 43.002795899345074,103.54162017792987 43.52283317800902,102.83862931881959 44.73485554518993,102.56016965482559 45.15424044734391,101.79782274275567 45.88816402609518,101.37327810575516 46.357875116489595,100.18636340090598 46.81919850886334,100.65200193014243 47.12115563839325,101.63804822703241 48.08154706429923,101.45088326067344 48.89515377445787,100.81177903550633 49.209692451084265,100.96242563622218 48.50512581545627,100.3780973445937 48.88257222739048,100.00375908316346 48.89934762347548,99.38746546375842 49.2977632805123,98.89899127022727 49.71714818265173,98.793991632283 49.410997204104206,98.02703225742152 50.03168685926357,97.4472410726994 49.53261882573133,97.03636208348325 50.34622553587542,96.94505526444118 50.54333643987775,97.45180637920566 50.97530288908456,97.42441453500942 51.53308480893611,97.02723140775561 51.32339235788095,96.50678062474617 52.08247903075244,96.16894176746428 52.35507921714452,95.79914302877296 52.80801491146849,96.11872231762754 53.63000931966235,95.96349830137842 53.718080149104935,96.18720337529885 54.35135135134624,96.18263797385225 55.01397949672537,98.11833745205513 55.72693383037404,98.58855703376321 56.58667287977005,98.57942659105538 56.8844361602969,98.26442547836996 57.90354147250764,98.42420885535103 58.05871388629021,99.04964260808993 58.905871388633386,99.80289370051105 58.9310344827536,100.22288419867982 59.48042870455538,100.70221763704467 59.18685927306069,101.55587831270896 59.74883504192985,102.24062420778137 59.685927306622034,102.81123990018023 60.09692451071169,103.2768583402576 61.07828518173483,103.62835225355957 61.459925442686654,104.62804462218264 62.14352283318294,104.65543322306621 61.95479962720128,105.57750892653348 62.399347623460926,106.66389702724337 62.88583410998399,106.91038574610502 63.041006523766555,108.34365222387714 63.665890027958085,108.38929709863078 64.16495806150488,108.5673117831393 64.44594594593218,108.42581297378638 64.38723205964197,108.10629832345512 64.67241379308689,108.27518484757456 64.85274930101878,108.05152421501043 65.0288909599185,108.39386158421985 65.50698974836268,108.48058674545973 65.61183597390482,108.91877514464431 65.97250698975404,108.91877514464431 65.65377446411003,109.74493427664129 66.06896551723185,109.93207373815312 66.61835973904817,110.61672540290238 66.46318732525106,112.29637154358352 66.95806150978024,113.20920327591375 67.0,114.28632712255421 66.8154706430505,115.01656974311845 66.3667287977587,114.95723785695372 65.737651444535,115.2265128762192 65.4398881640227,115.71941999718183 63.92171481826517,116.65958363195023 63.69944082011352,117.31221296313015 63.28424976700626,117.28939387369246 62.95293569430942,117.94201645828434 62.34902143522049,118.71785239403835 61.26700838768738,119.30200469704141 60.11369990679668,120.56156404525973 59.174277725993306,119.48455114329408 58.64165890029108,119.28831369152977 58.48648648649396,118.56724972038865 57.911929170557414,118.38926426251783 58.184529356934945,117.67731723169345 57.81127679401834,116.8923403493427 57.89934762349003,115.36799588388385 57.69804287047009,113.89838216933276 57.47996272133605,113.54238344981786 56.39375582479988,113.98966355710581 56.22180801490322,114.84313791344539 55.40820130474458,116.1164811662893 54.535880708281184,116.44051767380734 53.4454799626983,116.19406752926807 52.91705498601368,116.30360104993088 52.29217148182215,116.0297668789899 51.75535880708776,116.16668411832507 51.22693383037404,115.63726908731769 50.93336439887935,115.6098854260963 50.67334575955465,115.63270514464239 50.040074557298794,116.30360104993088 49.19291705498472,116.39944271895001 48.23671947809635,116.14842850419882 47.536346691529616,115.70116424901062 47.179869524698006,116.0571503514766 46.911463187323534,116.92885112629665 45.77912395154999,117.23006420117235 45.171015843428904,117.10227701794793 44.91938490213943,116.16668411832507 44.87325256290205,117.23462802418726 45.25069897483627,117.54040338739287 45.301025163105805,117.91007006092332 44.248369058725075,118.87301839572683 43.493476234856644,121.19133395695826 43.53960857409402,121.42407336435281 44.420316868578084,121.57923247553117 44.32385834110028,122.26375325063418 44.51258154705283,122.40521991892092 43.97576887231844,122.45541769002375 44.147716682186,122.20899187153918 43.60251630941639,121.85760518490497 43.858341099723475,123.1581821448599 43.434762348551885,125.85507962196061 43.71575023299374,127.6073145552582 43.32152842495998,128.79369503804992 42.86020503261534,129.1541676131019 42.75955265609082,129.56026707586352 42.03821062442148,129.72453125900938 41.54333643987775,129.46444609805258 41.17427772600786,129.5830815721929 40.98136067100859,130.26751249406152 41.39235787511279,130.3177037927344 40.671015843428904,130.705544253502 40.75908667287149,131.5085943094782 39.555452003725804,132.04699694973897 39.66029822928249,132.4530771535101 38.2511649580556,133.023409954214 38.179869524683454,132.83634138318666 37.60111835974385,132.90934382060368 37.32013047528744,132.6720855795793 37.3410997204046,130.93824734626833 36.90913327121234,130.03480684235547 36.22134203168389,130.74204675813235 35.910997204089654,131.4766550204913 35.11416589003056,131.677415987735 34.52283317799447,131.49034328924972 33.81407269339252,131.65003953110863 33.69245107176539,131.8644881125474 33.00465983223694,132.23406794120456 32.28751164958521,132.39376223614454 31.767474370921263,132.0287460905929 31.708760484631057,131.33520939680966 31.016775396084995,130.98387529957472 30.425442684063455,131.26676784826122 29.712488350414787,130.8880565582076 28.810810810799012,130.96562412234198 28.525629077354097,131.5405335817377 28.680801491151215,132.04243423546723 27.791705498602823,132.77246417878632 26.96132339235919,133.91311847733232 27.12488350419153,134.60662586679973 26.592264678460197,135.5647481087326 25.866728797744145,135.72443368648237 25.497670083859703,135.34118759788544 24.692451071779942,135.33206266167326 24.411463187323534,135.92974310100544 23.80754892824916,136.37685899146527 23.11136999068549,136.34948464333138 22.612301957124146,136.13505182480003 22.469711090394412,136.40423332732098 22.079683131392812,136.35860942741056 22.310344827594236,137.06121370421533 23.035880708281184,137.00190326616212 22.88490214353078,137.39882586915337 23.274930102503276,137.95998790337399 23.01491146319313,138.4025266819408 23.21202236719546,138.92261970197796 22.94780987885315,138.98649046908758 22.7255358807015,140.1315907400931 22.415191053121816,140.4828721752492 22.473904939426575,141.05312994134147 22.155172413797118,141.1808669507518 21.90773532152525,140.9846992906605 21.63513513513317,141.317727735699 22.4655172413768,142.0111509978633 23.094594594585942,142.0932663889689 23.098788443618105,142.5494609953239 22.805219012108864,142.7456236281796 22.268406337374472,142.60876604381338 22.150978564764955,143.47096370450527 21.911929170542862,143.6534378390461 21.60158434296318,143.6990562874853 21.66868592730316,143.22462275795624 21.358341099723475,142.9919665070738 21.266076421234175,142.15713383903858 20.25955265610537,142.39891715202248 19.93243243244069,142.19819145024667 19.164958061504876,142.7456236281796 18.800093196638045,142.4673462177161 18.51910531221074,143.311298389508 18.02842497669917,142.80036657604433 17.512581547052832,143.21093712068978 16.81640260950371,143.07408057919747 16.002795899345074,143.7264273401961 15.721808014903218,143.57588639848836 15.00046598323388,143.8267877618273 14.81174277725222,143.6534378390461 14.371388630010188,144.20085697123068 13.595526561053703,144.0366317468215 14.161696178940474,144.05487901578454 13.94780987885315,143.54851527831124 14.253960857415223,143.3751645656048 13.612301957124146,142.88704280978345 13.26421248834231,143.06039490818148 13.293569431494689,142.6178898923099 14.05265610438073,142.11607620024733 14.459459459467325,142.45822234671869 14.513979496739921,142.32592606408798 14.065237651462667,141.89253968239427 13.289375582477078,141.96096931558714 13.0,141.65531636021842 13.058713886304758,141.38159599701976 13.608108108106535,141.24473535524157 15.184995340168825,142.03852280716455 15.784715750240139,142.08414246208122 16.392823858346674,141.59144838523207 14.367194780992577,140.87064803571775 14.270736253500218,140.29126437028026 14.585274930097512,139.88067419171057 14.400745573162567,139.76662087423392 13.7255358807015,139.98560305559295 13.52842497669917,138.94086849939777 14.061043802430504,137.52657052563518 13.704566635613446,137.51744591618626 13.55358807083394,137.2391446725669 13.390027958987048,137.70906242823548" stroke="red" stroke-linecap="round" stroke-linejoin="round" stroke-width="0.5"><title>2024-01-20 69.3km</title><desc>10651287744</desc></polyline><polyline fill="none" points="140.78943225427065,131.35718146933505 140.23683951591374,131.514987736271 139.32824953264208,131.37471551581984 138.9881924628571,130.7142635262644 137.34104103120626,129.92522013805137 136.06582701959996,129.70311749952089 136.07645380301983,128.83223485093913 135.52917445637286,128.93159782536532 134.9553281511471,129.71480712889752 134.34960149563267,129.28813444478146 133.770441798697,129.29397929291008 133.0,128.75625130874687 133.56321952180588,127.89120233473659 134.55151038081385,127.20733880242915 135.54511463150266,125.21416156250052 136.04457345270202,125.3836714200952 136.35806356390822,125.17324533106876 136.87877595197642,124.75239133452851 137.25602676376002,123.99250992172892 138.24963101447793,123.59503034146474 138.61625504281255,123.88729494922154 138.74377644396736,123.27938325160358 139.21666830658796,124.13279631598562 139.72144051952637,123.93990245440364 139.98711010528496,124.3666063743658 140.42812161761685,124.34907064595609 140.80537242940045,124.64717745655071 140.64597067795694,123.95159300598607 141.3313982091786,124.53611819872458 141.75115615469986,124.51273728082015 142.0115123487194,125.06803205925098 142.57473187052528,125.5648711777103 143.6161566466617,125.94480469419796 143.99872085015522,126.17276385561127 144.3281511364621,126.5760744756335 144.48755288793473,127.40022403657349 146.00186952672084,126.97353783589642 146.5172685230791,127.22487384476699 147.16550231233123,127.21902883111761 147.40460493951105,127.80352788062737 147.70746826723916,127.93211704397982 147.98907802815665,127.93211704397982 148.52573059138376,127.49374396679195 149.1155170717393,127.42944902762247 149.59903571780887,128.52245529869106 150.11974810587708,128.84392461965763 150.55544622649904,128.84392461965763 150.83705598741653,128.55752474789188 151.46934960148064,129.12447850762692 152.0272557315766,128.62181869438064 152.2504181835975,129.17708224168018 152.79769753024448,129.1537028089806 153.2759027846041,128.96082220388053 153.61064646267914,129.11278878377925 153.45655810291646,129.2179962308728 153.55219915381167,129.65635896327876 153.96133031585487,129.49854868256807 154.75833907310152,129.72065194288007 154.816786381969,129.55699697441742 154.8964872577053,129.8083240966589 155.24717111091013,129.86677214071824 155.65630227295333,129.53946249177534 155.70412279840093,129.83754812451662 156.03355308473692,129.65051414413028 155.95916560071055,130.22330419717036 156.16638787760166,129.87261694254994 157.40440814718022,129.87846174392325 158.19079012103612,130.80777921497065 159.3225425563578,131.12923848215723 159.9229558201332,131.91826887030766 160.68808422712027,132.01178301830805 161.06002164716483,132.5144195138564 161.86765718786046,132.01178301830805 163.0419167568616,132.1462093964583 163.40854078519624,132.38583841381478 163.4510479189339,132.66637870405975 163.80704516381957,132.89431689699268 163.87080586442607,133.5547491857651 164.40214503591415,133.8177515331481 164.55623339567683,134.09828632723656 164.23211650102166,134.00477484884323 163.95050674013328,134.2560866757558 163.72734428811236,134.13335310079128 163.12161763259792,134.7236412638522 162.93564892257564,134.6593526853394 162.7709337793931,135.1093715475945 162.9781560562842,136.14966428682237 163.19069172488526,136.12044278275425 163.07911049888935,136.25486160477885 163.42979435206507,136.76331317413133 163.91331299816375,136.57045265032502 163.80173177210963,136.88604233344813 164.00364065731992,136.81591141049284 163.92925317326444,137.42371050777 164.1258486667357,137.66916640310956 164.09928170815692,138.06656943887356 163.66358358753496,138.5340996565792 164.26399685133947,139.1827928818384 164.10459509986686,139.64447194195236 163.67952376266476,140.05355221760692 163.98770048216102,140.21133971230302 164.25868345960043,140.94183293592505 164.44996556136175,140.74313950161013 164.86972350685392,140.62626075863227 165.18852700974094,140.67301227825374 165.20446718489984,140.28731134757254 165.86332775757182,140.23471560847247 165.88458132441156,139.8957643824251 166.29371248651296,139.66784801936592 166.63908294794965,139.93667237239424 167.2448096034932,139.94836036530614 167.85584965068847,139.6386279214421 168.03119157729088,140.1353679981039 167.89835678442614,140.38665875151491 168.08963888615835,140.486006020481 168.3340549050772,140.3340630838793 168.6156646659365,140.43925438130827 168.88133425172418,140.05355221760692 169.25858506347868,139.94836036530614 169.01416904458893,139.14772853032628 170.0024599035969,139.54512352962047 169.7527304929681,138.8555249470228 170.45409819937777,138.50487910557422 170.59224638395244,138.03150455202558 170.92699006199837,138.33539967935212 171.10764538031071,137.6457896866923 170.59224638395244,136.9737058925457 170.1459214798815,136.967861658537 169.4179868149222,135.60029805579688 169.47112073207973,134.72948567727872 169.23733149660984,134.38466448563122 169.43924038179102,132.77742560480692 169.39141985634342,133.00536345138244 169.61989570010337,132.84171583863645 170.1299813047226,133.0228971024626 170.70382760994835,132.53779787138046 171.70805864411523,132.75404732393508 172.1278165895783,132.36830460992496 173.27550920005888,132.59039914846653 173.58368591952603,132.85924952896312 174.7260651382676,132.683912436456 175.17239004230942,132.01178301830805 174.9651677654474,131.5208324062769 175.0926891666022,131.1058596740404 175.47525337006664,130.91882893985894 175.91626488242764,130.1180981974976 176.94174948343425,129.08940933053236 178.40824559677276,124.29061818748596 178.40824559677276,123.81715154999983 179.5187444652256,122.36166081596457 179.57187838238315,121.87649079236871 180.11915772903012,121.01136034310912 181.20840303061414,119.97085203819006 181.69723506839364,119.80717522499617 182.25514119846048,119.2869143467251 183.70038374495925,118.62050735748198 184.78962904654327,118.66142726015823 185.5175637115026,118.23469000491605 185.8044868641009,117.87809942683089 185.9266948735749,116.97784661256446 186.51648135393043,116.43418206960632 186.6865098888229,115.557295243525 187.0,115.38191661442397 186.9521794745815,115.06623402024707 186.5271081373794,115.27668923471356 185.45911640263512,116.6680167777813 184.99153793172445,116.93107992929436 184.34330414250144,116.79662554804963 184.178588999348,116.55109951730992 182.9033749876835,115.99573997312837 181.6122208009474,117.10060901359248 180.95867361998535,116.84923816149967 180.50703532423358,116.94861743901856 180.26793269705377,117.49227815134509 179.77910065924516,117.24675445997127 178.73767588310875,117.21167957953003 177.85033946670592,116.63878748020943 177.54216274723876,116.3114185480008 177.45714847976342,115.49883574731939 176.8886155662767,115.20653756396496 177.3296270786377,114.47578698526195 177.28711994490004,114.0081027759079 177.71219128210214,113.55795389442937 178.2594706287491,113.21303274315869 178.35511167961522,113.39426270381227 177.77595198267954,114.07240953238215 178.18508314475184,114.19517681922298 178.11069566072547,114.68624390193145 178.7748696251365,114.54009332974238 179.3274623634934,114.88500821054913 179.79504083440406,114.14840835335053 180.3051264390524,113.96718026503368 179.9438158024277,113.88533517444739 180.241365738475,113.82102825319453 180.51234871594352,113.19549433597422 181.17652268032543,112.92072540681693 181.73442881039227,112.27179893617722 182.03197874643956,112.24841409079818 181.87789038670599,111.85671681688109 181.3465512151888,111.69886806746945 181.00118075372302,111.45917116555938 180.73551116796443,111.01485287506512 179.87474171014037,110.81607802725921 179.52405785693554,110.17297922213766 180.21479877989623,110.23728935766121 180.74082455967437,109.99758765538718 180.81521204370074,109.78127080918784 181.5006395749515,109.67018893628847 181.42093869921518,110.24898210349056 182.45173669190262,110.4302194242191 182.3986027747742,110.073590719403 182.78116697826772,109.61172472474573 182.3826625996153,109.08554471306707 182.56331791792763,108.38396546223521 182.03197874643956,107.90454909462278 182.3986027747742,107.85777659742598 182.64301879366394,107.60052732694749 183.0149562137376,107.65314656969713 182.77585358652868,107.09187269074027 183.28593919120613,106.68260776541138 183.39752041720203,105.73544299099012 182.98838925512973,105.80560376634821 182.23388763162075,105.36125104962412 181.88851717012585,105.41971866698441 182.4145429499331,104.74733823844872 182.27639476532931,104.47838433186553 182.4783036505105,103.95216729891399 182.96713568829,103.64228215920593 183.0308963888674,103.35578340608481 181.87257699499605,102.57229127373284 181.89914395357482,101.84726120641426 181.3784315654775,101.44381393508957 181.28810390635044,101.00528176119406 180.81521204370074,100.73631405664491 180.19885860476643,100.71292551374063 179.9756961527164,99.9410993895217 179.82692118469276,99.62534998440242 179.4868641149369,99.5551832643032 179.28495522978483,99.74814158217487 177.95129390928196,99.05816706407495 177.37744760408532,102.01097830316576 177.9566073009919,102.74770069122314 177.82908589983708,103.23299788172153 177.06927088458906,103.60135383479792 176.78766112370067,104.26205112223397 175.69841582211666,105.27354953574104 174.5400964282162,107.10356594058248 173.91311620586202,107.27896446345403 172.68572271967423,106.95740018278593 172.712289678253,107.92793533196527 170.62412673424114,107.68822604377783 169.76867066812702,107.37251016989467 169.433926990052,107.55960122303077 168.3181147299183,107.61806707874348 167.9408639181347,107.91624221422535 167.4839122306439,107.4835955405506 167.50516579751275,107.21465172068565 167.31388369575143,107.36666356676142 167.4520318803552,107.89870253411209 167.2448096034932,107.99224744602543 167.4998524058028,108.38981198387046 166.9791400177055,108.8516857122595 166.32027944503352,108.83414625698788 166.12368395162048,108.23780226930103 165.72517957296805,108.04486640630057 165.4807635540783,108.19687652280845 165.1194529174536,108.08579223805282 165.1353930926125,108.52428185203462 164.35432451046654,108.6879839657704 162.3299222670321,108.34303979772085 159.7635540686897,108.50089580579515 159.55633179179858,108.88676461016439 159.8751352946856,110.02681961245253 159.50851126638008,110.88623391771398 159.1312604545965,111.10839379258687 158.82308373510023,111.65209800207958 159.43943717406364,112.84472530762287 158.8018301682605,114.5517853862766 158.14828298732755,115.53975739958696 157.76040539212408,115.3936085361347 157.2290662206069,115.5748330832721 157.30345370460418,116.18865481996181 156.62333956509246,117.03045909540378 156.30453606220544,118.38667890232318 156.11325396047323,118.18207838979288 155.70943619008176,118.85433506386471 155.5128406966396,118.16454117633839 155.1302764931752,118.57958743188647 155.1143363180454,118.21130706954864 154.97087474170257,118.49774751190853 154.32264095247956,118.83679801187827 154.3757748696371,119.26353174832184 153.92413657385623,119.82471204394824 153.42467775262776,119.81302083179617 152.63829577880097,118.93032890721952 152.02194233986665,118.8894091552429 151.06553183114738,118.28145585320453 150.4066712584754,118.51528464532021 149.8221981698298,118.28145585320453 148.6426252090896,118.28145585320453 147.7606021843967,118.74911268865253 147.0061005608586,118.25807293280377 146.958280035411,118.73742130427127 146.52258191478904,119.42136414235574 146.59696939881542,119.69026299096731 146.36849355505547,119.61426993848727 146.43225425563287,119.96500644404296 146.16127127816435,120.00008000193338 145.9009150841448,120.39757914753136 145.06139919313136,120.68985655068536 143.57896290466306,120.85353138551727 142.5162845616287,121.70112734024588 141.3632785594964,121.69528188458207 140.70973137853434,121.35624465600267 140.311226999911,121.6368273022963 139.27511561545543,121.67774551481125 139.15290760603966,122.77083784869319 138.8128505362547,122.42596021576901 138.85535766999237,122.09277180343634 138.0105283872981,121.81219090881496 137.48450260751997,121.08735194178007 136.46964478993323,121.16334346138319 136.1508412870462,121.81803635512188 136.4802715733531,122.14538060117775 137.03817770341993,121.91740887061314 137.05411787857884,122.44349640591099 137.10725179576548,122.81175542588608 137.28790711404872,123.69440043931536 137.7554855849885,123.84053269055585 137.27728033059975,123.97497410349752 136.91065630226512,124.69978441450075 136.09239397814963,125.3252197894908 135.5663681983715,125.1907808616379 134.58339073110255,127.18980375587853 133.6163534389343,127.84444263897603 133.07438748402637,128.75625130874687 133.81294893240556,129.25891019718256 134.38148184589227,129.23553079067642 134.96064154285705,129.65635896327876 135.5504280232417,128.8848387954058 136.0870805864397,128.77378597935603 136.23585555446334,129.70896231443476 137.33572763949633,129.89599614522012 137.79267932695802,130.26421760057565 139.00944602972595,130.68503984898416 139.32824953264208,131.35133678623242 140.26871986620245,131.4857643792202 140.91695365542546,131.25197710206703 141.18262324118405,131.39224955809186" stroke="red" stroke-linecap="round" stroke-linejoin="round" stroke-width="0.5"><title>2023-12-24 53.3km</title><desc>10522272900</desc></polyline><polyline fill="none" points="62.72790350818832,174.2608981091107 63.802931068014004,174.59009605606843 64.32118539651856,175.03659115044866 64.47175928927027,175.74416464877868 64.05855651383172,176.08092090765422 65.93547759548528,177.11009530304 66.05803774073138,177.8554775067896 66.45723364241712,178.06357726427086 66.45373192400439,178.53274462728587 66.78989689383889,178.71435668449703 67.0,179.44079868733024 66.00201024576381,179.1418992776962 64.92348096751084,179.48998450454746 64.31068024120759,179.444582213353 63.57531936968735,179.02082561920906 63.09208222551388,178.38896797375128 62.3217041696189,178.86191602252802 61.80695155955618,180.0234585116159 61.050580377399456,179.2289207988215 60.448284806421725,179.4483657391138 60.28720575835905,180.08777770990127 59.68491018741042,179.37647870360524 59.579858634315315,178.725707417394 59.27170741195732,178.5932820488706 59.45379677064193,178.3019450728316 57.864016600724426,177.68521346074704 57.601387718023034,177.77223737488384 57.629401465528645,178.03709188599532 57.06212307889655,178.13168246188434 56.753971856538556,177.74196820357975 56.01861098501831,177.51116520355572 55.67894429672742,177.8441265874244 55.339277608451084,177.7306172598801 55.013617793913,178.27545981373987 54.69846313467133,178.2981614652017 54.83853187211207,178.842998181648 54.467349717902835,179.39917988325396 54.029634913415066,179.508902114394 53.844043836332276,179.87590240877398 53.5463977692707,179.81536645282176 52.632449257493136,180.37910486550027 52.54490629660722,180.82555116456206 51.26327734904771,180.9352704418925 51.00765190324455,180.083994229808 50.391349458514014,180.14831335459166 50.18824978923658,180.51909266919392 49.42137345178344,180.7725831562675 49.36534595680132,181.15470831498533 48.174761688613216,181.31739442740218 47.9051293690427,181.93408376034859 47.162765060624224,182.3426837828265 47.10323584721482,182.68318139508847 47.34485441929428,182.82316311225804 47.09623241034569,183.05772624192105 46.35736982036906,183.05015970555905 46.000194539898075,182.22161743793185 45.50645224044274,182.08920080652388 45.57998832760495,181.5708810955257 44.85863432980841,181.73734929257625 43.8991634783597,181.34766155600664 42.06426301796455,181.74869937787298 41.50398806821613,182.3843002750109 39.80565462679078,181.21524274074181 38.52752739768766,180.98823828756576 36.451008365198504,181.26064351468085 35.77517670708767,181.04877290350123 35.5510667271883,181.54439747050856 34.82971272940631,181.98705060765133 33.56909409246873,181.11309085715766 33.344984112569364,180.0007575994714 32.70416963880416,179.4370151610383 30.7502107515611,178.85056531880764 29.822255366045283,178.74840887590835 28.656183126891847,179.69429433342884 28.376045652024914,180.71204822479558 27.479605732441996,181.46116313428138 27.003372025166755,181.33631138480268 26.565657220664434,181.52169720996244 25.987873678750475,180.9125699203978 26.28201802735566,182.24810072450782 25.585176058622892,183.0047604646752 25.644705272032297,183.2468893000114 25.20699046754453,183.29607158452927 25.333052331232466,183.47010084021167 24.786784255236853,183.89003864769984 23.599701705476036,186.20531169050446 22.626223980274517,187.0602725784447 22.416120874142507,187.62771688410066 20.976914596976712,187.9530488806522 19.77232345502125,188.11949703732535 20.02094546398439,189.07278096157825 20.658258219307754,189.56833051847934 20.16101420141058,190.02604775166765 20.21353997795086,190.96794930059332 19.8493612606253,191.46348115263754 20.04545749303361,191.83039870177163 19.72680111536465,191.97035627356672 19.740807989088353,192.48857433850208 18.03897282926482,192.69661666329193 17.905907528693206,193.04083035475924 17.53472537448397,192.91222330275923 17.349134297386627,193.43421469648456 16.64178717334289,193.70277348541276 16.309123921921127,194.48952943825134 16.771350755472668,195.12119524716763 16.848388561047614,196.0062712185645 17.37014460800856,196.5320144877769 17.748330199086922,196.22942906961543 17.53822709292581,196.5395791011324 16.995460735372035,196.28616396690995 16.778354192327242,195.1514544984202 16.3336359509849,194.648392205625 16.491213280591182,193.43799722406766 15.99396926270856,192.63609534384887 16.28461189288646,192.17083539535088 16.49471499903302,191.28569544808124 16.711821542063262,190.25679626425335 16.27760845598823,189.72342523001498 16.071007068283507,188.68693000882195 15.139549964325852,188.16489189847198 16.771350755472668,187.900087993974 17.335127423648373,188.05140467274396 17.188055249338504,187.12836621575116 18.273587964460603,186.48525615410472 18.40665326503222,184.9947240199872 18.028467673953855,184.59371075881427 18.23857078011497,184.211610395123 18.028467673953855,184.09811470703426 18.045976266119396,182.7777636769315 16.221580961035215,181.4876468008988 15.958952078333823,181.52169720996244 15.87491083588975,181.19632574011848 15.787367874974734,179.78509844891232 16.911419492898858,180.05372637935943 17.209065559945884,179.74347991530158 17.226574152125977,179.4370151610383 16.63828545490105,178.99812427744837 16.323130795673933,179.41431399760768 15.538745866011595,179.3689116415626 15.377666817978024,179.04731050564442 13.686336813436355,178.60084922170427 13.0,177.80250652889663 13.707347124058288,177.17820172663778 15.31113416768494,176.79226416829624 15.594773361008265,177.39765516248008 15.454704623567523,177.86682842373193 16.028986447054194,178.68787163159868 16.18306205823319,178.54409539910193 15.668309448141372,177.6587278932857 16.52272874652408,177.34090005071994 18.245574216969544,174.86253418853812 18.742818234866718,173.90899459207867 19.50969457233441,174.09062250582792 20.86135788858519,173.72736605526006 21.02944037350244,173.94304987336727 21.41813111989177,173.90521067057853 22.619220543419942,173.32248353266186 23.676739511050982,173.45870603543153 24.254523052979494,173.78790897009821 24.83931003177713,171.82022879671422 26.029894299965235,169.4816214648963 26.75124829777633,169.0388637822398 27.0804098307417,169.13725469852216 27.448090266509098,168.93668840630562 28.281499254269875,168.149552969855 28.757732961545116,168.07765059150915 29.069385902344948,167.2905023753592 29.696193502371898,167.12398875201325 29.66817975488084,166.4541445633622 29.965825821927865,166.0378529410409 30.94630698398396,165.65183414572675 31.54159911807801,165.58749740597705 31.898774398534442,165.93567176936267 33.8842487516813,164.75111266792373 34.770183515996905,164.76625097074066 35.7961870177096,165.3415032676494 35.7961870177096,166.00757705889555 37.71162700213608,167.66137174387404 38.212372738475096,168.37661247051437 38.292912262506434,169.1259019098361 37.51903248815506,169.04643232075978 37.38246546915616,169.60271693808681 37.014785033403314,169.43242634976195 36.94475066468294,168.90262990382325 36.1918812009535,168.87613994228013 31.40153038063727,173.58736029954525 31.90577783541812,173.61006396076118 32.37850982425152,173.18626067939476 33.06484663770243,173.17112478517447 33.264444588538026,173.38681086932047 33.14188444329193,173.9619694646135 33.69165423772938,174.39333431084742 34.32196355619817,176.09605597012342 34.32196355619817,176.68253630982508 33.828221256728284,177.01171920323395 34.017314052267466,177.208471220114 33.69165423772938,178.22248925582244 31.47156474935764,177.37116945122762 30.960313857722213,176.98523329899035 30.76771934374119,176.3949725676939 30.56111795603647,177.16306697339678 29.339018221915467,178.07871176020126 29.969327540355152,178.65003581877681 30.785227935935836,178.79002819124435 31.051358537049964,179.0927131373137 31.650152389600407,179.33485984900108 32.67965760974039,179.41431399760768 33.2574411516689,180.04994289683964 32.91777446337801,181.16984192790915 33.148887880161055,181.58979796242784 32.65164386226388,181.76004946074318 32.714674794100574,182.4107834802926 32.11588094156468,183.273372074269 32.70767135723145,183.78032548753254 31.59412489461829,184.17756171421206 30.599636858823942,184.86231431637862 30.879774333705427,185.36168632733097 32.231437649956206,185.65298449477268 30.939303547114832,186.0426405799517 30.858764023083495,186.299887688132 31.552104273388977,186.63279385772694 31.734193632059032,187.43856945691368 31.513585370601504,187.87360753079702 32.038843135975185,188.0551875841811 31.52409052591247,188.4069971683457 30.809739964970504,188.40321428199604 30.795733091246802,188.95172998448106 30.161922054350725,189.59481013547702 29.216458076640265,189.95795783483118 28.666688282202813,189.7650359291256 28.015368653141195,189.88230226916858 27.910317100060638,190.24544800022704 27.98035146878101,190.95281848418745 28.572141884433222,191.74339786293422 28.246482069895137,192.10274823140207 28.288502691139,192.54909582620894 28.957330912395264,193.5174302412015 30.12340315153415,193.86920360204022 30.568121392920148,194.3306661953029 30.36152000517177,194.9698987321499 31.877764087927062,196.08570039173355 32.36450295051327,196.7551701285447 33.47454769469914,194.88290304071052 34.46203229362436,195.20440814658286 34.25192918746325,193.2034800035326 33.6391284611891,192.56422618734723 33.49205628687923,191.8644424694321 34.139874197528115,191.41808911449334 34.93476428245776,191.54291712591657 34.938266000914155,191.52778647351442 34.17839310031559,191.40674109889005 34.931262564030476,191.5504824505042 34.619609623245196,191.4899598236152 33.78269891705713,190.35514778419383 33.926269372939714,189.81042938182873 34.55307697295211,189.2997507989494 34.96627974839066,189.14087201477741 35.708644056809135,189.34514464988024 35.95026262885949,189.0689981227224 37.02529018871428,188.58857539540622 37.662602944037644,188.5961411413664 37.536541080335155,188.03627302429595 37.80267168147839,187.21915759612602 38.68510472732305,186.80302915946595 38.90221127035329,186.41716169090068 39.48699824913638,187.2305065077453 39.66908760780643,187.62393394216997 39.564036054725875,187.40830580595866 40.383438168719294,186.11830162369006 40.92970624472946,185.72107993946702 41.423448544184794,185.84592136091305 42.0187406782934,185.4411314408244 43.058751053744345,183.91273789386833 42.61053109394561,183.2128399993744 42.603527657091036,182.49779963304172 43.49996757667395,182.338900463732 43.422929771084455,181.80166641047254 43.97269956553646,181.5330473414433 43.027235587826,180.59854504188843 42.922184034759994,179.97427318966947 42.141300823539495,179.8229334511052 41.91368912521284,178.60084922170427 41.1468127877597,178.6613865654581 40.83515984695987,177.97655382877565 39.23137280331866,177.66251154659403 38.63257895078277,177.40522250612048 38.36644834963954,176.69010375564176 38.17035211723123,175.24470198434938 38.362946631226805,174.89658885654353 39.588548083775095,173.52303320656574 40.68108423578087,173.2959957830899 40.4884897218144,172.84191801521592 40.71259970168467,171.35478605917524 39.77413916088699,170.82122471511684 39.67609104467556,171.2904562531985 40.05077491731208,170.1930534018502 42.81012904479576,169.74273323353555 43.36690227610234,170.55633410657902 45.12476493093709,171.85050135333222 45.643019259441644,172.7473179900153 46.54646261590824,172.4521648248774 47.29583036119584,173.6441194343206 47.14525646844413,174.90415655756806 47.933143116519204,176.36470260926944 49.792555605992675,177.07225836319776 50.90260035016399,176.59551060526064 52.28227741392038,176.55388956556635 52.95460735360393,175.65713740220963 52.74450424744282,174.46522811022805 53.24524998378183,173.49276160635054 52.583425199394696,171.67264983524 51.714999027288286,170.44280915421405 50.74502302054316,170.26116872393322 50.26178587639879,169.7162436925464 50.29680306074442,169.00858961734411 49.84858310096024,168.80802283745288 49.76104014005978,167.78247138280858 49.309318461833755,167.02937850525996 50.17774463392561,166.09083569309223 50.6714869333955,165.27716615042664 50.853576292051,164.3953613041558 52.06867258931743,163.4605564216945 53.091174372602836,163.24482987145166 53.87906102067791,163.40378636220703 54.35879644639499,164.01311515069756 55.08015044419153,164.33859224812113 55.052136696715024,164.64514442680957 55.95207833472523,165.23553620935127 56.29174502301612,165.31879605873837 56.31625705206534,165.8902578519337 57.30023993254872,166.54875583884495 57.366772582841804,167.66515611177965 57.864016600724426,167.96033597498536 57.96906815380498,168.80802283745288 58.59937747225922,169.37944694385442 59.63588612929743,169.63299076308977 59.803968614229234,170.20062177530053 60.10511639970355,169.89410178487378 60.959535698071704,169.69732258371369 61.554827832165756,170.15899570793772 61.26068348356057,170.9271805873359 61.52331236623286,171.3812747800839 62.04857013163564,171.66886575389435 63.38272485570633,172.99327770391392 63.099085662397556,174.0868385973081 62.692886323828134,174.24197862466826" stroke="red" stroke-linecap="round" stroke-linejoin="round" stroke-width="0.5"><title>2023-11-11 103.1km</title><desc>10209456962</desc></polyline><polyline fill="none" points="153.63436291455582,176.77904814771318 153.38043791390373,176.33979538199492 152.36473791125172,176.08315167313776 149.74668359413045,173.89175986741975 147.25559177732794,173.31921951641925 145.60507927305298,172.42584708735376 144.65942754644493,172.36661745670426 143.814470216661,171.1277162116603 143.40293659491,170.87598381923817 142.91259866263135,171.73976657354433 141.8312284011772,176.34966626966343 140.30767839723558,176.77904814771318 140.16758184514765,176.16211909729464 139.6378417575761,175.43660157124395 138.87606675560528,175.66857081342823 138.53895942714007,175.5698606186561 137.6458439075941,176.26576366731751 137.2737124411069,177.1294607291311 136.01722148955741,178.9357770626557 135.4305671776965,179.16773136740812 135.0496796767111,179.95735562154005 134.69943829650583,180.21891612615582 134.70381631374767,180.9838500009355 133.84572493220912,182.65186202139375 134.00333355330804,183.12067275310983 134.13467407089774,183.051585109828 133.87637105298927,183.58947944175088 134.18721027793072,184.67018682711205 133.52612967276946,186.25913310193573 133.68811631112476,186.94996482472197 133.47797148297832,187.09799905195177 133.5173736382567,187.69013193073988 133.18026630977693,188.9681300843149 133.46045941396733,190.08326995919924 133.39478915517975,191.61778346816936 133.9551753635169,192.3924249692136 134.58123183067073,192.5996520354238 134.3360628645314,193.30520493633958 134.4455132958392,193.42361851239912 134.03835769134457,193.73938678836203 134.38859907156439,193.99594716295178 134.06900381209562,194.4054544846549 134.44989131309558,194.6866806189937 135.0146555386891,194.51399807720009 135.4174331259419,194.7409521617883 135.8727469202422,194.49426289466282 135.91214907550602,195.619156873443 136.8140206295502,195.62902426157234 136.94098312988353,195.87570838333704 136.67830209471867,196.22599791448738 136.91471502637432,196.42334313604806 137.34376071715087,196.48254656293284 137.62833183856856,196.80816425933153 137.56703959703736,197.02524164101487 138.0705115810997,197.70606962961756 138.05299951208872,198.2092848418215 138.27190037471883,198.66809465603365 138.78850641053577,198.30795394557936 139.41894089493144,198.41648975306816 139.79545037866046,198.30795394557936 139.88738874098635,198.48062444665266 140.0318633103161,198.5694262052857 139.83923055120977,199.15650085267407 139.92679089626472,199.5067692643206 140.42150684579974,199.14170072930938 140.08439951734908,200.06423405892565 140.10191158637463,200.73515756732013 139.8742546892172,200.73515756732013 139.4714771019644,201.32714202980424 139.401428825935,201.13474778577074 139.31824649812188,201.76125987676642 138.58273959966027,202.0819128813564 138.5039352891181,201.7760592878003 138.20185209867486,202.19537426129318 137.74216028714727,202.1805749642699 137.5232594245026,202.47656013998858 137.66773399384692,203.1918510033429 138.4995572718617,204.17351074889302 138.5739835651475,204.6273374114062 138.90671287637088,204.7259948808969 139.04243141120241,205.01703337422077 139.55465942976298,204.86904789407345 139.78669434416224,204.61747165462657 140.96000296789862,204.27216904082889 142.56235728241154,203.97619362859405 143.0045370249136,204.0896510601524 144.39674651128007,203.45823278491298 145.97721073952562,203.38423797635187 146.5419749651337,203.28064507537056 146.91410643160634,203.4335678599018 147.07609306996164,203.79860760882002 147.45260255370522,203.93673011871942 148.28880384897639,204.8443836082879 149.65036721456272,205.4461889918348 150.35084997500235,206.0874497026016 150.47781247532112,206.5461931152604 151.06884480445297,206.9605386819203 151.46286635719298,207.0 151.9313142032479,206.76323166247676 152.47418834257405,206.71883748456457 153.81823963916395,206.91121199409827 154.10718877783802,206.56592392802122 154.71135515872447,206.37848091800333 155.07035257345706,205.87040846146556 155.5169103332155,205.67803027438276 156.16923490386398,205.95919816468086 156.62892671542068,205.91480333117215 157.0929965441901,206.16637357576838 157.78034525287512,206.26502825634088 158.15247671934776,205.99372745461005 158.30570732320484,206.20090273430105 158.7916672382562,206.2847591710124 159.6497586198093,206.03812222376655 160.0875603450695,206.1466426181978 161.6242444007803,205.5645761530759 162.49984785132983,205.5645761530759 162.69685862769256,205.1847497654162 163.2047086290404,204.9479735335517 163.4411215606815,204.63720316639228 163.73882673385378,204.62240453324557 163.87454526868532,204.1044498381525 164.3079689767037,204.0896510601524 164.3123469939601,203.78380874767754 164.84208708153164,203.45823278491298 165.18357242725324,203.01426242474918 165.16168234100041,202.67881575106003 165.4637655314291,202.57522150756995 165.6695323423046,202.11644463073026 166.0810659640556,202.04738111008555 166.361259068246,202.25950450184246 167.22372846702638,202.0967122052025 167.78411467536353,201.6971290491747 168.3663909699826,201.8253906288155 168.97931338536728,201.22354521368106 169.48278536942962,200.98181854253198 169.898697008437,200.97688533399196 171.06324959767517,200.6611590567736 171.6455258922797,200.07410064103533 172.10521770380728,200.12343352471726 172.1708879626094,199.92610172164495 173.2041000342433,199.20090119864835 174.2723362439283,197.2521852504142 174.62257762413356,197.0351087741401 174.62695564138994,196.26546701607003 174.71889400370128,195.92504507347257 175.31868236733135,195.4563447108303 175.44564486765012,195.42674244709633 175.42375478138274,195.58462100088218 175.68205779930577,194.38571926274017 175.41062072962814,193.09798055801366 175.50693710919586,192.36282103815392 175.97100693797984,191.61778346816936 176.47447892202763,190.177019614679 176.70213581918506,190.2115589206951 177.10929142367968,189.82175690820077 177.7659940115991,189.70333549032512 178.17314961609372,188.35133935851627 178.0461871157604,187.91711449131253 178.34827030620363,187.69013193073988 178.29135608191427,187.2559017834501 178.5365250480827,186.97957170241352 178.5803052206029,186.49599068138923 178.74666987620003,186.28874035578337 179.62665134400595,186.27887127295617 180.45847462202073,185.77554567327024 181.27716384829546,185.75580731952505 181.5880030732369,185.91864852370782 181.86381816015637,185.43505806663234 182.84887204199913,184.9662672931081 182.67812936916016,184.5418847910696 182.58619100684882,183.48091404199658 182.70001945541298,182.992367059971 183.03712678386364,182.59757841230748 183.03712678386364,181.62539914338777 183.43990437113098,180.86540933118886 183.87770609640575,180.54463122118977 184.1754112695926,179.542804318633 184.5081405808014,179.2713702048677 184.9371862715634,178.49160648196994 185.64642506650125,178.16094380345749 185.9091061016661,177.80560256276658 185.68144920453778,177.16894369523652 185.86094791188953,176.77411274309634 185.76900954956363,176.16705455748888 186.08860480904696,174.8887553868044 186.57018670682737,174.39025991416202 186.6358569656295,173.10204745992087 186.56580868958554,172.57885666763832 186.2505914473877,171.9372007029815 185.8959720499115,171.96681576050833 185.1604651514499,171.41893458262348 184.74017549520067,170.95002287930038 184.42058023574646,170.155331695918 183.93024230345327,169.34088456718382 184.23232549388194,168.01306275648676 184.5869448913436,167.56386661603756 185.11668497894425,167.28250010790725 185.36623196233995,166.7543169361452 184.9065401507978,165.94969157517698 185.0991729099187,163.43701169477208 185.80403368761472,162.0596780928172 186.32063972341712,161.7091682645114 186.4257121374976,161.52157052512848 186.15427506781998,161.08219433479462 186.2681035163987,160.8550996287304 186.70590524167346,160.7909205178621 186.76281946596282,159.9615221038257 186.31188368893345,159.52213328440484 185.82154575661116,159.3444019649687 185.87408196364413,158.16444872387365 186.52202851705079,157.54730814943468 186.81973369023763,156.94990938809497 186.81535567298124,155.95752170171545 186.45635825824866,155.92789790971437 186.31188368893345,155.76002944947686 186.46511429276143,155.58228580785726 186.34690782694088,154.85155583030792 185.55448670421902,154.357813787512 185.22613541025203,153.8097548579899 184.24108152839472,153.21231494282256 183.47055049189657,153.23206512782053 183.40925825036538,153.0 183.1640892842115,153.3110657959005 182.82260393850447,153.43944163617925 182.86638411102467,153.63694233571005 182.29286385091837,154.00231673438248 182.11774316080846,154.377563555503 181.93824445345672,154.33806401232505 181.2465177275153,154.76268259420613 181.13268927895115,154.97005325198916 180.82622807125153,154.76762000003873 180.3096220354346,154.98980279711031 180.19141556959949,154.87130541856095 179.4909328091744,154.89105499962898 179.28954401554074,155.13792415635908 178.75104789347097,155.05892614840923 178.82109616950038,154.81205663224318 178.14250349532813,154.8861176050341 177.5777392697346,155.17248574866971 176.61019745685917,154.95524108843165 176.35189443896525,155.19223522008542 175.8177763341373,155.28110775256937 174.64884572765732,154.8318062348626 174.1366177090822,155.3156692536686 172.34600865271932,155.99208277195066 172.14024184184382,156.3426295260797 171.53607546095736,156.3673158318561 171.4835392539244,156.60924103412617 171.89945089294633,156.7227973897534 171.51418537470454,156.93509776499923 171.7637323581148,157.19676917772813 171.57985563347756,157.71023394294025 171.18583408073755,157.62136538894993 170.77867847622838,157.82872512188624 169.4477612313931,157.57693105737053 169.211348299752,157.2856384270708 169.2551284723013,156.64873892391552 169.00120347163465,156.56480587375336 168.5590237291035,156.7227973897534 167.70968838207773,156.6684878580163 167.24124053603737,157.32019865139955 166.71150044845126,157.0585278338949 166.49259958582115,157.23626663985124 165.80525087713613,157.22639227701438 165.4768995831837,157.34982168329952 165.4637655314291,157.53743384320114 164.95153751285397,157.69048538796778 164.54000389110297,158.00646140519166 164.33861509748385,158.42611420871617 164.5312478565902,158.91488220668907 164.4305534597661,159.448078638703 164.11971423485375,159.45795259731312 163.82638707890874,159.74923356781073 163.93145949296013,159.85784641091232 163.59435216449492,159.8479725250545 163.48490173318714,159.94177436806058 163.43674354341056,160.16887289555598 163.29664699132263,159.98620676342398 163.05147802518331,160.27254799435468 163.007697852634,160.04051297503247 162.81068707627128,160.00101755379728 162.6574564724142,160.27748489887017 162.22403276439582,160.40584425896304 161.98324181551288,160.98839446268175 161.51041595220158,161.18586768906243 162.07080216056784,161.42283461240004 162.25905690243235,161.0624470067669 162.80193104177306,160.65762519893906 163.0689900941652,161.21548861106567 163.35793923286838,161.04763650603854 163.39296337089036,161.44258180931865 163.70818061307364,161.37840339307877 163.77385087187577,161.7585359829136 164.0846900968172,161.88689184059695 164.08906811405905,162.17322304481058 164.16787242460123,162.88904444767832 165.24924268604082,163.1457505133476 166.01101768801163,163.63447601364896 165.98474958450242,163.86155909244553 165.73082458383578,163.782573781471 165.1091461339529,164.1083874485812 164.8858672540664,163.96522713869854 164.77203880550223,164.2614204657948 164.5881620808941,164.19724538205264 164.40428535625688,164.26635700756378 164.8595991505572,165.16480013313412 164.87711121955363,165.5843975985772 164.61005216714693,165.74729927013686 164.71512458121288,166.082973900644 164.50060173583915,166.28042859627385 164.4743336323154,166.97645067175836 164.28170087317994,167.19364722349928 164.72388061572565,168.18582951340795 164.46995561504446,168.86701879911197 164.00150776901864,169.26190722630417 162.93327155933366,169.41492571995332 162.36850733374013,169.873978614105 162.4341775925277,170.45642723915807 162.05766810879868,171.16226762544466 162.2721909541724,172.4850766534255 161.5673301765055,173.21063359669643 161.51041595220158,174.952917838149 161.050724140674,175.13059807720128 160.85809138156765,174.8887553868044 160.72237284672156,175.58960267196017 160.28894913868862,175.61428022849577 159.7635870683589,175.51556993508711 158.35824353025237,176.3249890471161 158.5990344791644,177.00114089112685 158.33635344397044,177.39597019363282 158.5377422376041,177.7562494288868 158.53336422036227,178.4521244768839 158.24879309891548,178.7334331372258 158.36699956475059,178.8074614900179 158.1699887883733,179.02461074317034 156.9616560266295,179.19240729900775 156.49320818058914,179.53786916503668 156.19988102465868,179.33059230894287 155.59571464375767,179.32072196274385 155.0834866251971,178.35341933866584 154.44867412354506,177.74144347998663 153.17467110299913,177.50948308714942 152.9601482576254,177.159072956405 153.11337886146794,176.52734194108052 153.4811323107133,176.49772936953377 153.66063101805048,176.8284021691361" stroke="red" stroke-linecap="round" stroke-linejoin="round" stroke-width="0.5"><title>2023-09-02 57.7km</title><desc>10651296794</desc></polyline><polyline fill="none" points="13.974532502223155,240.36937833677075 14.817631344601978,239.9701331831202 14.740694568114122,240.2621740440336 14.865716829925077,240.90169848571531 14.381656277822913,241.21591163448102 14.048263579694321,240.76122585925987 13.846304541410063,240.72056263070772 13.653962600175873,241.09022669617116 13.0,241.6890746200079 13.032056990195997,241.81475751779726 13.990560997335706,242.10678377393924 15.760106856629136,243.0789557906719 16.372395369558944,243.62232594643865 16.353161175429705,243.95130126690856 16.872484416744555,244.29875516171887 17.802137132675853,244.25809583245427 18.100267141577206,244.34680703854974 18.53303650933958,243.89215985255214 19.068388245766982,243.63341504995333 19.411398040960194,243.77018038599272 19.895458593047806,244.2285253830123 20.302582368662115,243.9697829394645 20.831522707041586,244.49835485555013 21.565627782722004,244.87537355328095 21.8028495102335,244.74600482647293 22.16509349955595,244.84949984420746 23.415316117549082,244.73491605733943 23.707034728402505,244.58706548396003 24.56936776492512,244.69795346954925 25.216918967067613,245.07127390467213 25.60160284952144,246.24665417161305 25.832413178985007,246.3057918121085 26.069634906511055,246.59039038151604 26.457524487981573,246.61626286989122 26.803739982191473,246.2762230037115 27.146749777384684,246.2688307979006 27.303829029391636,246.08402517151626 27.919323241323582,246.15794753313457 29.134283170074923,247.25567717595186 29.60231522707909,246.8491144490108 29.58308103294985,246.74192898398542 30.82368655387836,246.1320747234131 32.6381121994782,245.64788022351422 33.43312555656303,245.68484185971465 34.03259127338242,245.25238839853773 34.29866429208778,244.9086397239953 34.526268922534655,244.87906979594845 34.494211932324106,244.78666361805517 34.539091718630516,244.87906979594845 34.718610863768845,244.80514487214896 34.85645592164656,244.5611915727095 34.98788958147634,244.9973493659636 34.23455031166668,245.63309555866363 34.22493321460206,245.7994226966439 35.46553873553057,246.54603750209571 37.071593944798224,248.1279239135838 37.2831700801471,248.1833626280968 38.15832591273647,247.96899913711968 38.49813000889844,248.11314024232342 39.62653606412641,247.73245866760408 40.498486197699094,247.98008693443626 41.31914514694654,247.9172560389634 42.00195903830172,248.1390116631519 42.607836153169046,248.00965437763443 43.51184327695228,247.57722816054593 44.242742653616006,247.54766037089576 44.73962600179948,247.77681012111134 45.09866429207614,248.1020524849846 45.40320569902542,247.78050607318437 46.32324131790665,247.75463440102249 46.62457702582469,248.0798769603207 46.88103294746543,248.16118715228004 47.17595725733554,248.5899106565994 47.515761353526614,248.49012200976358 47.56705253785185,248.37554952696883 48.051113089954015,248.35707006095254 48.11202137132932,248.50490553002965 48.32680320570944,248.3496782719485 48.44861976848915,248.4716426011073 48.5127337488957,248.3533741666397 48.6217275155941,248.5714312979144 49.150667853988125,248.67121972490713 49.612288512915256,248.95210421902084 49.82707034730993,248.92623336815086 50.31113089938299,248.4346837560588 50.68619768478675,248.2868480056968 50.769545859322534,248.00595844853524 51.32733748886676,247.699195042489 51.55494211932819,248.15009940938035 52.32110418523371,248.50120965051974 52.539091718630516,248.96319172098447 53.055209260914125,249.01493335277337 53.5520926090976,249.35125219143083 53.49759572574112,249.5508245589699 53.943187889584806,250.00909776354456 53.968833481761976,250.30105917678156 54.22528940338816,250.23823223223008 54.52341941228951,250.38975585764274 54.27337488869671,250.71127953919495 54.279786286730086,250.5782355968331 54.70934995547577,249.86865980549555 54.93374888692051,249.7688746158601 54.79269813001156,249.5582161074126 54.863223508466035,249.3401648060426 54.82154942120542,248.4272919826035 54.8119323241408,248.07248511579382 54.66767586822971,247.68441119947965 54.88245770258072,247.5957080170665 54.82154942120542,247.22980513586663 55.33766696348903,247.23350114269851 55.437043633137364,247.05609239698242 56.22243989314302,246.7012723468397 56.308993766695494,246.40928245494797 56.20000000001164,245.3226162284045 56.42439893142728,244.49465857472023 56.52377560107561,243.0789557906719 56.668032057001255,242.97545580598307 57.09118432769901,243.22681240795646 57.219412288526655,243.0530808217227 58.668388245787355,243.86998179772127 59.32876224401116,244.05479851393466 59.883348174538696,244.0991543880591 60.338557435447,243.85889276529633 60.5276936776645,244.23222169048677 60.976491540510324,244.6683833726347 61.06625111310859,245.21173012015788 61.316295636686846,245.30783143322333 61.547105966179515,245.10453989875532 61.77791629564308,245.11562855679585 62.03116651826713,245.25238839853773 62.076046304544434,245.62200705614305 62.48317008015874,245.3447934100659 63.332680320585496,245.45567911841863 63.76865538736456,245.31892003017128 64.24630454143335,245.04170410695588 64.38094390027982,244.81253737119187 64.05396260019916,243.66298597637433 64.15654496883508,242.90152706769732 63.93855743545282,242.7204010327623 63.44487978628604,241.81475751779726 64.03472840605536,241.75191612242998 64.21104185219156,241.33050635202017 64.45467497773643,241.1087098021926 65.15031166520203,240.73534926445427 65.39715048976359,240.373075030966 65.30739091717987,240.17345301437308 65.07016918968293,240.05515797618136 65.015672306341,239.67809000970738 65.42600178095745,239.52652238790688 65.6952804986795,239.15684264908487 66.08317008015001,238.88697409976157 66.33000890474068,238.4248658332981 66.63134461267327,238.2732930607126 66.76918967053643,237.81117710392937 66.98397150491655,237.8333588021669 67.0,237.63742000604907 66.84612644702429,237.47845002906615 66.17613535175042,237.62632909965396 65.90044523598044,237.5819654407569 66.07355298308539,236.89062485930845 65.65681211042101,236.15120882210613 65.94853072128899,235.31195365261738 65.88441674088244,234.35436604896677 65.75298308103811,234.117738252462 65.34265360642166,234.11404093108285 64.9227070347406,233.69624122744062 64.37773820124858,232.83474547355945 64.41300089047581,232.40214129931337 63.77506678539794,232.66466238680732 63.569902048111544,232.80516586267913 62.5601068566466,232.3429813594703 62.31326803207048,232.07676045506014 61.45414069457911,231.99171726091663 61.175244879792444,231.76986452645724 60.77773820125731,231.6663327933602 60.53410507569788,231.6367522447763 60.062867319677025,231.80314252175958 59.69421193233575,231.60717167244366 59.75832591274229,231.1634602385093 60.42831700803072,230.50527843888995 61.00534283170418,230.07264692069293 60.89314336597454,229.81750287519026 60.088512911854195,229.28872046080505 59.87693677650532,229.34048970358708 59.767943009821465,229.51058813204872 59.918610863765934,229.83968938406178 59.774354407854844,229.92473754430102 59.82243989314884,230.08004237392743 59.50828138914949,230.26862592998805 59.44416740872839,230.5237668521513 59.556366874458035,230.69016215407828 59.42172751558246,231.0044623412541 58.847907390925684,231.68482062416297 58.23882457704167,231.99541479518302 57.64577025825565,232.05457529290652 57.71308993767889,232.23575372646883 57.568833481753245,232.5685281210499 57.10721282281156,232.33928386007392 56.873196794316755,232.3466788584883 56.52377560107561,232.6313851693485 55.780053428330575,232.79037604833138 55.558860195902525,233.05659179855502 55.270347284080344,232.9123918391815 55.08441674087953,233.04919694257114 54.706144256473635,233.0344072261396 53.87907390917826,233.66666230787814 53.8822796082095,233.95875309859184 53.465538735545124,234.35066875132907 53.21228851292108,234.84240608238179 52.78913624220877,235.00878188979914 52.497417631340795,235.33783405345093 52.46536064115935,236.63922507039024 52.62885129119968,237.15311398618724 52.44933214603225,237.7668136674074 52.507034728405415,238.03669041431567 52.045414069478284,238.9609108850309 51.449154051661026,239.4488899501339 50.96509349955886,239.94425603328636 50.68619768478675,239.85553423885358 50.49385574355256,239.60415466225095 50.42653606412932,239.6928770614104 50.08032056991942,239.51173526949424 49.95529830812302,239.75572196501162 49.92644701692916,239.64112235450375 49.7244879786449,239.3786509370584 49.75333926982421,239.16423628017947 49.33980409617652,238.80194661344285 49.458414959939546,238.72800950946112 48.749955476407195,238.60601296380628 48.45182546750584,238.5098941890392 48.4165627782786,238.31026208707044 48.09278717720008,238.1734765043875 48.374888691017986,237.92947934037147 48.365271593938814,237.70766233569884 48.0254674977914,237.55978359129222 48.24024933214241,237.4969349453204 47.849154051655205,237.57087451768166 47.9453250222723,237.27511533865254 47.5991095280624,237.01632411097307 47.660017809452256,236.65771040738036 47.349065004469594,236.77231928980473 47.17595725733554,236.59855729640913 46.99964381122845,236.59116315086794 46.88103294746543,236.73534872149685 46.69510240427917,236.78710750675236 46.50917186109291,236.53200993315113 45.89367764916096,236.2066655392664 45.55707925201568,235.78888955059665 45.35191451468563,235.63730594178196 45.00569902049028,235.66318611423412 44.73000890472031,235.85913540188267 44.12413178985298,235.51899635065638 42.800178094388684,236.24733374549396 42.00195903830172,236.968262682989 41.81282279606967,236.83147212200856 40.99857524489926,236.8203809731931 40.20356188779988,236.64661920629806 39.40534283169836,237.04220331547913 39.174532502220245,237.4858439966847 38.642386464824085,237.45626811733382 38.21602849510964,237.10505273650415 37.2671415850491,235.89610684880608 37.052359750668984,235.27128441458262 36.0553873552999,234.63166231509967 35.45592163846595,234.0881596710933 34.44933214603225,234.23605234057322 34.34995547639846,234.00312111747917 33.9300089047174,233.83674077127944 33.93321460374864,233.36347701379782 33.68317008015583,233.21558084347998 33.30169189670414,232.6868471817652 33.33695458593138,232.5685281210499 33.1253784505825,232.5648306442854 32.8753339269897,232.23205621632587 32.708637577918125,232.19877860827546 31.996972395383636,232.55004073350574 31.288512911836733,232.55004073350574 30.80124666073243,232.18029103526715 30.201780943898484,232.39474631202393 30.26589492430503,232.08415550615973 29.791451469282038,231.99171726091663 29.78504007124866,231.82163028393916 29.493321460380685,231.9399517423226 29.147105966156232,231.7735620829808 28.909884238644736,231.82163028393916 28.784861976848333,231.65154252203502 27.249332146035158,232.22835870580093 27.140338379336754,232.36886384483296 27.169189670530614,232.82735057306854 26.544078361534048,232.57222559743968 26.185040071242838,233.1896989526649 26.169011576130288,233.78128048899816 26.024755120219197,233.99942378461856 26.130543187900912,234.53183589956825 25.928584149602102,234.76106652549424 25.97987533392734,235.11969867759763 25.870881567228935,235.374806023141 25.518254674985656,235.43026390816158 25.380409617107944,235.86283254824957 25.521460374002345,236.15120882210613 25.97987533392734,236.29169901023488 26.027960819235886,236.47285662051945 26.294033837941242,236.45437119086273 26.32288512912055,236.57637485533633 26.17542297417822,236.62443679413263 26.226714158503455,236.85735145625586 26.08886910061119,236.86844259393547 26.011932324137888,237.25293330459317 25.60160284952144,237.71505625735153 25.76829919857846,238.19196107224707 25.62724844168406,238.39529070707795 25.303472840605536,238.38420002862404 25.261798753330368,238.65037539074547 25.05342831701273,238.6355879210314 24.989314336606185,239.04224117760896 24.73606411398214,238.92024567146655 24.54051647374581,238.44335027513807 24.16544968834205,238.31026208707044 24.16224398931081,238.1328104225031 23.716651825467125,237.8481465935838 23.347996438125847,238.02559962801024 23.07230632235587,237.66329877464887 22.58824577026826,237.8518435405058 22.139447907393333,237.94796403052533 21.889403383800527,237.92947934037147 21.549599287624005,238.21783945167044 21.44381121994229,238.7021314880476 21.10080142474908,239.00896971595648 20.616740872661467,238.94982037668524 19.84737310775381,239.4267092236114 19.616562778275693,239.39713490083523 19.626179875340313,239.30471498929546 19.414603739991435,239.3527733722076 18.674087266263086,238.97939505817703 18.3855743544118,239.1272681098926 18.20605520925892,239.0607253100061 18.05859305431659,239.34537977890432 17.69634906500869,239.41561885534975 17.446304541401332,239.5191288294409 17.433481745334575,240.0255841573562 17.29563668744231,239.78899275297226 17.237934105083696,240.04037106973556 16.96544968834496,240.0255841573562 16.9526268922491,239.8888049367779 16.516651825470035,239.93316582065017 16.43650934996549,239.62633528205697 16.164024933212204,239.5523998308454 16.051825467511662,239.91098538538427 15.099732858419884,239.8185667615253 13.955298308093916,240.3508948602539" stroke="red" stroke-linecap="round" stroke-linejoin="round" stroke-width="0.5"><title>2023-04-15 57.0km</title><desc>10651298953</desc></polyline></svg>