<?xml version="1.0" encoding="utf-8" ?>
<svg baseProfile="full" height="200mm" version="1.1" viewBox="0,0,200,200" width="200mm" xmlns="http://www.w3.org/2000/svg" xmlns:ev="http://www.w3.org/2001/xml-events" xmlns:xlink="http://www.w3.org/1999/xlink"><defs /><rect fill="#1a1a1a" height="200" width="200" x="0" y="0" /><text alignment-baseline="middle" fill="#e1ed5e" style="dominant-baseline: central; font-size:9.0px; font-family:Arial;" text-anchor="middle" x="100.0" y="100.0">2021</text><line stroke="#e1ed5e" stroke-width="0.3" x1="100.0" x2="100.0" y1="15.0" y2="10.0" /><path d="M 100.0 14.0 a86.0,86.0 0 0,1 42.46469731375804,11.215312516191453" fill="none" id="id85" stroke="none" /><text fill="#e1ed5e" style="font-size:6.75px; font-family:Arial;" text-anchor="middle"><textPath startOffset="22.20632615414155" xlink:href="#id85">January</textPath></text><line stroke="#e1ed5e" stroke-width="0.3" x1="143.23703022742887" x2="145.7803849466894" y1="26.81831364943548" y2="22.513508569990506" /><path d="M 143.74570117128098 25.957352633546492 a86.0,86.0 0 0,1 28.547481713284135,27.462654790039103" fill="none" id="id86" stroke="none" /><text fill="#e1ed5e" style="font-size:6.75px; font-family:Arial;" text-anchor="middle"><textPath startOffset="19.985693538727396" xlink:href="#id86">February</textPath></text><line stroke="#e1ed5e" stroke-width="0.3" x1="172.23445277983987" x2="176.4835382374775" y1="55.19839476539836" y2="52.563006222186495" /><path d="M 173.08426987136738 54.67131705675599 a86.0,86.0 0 0,1 12.851231095245387,41.99856678651699" fill="none" id="id87" stroke="none" /><text fill="#e1ed5e" style="font-size:6.75px; font-family:Arial;" text-anchor="middle"><textPath startOffset="22.20632615414155" xlink:href="#id87">March</textPath></text><line stroke="#e1ed5e" stroke-width="0.3" x1="184.98032266829074" x2="189.97916517819016" y1="98.17113171792111" y2="98.06355123074" /><path d="M 185.9800911702706 98.14961562048488 a86.0,86.0 0 0,1 -9.607161424134198,41.387399972396054" fill="none" id="id88" stroke="none" /><text fill="#e1ed5e" style="font-size:6.75px; font-family:Arial;" text-anchor="middle"><textPath startOffset="21.466115282336823" xlink:href="#id88">April</textPath></text><path d="M 120.99513854157772 99.54816195383933 l 13.922743360607823 -0.2996324670492367 a34.92596719444144,34.92596719444144 0 0,0 0.0077618685858742075,0.6011652758552536 l -13.925838236311412 0.059930933133520374" fill="#ff740a" stroke="none" /><line stroke="#e1ed5e" stroke-width="0.3" x1="174.80103733775053" x2="179.2010983576182" y1="140.37084112569926" y2="142.7455964860345" /><path d="M 175.68104954172406 140.8457921977663 a86.0,86.0 0 0,1 -30.038265399797805,32.042727171017184" fill="none" id="id89" stroke="none" /><text fill="#e1ed5e" style="font-size:6.75px; font-family:Arial;" text-anchor="middle"><textPath startOffset="22.206326154141568" xlink:href="#id89">May</textPath></text><line stroke="#e1ed5e" stroke-width="0.3" x1="143.8653032363475" x2="146.44561519142675" y1="172.8068346515853" y2="177.08958963109032" /><path d="M 144.38136562736335 173.6633856474863 a86.0,86.0 0 0,1 -40.68145358897372,12.25698825130547" fill="none" id="id90" stroke="none" /><text fill="#e1ed5e" style="font-size:6.75px; font-family:Arial;" text-anchor="middle"><textPath startOffset="21.466115282336833" xlink:href="#id90">June</textPath></text><line stroke="#e1ed5e" stroke-width="0.3" x1="102.19456741930631" x2="102.32365962044197" y1="184.97166512339345" y2="189.96999836594603" /><path d="M 102.22038585953345 185.97133177190398 a86.0,86.0 0 0,1 -42.740103519485714,-10.115201625700543" fill="none" id="id91" stroke="none" /><text fill="#e1ed5e" style="font-size:6.75px; font-family:Arial;" text-anchor="middle"><textPath startOffset="22.20632615414155" xlink:href="#id91">July</textPath></text><line stroke="#e1ed5e" stroke-width="0.3" x1="58.666819895761336" x2="56.23545636021788" y1="174.27360380694188" y2="178.64263932499728" /><path d="M 58.180547188652646 175.14741091055294 a86.0,86.0 0 0,1 -31.652253787137756,-30.449443065178592" fill="none" id="id92" stroke="none" /><text fill="#e1ed5e" style="font-size:6.75px; font-family:Arial;" text-anchor="middle"><textPath startOffset="22.20632615414155" xlink:href="#id92">August</textPath></text><line stroke="#e1ed5e" stroke-width="0.3" x1="26.63291911575756" x2="22.317208475507996" y1="142.92168965132927" y2="145.44649492493687" /><path d="M 25.769776987707644 143.4266507060508 a86.0,86.0 0 0,1 -11.730757126820373,-40.83630448921669" fill="none" id="id93" stroke="none" /><text fill="#e1ed5e" style="font-size:6.75px; font-family:Arial;" text-anchor="middle"><textPath startOffset="21.46611528233685" xlink:href="#id93">September</textPath></text><line stroke="#e1ed5e" stroke-width="0.3" x1="15.007084014347285" x2="10.007500721073583" y1="101.09737516637583" y2="101.16192664675087" /><path d="M 14.007167355692545 101.11028546245083 a86.0,86.0 0 0,1 10.666146001902534,-42.60595125391555" fill="none" id="id94" stroke="none" /><text fill="#e1ed5e" style="font-size:6.75px; font-family:Arial;" text-anchor="middle"><textPath startOffset="22.20632615414155" xlink:href="#id94">October</textPath></text><path d="M 80.02781315780177 93.51064311812611 l -16.731417030403087 -5.4363669390646425 a38.59245296544565,38.59245296544565 0 0,0 0.21071976652398028,-0.6300252809885695 l 16.635359970107334 5.723565322975534" fill="#ffa90f" stroke="none" /><path d="M 80.38941819471856 92.48833698450439 l -25.05370591779807 -9.596604425736292 a47.82877180788512,47.82877180788512 0 0,0 0.3011081968685306,-0.7662875175893527 l 24.884804171047847 10.026440948221408" fill="#d8ff1c" stroke="none" /><path d="M 80.52162464483688 92.15188598940014 l -39.71138263349652 -16.000279938317558 a63.81358276024673,63.81358276024673 0 0,0 0.41928050014317764,-1.0153209881276481 l 39.43008044646714 16.681475496898518" fill="#32ff44" stroke="none" /><path d="M 81.43458229118936 90.18545643968196 l -19.41608798135117 -10.264247443972353 a42.96222320464534,42.96222320464534 0 0,0 0.35125075065742073,-0.6508142952244095 l 19.236529131475276 10.596942722529235" fill="#ffe615" stroke="none" /><path d="M 81.6062741919709 89.86733742301443 l -5.621554707512119 -3.0967797173762768 a27.418093326487607,27.418093326487607 0 0,0 0.23128122491039432,-0.4114234920630134 l 5.567415841309294 3.1930867193740746" fill="#ff0000" stroke="none" /><line stroke="#e1ed5e" stroke-width="0.3" x1="26.266209847984243" x2="21.928928074336255" y1="57.711370442889674" y2="55.22380399835377" /><path d="M 25.398753493254645 57.213857153982495 a86.0,86.0 0 0,1 29.58750427330803,-30.492523968695096" fill="none" id="id95" stroke="none" /><text fill="#e1ed5e" style="font-size:6.75px; font-family:Arial;" text-anchor="middle"><textPath startOffset="21.46611528233685" xlink:href="#id95">November</textPath></text><path d="M 81.78341655067845 89.55222093294921 l -11.752371629193956 -6.74035186879498 a34.548084079523974,34.548084079523974 0 0,0 0.30030564353823286,-0.5133196903114393 l 11.634606311185399 6.941650971460311" fill="#ff6e0a" stroke="none" /><path d="M 83.17141714833178 87.43820079747576 l -11.08143802381755 -8.271807588160273 a34.82827066018218,34.82827066018218 0 0,0 0.36275146446517154,-0.47733840598745714 l 10.937410619128269 8.461330770028757" fill="#ff720a" stroke="none" /><path d="M 84.31358615837235 86.03803664274999 l -15.222568603843303 -13.549109898278157 a41.37903270359845,41.37903270359845 0 0,0 0.47813740146118155,-0.5279712608767186 l 14.987087561766078 13.809133946424431" fill="#ffd013" stroke="none" /><path d="M 84.5562425177563 85.77008943001954 l -46.331272446731106 -42.68973170994139 a84.0,84.0 0 0,0 0.9889307121181763,-1.0549223324877994 l 45.58957441264248 43.480923459307235" fill="#4dd2ff" stroke="none" /><path d="M 85.05521093208273 85.24692304244772 l -9.661381098917248 -9.53744467190604 a34.57590275481466,34.57590275481466 0 0,0 0.4217670696514233,-0.4199558678172068 l 9.495778229098512 9.702336390373357" fill="#ff6f0a" stroke="none" /><path d="M 85.31137513191541 84.99185889309783 l -9.455433929319593 -9.661114495922448 a34.518223407498894,34.518223407498894 0 0,0 0.42821788563729474,-0.411945266706487 l 9.28773280006987 9.822442849391248" fill="#ff6e0a" stroke="none" /><path d="M 85.57189188830299 84.74124197986013 l -9.275479033266027 -9.809483613083371 a34.50038814449084,34.50038814449084 0 0,0 0.4350205136513613,-0.40430415719065704 l 9.105250635819809 9.967692356348676" fill="#ff6e0a" stroke="none" /><path d="M 86.65592168130627 83.78471172551755 l -7.663691569776482 -9.312667767886081 a33.0605949037221,33.0605949037221 0 0,0 0.44253432708914653,-0.3578319829731651 l 7.502253844122835 9.44320584812338" fill="#ff5808" stroke="none" /><path d="M 87.22198572758235 83.33499621200491 l -8.264046793509157 -10.777916519883611 a34.58152988123536,34.58152988123536 0 0,0 0.47550236962504183,-0.3581385266036321 l 8.077298270125725 10.918571635993096" fill="#ff6f0a" stroke="none" /><path d="M 87.51073957382395 83.11751280151077 l -7.882141264712417 -10.654766131651119 a34.253384180542795,34.253384180542795 0 0,0 0.4770267921110963,-0.34658025146668464 l 7.697569156247539 10.788865617934471" fill="#ff6a09" stroke="none" /><line stroke="#e1ed5e" stroke-width="0.3" x1="56.762969772571076" x2="54.21961505331055" y1="26.818313649435495" y2="22.513508569990535" /><path d="M 56.25429882871897 25.957352633546506 a86.0,86.0 0 0,1 42.265352541879196,-11.944610805530505" fill="none" id="id96" stroke="none" /><text fill="#e1ed5e" style="font-size:6.75px; font-family:Arial;" text-anchor="middle"><textPath startOffset="22.20632615414155" xlink:href="#id96">December</textPath></text><path d="M 92.57280143429618 80.3572730644239 l -5.641390948059303 -14.919797949290313 a36.950726086184694,36.950726086184694 0 0,0 0.5968733030462104,-0.2198334747329331 l 5.3837353192405235 15.014694691829568" fill="#ff920d" stroke="none" /><path d="M 93.59665428221793 80.00007090966166 l -4.0704200626783 -12.713371448208145 a34.34908734958192,34.34908734958192 0 0,0 0.564657494624407,-0.1754418321916436 l 3.850977195343164 12.781553415282314" fill="#ff6b09" stroke="none" /><path d="M 93.94186890950719 79.89281104454417 l -4.597687612605514 -15.259916334576618 a36.93749597400371,36.93749597400371 0 0,0 0.610365354084811,-0.17818238417740048 l 4.334332040797282 15.336797047672716" fill="#ff910d" stroke="none" /><path d="M 94.63758080256005 79.69619591428918 l -3.3871969980118473 -12.824992175205736 a34.26474755875244,34.26474755875244 0 0,0 0.5715541191087308,-0.14570187114413582 l 3.165933990218117 12.881397042518735" fill="#ff6a09" stroke="none" /><path d="M 96.40284397218896 79.31037775812273 l -5.645552750690346 -32.47130590258354 a53.958427949160196,53.958427949160196 0 0,0 0.9164473967678431,-0.1512216728909979 l 5.0857761477836165 32.56367383841417" fill="#8cff24" stroke="none" /><path d="M 97.47563105711357 79.15227682838746 l -3.8176986396456085 -31.52880034285633 a52.7590943504825,52.7590943504825 0 0,0 0.9025153992078877,-0.10140812091485524 l 3.274416536928003 31.589844417241785" fill="#9aff22" stroke="none" /><path d="M 98.91598698831166 79.02799685794201 l -2.817897419176494 -54.51683041785975 a75.5896083945899,75.5896083945899 0 0,0 1.2999942879908117,-0.05598048865151721 l 1.8790622987963577 54.55725863303547" fill="#42ffd3" stroke="none" /><path d="M 99.27714615592234 79.0124445844662 l -1.019428425262943 -29.59839079873207 a50.6159411835704,50.6159411835704 0 0,0 0.8710120465849968,-0.022495671427445782 l 0.5097897434830672 29.611553262301875" fill="#b4ff20" stroke="none" /></svg>