<?xml version="1.0" encoding="utf-8" ?>
<svg baseProfile="full" height="200mm" version="1.1" viewBox="0,0,200,200" width="200mm" xmlns="http://www.w3.org/2000/svg" xmlns:ev="http://www.w3.org/2001/xml-events" xmlns:xlink="http://www.w3.org/1999/xlink"><defs /><rect fill="#1a1a1a" height="200" width="200" x="0" y="0" /><text alignment-baseline="middle" fill="#e1ed5e" style="dominant-baseline: central; font-size:9.0px; font-family:Arial;" text-anchor="middle" x="100.0" y="100.0">2022</text><line stroke="#e1ed5e" stroke-width="0.3" x1="100.0" x2="100.0" y1="15.0" y2="10.0" /><path d="M 100.0 14.0 a86.0,86.0 0 0,1 42.46469731375804,11.215312516191453" fill="none" id="id85" stroke="none" /><text fill="#e1ed5e" style="font-size:6.75px; font-family:Arial;" text-anchor="middle"><textPath startOffset="22.20632615414155" xlink:href="#id85">January</textPath></text><line stroke="#e1ed5e" stroke-width="0.3" x1="143.23703022742887" x2="145.7803849466894" y1="26.81831364943548" y2="22.513508569990506" /><path d="M 143.74570117128098 25.957352633546492 a86.0,86.0 0 0,1 28.547481713284135,27.462654790039103" fill="none" id="id86" stroke="none" /><text fill="#e1ed5e" style="font-size:6.75px; font-family:Arial;" text-anchor="middle"><textPath startOffset="19.985693538727396" xlink:href="#id86">February</textPath></text><line stroke="#e1ed5e" stroke-width="0.3" x1="172.23445277983987" x2="176.4835382374775" y1="55.19839476539836" y2="52.563006222186495" /><path d="M 173.08426987136738 54.67131705675599 a86.0,86.0 0 0,1 12.851231095245387,41.99856678651699" fill="none" id="id87" stroke="none" /><text fill="#e1ed5e" style="font-size:6.75px; font-family:Arial;" text-anchor="middle"><textPath startOffset="22.20632615414155" xlink:href="#id87">March</textPath></text><line stroke="#e1ed5e" stroke-width="0.3" x1="184.98032266829074" x2="189.97916517819016" y1="98.17113171792111" y2="98.06355123074" /><path d="M 185.9800911702706 98.14961562048488 a86.0,86.0 0 0,1 -9.607161424134198,41.387399972396054" fill="none" id="id88" stroke="none" /><text fill="#e1ed5e" style="font-size:6.75px; font-family:Arial;" text-anchor="middle"><textPath startOffset="21.466115282336823" xlink:href="#id88">April</textPath></text><line stroke="#e1ed5e" stroke-width="0.3" x1="174.80103733775053" x2="179.2010983576182" y1="140.37084112569926" y2="142.7455964860345" /><path d="M 175.68104954172406 140.8457921977663 a86.0,86.0 0 0,1 -30.038265399797805,32.042727171017184" fill="none" id="id89" stroke="none" /><text fill="#e1ed5e" style="font-size:6.75px; font-family:Arial;" text-anchor="middle"><textPath startOffset="22.206326154141568" xlink:href="#id89">May</textPath></text><line stroke="#e1ed5e" stroke-width="0.3" x1="143.8653032363475" x2="146.44561519142675" y1="172.8068346515853" y2="177.08958963109032" /><path d="M 144.38136562736335 173.6633856474863 a86.0,86.0 0 0,1 -40.68145358897372,12.25698825130547" fill="none" id="id90" stroke="none" /><text fill="#e1ed5e" style="font-size:6.75px; font-family:Arial;" text-anchor="middle"><textPath startOffset="21.466115282336833" xlink:href="#id90">June</textPath></text><line stroke="#e1ed5e" stroke-width="0.3" x1="102.19456741930631" x2="102.32365962044197" y1="184.97166512339345" y2="189.96999836594603" /><path d="M 102.22038585953345 185.97133177190398 a86.0,86.0 0 0,1 -42.740103519485714,-10.115201625700543" fill="none" id="id91" stroke="none" /><text fill="#e1ed5e" style="font-size:6.75px; font-family:Arial;" text-anchor="middle"><textPath startOffset="22.20632615414155" xlink:href="#id91">July</textPath></text><line stroke="#e1ed5e" stroke-width="0.3" x1="58.666819895761336" x2="56.23545636021788" y1="174.27360380694188" y2="178.64263932499728" /><path d="M 58.180547188652646 175.14741091055294 a86.0,86.0 0 0,1 -31.652253787137756,-30.449443065178592" fill="none" id="id92" stroke="none" /><text fill="#e1ed5e" style="font-size:6.75px; font-family:Arial;" text-anchor="middle"><textPath startOffset="22.20632615414155" xlink:href="#id92">August</textPath></text><line stroke="#e1ed5e" stroke-width="0.3" x1="26.63291911575756" x2="22.317208475507996" y1="142.92168965132927" y2="145.44649492493687" /><path d="M 25.769776987707644 143.4266507060508 a86.0,86.0 0 0,1 -11.730757126820373,-40.83630448921669" fill="none" id="id93" stroke="none" /><text fill="#e1ed5e" style="font-size:6.75px; font-family:Arial;" text-anchor="middle"><textPath startOffset="21.46611528233685" xlink:href="#id93">September</textPath></text><path d="M 80.0844068197444 106.66101706037122 l -14.037869867425917 4.695139624106093 a35.80223383495328,35.80223383495328 0 0,0 -0.1904469976329765,-0.5861355893194687 l 14.116609116075143 -4.452805134808822" fill="#ff0000" stroke="none" /><path d="M 79.29508885075956 103.50808413554451 l -14.620750435976658 2.477229787875076 a35.829127106240854,35.829127106240854 0 0,0 -0.09779346230933567,-0.6089599831513925 l 14.661225652647286 -2.22519057503047" fill="#ff0100" stroke="none" /><path d="M 79.1416061653843 102.43462659150553 l -58.87954252416159 6.872518615844118 a80.27927158779599,80.27927158779599 0 0,0 -0.14839316953382078,-1.3739364516697328 l 58.989117995196466 -5.857985842289604" fill="#47ffff" stroke="none" /><line stroke="#e1ed5e" stroke-width="0.3" x1="15.007084014347285" x2="10.007500721073583" y1="101.09737516637583" y2="101.16192664675087" /><path d="M 14.007167355692545 101.11028546245083 a86.0,86.0 0 0,1 10.666146001902534,-42.60595125391555" fill="none" id="id94" stroke="none" /><text fill="#e1ed5e" style="font-size:6.75px; font-family:Arial;" text-anchor="middle"><textPath startOffset="22.20632615414155" xlink:href="#id94">October</textPath></text><path d="M 79.08570108090925 98.10471618934814 l -46.00996637840955 -4.169489244797828 a67.19850264570121,67.19850264570121 0 0,0 0.11431065068356229,-1.1510926524610383 l 45.93137860204376 4.960857427963296" fill="#32ff4b" stroke="none" /><path d="M 81.26839172434947 90.50648371742162 l -33.49319744266703 -16.974955412179064 a58.54921285698203,58.54921285698203 0 0,0 0.4633488987014754,-0.8950425912989098 l 33.196039110805444 17.548970725738307" fill="#8aff24" stroke="none" /><line stroke="#e1ed5e" stroke-width="0.3" x1="26.266209847984243" x2="21.928928074336255" y1="57.711370442889674" y2="55.22380399835377" /><path d="M 25.398753493254645 57.213857153982495 a86.0,86.0 0 0,1 29.58750427330803,-30.492523968695096" fill="none" id="id95" stroke="none" /><text fill="#e1ed5e" style="font-size:6.75px; font-family:Arial;" text-anchor="middle"><textPath startOffset="21.46611528233685" xlink:href="#id95">November</textPath></text><path d="M 82.54541684631803 88.32363383020206 l -14.43972591693053 -9.659556215871934 a38.37275772131947,38.37275772131947 0 0,0 0.37198831699436097,-0.5458469542418081 l 14.27131313426743 9.906681193384157" fill="#ff3004" stroke="none" /><path d="M 84.31358615837235 86.03803664274999 l -47.05924152488297 -41.885890071750055 a84.0,84.0 0 0,0 0.9706254375358201,-1.071788850921776 l 46.331272446731106 42.68973170994139" fill="#4dd2ff" stroke="none" /><path d="M 84.5562425177563 85.77008943001954 l -11.08250574456652 -10.211444061964439 a36.069688895560475,36.069688895560475 0 0,0 0.4246478943496154,-0.4529847659739754 l 10.905090528246449 10.400698244816464" fill="#ff0500" stroke="none" /><path d="M 88.70189139769569 82.29822771554957 l -12.832799800173337 -20.10631228914529 a44.85255844935641,44.85255844935641 0 0,0 0.6543792798089221,-0.4097722449834783 l 12.484801367992173 20.3242288754517" fill="#ffa10e" stroke="none" /><line stroke="#e1ed5e" stroke-width="0.3" x1="56.762969772571076" x2="54.21961505331055" y1="26.818313649435495" y2="22.513508569990535" /><path d="M 56.25429882871897 25.957352633546506 a86.0,86.0 0 0,1 42.265352541879196,-11.944610805530505" fill="none" id="id96" stroke="none" /><text fill="#e1ed5e" style="font-size:6.75px; font-family:Arial;" text-anchor="middle"><textPath startOffset="22.20632615414155" xlink:href="#id96">December</textPath></text><path d="M 89.63071344664047 81.73862282372117 l -14.67385185873889 -25.84215818922023 a50.71765583367734,50.71765583367734 0 0,0 0.7628802731711101,-0.42454204606677887 l 14.226847496495735 26.090915632847192" fill="#fdff18" stroke="none" /><path d="M 91.23893434514133 80.91482961587045 l -6.22631744057065 -13.563456079463105 a35.924287912335345,35.924287912335345 0 0,0 0.5642129778493384,-0.2531459167474495 l 5.991922344254537 13.668622326727082" fill="#ff0200" stroke="none" /><path d="M 92.91201910852362 80.23233633223022 l -6.824878136971877 -19.033896627375643 a41.220489173265285,41.220489173265285 0 0,0 0.6699664169595215,-0.23373812774174252 l 6.49622971594907 19.148555608289595" fill="#ff6309" stroke="none" /><path d="M 94.98787191387505 79.60689891045804 l -15.015646947552044 -61.09492831478035 a83.91311404660938,83.91311404660938 0 0,0 1.4056498035623164,-0.33267189377950146 l 13.961773457027194 61.34434612070072" fill="#4dd3ff" stroke="none" /></svg>