<?xml version="1.0" encoding="utf-8" ?>
<svg baseProfile="full" height="200mm" version="1.1" viewBox="0,0,200,200" width="200mm" xmlns="http://www.w3.org/2000/svg" xmlns:ev="http://www.w3.org/2001/xml-events" xmlns:xlink="http://www.w3.org/1999/xlink"><defs /><rect fill="#1a1a1a" height="200" width="200" x="0" y="0" /><text alignment-baseline="middle" fill="#e1ed5e" style="dominant-baseline: central; font-size:9.0px; font-family:Arial;" text-anchor="middle" x="100.0" y="100.0">2016</text><line stroke="#e1ed5e" stroke-width="0.3" x1="100.0" x2="100.0" y1="15.0" y2="10.0" /><path d="M 100.0 14.0 a86.0,86.0 0 0,1 42.35913384403234,11.155469271406648" fill="none" id="id13" stroke="none" /><text fill="#e1ed5e" style="font-size:6.75px; font-family:Arial;" text-anchor="middle"><textPath startOffset="22.145653131862478" xlink:href="#id13">January</textPath></text><path d="M 100.0 79.0 l 0.0 -14.000818850783759 a35.00081885078376,35.00081885078376 0 0,0 0.6008355980773319,0.005157450983600412 l -0.24034267322847708 13.998755797994594" fill="#ff700a" stroke="none" /><path d="M 103.94208987418118 79.37332000966035 l 2.9620358357067356 -15.498623129624056 a36.77913100288253,36.77913100288253 0 0,0 0.6191215270779198,0.12384164492521743 l -3.2276538483156125 15.445492088035978" fill="#ff8b0c" stroke="none" /><path d="M 104.29559338865022 79.4440306129975 l 2.9088647937682883 -13.919971059090221 a35.22065711120038,35.22065711120038 0 0,0 0.5907637688540635,0.12875421380948202 l -3.147390979241486 13.867985387147021" fill="#ff740a" stroke="none" /><path d="M 105.3480935250658 79.69241777938227 l 5.408164171249561 -20.53568024857944 a42.23587537576643,42.23587537576643 0 0,0 0.699543952547428,0.19066381500058363 l -5.759889524731682 20.439815939434713" fill="#ffd914" stroke="none" /><path d="M 105.69591212413111 79.78721728523813 l 1.8356699009811381 -6.514144887763741 a27.767848077797446,27.767848077797446 0 0,0 0.4576934566589665,0.1332278947375169 l -1.9472233700217092 6.481673298723708" fill="#ff0000" stroke="none" /><path d="M 107.74402155503746 80.48000691201159 l 3.106742682055978 -7.831021033308302 a29.424769463707918,29.424769463707918 0 0,0 0.46791764251928747,0.1902980316851428 l -3.240714785765705 7.776535745043865" fill="#ff1a02" stroke="none" /><line stroke="#e1ed5e" stroke-width="0.3" x1="143.13028292997686" x2="145.6673583964461" y1="26.7553504044142" y2="22.446841604673864" /><path d="M 143.63769802327073 25.89364864446614 a86.0,86.0 0 0,1 29.32050498858742,28.57503671076993" fill="none" id="id14" stroke="none" /><text fill="#e1ed5e" style="font-size:6.75px; font-family:Arial;" text-anchor="middle"><textPath startOffset="20.669276256404974" xlink:href="#id14">February</textPath></text><path d="M 113.59037401385872 83.9905735841838 l 6.756372279149943 -7.958989556182186 a31.440023042593484,31.440023042593484 0 0,0 0.4084515925118103,0.3528107574015029 l -6.892003351424614 7.841834666315964" fill="#ff3a05" stroke="none" /><path d="M 114.65682725009322 84.96080404539774 l 9.89950646238203 -10.157765729323712 a35.18380882593131,35.18380882593131 0 0,0 0.4289209209543406,0.4252549522054613 l -10.072419303466333 9.98633076688959" fill="#ff730a" stroke="none" /><line stroke="#e1ed5e" stroke-width="0.3" x1="172.87174338648825" x2="177.1583165268699" y1="56.24261187166439" y2="53.66864786411523" /><path d="M 173.72905801456457 55.72781907015455 a86.0,86.0 0 0,1 12.242430191666344,42.057860355516425" fill="none" id="id15" stroke="none" /><text fill="#e1ed5e" style="font-size:6.75px; font-family:Arial;" text-anchor="middle"><textPath startOffset="22.145653131862474" xlink:href="#id15">March</textPath></text><line stroke="#e1ed5e" stroke-width="0.3" x1="184.99686870605535" x2="189.99668451229388" y1="99.2704041080226" y2="99.22748670261217" /><path d="M 185.99683186730306 99.26182062694052 a86.0,86.0 0 0,1 -10.086455211305974,41.156179273409016" fill="none" id="id16" stroke="none" /><text fill="#e1ed5e" style="font-size:6.75px; font-family:Arial;" text-anchor="middle"><textPath startOffset="21.40746469413373" xlink:href="#id16">April</textPath></text><line stroke="#e1ed5e" stroke-width="0.3" x1="174.33088141563837" x2="178.70328620479359" y1="141.23008692659167" y2="143.65538615756765" /><path d="M 175.20536237346943 141.71514677278685 a86.0,86.0 0 0,1 -30.301960400862466,31.631185727798858" fill="none" id="id17" stroke="none" /><text fill="#e1ed5e" style="font-size:6.75px; font-family:Arial;" text-anchor="middle"><textPath startOffset="22.145653131862474" xlink:href="#id17">May</textPath></text><line stroke="#e1ed5e" stroke-width="0.3" x1="143.1302829299769" x2="145.66735839644613" y1="173.24464959558577" y2="177.55315839532614" /><path d="M 143.63769802327073 174.10635135553383 a86.0,86.0 0 0,1 -40.68552437913181,11.842963189579606" fill="none" id="id18" stroke="none" /><text fill="#e1ed5e" style="font-size:6.75px; font-family:Arial;" text-anchor="middle"><textPath startOffset="21.407464694133747" xlink:href="#id18">June</textPath></text><line stroke="#e1ed5e" stroke-width="0.3" x1="101.45913802915013" x2="101.54496967792366" y1="184.9874750549273" y2="189.98673829345242" /><path d="M 101.47630435890484 185.9873277026323 a86.0,86.0 0 0,1 -42.54439059252881,-10.42667462771756" fill="none" id="id19" stroke="none" /><text fill="#e1ed5e" style="font-size:6.75px; font-family:Arial;" text-anchor="middle"><textPath startOffset="22.145653131862474" xlink:href="#id19">July</textPath></text><line stroke="#e1ed5e" stroke-width="0.3" x1="58.13341422392154" x2="55.67067388415222" y1="173.97424548756322" y2="178.32567169271397" /><path d="M 57.64086615596768 174.84453072859336 a86.0,86.0 0 0,1 -31.369924170532247,-30.572349798747897" fill="none" id="id20" stroke="none" /><text fill="#e1ed5e" style="font-size:6.75px; font-family:Arial;" text-anchor="middle"><textPath startOffset="22.145653131862474" xlink:href="#id20">August</textPath></text><line stroke="#e1ed5e" stroke-width="0.3" x1="26.387840678322732" x2="22.057713659400548" y1="142.50000000000003" y2="145.00000000000006" /><path d="M 25.521815274538298 143.00000000000003 a86.0,86.0 0 0,1 -11.493303480769221,-40.785679425670985" fill="none" id="id21" stroke="none" /><text fill="#e1ed5e" style="font-size:6.75px; font-family:Arial;" text-anchor="middle"><textPath startOffset="21.40746469413373" xlink:href="#id21">September</textPath></text><line stroke="#e1ed5e" stroke-width="0.3" x1="15.003131293944662" x2="10.003315487706104" y1="100.72959589197737" y2="100.7725132973878" /><path d="M 14.003168132696942 100.73817937305945 a86.0,86.0 0 0,1 10.791469493833604,-42.45332614584628" fill="none" id="id22" stroke="none" /><text fill="#e1ed5e" style="font-size:6.75px; font-family:Arial;" text-anchor="middle"><textPath startOffset="22.145653131862435" xlink:href="#id22">October</textPath></text><line stroke="#e1ed5e" stroke-width="0.3" x1="26.387840678322718" x2="22.05771365940052" y1="57.49999999999999" y2="54.99999999999999" /><path d="M 25.521815274538284 56.99999999999999 a86.0,86.0 0 0,1 29.574782752854787,-30.34633250058573" fill="none" id="id23" stroke="none" /><text fill="#e1ed5e" style="font-size:6.75px; font-family:Arial;" text-anchor="middle"><textPath startOffset="21.40746469413373" xlink:href="#id23">November</textPath></text><path d="M 85.34317274990677 84.96080404539775 l -4.863233844776495 -4.990106352258615 a27.96794121931517,27.96794121931517 0 0,0 0.34670593395665317,-0.3321364419249567 l 4.776855424954541 5.072854924489141" fill="#ff0300" stroke="none" /><path d="M 85.86807049272753 84.46653392183569 l -8.310463125669651 -9.134654753973495 a33.34932042006383,33.34932042006383 0 0,0 0.4267680346925697,-0.3816186082043865 l 8.15243006415369 9.275968892061282" fill="#ff5808" stroke="none" /><line stroke="#e1ed5e" stroke-width="0.3" x1="56.869717070023135" x2="54.33264160355391" y1="26.7553504044142" y2="22.446841604673864" /><path d="M 56.362301976729285 25.89364864446614 a86.0,86.0 0 0,1 42.16139366436587,-11.88097634709845" fill="none" id="id24" stroke="none" /><text fill="#e1ed5e" style="font-size:6.75px; font-family:Arial;" text-anchor="middle"><textPath startOffset="22.145653131862474" xlink:href="#id24">December</textPath></text><path d="M 92.592206182469 80.34994680014964 l -22.223381452592992 -58.95015959955109 a84.0,84.0 0 0,0 1.353643393383492,-0.49707660396511244 l 21.208148907555373 59.32296705252492" fill="#4dd2ff" stroke="none" /><path d="M 97.48249496171623 79.15144685158666 l -1.1943193615916017 -9.890677598522782 a30.96252488555953,30.96252488555953 0 0,0 0.5282267172518,-0.05918890544356079 l 1.0243567427390023 9.909722264473315" fill="#ff3304" stroke="none" /></svg>