<?xml version="1.0" encoding="utf-8" ?>
<svg baseProfile="full" height="200mm" version="1.1" viewBox="0,0,200,200" width="200mm" xmlns="http://www.w3.org/2000/svg" xmlns:ev="http://www.w3.org/2001/xml-events" xmlns:xlink="http://www.w3.org/1999/xlink"><defs /><rect fill="#1a1a1a" height="200" width="200" x="0" y="0" /><text alignment-baseline="middle" fill="#e1ed5e" style="dominant-baseline: central; font-size:9.0px; font-family:Arial;" text-anchor="middle" x="100.0" y="100.0">2015</text><line stroke="#e1ed5e" stroke-width="0.3" x1="100.0" x2="100.0" y1="15.0" y2="10.0" /><path d="M 100.0 14.0 a86.0,86.0 0 0,1 42.46469731375804,11.215312516191453" fill="none" id="id1" stroke="none" /><text fill="#e1ed5e" style="font-size:6.75px; font-family:Arial;" text-anchor="middle"><textPath startOffset="22.20632615414155" xlink:href="#id1">January</textPath></text><line stroke="#e1ed5e" stroke-width="0.3" x1="143.23703022742887" x2="145.7803849466894" y1="26.81831364943548" y2="22.513508569990506" /><path d="M 143.74570117128098 25.957352633546492 a86.0,86.0 0 0,1 28.547481713284135,27.462654790039103" fill="none" id="id2" stroke="none" /><text fill="#e1ed5e" style="font-size:6.75px; font-family:Arial;" text-anchor="middle"><textPath startOffset="19.985693538727396" xlink:href="#id2">February</textPath></text><line stroke="#e1ed5e" stroke-width="0.3" x1="172.23445277983987" x2="176.4835382374775" y1="55.19839476539836" y2="52.563006222186495" /><path d="M 173.08426987136738 54.67131705675599 a86.0,86.0 0 0,1 12.851231095245387,41.99856678651699" fill="none" id="id3" stroke="none" /><text fill="#e1ed5e" style="font-size:6.75px; font-family:Arial;" text-anchor="middle"><textPath startOffset="22.20632615414155" xlink:href="#id3">March</textPath></text><line stroke="#e1ed5e" stroke-width="0.3" x1="184.98032266829074" x2="189.97916517819016" y1="98.17113171792111" y2="98.06355123074" /><path d="M 185.9800911702706 98.14961562048488 a86.0,86.0 0 0,1 -9.607161424134198,41.387399972396054" fill="none" id="id4" stroke="none" /><text fill="#e1ed5e" style="font-size:6.75px; font-family:Arial;" text-anchor="middle"><textPath startOffset="21.466115282336823" xlink:href="#id4">April</textPath></text><line stroke="#e1ed5e" stroke-width="0.3" x1="174.80103733775053" x2="179.2010983576182" y1="140.37084112569926" y2="142.7455964860345" /><path d="M 175.68104954172406 140.8457921977663 a86.0,86.0 0 0,1 -30.038265399797805,32.042727171017184" fill="none" id="id5" stroke="none" /><text fill="#e1ed5e" style="font-size:6.75px; font-family:Arial;" text-anchor="middle"><textPath startOffset="22.206326154141568" xlink:href="#id5">May</textPath></text><line stroke="#e1ed5e" stroke-width="0.3" x1="143.8653032363475" x2="146.44561519142675" y1="172.8068346515853" y2="177.08958963109032" /><path d="M 144.38136562736335 173.6633856474863 a86.0,86.0 0 0,1 -40.68145358897372,12.25698825130547" fill="none" id="id6" stroke="none" /><text fill="#e1ed5e" style="font-size:6.75px; font-family:Arial;" text-anchor="middle"><textPath startOffset="21.466115282336833" xlink:href="#id6">June</textPath></text><line stroke="#e1ed5e" stroke-width="0.3" x1="102.19456741930631" x2="102.32365962044197" y1="184.97166512339345" y2="189.96999836594603" /><path d="M 102.22038585953345 185.97133177190398 a86.0,86.0 0 0,1 -42.740103519485714,-10.115201625700543" fill="none" id="id7" stroke="none" /><text fill="#e1ed5e" style="font-size:6.75px; font-family:Arial;" text-anchor="middle"><textPath startOffset="22.20632615414155" xlink:href="#id7">July</textPath></text><path d="M 98.01472825383883 120.90594882070398 l -0.13980773864471882 1.4722485395244012 a22.478871855813303,22.478871855813303 0 0,0 -0.3848890278300189,-0.03989532145086607 l 0.16512936308033105 -1.4696238496177743" fill="#ff0000" stroke="none" /><path d="M 97.65516085044442 120.86867818915974 l -1.6532790611031107 14.71390849541901 a35.80649975063133,35.80649975063133 0 0,0 -0.6119033731913739,-0.07409297689807724 l 1.9063098573458739 -14.683269989795585" fill="#ffb911" stroke="none" /><path d="M 96.22490169976321 120.6578951692458 l -2.500636628029918 13.68385276615925 a34.910464049461794,34.910464049461794 0 0,0 -0.5902069203756907,-0.11311456099430776 l 2.735811162977303 -13.638781006816474" fill="#ffad10" stroke="none" /><path d="M 95.16358092515715 120.4354850818985 l -0.6837807989277213 2.889202134790216 a23.969014172525718,23.969014172525718 0 0,0 -0.4006782711051708,-0.0984769705837477 l 0.7334123547761026 -2.877003905892438" fill="#ff1602" stroke="none" /><path d="M 94.81253420990036 120.34920634021253 l -3.675792850742422 14.419269487307567 a35.88041617795578,35.88041617795578 0 0,0 -0.5971689700046096,-0.15771775256252563 l 3.9234522635585205 -14.35386038544146" fill="#ffba11" stroke="none" /><path d="M 94.11515582081647 120.15858648285463 l -4.02165949197528 13.776230636717502 a35.351246483334776,35.351246483334776 0 0,0 -0.5826643377434961,-0.17555198529367066 l 4.258198804159021 -13.704963282318106" fill="#ffb310" stroke="none" /><path d="M 93.42475214034765 119.94407469862007 l -3.6686275897999963 11.12769955660016 a32.716847947063286,32.716847947063286 0 0,0 -0.5333317759604929,-0.18093509517524786 l 3.859629098697715 -11.06290147452679" fill="#ff900d" stroke="none" /><path d="M 90.42595943632237 118.69057910512821 l -6.681425058574879 13.043573688840757 a35.65524668470549,35.65524668470549 0 0,0 -0.5438428517034845,-0.2845128764107409 l 6.90495881280486 -12.9266313934853" fill="#ffb710" stroke="none" /><line stroke="#e1ed5e" stroke-width="0.3" x1="58.666819895761336" x2="56.23545636021788" y1="174.27360380694188" y2="178.64263932499728" /><path d="M 58.180547188652646 175.14741091055294 a86.0,86.0 0 0,1 -31.652253787137756,-30.449443065178592" fill="none" id="id8" stroke="none" /><text fill="#e1ed5e" style="font-size:6.75px; font-family:Arial;" text-anchor="middle"><textPath startOffset="22.20632615414155" xlink:href="#id8">August</textPath></text><path d="M 89.7882731507175 118.34994917583269 l -9.61648692994191 17.28033358304058 a40.77591336992817,40.77591336992817 0 0,0 -0.6103789832262358,-0.34658911658878433 l 9.912514680089354 -17.112241300657164" fill="#fff717" stroke="none" /><path d="M 88.8546689885994 117.79835938074946 l -0.8035758579319877 1.2832577062572375 a22.514095274452607,22.514095274452607 0 0,0 -0.32668831145595595,-0.2085079370936765 l 0.8255459714348672 -1.269235340339757" fill="#ff0100" stroke="none" /><path d="M 88.24862548938628 117.40417183066458 l -9.748747386873472 14.438215248917917 a38.421255270133614,38.421255270133614 0 0,0 -0.544928874588371,-0.3748070488686438 l 9.995833146084733 -14.268267410684173" fill="#ffda14" stroke="none" /><path d="M 87.65650970185807 116.9893568818739 l -8.666649341498019 11.92861946470128 a35.74458453609793,35.74458453609793 0 0,0 -0.49466254725401093,-0.36593952674721125 l 8.870696859170595 -11.777669989214301" fill="#ffb811" stroke="none" /><path d="M 87.36589467227662 116.77436683061367 l -22.095314176903752 29.336062635772688 a57.7261144084977,57.7261144084977 0 0,0 -0.7885697066426758,-0.60464162471628 l 22.597012612039915 -28.95138166922904" fill="#49ff2c" stroke="none" /><path d="M 86.79598089348748 116.32954008644616 l -8.610888913017275 10.649170873715066 a34.69497163815629,34.69497163815629 0 0,0 -0.4611620463573444,-0.37950496839981795 l 8.792921087919307 -10.499370786458067" fill="#ffaa0f" stroke="none" /><path d="M 86.51685102203217 116.09983520530335 l -16.22529663252746 19.374153795060035 a46.27089405003602,46.27089405003602 0 0,0 -0.6062247801338175,-0.516637909395781 l 16.556386889238333 -19.091991495441302" fill="#c5ff1e" stroke="none" /><path d="M 85.18274418774928 114.88116024355367 l -6.327068960519355 6.354356587112273 a29.967142759393575,29.967142759393575 0 0,0 -0.3624017544784378,-0.3671110639567854 l 6.435511340053326 -6.244505029174823" fill="#ff6b09" stroke="none" /><path d="M 84.43433777217949 114.09645910891817 l -22.18544181638801 20.091414602267516 a50.930899908097416,50.930899908097416 0 0,0 -0.5828948129694035,-0.6548885015966167 l 22.52799547900575 -19.706551930930033" fill="#90ff24" stroke="none" /><path d="M 84.19399662182784 113.82643327865904 l -6.209556547167738 5.431861377939527 a29.250073365832865,29.250073365832865 0 0,0 -0.3282380421077513,-0.38181499813238884 l 6.302137098846267 -5.324169280645608" fill="#ff6108" stroke="none" /><path d="M 83.95833913139862 113.55231037782056 l -7.840962453244656 6.624199183464825 a31.264536376057542,31.264536376057542 0 0,0 -0.3437669767002727,-0.41408946878846337 l 7.953825429838465 -6.4882484575626" fill="#ff7c0b" stroke="none" /><path d="M 83.72743513129214 113.27417163493432 l -6.854258741962152 5.591288632440364 a29.8455283320456,29.8455283320456 0 0,0 -0.3213113981492701,-0.4008853730772159 l 6.949488052166283 -5.4724754257848875" fill="#ff6909" stroke="none" /><path d="M 83.28015986056508 112.70617746262583 l -11.988131404836356 9.110333819272794 a36.057007567183106,36.057007567183106 0 0,0 -0.371281983004448,-0.4973928902689698 l 12.143174654535889 -8.902628049494517" fill="#ffbc11" stroke="none" /><path d="M 83.06392112726016 112.41649034213515 l -11.868726836564221 8.701419806023813 a35.71670422892446,35.71670422892446 0 0,0 -0.35924236585202113,-0.4989562259432217 l 12.016748994791849 -8.495829974629451" fill="#ffb711" stroke="none" /><path d="M 82.85270091963577 112.12312394758628 l -8.62612319289748 6.098660795763269 a31.564263573047754,31.564263573047754 0 0,0 -0.30983945995444606,-0.44634685098327226 l 8.72982356001406 -5.9492726825929845" fill="#ff800b" stroke="none" /><path d="M 82.44556493220864 111.52570212397912 l -1.8167780041155577 1.1928405568147842 a23.17337316405175,23.17337316405175 0 0,0 -0.21605875069858171,-0.3353279791197758 l 1.837041618191185 -1.16139097777356" fill="#ff0a01" stroke="none" /><path d="M 82.05923443525364 110.91462005526583 l -14.399368159260474 8.760140804863278 a37.85472842578471,37.85472842578471 0 0,0 -0.333877126176433,-0.5595972680481197 l 14.54802616113514 -8.510981442929046" fill="#ffd313" stroke="none" /><line stroke="#e1ed5e" stroke-width="0.3" x1="26.63291911575756" x2="22.317208475507996" y1="142.92168965132927" y2="145.44649492493687" /><path d="M 25.769776987707644 143.4266507060508 a86.0,86.0 0 0,1 -11.730757126820373,-40.83630448921669" fill="none" id="id9" stroke="none" /><text fill="#e1ed5e" style="font-size:6.75px; font-family:Arial;" text-anchor="middle"><textPath startOffset="21.46611528233685" xlink:href="#id9">September</textPath></text><path d="M 81.51974371655577 109.97397251340807 l -27.59283596573238 14.892119636660167 a52.35506057886691,52.35506057886691 0 0,0 -0.4212026745968433,-0.7967567259648635 l 27.84509114855411 -14.414947895609178" fill="#81ff25" stroke="none" /><path d="M 81.02952815118164 109.00673069616217 l -11.829304298748626 5.616273490235757 a34.09484509681263,34.09484509681263 0 0,0 -0.24714765993566945,-0.532334072213416 l 11.924226575524123 -5.411819350743515" fill="#ffa20f" stroke="none" /><path d="M 80.87730276802145 108.67885076344099 l -9.282526285074807 4.2128816535964795 a31.193805278712876,31.193805278712876 0 0,0 -0.21770144117865878,-0.4908592783558855 l 9.353668810984745 -4.052474038747898" fill="#ff7b0b" stroke="none" /><path d="M 80.45479744820244 107.68017299344265 l -29.394464532292528 11.550382865531287 a52.58236674919348,52.58236674919348 0 0,0 -0.32377146729441797,-0.8452651340315951 l 29.588930279180452 -11.042694164666534" fill="#7eff26" stroke="none" /><path d="M 80.32549172779594 107.34259656027581 l -8.032303797724891 2.9976843853113513 a29.57344831283686,29.57344831283686 0 0,0 -0.1738858754786348,-0.47845924830533576 l 8.08271393420875 -2.8589773399998983" fill="#ff6509" stroke="none" /><path d="M 80.20201598880116 107.00284435728193 l -23.203543178795385 8.20744179441003 a45.61232449117414,45.61232449117414 0 0,0 -0.2554489324835629,-0.7424541707919962 l 23.34138294222218 -7.806814920528738" fill="#cdff1d" stroke="none" /><path d="M 80.0844068197444 106.66101706037122 l -9.85938476877364 3.297593476385851 a31.396229641279966,31.396229641279966 0 0,0 -0.16700962570496644,-0.5140027755819785 l 9.914686645494857 -3.1273918008260693" fill="#ff7e0b" stroke="none" /><path d="M 79.97269907076064 106.31721596034903 l -7.230410814656466 2.2806900819841447 a28.581582143508175,28.581582143508175 0 0,0 -0.14396029477142916,-0.4704705727999429 l 7.268597881934025 -2.155892536632154" fill="#ff5708" stroke="none" /><path d="M 79.86692584326677 105.97154293290107 l -17.71783642285374 5.255174647126865 a39.48076264873308,39.48076264873308 0 0,0 -0.1876414673188401,-0.6532045639847464 l 17.805670527058684 -4.949412607637523" fill="#ffe715" stroke="none" /><path d="M 79.67330655649465 105.27499134158121 l -7.10602201193112 1.8440876618818132 a28.34140368994611,28.34140368994611 0 0,0 -0.11847878957016893,-0.4732638698316254 l 7.136712115796348 -1.721495952652796" fill="#ff5407" stroke="none" /><path d="M 79.4281124754447 104.21870165774334 l -61.715662573665874 12.656104973230022 a84.0,84.0 0 0,0 -0.2782802680973342,-1.4189450917281805 l 61.92437277473888 -11.591896154433886" fill="#4dd2ff" stroke="none" /><path d="M 79.35854240842038 103.8639653848113 l -7.581485471647727 1.419211666517526 a28.713175980825604,28.713175980825604 0 0,0 -0.08675967465353995,-0.4865943304034904 l 7.604791588640456 -1.288498585380822" fill="#ff5908" stroke="none" /><path d="M 79.29508885075956 103.50808413554451 l -7.171260593159899 1.2150443601223884 a28.27346625015015,28.27346625015015 0 0,0 -0.07717073731351723,-0.4805422549165008 l 7.191113084834707 -1.0914228755126738" fill="#ff5307" stroke="none" /><path d="M 79.23777060512086 103.15116336523772 l -11.57283702256653 1.7564539608821104 a32.7053700183969,32.7053700183969 0 0,0 -0.07968577589735942,-0.5573221310304657 l 11.601356849480489 -1.5569863578712442" fill="#ff900d" stroke="none" /><path d="M 79.18660465613746 102.79330883721812 l -11.085525501983598 1.4877580441976617 a32.18491393141689,32.18491393141689 0 0,0 -0.0689653596158977,-0.5497217717612894 l 11.109492370846343 -1.2967185181489638" fill="#ff890c" stroke="none" /><path d="M 79.1416061653843 102.43462659150553 l -14.56862979196387 1.7004748196120367 a35.66753519264337,35.66753519264337 0 0,0 -0.06593007749088818,-0.6104306351209526 l 14.595742170955809 -1.4494478626063019" fill="#ffb711" stroke="none" /><path d="M 79.07016306316243 101.71520430193888 l -16.023298576746623 1.3131125069452918 a37.07701345821003,37.07701345821003 0 0,0 -0.046652490000698175,-0.6365361604836123 l 16.043527625411656 -1.037103209964919" fill="#ffc912" stroke="none" /><path d="M 79.0095281055655 100.63252640178507 l -31.701279554400678 0.955285635757645 a52.715669566196254,52.715669566196254 0 0,0 -0.019524722543034986,-0.907237135650747 l 31.71302633962872 -0.4094586843167691" fill="#7dff26" stroke="none" /><line stroke="#e1ed5e" stroke-width="0.3" x1="15.007084014347285" x2="10.007500721073583" y1="101.09737516637583" y2="101.16192664675087" /><path d="M 14.007167355692545 101.11028546245083 a86.0,86.0 0 0,1 10.666146001902534,-42.60595125391555" fill="none" id="id10" stroke="none" /><text fill="#e1ed5e" style="font-size:6.75px; font-family:Arial;" text-anchor="middle"><textPath startOffset="22.20632615414155" xlink:href="#id10">October</textPath></text><path d="M 79.00019446554 99.90962569577889 l -15.414057995380151 -0.06633560316882707 a36.414200734945375,36.414200734945375 0 0,0 0.008092610268765106,-0.6267815836852603 l 15.41063237799367 0.33165344491455934" fill="#ffc011" stroke="none" /><path d="M 79.00486145842228 99.54816195383935 l -10.913845645644392 -0.23487774004735343 a31.916372764326105,31.916372764326105 0 0,0 0.01654834373931004,-0.5491589650315655 l 10.908185607449436 0.4227068525039133" fill="#ff850c" stroke="none" /><path d="M 79.03285615573316 98.82574320788736 l -19.03874780298227 -1.066257716693475 a40.06858210313422,40.06858210313422 0 0,0 0.04449407875886844,-0.6883037048542696 l 19.01757313321899 1.3938204858007566" fill="#ffef16" stroke="none" /><path d="M 79.05617556472873 98.46500227214037 l -23.583865999772005 -1.7284895046594293 a44.647122688879506,44.647122688879506 0 0,0 0.06277282587444814,-0.7659874734057199 l 23.55061869007806 2.1341908952729276" fill="#d8ff1c" stroke="none" /><path d="M 79.26566170972629 96.67025291283419 l -31.359252190486934 -5.036012105867571 a52.761047147047975,52.761047147047975 0 0,0 0.1517210200692369,-0.8954660488831685 l 31.267919308897472 5.575063943066567" fill="#7cff26" stroke="none" /><path d="M 79.81627453868168 94.20196356495316 l -7.224682079271414 -2.075383457207887 a28.516864215947876,28.516864215947876 0 0,0 0.13958883210788706,-0.47062414854222506 l 7.18788735005182 2.1994369924966515" fill="#ff5708" stroke="none" /><path d="M 80.02781315780177 93.51064311812611 l -5.1652224889960365 -1.6782825220999673 a26.43103632696529,26.43103632696529 0 0,0 0.14431686446030634,-0.4314890557390902 l 5.135568330763958 1.7669446807613798" fill="#ff3905" stroke="none" /><path d="M 80.2630227832202 92.82701384747504 l -2.9901736646602313 -1.086715258100302 a24.181522999605,24.181522999605 0 0,0 0.14554445477106814,-0.38998677863614534 l 2.9710246213875355 1.1380251737657887" fill="#ff1902" stroke="none" /><path d="M 80.803312248108 91.48605970444005 l -13.471558293052118 -5.974782966603018 a35.737059216177116,35.737059216177116 0 0,0 0.2542397069257315,-0.5601834934606256 l 13.366716269163033 6.205788468905714" fill="#ffb811" stroke="none" /><path d="M 80.95270993114464 91.15688171328213 l -12.416453507987228 -5.764608334085319 a34.68937642704788,34.68937642704788 0 0,0 0.25610969408347006,-0.5394323318549058 l 12.315385620062006 5.977483081580757" fill="#ffaa0f" stroke="none" /><path d="M 81.43458229118936 90.18545643968196 l -22.230948438520883 -11.752313643527785 a46.14621133395692,46.14621133395692 0 0,0 0.3772824160853887,-0.6990470177376323 l 22.025357923217022 12.13324164459789" fill="#c6ff1e" stroke="none" /><line stroke="#e1ed5e" stroke-width="0.3" x1="26.266209847984243" x2="21.928928074336255" y1="57.711370442889674" y2="55.22380399835377" /><path d="M 25.398753493254645 57.213857153982495 a86.0,86.0 0 0,1 29.58750427330803,-30.492523968695096" fill="none" id="id11" stroke="none" /><text fill="#e1ed5e" style="font-size:6.75px; font-family:Arial;" text-anchor="middle"><textPath startOffset="21.46611528233685" xlink:href="#id11">November</textPath></text><path d="M 82.15384107792192 88.93136811851018 l -13.889530195616857 -8.6146322810073 a37.34414079699283,37.34414079699283 0 0,0 0.3435170211373484,-0.5433614316482234 l 13.739185578233545 8.852441360369738" fill="#ffcc13" stroke="none" /><path d="M 82.34701348167596 88.62581576622439 l -4.168480742461444 -2.6858383362207157 a25.958826400327478,25.958826400327478 0 0,0 0.2452532619040295,-0.3735375437389813 l 4.121630845199494 2.7571939439373643" fill="#ff3204" stroke="none" /><path d="M 82.54541684631803 88.32363383020206 l -12.268738636741963 -8.207259004860731 a35.760794291282316,35.760794291282316 0 0,0 0.34666775266466937,-0.5086921504815183 l 12.125646418408554 8.417229178612665" fill="#ffb811" stroke="none" /><path d="M 82.7489923806493 88.02491185347247 l -5.989567463989759 -4.157762834699291 a28.291221447418216,28.291221447418216 0 0,0 0.2811438517338114,-0.3976580402153745 l 5.917110992452069 4.260247375246452" fill="#ff5307" stroke="none" /><path d="M 82.95767976084542 87.72973835380427 l -6.169568390252303 -4.442013606725287 a28.60230616354886,28.60230616354886 0 0,0 0.29111343788010163,-0.3970784021086004 l 6.092192339858569 4.547554452505388" fill="#ff5808" stroke="none" /><path d="M 83.17141714833178 87.43820079747576 l -38.11248464388948 -28.449298638261055 a68.55968964090991,68.55968964090991 0 0,0 0.7140787454873774,-0.9396439256917022 l 37.61712995817799 29.101127339833784" fill="#3aff90" stroke="none" /><path d="M 83.6137871275137 86.86637796730984 l -12.01822874640017 -9.632663452252702 a36.40214359708298,36.40214359708298 0 0,0 0.3960926049326264,-0.48556269913060635 l 11.850637649391151 9.83811032099139" fill="#ffc011" stroke="none" /><path d="M 84.07557802195018 86.31012108654704 l -9.095120248572409 -7.81887688469172 a32.994000503333254,32.994000503333254 0 0,0 0.3739447891861924,-0.4274835369328211 l 8.959183595808373 7.974275977827484" fill="#ff940d" stroke="none" /><path d="M 84.5562425177563 85.77008943001954 l -22.73614891367967 -20.94913534607101 a51.9159948760026,51.9159948760026 0 0,0 0.6112062117029624,-0.6519921715240156 l 22.372175380006254 21.337396934473077" fill="#86ff25" stroke="none" /><path d="M 84.80347519578584 85.50635884689758 l -5.480383821660368 -5.226900065361417 a28.573314408235795,28.573314408235795 0 0,0 0.34252020671426353,-0.3529971813952332 l 5.389599351242986 5.320461442306774" fill="#ff5708" stroke="none" /><path d="M 85.31137513191541 84.99185889309783 l -2.6289088159223306 -2.686094499715169 a24.758492413699173,24.758492413699173 0 0,0 0.3071429588887251,-0.295471283101903 l 2.582282613421178 2.7309488695793855" fill="#ff2103" stroke="none" /><path d="M 86.65592168130627 83.78471172551755 l -15.420879766830152 -18.738949584474767 a45.26832842023774,45.26832842023774 0 0,0 0.6059415843616601,-0.4899626208078448 l 15.096034783903992 19.001618302546746" fill="#d1ff1d" stroke="none" /><path d="M 86.93701828274178 83.55741782278169 l -10.03554445967467 -12.631898906612149 a37.13310331551175,37.13310331551175 0 0,0 0.5038916938486877,-0.39329545964650703 l 9.816620210666557 12.802772755481877" fill="#ffca12" stroke="none" /><path d="M 87.51073957382395 83.11751280151077 l -5.351622267116539 -7.234110854665542 a29.998456575851627,29.998456575851627 0 0,0 0.4177709108459764,-0.3035283336931388 l 5.226306039916781 7.325158423175348" fill="#ff6b09" stroke="none" /><path d="M 87.80319425747018 82.90503203632743 l -8.488289745136743 -11.897134735326638 a35.61481706036409,35.61481706036409 0 0,0 0.5021161095713529,-0.3517644228813732 l 8.28224249598173 12.041484000971954" fill="#ffb610" stroke="none" /><path d="M 88.09926311788651 82.69761687909137 l -7.875130301851894 -11.449586942344004 a34.896428261299384,34.896428261299384 0 0,0 0.49784790900306,-0.33614913050405043 l 7.676877698442294 11.58344798514672" fill="#ffad10" stroke="none" /><path d="M 88.39885842347998 82.49532879139004 l -20.389202076832767 -30.76475502059389 a57.907854351168645,57.907854351168645 0 0,0 0.8356185397373782,-0.5435095424870615 l 19.856616511311103 31.111163487240482" fill="#47ff2c" stroke="none" /><path d="M 89.00827224532344 82.1063720568725 l -6.086397282285961 -9.908153741976667 a32.62823040932988,32.62823040932988 0 0,0 0.48109227842473196,-0.2898527147726606 l 5.91494293764358 10.011453066207947" fill="#ff8f0d" stroke="none" /><line stroke="#e1ed5e" stroke-width="0.3" x1="56.762969772571076" x2="54.21961505331055" y1="26.818313649435495" y2="22.513508569990535" /><path d="M 56.25429882871897 25.957352633546506 a86.0,86.0 0 0,1 42.265352541879196,-11.944610805530505" fill="none" id="id12" stroke="none" /><text fill="#e1ed5e" style="font-size:6.75px; font-family:Arial;" text-anchor="middle"><textPath startOffset="22.20632615414155" xlink:href="#id12">December</textPath></text><path d="M 89.3179101791058 81.91981866633112 l -8.86557352724571 -15.005600934570568 a38.428897078547024,38.428897078547024 0 0,0 0.5724135511392106,-0.33157887555802296 l 8.60596324364118 15.155983967518637" fill="#ffda14" stroke="none" /><path d="M 89.63071344664047 81.73862282372117 l -7.132181159548872 -12.560502554717646 a35.444176422340334,35.444176422340334 0 0,0 0.533141024499899,-0.29669240291465593 l 6.914916045976928 12.681410355192487" fill="#ffb410" stroke="none" /><path d="M 89.94658935756843 81.56283822128135 l -13.70052053132629 -25.125673512489122 a49.61824125073885,49.61824125073885 0 0,0 0.7533820002548408,-0.40243057326520326 l 13.265993484543145 25.357782812256072" fill="#9fff22" stroke="none" /><path d="M 90.58718382345135 81.22770947309562 l -5.17766725824212 -10.325993007865186 a32.55137956417125,32.55137956417125 0 0,0 0.5030408555725338,-0.24683996314699186 l 4.9991551356591595 10.413588131147007" fill="#ff8e0d" stroke="none" /><path d="M 90.91171255644093 81.06846463323043 l -11.42248507686524 -23.79383151688565 a47.393551931961525,47.393551931961525 0 0,0 0.7384858493353023,-0.3467290082770767 l 11.01122101623033 23.986925507802734" fill="#b8ff1f" stroke="none" /><path d="M 91.56875222667455 80.76684994638697 l -5.194353203343927 -11.849227691712732 a33.93775490922367,33.93775490922367 0 0,0 0.5370508181174632,-0.22993713277941025 l 4.989618627436155 11.93688435245493" fill="#ffa00e" stroke="none" /><path d="M 92.91201910852362 80.23233633223022 l -10.441543746165648 -29.12041216063643 a51.93580838136339,51.93580838136339 0 0,0 0.8441250492419133,-0.2944986548506832 l 9.93873669286045 29.295831668659325" fill="#85ff25" stroke="none" /><path d="M 93.25333710446033 80.11325718540243 l -1.105998122228186 -3.260085845510505 a24.44258501223575,24.44258501223575 0 0,0 0.39959806207146487,-0.13174119842914442 l 1.0497172379143118 3.2786407681988834" fill="#ff1d02" stroke="none" /><path d="M 93.59665428221793 80.00007090966166 l -4.585386032870174 -14.321793567159755 a36.037936562267426,36.037936562267426 0 0,0 0.5924201351722643,-0.1840678197514722 l 4.338180524987181 14.398601521793752" fill="#ffbc11" stroke="none" /><path d="M 94.28887869178378 79.79150937346287 l -3.9882079477924486 -14.112055860851122 a35.664785141781564,35.664785141781564 0 0,0 0.5922088504438882,-0.161873049645244 l 3.7447012081248383 14.178615451322662" fill="#ffb711" stroke="none" /><path d="M 94.98787191387505 79.60689891045804 l -2.6693087465866805 -10.860752593101962 a32.18396870852092,32.18396870852092 0 0,0 0.5391218024379365,-0.1275927123102219 l 2.48196325718621 10.905091217553055" fill="#ff890c" stroke="none" /><path d="M 95.692805502759 79.44645832069477 l -4.642830511829794 -22.155166314400166 a43.63641468033994,43.63641468033994 0 0,0 0.7364862444349449,-0.1477322121307856 l 4.260777857927713 22.231802482608163" fill="#e4ff1a" stroke="none" /><path d="M 96.40284397218896 79.31037775812273 l -1.8334728858812297 -10.545514597177753 a31.703714352623145,31.703714352623145 0 0,0 0.5384661412617191,-0.08885152706411696 l 1.651677538480625 10.575512387181497" fill="#ff820c" stroke="none" /><path d="M 97.47563105711357 79.15227682838746 l -0.8821440917581429 -7.285264649714378 a28.338477990360246,28.338477990360246 0 0,0 0.48476785076163875,-0.054469316389301026 l 0.7566095374867862 7.299369919574278" fill="#ff5407" stroke="none" /><path d="M 98.19473922651362 79.07773832637324 l -1.6420811606725736 -19.03107420130487 a40.10178567029291,40.10178567029291 0 0,0 0.688241760936311,-0.05342080666194896 l 1.3142492103739285 19.056520270155282" fill="#ffef16" stroke="none" /><path d="M 98.55514903715128 79.0497635885617 l -0.5094155473527628 -7.386489280292704 a28.404034581750935,28.404034581750935 0 0,0 0.48805969729369064,-0.029441093773973026 l 0.3821938012194492 7.394163643446983" fill="#ff5507" stroke="none" /><path d="M 98.91598698831166 79.02799685794201 l -1.3343060829682891 -25.81433162033244 a46.84879280986912,46.84879280986912 0 0,0 0.8057081435608261,-0.03469548751383484 l 0.8897571070181389 25.833474834370463" fill="#beff1f" stroke="none" /></svg>