<?xml version="1.0" encoding="utf-8" ?>
<svg baseProfile="full" height="200mm" version="1.1" viewBox="0,0,200,200" width="200mm" xmlns="http://www.w3.org/2000/svg" xmlns:ev="http://www.w3.org/2001/xml-events" xmlns:xlink="http://www.w3.org/1999/xlink"><defs /><rect fill="#1a1a1a" height="200" width="200" x="0" y="0" /><text alignment-baseline="middle" fill="#e1ed5e" style="dominant-baseline: central; font-size:9.0px; font-family:Arial;" text-anchor="middle" x="100.0" y="100.0">2017</text><line stroke="#e1ed5e" stroke-width="0.3" x1="100.0" x2="100.0" y1="15.0" y2="10.0" /><path d="M 100.0 14.0 a86.0,86.0 0 0,1 42.46469731375804,11.215312516191453" fill="none" id="id25" stroke="none" /><text fill="#e1ed5e" style="font-size:6.75px; font-family:Arial;" text-anchor="middle"><textPath startOffset="22.20632615414155" xlink:href="#id25">January</textPath></text><path d="M 101.80526077348638 79.07773832637324 l 1.413335765771961 -16.380005126389456 a37.440866337494356,37.440866337494356 0 0,0 0.6416203340398541,0.06092958190304111 l -1.6950812269020592 16.353249999971236" fill="#ff6709" stroke="none" /><path d="M 102.16513564639614 79.11191278185805 l 1.5295566481420984 -14.756356131617416 a35.83541673910776,35.83541673910776 0 0,0 0.61301308982345,0.06887916326941694 l -1.7833364414752737 14.727841014877399" fill="#ff4d07" stroke="none" /><path d="M 104.307194497241 79.44645832069477 l 5.230480330436402 -24.95937797637733 a46.50153864877082,46.50153864877082 0 0,0 0.7820169862794922,0.17091862387896659 l -5.659340040869422 24.865645854402494" fill="#fff116" stroke="none" /><path d="M 105.01212808612495 79.60689891045804 l 10.008875932895247 -40.72362381505346 a62.93555930317466,62.93555930317466 0 0,0 1.0497984290256457,0.2676169942957158 l -10.70838325060592 40.54530382458887" fill="#38ff2e" stroke="none" /><path d="M 105.71112130821622 79.79150937346287 l 5.2231470102707265 -18.481820241890283 a40.205700824089845,40.205700824089845 0 0,0 0.6643700709164021,0.19394784192737913 l -5.540507298910556 18.3891740710442" fill="#ff920d" stroke="none" /><path d="M 106.40334571778207 80.00007090966166 l 9.361711923691212 -29.239960309819313 a51.70206717897007,51.70206717897007 0 0,0 0.8452479899103305,0.2786649729564952 l -9.863642735843959 29.074481612603584" fill="#c4ff1e" stroke="none" /><path d="M 107.4271985657038 80.35727306442388 l 9.700985601828785 -25.656216068140278 a48.42900917973503,48.42900917973503 0 0,0 0.7772091140931606,0.30154506160009714 l -10.141177880921612 25.485428302649634" fill="#f2ff19" stroke="none" /><line stroke="#e1ed5e" stroke-width="0.3" x1="143.23703022742887" x2="145.7803849466894" y1="26.81831364943548" y2="22.513508569990506" /><path d="M 143.74570117128098 25.957352633546492 a86.0,86.0 0 0,1 28.547481713284135,27.462654790039103" fill="none" id="id26" stroke="none" /><text fill="#e1ed5e" style="font-size:6.75px; font-family:Arial;" text-anchor="middle"><textPath startOffset="19.985693538727396" xlink:href="#id26">February</textPath></text><path d="M 110.68208982089419 81.91981866633111 l 16.72068905115906 -28.300931291321156 a53.87132723669112,53.87132723669112 0 0,0 0.7943145931277403,0.47856565471281964 l -17.205365710504438 28.008919027149723" fill="#a7ff21" stroke="none" /><path d="M 112.77801427241765 83.33499621200491 l 11.728045741609657 -15.295641603061476 a40.274431482318576,40.274431482318576 0 0,0 0.5465191348534725,0.42656685349600915 l -11.98959743162256 15.091496360342243" fill="#ff940d" stroke="none" /><path d="M 114.68862486808459 84.99185889309783 l 19.67308629462049 -20.10102768431783 a49.12617354567266,49.12617354567266 0 0,0 0.5992555684365944,0.5966821745829352 l -20.016177663224408 19.759409659084778" fill="#e8ff1a" stroke="none" /><path d="M 115.4437574822437 85.77008943001954 l 42.706884248704974 -39.350212814484664 a79.07165582947948,79.07165582947948 0 0,0 0.9136781016211102,1.0089061802614543 l -43.37790599094212 38.609253846953656" fill="#46fff6" stroke="none" /><path d="M 115.68641384162765 86.03803664274999 l 10.337520718155995 -9.201088721036232 a34.83923293577663,34.83923293577663 0 0,0 0.3948581383534023,0.4513911102688917 l -10.494370720087245 9.021782054564392" fill="#ff3c05" stroke="none" /><path d="M 116.38621287248628 86.86637796730983 l 21.778153794130148 -17.455286509927046 a48.91012378733614,48.91012378733614 0 0,0 0.5208833144134201,0.6614689127762804 l -22.075391189137534 17.07782520319773" fill="#ebff1a" stroke="none" /><line stroke="#e1ed5e" stroke-width="0.3" x1="172.23445277983987" x2="176.4835382374775" y1="55.19839476539836" y2="52.563006222186495" /><path d="M 173.08426987136738 54.67131705675599 a86.0,86.0 0 0,1 12.851231095245387,41.99856678651699" fill="none" id="id27" stroke="none" /><text fill="#e1ed5e" style="font-size:6.75px; font-family:Arial;" text-anchor="middle"><textPath startOffset="22.20632615414155" xlink:href="#id27">March</textPath></text><path d="M 117.84615892207809 88.93136811851018 l 19.791634738016747 -12.275264397483271 a44.28928770124135,44.28928770124135 0 0,0 0.39625035543902337,0.651331397326028 l -20.000000891741994 11.932765226950162" fill="#ffd113" stroke="none" /><path d="M 118.3937258080291 89.86733742301442 l 55.1811774240873 -30.397987730956764 a84.0,84.0 0 0,0 0.6867676031261407,1.272476066670165 l -55.696253126431905 29.44363068095414" fill="#4dd2ff" stroke="none" /><path d="M 118.56541770881063 90.18545643968196 l 17.93995892781603 -9.48389694910058 a41.292521471539345,41.292521471539345 0 0,0 0.32678226426681856,0.631239321857835 l -18.100550625242963 9.1736849049824" fill="#ffa30f" stroke="none" /><path d="M 118.89224826269711 90.83032412892265 l 12.33491239711616 -5.986960736855219 a34.711081748322265,34.711081748322265 0 0,0 0.25626994323649216,0.5397698574398023 l -12.43614053419441 5.773748463774877" fill="#ff3a05" stroke="none" /><path d="M 120.67395015179393 96.31383870115 l 51.2261471747276 -9.13361209726481 a73.03403717097257,73.03403717097257 0 0,0 0.21001855001989858,1.239541370685904 l -51.37577758626772 8.25048493826307" fill="#3dffad" stroke="none" /><path d="M 120.78858239683441 97.02765380044208 l 32.76457034608 -4.684669896642326 a54.09778243332522,54.09778243332522 0 0,0 0.12386846769014202,0.9229639609922303 l -32.840354812827975 4.1199875935854315" fill="#a5ff21" stroke="none" /><path d="M 120.83666639777658 97.38593545837742 l 23.28828397569919 -2.9216322905956074 a44.470835216801696,44.470835216801696 0 0,0 0.0887503335986536,0.7603586593579192 l -23.335124662301435 2.5203298929128355" fill="#ffd313" stroke="none" /><path d="M 120.87857604477298 97.74499172005257 l 16.394807642724118 -1.7707350780631392 a37.49015525574603,37.49015525574603 0 0,0 0.06377410020736902,0.6421964858657895 l -16.422858868613716 1.4882630614929149" fill="#ff6709" stroke="none" /><path d="M 120.91429891909075 98.10471618934814 l 37.34897521381231 -3.384617784273959 a58.502021106436246,58.502021106436246 0 0,0 0.08225249384620681,1.0036887628507785 l -37.40170219147801 2.741215104215412" fill="#6dff28" stroke="none" /><line stroke="#e1ed5e" stroke-width="0.3" x1="184.98032266829074" x2="189.97916517819016" y1="98.17113171792111" y2="98.06355123074" /><path d="M 185.9800911702706 98.14961562048488 a86.0,86.0 0 0,1 -9.607161424134198,41.387399972396054" fill="none" id="id28" stroke="none" /><text fill="#e1ed5e" style="font-size:6.75px; font-family:Arial;" text-anchor="middle"><textPath startOffset="21.466115282336823" xlink:href="#id28">April</textPath></text><path d="M 120.99513854157772 99.54816195383933 l 36.43442056942548 -0.7841080624680719 a57.44285701867242,57.44285701867242 0 0,0 0.012765971659248927,0.9887385736031974 l -36.44251954820244 0.15683323080441172" fill="#7aff26" stroke="none" /><path d="M 120.49622156327973 104.57218783832717 l 13.383763997086863 2.985578721892468 a34.71272471226399,34.71272471226399 0 0,0 -0.13511421299947485,0.5820684933342462 l -13.330389218156835 -3.215515872575279" fill="#ff3a05" stroke="none" /><path d="M 120.23288151984713 105.62410040840565 l 18.691442547352082 5.195629182187195 a40.40011822386036,40.40011822386036 0 0,0 -0.1920109175911116,0.6684151936005422 l -18.59923899287487 -5.51660185129232" fill="#ff950d" stroke="none" /><path d="M 120.02730092923936 106.31721596034902 l 26.745576331799274 8.43636305605722 a49.04457300323377,49.04457300323377 0 0,0 -0.2608885166695518,0.802932292791957 l -26.596395564113475 -8.89549424882697" fill="#e9ff1a" stroke="none" /><path d="M 119.67450827220406 107.3425965602758 l 33.90917816894429 12.655026064200428 a57.19367415417783,57.19367415417783 0 0,0 -0.35216520186667605,0.9193922152702266 l -33.6863186874841 -13.236841846303797" fill="#7dff26" stroke="none" /><line stroke="#e1ed5e" stroke-width="0.3" x1="174.80103733775053" x2="179.2010983576182" y1="140.37084112569926" y2="142.7455964860345" /><path d="M 175.68104954172406 140.8457921977663 a86.0,86.0 0 0,1 -30.038265399797805,32.042727171017184" fill="none" id="id29" stroke="none" /><text fill="#e1ed5e" style="font-size:6.75px; font-family:Arial;" text-anchor="middle"><textPath startOffset="22.206326154141568" xlink:href="#id29">May</textPath></text><line stroke="#e1ed5e" stroke-width="0.3" x1="143.8653032363475" x2="146.44561519142675" y1="172.8068346515853" y2="177.08958963109032" /><path d="M 144.38136562736335 173.6633856474863 a86.0,86.0 0 0,1 -40.68145358897372,12.25698825130547" fill="none" id="id30" stroke="none" /><text fill="#e1ed5e" style="font-size:6.75px; font-family:Arial;" text-anchor="middle"><textPath startOffset="21.466115282336833" xlink:href="#id30">June</textPath></text><path d="M 101.26447882468166 120.96189622390904 l 1.4275510421054676 23.6652257158055 a44.70824350638061,44.70824350638061 0 0,0 -0.768581397432332,0.03972687919769498 l -1.019981576259656 -23.6862924017654" fill="#ffd714" stroke="none" /><line stroke="#e1ed5e" stroke-width="0.3" x1="102.19456741930631" x2="102.32365962044197" y1="184.97166512339345" y2="189.96999836594603" /><path d="M 102.22038585953345 185.97133177190398 a86.0,86.0 0 0,1 -42.740103519485714,-10.115201625700543" fill="none" id="id31" stroke="none" /><text fill="#e1ed5e" style="font-size:6.75px; font-family:Arial;" text-anchor="middle"><textPath startOffset="22.20632615414155" xlink:href="#id31">July</textPath></text><path d="M 100.18074693466247 120.99922214144158 l 0.1307758342242958 15.193567729028004 a36.194130533050526,36.194130533050526 0 0,0 -0.623045537773492,0.0 l 0.13077583422428535 -15.193567729028004" fill="#ff5207" stroke="none" /><path d="M 97.2962882734958 120.8252237178851 l -1.7645716906227777 13.591537834168232 a34.705605201849856,34.705605201849856 0 0,0 -0.5917659499209534,-0.08201336847542431 l 1.9982662317305624 -13.559149900200204" fill="#ff3a05" stroke="none" /><path d="M 94.81253420990036 120.34920634021253 l -2.536620987271723 9.950566609117713 a31.268798463089816,31.268798463089816 0 0,0 -0.520416376411967,-0.13744669500124101 l 2.7075278064951793 -9.90542856481289" fill="#ff0000" stroke="none" /><path d="M 93.76903079525671 120.05430185196036 l -8.13260753396308 26.174702677950698 a48.40901978511075,48.40901978511075 0 0,0 -0.793628200813523,-0.25409468794793816 l 8.581957079867543 -26.030835143343054" fill="#f2ff19" stroke="none" /><line stroke="#e1ed5e" stroke-width="0.3" x1="58.666819895761336" x2="56.23545636021788" y1="174.27360380694188" y2="178.64263932499728" /><path d="M 58.180547188652646 175.14741091055294 a86.0,86.0 0 0,1 -31.652253787137756,-30.449443065178592" fill="none" id="id32" stroke="none" /><text fill="#e1ed5e" style="font-size:6.75px; font-family:Arial;" text-anchor="middle"><textPath startOffset="22.20632615414155" xlink:href="#id32">August</textPath></text><path d="M 89.1626897886671 117.98757091392108 l -7.2778497666478374 12.079643031860849 a35.10265482109948,35.10265482109948 0 0,0 -0.5148737058330982,-0.31627748271878364 l 7.484702672413245 -11.952577082313686" fill="#ff4106" stroke="none" /><line stroke="#e1ed5e" stroke-width="0.3" x1="26.63291911575756" x2="22.317208475507996" y1="142.92168965132927" y2="145.44649492493687" /><path d="M 25.769776987707644 143.4266507060508 a86.0,86.0 0 0,1 -11.730757126820373,-40.83630448921669" fill="none" id="id33" stroke="none" /><text fill="#e1ed5e" style="font-size:6.75px; font-family:Arial;" text-anchor="middle"><textPath startOffset="21.46611528233685" xlink:href="#id33">September</textPath></text><line stroke="#e1ed5e" stroke-width="0.3" x1="15.007084014347285" x2="10.007500721073583" y1="101.09737516637583" y2="101.16192664675087" /><path d="M 14.007167355692545 101.11028546245083 a86.0,86.0 0 0,1 10.666146001902534,-42.60595125391555" fill="none" id="id34" stroke="none" /><text fill="#e1ed5e" style="font-size:6.75px; font-family:Arial;" text-anchor="middle"><textPath startOffset="22.20632615414155" xlink:href="#id34">October</textPath></text><line stroke="#e1ed5e" stroke-width="0.3" x1="26.266209847984243" x2="21.928928074336255" y1="57.711370442889674" y2="55.22380399835377" /><path d="M 25.398753493254645 57.213857153982495 a86.0,86.0 0 0,1 29.58750427330803,-30.492523968695096" fill="none" id="id35" stroke="none" /><text fill="#e1ed5e" style="font-size:6.75px; font-family:Arial;" text-anchor="middle"><textPath startOffset="21.46611528233685" xlink:href="#id35">November</textPath></text><line stroke="#e1ed5e" stroke-width="0.3" x1="56.762969772571076" x2="54.21961505331055" y1="26.818313649435495" y2="22.513508569990535" /><path d="M 56.25429882871897 25.957352633546506 a86.0,86.0 0 0,1 42.265352541879196,-11.944610805530505" fill="none" id="id36" stroke="none" /><text fill="#e1ed5e" style="font-size:6.75px; font-family:Arial;" text-anchor="middle"><textPath startOffset="22.20632615414155" xlink:href="#id36">December</textPath></text></svg>