<?xml version="1.0" encoding="utf-8" ?>
<svg baseProfile="full" height="200mm" version="1.1" viewBox="0,0,200,200" width="200mm" xmlns="http://www.w3.org/2000/svg" xmlns:ev="http://www.w3.org/2001/xml-events" xmlns:xlink="http://www.w3.org/1999/xlink"><defs /><rect fill="#1a1a1a" height="200" width="200" x="0" y="0" /><text alignment-baseline="middle" fill="#e1ed5e" style="dominant-baseline: central; font-size:9.0px; font-family:Arial;" text-anchor="middle" x="100.0" y="100.0">2018</text><line stroke="#e1ed5e" stroke-width="0.3" x1="100.0" x2="100.0" y1="15.0" y2="10.0" /><path d="M 100.0 14.0 a86.0,86.0 0 0,1 42.46469731375804,11.215312516191453" fill="none" id="id49" stroke="none" /><text fill="#e1ed5e" style="font-size:6.75px; font-family:Arial;" text-anchor="middle"><textPath startOffset="22.20632615414155" xlink:href="#id49">January</textPath></text><path d="M 102.16513564639614 79.11191278185805 l 6.435754944719689 -62.088770661391536 a83.42142568022103,83.42142568022103 0 0,0 1.427035892620203,0.16034410989072653 l -7.503557540849617 61.9687905980302" fill="#4cd7ff" stroke="none" /><path d="M 106.74666289553966 80.11325718540242 l 2.2983413686138023 -6.774686153059515 a28.153932171829553,28.153932171829553 0 0,0 0.45759255745844707,0.1596450582318573 l -2.414615930135523 6.73412024165545" fill="#ff3f05" stroke="none" /><line stroke="#e1ed5e" stroke-width="0.3" x1="143.23703022742887" x2="145.7803849466894" y1="26.81831364943548" y2="22.513508569990506" /><path d="M 143.74570117128098 25.957352633546492 a86.0,86.0 0 0,1 28.547481713284135,27.462654790039103" fill="none" id="id50" stroke="none" /><text fill="#e1ed5e" style="font-size:6.75px; font-family:Arial;" text-anchor="middle"><textPath startOffset="19.985693538727396" xlink:href="#id50">February</textPath></text><line stroke="#e1ed5e" stroke-width="0.3" x1="172.23445277983987" x2="176.4835382374775" y1="55.19839476539836" y2="52.563006222186495" /><path d="M 173.08426987136738 54.67131705675599 a86.0,86.0 0 0,1 12.851231095245387,41.99856678651699" fill="none" id="id51" stroke="none" /><text fill="#e1ed5e" style="font-size:6.75px; font-family:Arial;" text-anchor="middle"><textPath startOffset="22.20632615414155" xlink:href="#id51">March</textPath></text><path d="M 119.7369772167798 92.82701384747503 l 8.9734179277209 -3.261198603484177 a30.547651315214125,30.547651315214125 0 0,0 0.17535358354977296,0.49574819406272014 l -9.028224592080484 3.1062527829948423" fill="#ff6109" stroke="none" /><path d="M 120.91429891909075 98.10471618934814 l 13.752363680043905 -1.246258951438811 a34.8087171077632,34.8087171077632 0 0,0 0.04894025429466154,0.5971950635132823 l -13.77177841815806 1.00934997071776" fill="#ff9c0e" stroke="none" /><path d="M 120.94382443527127 98.46500227214037 l 7.160271630969931 -0.5247847984194716 a28.179476924813184,28.179476924813184 0 0,0 0.03129184512815972,0.48407099403414805 l -7.168244067102506 0.4014547401322883" fill="#ff3f05" stroke="none" /><line stroke="#e1ed5e" stroke-width="0.3" x1="184.98032266829074" x2="189.97916517819016" y1="98.17113171792111" y2="98.06355123074" /><path d="M 185.9800911702706 98.14961562048488 a86.0,86.0 0 0,1 -9.607161424134198,41.387399972396054" fill="none" id="id52" stroke="none" /><text fill="#e1ed5e" style="font-size:6.75px; font-family:Arial;" text-anchor="middle"><textPath startOffset="21.466115282336823" xlink:href="#id52">April</textPath></text><path d="M 120.8583938346157 102.4346265915055 l 7.59396943987313 0.8863808057316773 a28.645524363083055,28.645524363083055 0 0,0 -0.0613812077700657,0.4892686194364653 l -7.577586722856216 -1.0169671794555375" fill="#ff4606" stroke="none" /><path d="M 120.49622156327973 104.57218783832717 l 60.97982178808375 13.603053553165246 a83.47865020370347,83.47865020370347 0 0,0 -0.32492845831105055,1.3997832942361712 l -60.736632763842145 -14.650705504749983" fill="#4cd7ff" stroke="none" /><path d="M 119.9155931802556 106.66101706037122 l 16.4631353788007 5.506299743766161 a38.359555390876764,38.359555390876764 0 0,0 -0.21483025880514897,0.624397291902841 l -16.36591428905232 -5.788869738758302" fill="#ffcc13" stroke="none" /><path d="M 119.79798401119884 107.00284435728193 l 9.44007880204389 3.3390976845822156 a31.013224312676748,31.013224312676748 0 0,0 -0.18235146621992526,0.5017529181988066 l -9.381203074818739 -3.5010983997871534" fill="#ff6809" stroke="none" /><path d="M 119.67450827220406 107.3425965602758 l 4.601677295607585 1.7173623561389415 a25.91169699749419,25.91169699749419 0 0,0 -0.15954907843884544,0.4165322976054488 l -4.571433937575232 -1.796318220577534" fill="#ff1e03" stroke="none" /><path d="M 118.81262510543309 109.33194174019688 l 6.391779982728488 3.170621754310757 a28.134962764900543,28.134962764900543 0 0,0 -0.21894538288351603,0.43200001178303327 l -6.3362559300587025 -3.2801759777964845" fill="#ff3f05" stroke="none" /><line stroke="#e1ed5e" stroke-width="0.3" x1="174.80103733775053" x2="179.2010983576182" y1="140.37084112569926" y2="142.7455964860345" /><path d="M 175.68104954172406 140.8457921977663 a86.0,86.0 0 0,1 -30.038265399797805,32.042727171017184" fill="none" id="id53" stroke="none" /><text fill="#e1ed5e" style="font-size:6.75px; font-family:Arial;" text-anchor="middle"><textPath startOffset="22.206326154141568" xlink:href="#id53">May</textPath></text><path d="M 118.48025628344425 109.97397251340804 l 6.368469170086896 3.437124219529219 a28.236796423198708,28.236796423198708 0 0,0 -0.23453159132005194,0.42574296255162475 l -6.308361169315334 -3.5462377004786485" fill="#ff4006" stroke="none" /><path d="M 117.75023020441432 111.22182372390056 l 7.985958232391937 5.048780467537135 a30.448053402627075,30.448053402627075 0 0,0 -0.2838847988509636,0.44059551207126074 l -7.897868570163923 -5.185497579529849" fill="#ff6008" stroke="none" /><path d="M 117.55443506779139 111.5257021239791 l 7.192280817787392 4.722230363876693 a29.6039736733344,29.6039736733344 0 0,0 -0.2833479417068087,0.4235667276981004 l -7.109929770669862 -4.8453340057806" fill="#ff5407" stroke="none" /><path d="M 116.27256486870786 113.27417163493432 l 6.188017197041557 5.04780918166205 a28.98573317644371,28.98573317644371 0 0,0 -0.3187105588790134,0.38390739939674906 l -6.100210638269 -5.15357783817257" fill="#ff4b07" stroke="none" /><path d="M 115.56566222782051 114.09645910891815 l 10.754226084274807 9.739162139474692 a35.50877864779368,35.50877864779368 0 0,0 -0.41419061321247014,0.44952210700252887 l -10.584989063066615 -9.922835501278556" fill="#ffa60f" stroke="none" /><path d="M 115.07121518719521 114.62390073753431 l 5.1594845048640625 5.006350736739778 a28.189146545674756,28.189146545674756 0 0,0 -0.34089990652178426,0.3453298054974734 l -5.072543973286742 -5.094421036217916" fill="#ff3f05" stroke="none" /><path d="M 114.29624159901734 115.38237550388516 l 4.741579707538377 5.101813580708558 a27.964989586154598,27.964989586154598 0 0,0 -0.3554223009380533,0.32466984492549383 l -4.65305785713346 -5.182676192220634" fill="#ff3c05" stroke="none" /><line stroke="#e1ed5e" stroke-width="0.3" x1="143.8653032363475" x2="146.44561519142675" y1="172.8068346515853" y2="177.08958963109032" /><path d="M 144.38136562736335 173.6633856474863 a86.0,86.0 0 0,1 -40.68145358897372,12.25698825130547" fill="none" id="id54" stroke="none" /><text fill="#e1ed5e" style="font-size:6.75px; font-family:Arial;" text-anchor="middle"><textPath startOffset="21.466115282336833" xlink:href="#id54">June</textPath></text><path d="M 110.8373102113329 117.98757091392108 l 3.6701405151805773 6.091632655474745 a28.11181550733821,28.11181550733821 0 0,0 -0.4166333423622007,0.24615432242400298 l -3.5647393017899947 -6.153905550192498" fill="#ff3e05" stroke="none" /><path d="M 110.21172684928248 118.3499491758327 l 3.6650389922624615 6.585887012850005 a28.53700328783467,28.53700328783467 0 0,0 -0.4312854219613378,0.23517119951056925 l -3.551130758432475 -6.6479988641203445" fill="#ff4406" stroke="none" /><path d="M 109.89434966115114 118.52300852407294 l 3.274498348683467 6.130121018754249 a27.949872167177134,27.949872167177134 0 0,0 -0.42631420611277754,0.2230274437845124 l -3.1684932400441936 -6.1855778814834785" fill="#ff3c05" stroke="none" /><path d="M 109.57404056367764 118.69057910512821 l 8.566609019276868 16.723856815997742 a39.790268143141276,39.790268143141276 0 0,0 -0.6122890315576783,0.3070144313348093 l -8.277466080036428 -16.868839088241852" fill="#ffde14" stroke="none" /><line stroke="#e1ed5e" stroke-width="0.3" x1="102.19456741930631" x2="102.32365962044197" y1="184.97166512339345" y2="189.96999836594603" /><path d="M 102.22038585953345 185.97133177190398 a86.0,86.0 0 0,1 -42.740103519485714,-10.115201625700543" fill="none" id="id55" stroke="none" /><text fill="#e1ed5e" style="font-size:6.75px; font-family:Arial;" text-anchor="middle"><textPath startOffset="22.20632615414155" xlink:href="#id55">July</textPath></text><path d="M 96.58105272829116 120.7198165907248 l -1.6536377128417734 10.02152633388287 a31.157042273518428,31.157042273518428 0 0,0 -0.5284101262667813,-0.0918708736503506 l 1.8258968105806046 -9.991576881711513" fill="#ff6a09" stroke="none" /><path d="M 96.22490169976321 120.6578951692458 l -1.2902012299500627 7.0601715864904975 a28.177091475274118,28.177091475274118 0 0,0 -0.47637047623324413,-0.09129753554138792 l 1.411539320755002 -7.036916852600641" fill="#ff3f05" stroke="none" /><path d="M 95.16358092515715 120.4354850818985 l -2.109885849787145 8.914972036254927 a30.161241439146735,30.161241439146735 0 0,0 -0.5041907016799725,-0.12391780757411032 l 2.263029836210328 -8.877332970366787" fill="#ff5c08" stroke="none" /><path d="M 94.81253420990036 120.34920634021253 l -1.7775888713586527 6.9730624152507295 a28.196069874769176,28.196069874769176 0 0,0 -0.469275995066042,-0.12394005548008916 l 1.897355309236184 -6.941431010467059" fill="#ff4006" stroke="none" /><line stroke="#e1ed5e" stroke-width="0.3" x1="58.666819895761336" x2="56.23545636021788" y1="174.27360380694188" y2="178.64263932499728" /><path d="M 58.180547188652646 175.14741091055294 a86.0,86.0 0 0,1 -31.652253787137756,-30.449443065178592" fill="none" id="id56" stroke="none" /><text fill="#e1ed5e" style="font-size:6.75px; font-family:Arial;" text-anchor="middle"><textPath startOffset="22.20632615414155" xlink:href="#id56">August</textPath></text><path d="M 89.1626897886671 117.98757091392108 l -6.720049780806191 11.153816733134205 a34.02177778849178,34.02177778849178 0 0,0 -0.4990197721017356,-0.3065387017421315 l 6.911048752840235 -11.036489564563697" fill="#ff920d" stroke="none" /><path d="M 83.72743513129214 113.27417163493432 l -6.835118236268685 5.575674968595452 a29.820827209462536,29.820827209462536 0 0,0 -0.32104547046507165,-0.4005535874029276 l 6.930081618788617 -5.457193547614264" fill="#ff5708" stroke="none" /><line stroke="#e1ed5e" stroke-width="0.3" x1="26.63291911575756" x2="22.317208475507996" y1="142.92168965132927" y2="145.44649492493687" /><path d="M 25.769776987707644 143.4266507060508 a86.0,86.0 0 0,1 -11.730757126820373,-40.83630448921669" fill="none" id="id57" stroke="none" /><text fill="#e1ed5e" style="font-size:6.75px; font-family:Arial;" text-anchor="middle"><textPath startOffset="21.46611528233685" xlink:href="#id57">September</textPath></text><path d="M 81.02952815118164 109.00673069616217 l -13.339623679796606 6.333337358688812 a35.7667437851936,35.7667437851936 0 0,0 -0.25926696557584966,-0.5584379783783193 l 13.446665262212282 -6.102779313031666" fill="#ffa90f" stroke="none" /><path d="M 80.87730276802145 108.67885076344099 l -10.361900759570167 4.7027565843330965 a32.37914350215644,32.37914350215644 0 0,0 -0.22597391185744167,-0.5095115158680625 l 10.44131575615889 -4.523696731972338" fill="#ff7b0b" stroke="none" /><path d="M 80.58989483394504 108.01547362559985 l -6.793004936055453 2.8051961304539748 a28.34942456193597,28.34942456193597 0 0,0 -0.18237776883928328,-0.4526466655671348 l 6.840285319152124 -2.6878500970440347" fill="#ff4206" stroke="none" /><path d="M 80.20201598880116 107.00284435728193 l -9.120270093121007 3.225976539953381 a30.67399871861719,30.67399871861719 0 0,0 -0.17178778575928777,-0.49929571749653745 l 9.174448709823524 -3.068508119367547" fill="#ff6309" stroke="none" /><path d="M 79.67330655649465 105.27499134158121 l -13.971949442678163 3.625868247581925 a35.43475984481825,35.43475984481825 0 0,0 -0.14813195214508715,-0.5917135140579503 l 14.032292709118309 -3.384826894126583" fill="#ffa50f" stroke="none" /><path d="M 79.58551787078972 104.9243191809786 l -7.740213285812194 1.8670706661548242 a28.962214175860847,28.962214175860847 0 0,0 -0.11273119029204373,-0.48564301732876364 l 7.771205042034793 -1.7335589914774863" fill="#ff4b06" stroke="none" /><path d="M 79.4281124754447 104.21870165774334 l -8.04870905038885 1.650558422169056 a29.216207183536973,29.216207183536973 0 0,0 -0.09678921390264203,-0.4935261164523024 l 8.075928197267157 -1.5117685786487987" fill="#ff4e07" stroke="none" /><path d="M 79.18660465613746 102.79330883721812 l -21.8674345996875 2.9347685615652543 a43.06348935416975,43.06348935416975 0 0,0 -0.0922758108334315,-0.7355290033225655 l 21.91471191976778 -2.5579218039552805" fill="#f6ff19" stroke="none" /><line stroke="#e1ed5e" stroke-width="0.3" x1="15.007084014347285" x2="10.007500721073583" y1="101.09737516637583" y2="101.16192664675087" /><path d="M 14.007167355692545 101.11028546245083 a86.0,86.0 0 0,1 10.666146001902534,-42.60595125391555" fill="none" id="id58" stroke="none" /><text fill="#e1ed5e" style="font-size:6.75px; font-family:Arial;" text-anchor="middle"><textPath startOffset="22.20632615414155" xlink:href="#id58">October</textPath></text><path d="M 79.00175016825051 100.2711162175752 l -18.819798802255175 0.24298942567484802 a39.82136740033399,39.82136740033399 0 0,0 -0.002950009961923616,-0.685478422866185 l 18.821193109506602 0.08099847539501234" fill="#ffdf14" stroke="none" /><path d="M 80.02781315780177 93.51064311812611 l -34.31276284819145 -11.14889248154611 a57.078573944119555,57.078573944119555 0 0,0 0.31165636933717844,-0.9318128759467285 l 34.11576918508249 11.73787846041516" fill="#56ff2b" stroke="none" /><path d="M 80.2630227832202 92.82701384747504 l -7.267838728058639 -2.6413419837576755 a28.73292746973809,28.73292746973809 0 0,0 0.17293858052811592,-0.4633894161625885 l 7.221295559028896 2.7660545369496057" fill="#ff4706" stroke="none" /><path d="M 80.38941819471856 92.48833698450439 l -4.091105261811337 -1.5670623336310907 a25.380961837394356,25.380961837394356 0 0,0 0.15978699357667517,-0.4066404698520945 l 4.063524718352971 1.6372518083789487" fill="#ff1602" stroke="none" /><line stroke="#e1ed5e" stroke-width="0.3" x1="26.266209847984243" x2="21.928928074336255" y1="57.711370442889674" y2="55.22380399835377" /><path d="M 25.398753493254645 57.213857153982495 a86.0,86.0 0 0,1 29.58750427330803,-30.492523968695096" fill="none" id="id59" stroke="none" /><text fill="#e1ed5e" style="font-size:6.75px; font-family:Arial;" text-anchor="middle"><textPath startOffset="21.46611528233685" xlink:href="#id59">November</textPath></text><path d="M 82.34701348167596 88.62581576622439 l -52.95895955497213 -34.12255270132681 a84.0,84.0 0 0,0 0.793613458568319,-1.208727744089332 l 52.36374946104589 35.02909850939381" fill="#4dd2ff" stroke="none" /><path d="M 83.84228863543731 86.58626213691792 l -9.71742738742969 -8.067171193835982 a33.62963364870991,33.62963364870991 0 0,0 0.3735922191695381,-0.4422153504448944 l 9.577124554773029 8.233245493909992" fill="#ff8c0c" stroke="none" /><path d="M 85.31137513191541 84.99185889309783 l -6.795972122065154 -6.943802396924275 a30.716050062212425,30.716050062212425 0 0,0 0.381049796725994,-0.366569602545044 l 6.675439081726733 7.0597550862316325" fill="#ff6409" stroke="none" /><path d="M 86.37877921826538 84.01681056812374 l -1.8794010120113265 -2.20529590370619 a23.89749515734755,23.89749515734755 0 0,0 0.3153814604007158,-0.26412290320034953 l 1.8411620146515004 2.237319964300352" fill="#ff0000" stroke="none" /><path d="M 86.93701828274178 83.55741782278169 l -5.299387236111242 -6.670422726194376 a29.519274876677542,29.519274876677542 0 0,0 0.40057296834063616,-0.3126535555730048 l 5.1837817126111805 6.760654670990602" fill="#ff5307" stroke="none" /><line stroke="#e1ed5e" stroke-width="0.3" x1="56.762969772571076" x2="54.21961505331055" y1="26.818313649435495" y2="22.513508569990535" /><path d="M 56.25429882871897 25.957352633546506 a86.0,86.0 0 0,1 42.265352541879196,-11.944610805530505" fill="none" id="id60" stroke="none" /><text fill="#e1ed5e" style="font-size:6.75px; font-family:Arial;" text-anchor="middle"><textPath startOffset="22.20632615414155" xlink:href="#id60">December</textPath></text><path d="M 89.3179101791058 81.91981866633112 l -7.129401961597037 -12.067009585910656 a35.01574445673448,35.01574445673448 0 0,0 0.5215732991059951,-0.3021289200691804 l 6.9206319300257215 12.187942663369885" fill="#ff9f0e" stroke="none" /><path d="M 90.26544431104013 81.39251694778311 l -3.347948817333456 -6.399562842798655 a28.222407206909182,28.222407206909182 0 0,0 0.4323935016105867,-0.2214887457796598 l 3.237294828134106 6.45624411389082" fill="#ff4006" stroke="none" /><path d="M 92.57280143429618 80.3572730644239 l -2.541686260284861 -6.722002747741283 a28.186479665758625,28.186479665758625 0 0,0 0.455302479851305,-0.16769174578492502 l 2.4256014546609865 6.764757761332531" fill="#ff3f05" stroke="none" /><path d="M 94.28887869178378 79.79150937346287 l -11.538280018962219 -40.82757326028251 a63.42667373386368,63.42667373386368 0 0,0 1.0531911909769782,-0.2878769370217363 l 10.833790938761519 41.020136738130546" fill="#33ff4f" stroke="none" /><path d="M 97.83486435360386 79.11191278185805 l -1.5057031676640116 -14.526230327946847 a35.60405798296063,35.60405798296063 0 0,0 0.6101431353185626,-0.057940442600839 l 1.2554349052552125 14.549996315062867" fill="#ffa70f" stroke="none" /><path d="M 99.27714615592234 79.0124445844662 l -1.0118809470026664 -29.379255050153176 a50.39667549830861,50.39667549830861 0 0,0 0.8672388666578847,-0.02239822132189358 l 0.5060154451499027 29.39232006361743" fill="#9fff22" stroke="none" /></svg>