<?xml version="1.0" encoding="utf-8" ?>
<svg baseProfile="full" height="200mm" version="1.1" viewBox="0,0,200,200" width="200mm" xmlns="http://www.w3.org/2000/svg" xmlns:ev="http://www.w3.org/2001/xml-events" xmlns:xlink="http://www.w3.org/1999/xlink"><defs /><rect fill="#1a1a1a" height="200" width="200" x="0" y="0" /><text alignment-baseline="middle" fill="#e1ed5e" style="dominant-baseline: central; font-size:9.0px; font-family:Arial;" text-anchor="middle" x="100.0" y="100.0">2019</text><line stroke="#e1ed5e" stroke-width="0.3" x1="100.0" x2="100.0" y1="15.0" y2="10.0" /><path d="M 100.0 14.0 a86.0,86.0 0 0,1 42.46469731375804,11.215312516191453" fill="none" id="id49" stroke="none" /><text fill="#e1ed5e" style="font-size:6.75px; font-family:Arial;" text-anchor="middle"><textPath startOffset="22.20632615414155" xlink:href="#id49">January</textPath></text><line stroke="#e1ed5e" stroke-width="0.3" x1="143.23703022742887" x2="145.7803849466894" y1="26.81831364943548" y2="22.513508569990506" /><path d="M 143.74570117128098 25.957352633546492 a86.0,86.0 0 0,1 28.547481713284135,27.462654790039103" fill="none" id="id50" stroke="none" /><text fill="#e1ed5e" style="font-size:6.75px; font-family:Arial;" text-anchor="middle"><textPath startOffset="19.985693538727396" xlink:href="#id50">February</textPath></text><line stroke="#e1ed5e" stroke-width="0.3" x1="172.23445277983987" x2="176.4835382374775" y1="55.19839476539836" y2="52.563006222186495" /><path d="M 173.08426987136738 54.67131705675599 a86.0,86.0 0 0,1 12.851231095245387,41.99856678651699" fill="none" id="id51" stroke="none" /><text fill="#e1ed5e" style="font-size:6.75px; font-family:Arial;" text-anchor="middle"><textPath startOffset="22.20632615414155" xlink:href="#id51">March</textPath></text><path d="M 120.83666639777658 97.38593545837742 l 20.177951613899523 -2.5314254607492885 a41.336121709809866,41.336121709809866 0 0,0 0.08249439376470553,0.7067615872987251 l -20.21853636066782 2.1837201351257107" fill="#ffd614" stroke="none" /><line stroke="#e1ed5e" stroke-width="0.3" x1="184.98032266829074" x2="189.97916517819016" y1="98.17113171792111" y2="98.06355123074" /><path d="M 185.9800911702706 98.14961562048488 a86.0,86.0 0 0,1 -9.607161424134198,41.387399972396054" fill="none" id="id52" stroke="none" /><text fill="#e1ed5e" style="font-size:6.75px; font-family:Arial;" text-anchor="middle"><textPath startOffset="21.466115282336823" xlink:href="#id52">April</textPath></text><path d="M 120.81339534386255 102.79330883721812 l 17.643544463449818 2.3678918242495173 a38.801729492526235,38.801729492526235 0 0,0 -0.09453939579439202,0.6612083139948479 l -17.60017101663882 -2.6712456102247746" fill="#ffb310" stroke="none" /><line stroke="#e1ed5e" stroke-width="0.3" x1="174.80103733775053" x2="179.2010983576182" y1="140.37084112569926" y2="142.7455964860345" /><path d="M 175.68104954172406 140.8457921977663 a86.0,86.0 0 0,1 -30.038265399797805,32.042727171017184" fill="none" id="id53" stroke="none" /><text fill="#e1ed5e" style="font-size:6.75px; font-family:Arial;" text-anchor="middle"><textPath startOffset="22.206326154141568" xlink:href="#id53">May</textPath></text><path d="M 111.1453310114006 117.79835938074945 l 13.489755125227568 21.54225024196343 a46.41735703856671,46.41735703856671 0 0,0 -0.6808338786689048,0.41822377576389436 l -13.116942046626354 -21.771262484555702" fill="#e5ff1a" stroke="none" /><line stroke="#e1ed5e" stroke-width="0.3" x1="143.8653032363475" x2="146.44561519142675" y1="172.8068346515853" y2="177.08958963109032" /><path d="M 144.38136562736335 173.6633856474863 a86.0,86.0 0 0,1 -40.68145358897372,12.25698825130547" fill="none" id="id54" stroke="none" /><text fill="#e1ed5e" style="font-size:6.75px; font-family:Arial;" text-anchor="middle"><textPath startOffset="21.466115282336833" xlink:href="#id54">June</textPath></text><line stroke="#e1ed5e" stroke-width="0.3" x1="102.19456741930631" x2="102.32365962044197" y1="184.97166512339345" y2="189.96999836594603" /><path d="M 102.22038585953345 185.97133177190398 a86.0,86.0 0 0,1 -42.740103519485714,-10.115201625700543" fill="none" id="id55" stroke="none" /><text fill="#e1ed5e" style="font-size:6.75px; font-family:Arial;" text-anchor="middle"><textPath startOffset="22.20632615414155" xlink:href="#id55">July</textPath></text><path d="M 100.54218724476979 120.99299961872073 l 0.46570755859793433 18.03177535877446 a39.03778828236547,39.03778828236547 0 0,0 -0.6718966810801213,0.011567310693255901 l -0.15525118762514503 -18.037120146746876" fill="#ffb610" stroke="none" /><path d="M 99.45781275523022 120.99299961872073 l -0.437550053118013 16.94154221975097 a37.947191591310585,37.947191591310585 0 0,0 -0.6528356206211253,-0.02248497876830079 l 0.7291060254137813 -16.931500442556576" fill="#ffa70f" stroke="none" /><path d="M 98.37488393609728 120.93702456842531 l -1.7717956128069225 22.826756254245826 a43.895415715472666,43.895415715472666 0 0,0 -0.7528182569059386,-0.06495632689986772 l 2.164458187454403 -22.792875675067293" fill="#fff817" stroke="none" /><path d="M 97.2962882734958 120.8252237178851 l -1.9624685037688305 15.115829557439959 a36.24268958674486,36.24268958674486 0 0,0 -0.6179748056906714,-0.08564567706946939 l 2.222371900646333 -15.079809314877883" fill="#ff8e0d" stroke="none" /><path d="M 96.93821686468263 120.77559828337769 l -2.24119206043976 15.207512702811234 a36.371772326506246,36.371772326506246 0 0,0 -0.6186044120011542,-0.09661328691229597 l 2.5026323360494316 -15.166681108551833" fill="#ff900d" stroke="none" /><path d="M 96.58105272829116 120.7198165907248 l -1.2520401297716517 7.587727973391542 a28.690332911177975,28.690332911177975 0 0,0 -0.48657578929168244,-0.08459743793169996 l 1.382464890535384 -7.565051956938835" fill="#ff1d02" stroke="none" /><path d="M 96.22490169976321 120.6578951692458 l -4.114734423903101 22.51643417416323 a43.88931731831858,43.88931731831858 0 0,0 -0.7420061439210697,-0.1422072434719759 l 4.501708182395866 -22.442269732342787" fill="#fff817" stroke="none" /><path d="M 95.16358092515715 120.4354850818985 l -5.859847595181449 24.759812220660447 a46.4437834262344,46.4437834262344 0 0,0 -0.7763779817084431,-0.19081481872148642 l 6.285178861633103 -24.65527614362493" fill="#e5ff1a" stroke="none" /><path d="M 94.46302465271185 120.25689768951611 l -3.6118952376154736 13.214036130657798 a34.698778707236606,34.698778707236606 0 0,0 -0.5747916008134711,-0.1624418478280025 l 3.8388180065335584 -13.149905489491273" fill="#ff780b" stroke="none" /><path d="M 93.08242187328487 119.8279376855182 l -8.146695832298793 23.350972601504424 a45.73128735873256,45.73128735873256 0 0,0 -0.7410220264475116,-0.2657041343832025 l 8.547437419376031 -23.207280926081264" fill="#eeff19" stroke="none" /><path d="M 92.40401165467489 119.57807347666478 l -4.601453134951517 11.8598901788671 a33.721256463413646,33.721256463413646 0 0,0 -0.5393456826403767,-0.2146167779489313 l 4.804919893633752 -11.778926556512102" fill="#ff6909" stroke="none" /><line stroke="#e1ed5e" stroke-width="0.3" x1="58.666819895761336" x2="56.23545636021788" y1="174.27360380694188" y2="178.64263932499728" /><path d="M 58.180547188652646 175.14741091055294 a86.0,86.0 0 0,1 -31.652253787137756,-30.449443065178592" fill="none" id="id56" stroke="none" /><text fill="#e1ed5e" style="font-size:6.75px; font-family:Arial;" text-anchor="middle"><textPath startOffset="22.20632615414155" xlink:href="#id56">August</textPath></text><path d="M 87.95078237400918 117.19931262002967 l -12.661169792077267 18.07282631525266 a43.06654190228045,43.06654190228045 0 0,0 -0.6034907793281881,-0.43057464737667395 l 12.97038789925434 -17.852207406031766" fill="#ffed16" stroke="none" /><path d="M 87.07902340077011 116.55440617244103 l -7.853771630583709 10.062283184231319 a33.76445344325506,33.76445344325506 0 0,0 -0.4550845504574735,-0.36154669007336926 l 8.02581367375854 -9.92560258015282" fill="#ff6a09" stroke="none" /><path d="M 86.51685102203217 116.09983520530335 l -9.215792744852829 11.004309506689385 a35.353594101656086,35.353594101656086 0 0,0 -0.4631902030689205,-0.3947407397521941 l 9.403848424498806 -10.844044376714239" fill="#ff810b" stroke="none" /><path d="M 85.70375840098266 115.38237550388516 l -10.388926670551648 11.178208623708297 a36.26047657844426,36.26047657844426 0 0,0 -0.45353942024135174,-0.4288498303414751 l 10.579801925183817 -10.99772415662089" fill="#ff8f0d" stroke="none" /><path d="M 82.6465618267979 111.8261652097733 l -9.327366280039975 6.356491059515914 a32.28737083256028,32.28737083256028 0 0,0 -0.30903148913317985,-0.4619601463110493 l 9.435400874583884 -6.194993998999044" fill="#ff5407" stroke="none" /><line stroke="#e1ed5e" stroke-width="0.3" x1="26.63291911575756" x2="22.317208475507996" y1="142.92168965132927" y2="145.44649492493687" /><path d="M 25.769776987707644 143.4266507060508 a86.0,86.0 0 0,1 -11.730757126820373,-40.83630448921669" fill="none" id="id57" stroke="none" /><text fill="#e1ed5e" style="font-size:6.75px; font-family:Arial;" text-anchor="middle"><textPath startOffset="21.46611528233685" xlink:href="#id57">September</textPath></text><path d="M 81.69416730710424 110.29060199501025 l -11.09008564296835 6.234278404972773 a33.722272862939334,33.722272862939334 0 0,0 -0.2800933292480745,-0.5084507511923647 l 11.195755381667942 -6.042457135382587" fill="#ff6909" stroke="none" /><path d="M 81.51974371655577 109.97397251340807 l -18.607789088549517 10.042803198067862 a42.1449216323699,42.1449216323699 0 0,0 -0.3390608952784588,-0.6413754354322537 l 18.777902492052863 -9.721012747549482" fill="#ffe115" stroke="none" /><path d="M 81.35079622478065 109.6543875284942 l -14.666463648031918 7.592588157507405 a37.5152217928965,37.5152217928965 0 0,0 -0.2919422594599229,-0.5760297744837678 l 14.794984577278107 -7.339004171320952" fill="#ffa10e" stroke="none" /><path d="M 81.02952815118164 109.00673069616217 l -11.492968552096366 5.456589244228023 a33.72252696282075,33.72252696282075 0 0,0 -0.24444878990688879,-0.5265209462741718 l 11.585191958843083 -5.257948230675024" fill="#ff6909" stroke="none" /><path d="M 80.58989483394504 108.01547362559985 l -18.79766293258134 7.76256337459326 a41.33739220921697,41.33739220921697 0 0,0 -0.2659320771848685,-0.6600216066419211 l 18.928497624023596 -7.437842400108534" fill="#ffd614" stroke="none" /><path d="M 80.45479744820244 107.68017299344265 l -11.85298514959879 4.657561168597518 a33.73523195689175,33.73523195689175 0 0,0 -0.20772183196504582,-0.5422961560030279 l 11.931401261157346 -4.452841445761331" fill="#ff6a09" stroke="none" /><path d="M 79.97269907076064 106.31721596034903 l -15.476420021205696 4.881730589282114 a37.22808892689183,37.22808892689183 0 0,0 -0.18751119615362566,-0.6127974383552517 l 15.558157989865451 -4.614606178374815" fill="#ff9c0e" stroke="none" /><path d="M 79.67330655649465 105.27499134158121 l -16.382183204299057 4.251349330330246 a37.92483080174563,37.92483080174563 0 0,0 -0.1585414786508348,-0.6332943979874516 l 16.45293599724495 -3.968727092945403" fill="#ffa60f" stroke="none" /><path d="M 79.4281124754447 104.21870165774334 l -25.226022556569276 5.173130713000544 a46.75099018287125,46.75099018287125 0 0,0 -0.1548795009750625,-0.7897272387311609 l 25.311331990520006 -4.738139747201429" fill="#e1ff1b" stroke="none" /><path d="M 79.29508885075956 103.50808413554451 l -55.246973527732976 9.360630913723941 a77.03435995063201,77.03435995063201 0 0,0 -0.21026068410814625,-1.3092934806509442 l 55.399915966202414 -8.408258203379784" fill="#44ffe4" stroke="none" /><path d="M 79.23777060512086 103.15116336523772 l -10.068760943444966 1.5281745526877644 a31.1840691474344,31.1840691474344 0 0,0 -0.07597916624249891,-0.5313981117374138 l 10.093574160704064 -1.35463096896995" fill="#ff4306" stroke="none" /><path d="M 79.10278846688536 102.07522291339032 l -13.164449297577757 1.3073115894533216 a34.22920212637234,34.22920212637234 0 0,0 -0.053178168499356616,-0.586816658125097 l 13.18500206235419 -1.0805135427796584" fill="#ff710a" stroke="none" /><path d="M 79.04373962182676 101.35467743843564 l -22.831246156521566 1.4758823139945307 a43.878899223180355,43.878899223180355 0 0,0 -0.04223584153993946,-0.7541493231291803 l 22.853268348949037 -1.0826612745299127" fill="#fff817" stroke="none" /><line stroke="#e1ed5e" stroke-width="0.3" x1="15.007084014347285" x2="10.007500721073583" y1="101.09737516637583" y2="101.16192664675087" /><path d="M 14.007167355692545 101.11028546245083 a86.0,86.0 0 0,1 10.666146001902534,-42.60595125391555" fill="none" id="id58" stroke="none" /><text fill="#e1ed5e" style="font-size:6.75px; font-family:Arial;" text-anchor="middle"><textPath startOffset="22.20632615414155" xlink:href="#id58">October</textPath></text><path d="M 79.00019446554 99.90962569577889 l -21.190209282398822 -0.09119372163014472 a42.19040551114409,42.19040551114409 0 0,0 0.009376301058152575,-0.7262048500002014 l 21.185499974222953 0.45593482969081806" fill="#ffe115" stroke="none" /><path d="M 79.21141760316559 97.0276538004421 l -12.592933609743575 -1.8005344299910535 a33.72100236353223,33.72100236353223 0 0,0 0.08710312597814208,-0.5739007702740372 l 12.56007459032613 2.0170343126571826" fill="#ff6909" stroke="none" /><path d="M 79.26566170972629 96.67025291283419 l -5.768105684960711 -0.926305572624519 a26.842010373728492,26.842010373728492 0 0,0 0.07718757331068221,-0.45556542701765756 l 5.751306250129805 1.0254567879580043" fill="#ff0000" stroke="none" /><path d="M 79.3925641242962 95.95851677861259 l -61.8223076271114 -12.124449664162231 a84.0,84.0 0 0,0 0.2904828163400217,-1.41649737534639 l 61.60444551485639 13.186822695672024" fill="#4dd2ff" stroke="none" /><line stroke="#e1ed5e" stroke-width="0.3" x1="26.266209847984243" x2="21.928928074336255" y1="57.711370442889674" y2="55.22380399835377" /><path d="M 25.398753493254645 57.213857153982495 a86.0,86.0 0 0,1 29.58750427330803,-30.492523968695096" fill="none" id="id59" stroke="none" /><text fill="#e1ed5e" style="font-size:6.75px; font-family:Arial;" text-anchor="middle"><textPath startOffset="21.46611528233685" xlink:href="#id59">November</textPath></text><line stroke="#e1ed5e" stroke-width="0.3" x1="56.762969772571076" x2="54.21961505331055" y1="26.818313649435495" y2="22.513508569990535" /><path d="M 56.25429882871897 25.957352633546506 a86.0,86.0 0 0,1 42.265352541879196,-11.944610805530505" fill="none" id="id60" stroke="none" /><text fill="#e1ed5e" style="font-size:6.75px; font-family:Arial;" text-anchor="middle"><textPath startOffset="22.20632615414155" xlink:href="#id60">December</textPath></text></svg>