<?xml version="1.0" encoding="utf-8" ?>
<svg baseProfile="full" height="200mm" version="1.1" viewBox="0,0,200,200" width="200mm" xmlns="http://www.w3.org/2000/svg" xmlns:ev="http://www.w3.org/2001/xml-events" xmlns:xlink="http://www.w3.org/1999/xlink"><defs /><rect fill="#1a1a1a" height="200" width="200" x="0" y="0" /><text alignment-baseline="middle" fill="#e1ed5e" style="dominant-baseline: central; font-size:9.0px; font-family:Arial;" text-anchor="middle" x="100.0" y="100.0">2014</text><line stroke="#e1ed5e" stroke-width="0.3" x1="100.0" x2="100.0" y1="15.0" y2="10.0" /><path d="M 100.0 14.0 a86.0,86.0 0 0,1 42.46469731375804,11.215312516191453" fill="none" id="id1" stroke="none" /><text fill="#e1ed5e" style="font-size:6.75px; font-family:Arial;" text-anchor="middle"><textPath startOffset="22.20632615414155" xlink:href="#id1">January</textPath></text><line stroke="#e1ed5e" stroke-width="0.3" x1="143.23703022742887" x2="145.7803849466894" y1="26.81831364943548" y2="22.513508569990506" /><path d="M 143.74570117128098 25.957352633546492 a86.0,86.0 0 0,1 28.547481713284135,27.462654790039103" fill="none" id="id2" stroke="none" /><text fill="#e1ed5e" style="font-size:6.75px; font-family:Arial;" text-anchor="middle"><textPath startOffset="19.985693538727396" xlink:href="#id2">February</textPath></text><line stroke="#e1ed5e" stroke-width="0.3" x1="172.23445277983987" x2="176.4835382374775" y1="55.19839476539836" y2="52.563006222186495" /><path d="M 173.08426987136738 54.67131705675599 a86.0,86.0 0 0,1 12.851231095245387,41.99856678651699" fill="none" id="id3" stroke="none" /><text fill="#e1ed5e" style="font-size:6.75px; font-family:Arial;" text-anchor="middle"><textPath startOffset="22.20632615414155" xlink:href="#id3">March</textPath></text><line stroke="#e1ed5e" stroke-width="0.3" x1="184.98032266829074" x2="189.97916517819016" y1="98.17113171792111" y2="98.06355123074" /><path d="M 185.9800911702706 98.14961562048488 a86.0,86.0 0 0,1 -9.607161424134198,41.387399972396054" fill="none" id="id4" stroke="none" /><text fill="#e1ed5e" style="font-size:6.75px; font-family:Arial;" text-anchor="middle"><textPath startOffset="21.466115282336823" xlink:href="#id4">April</textPath></text><line stroke="#e1ed5e" stroke-width="0.3" x1="174.80103733775053" x2="179.2010983576182" y1="140.37084112569926" y2="142.7455964860345" /><path d="M 175.68104954172406 140.8457921977663 a86.0,86.0 0 0,1 -30.038265399797805,32.042727171017184" fill="none" id="id5" stroke="none" /><text fill="#e1ed5e" style="font-size:6.75px; font-family:Arial;" text-anchor="middle"><textPath startOffset="22.206326154141568" xlink:href="#id5">May</textPath></text><line stroke="#e1ed5e" stroke-width="0.3" x1="143.8653032363475" x2="146.44561519142675" y1="172.8068346515853" y2="177.08958963109032" /><path d="M 144.38136562736335 173.6633856474863 a86.0,86.0 0 0,1 -40.68145358897372,12.25698825130547" fill="none" id="id6" stroke="none" /><text fill="#e1ed5e" style="font-size:6.75px; font-family:Arial;" text-anchor="middle"><textPath startOffset="21.466115282336833" xlink:href="#id6">June</textPath></text><line stroke="#e1ed5e" stroke-width="0.3" x1="102.19456741930631" x2="102.32365962044197" y1="184.97166512339345" y2="189.96999836594603" /><path d="M 102.22038585953345 185.97133177190398 a86.0,86.0 0 0,1 -42.740103519485714,-10.115201625700543" fill="none" id="id7" stroke="none" /><text fill="#e1ed5e" style="font-size:6.75px; font-family:Arial;" text-anchor="middle"><textPath startOffset="22.20632615414155" xlink:href="#id7">July</textPath></text><path d="M 98.73552117531835 120.96189622390904 l -0.9176235660933657 15.211903583996511 a36.23955523162851,36.23955523162851 0 0,0 -0.6223491975873328,-0.042920844409719994 l 1.1793355244596284 -15.193854395070506" fill="#ff0300" stroke="none" /><path d="M 93.42475214034765 119.94407469862007 l -6.613089181618906 20.058855185698985 a42.12085746092919,42.12085746092919 0 0,0 -0.6866306849291873,-0.23294240832391547 l 6.957389599485319 -19.942049790476947" fill="#ff6f0a" stroke="none" /><path d="M 93.08242187328487 119.8279376855182 l -5.4124792695787525 15.51385466351467 a37.43090436842341,37.43090436842341 0 0,0 -0.6065240278339906,-0.21747793728997744 l 5.67872285804247 -15.418389185184735" fill="#ff1a02" stroke="none" /><path d="M 90.7491055286396 118.85261126421891 l -6.789561269261436 13.836603547933393 a36.412648700717796,36.412648700717796 0 0,0 -0.5603145304074936,-0.28095333748516194 l 7.026729707351691 -13.71768236953893" fill="#ff0701" stroke="none" /><line stroke="#e1ed5e" stroke-width="0.3" x1="58.666819895761336" x2="56.23545636021788" y1="174.27360380694188" y2="178.64263932499728" /><path d="M 58.180547188652646 175.14741091055294 a86.0,86.0 0 0,1 -31.652253787137756,-30.449443065178592" fill="none" id="id8" stroke="none" /><text fill="#e1ed5e" style="font-size:6.75px; font-family:Arial;" text-anchor="middle"><textPath startOffset="22.20632615414155" xlink:href="#id8">August</textPath></text><path d="M 88.8546689885994 117.79835938074946 l -11.350634597732876 18.12621568290512 a42.38683241516719,42.38683241516719 0 0,0 -0.6150494852613713,-0.39255368155302295 l 11.660965885041172 -17.928147572528292" fill="#ff730a" stroke="none" /><path d="M 88.54995079064634 117.60387380957326 l -10.894907161224 16.75037087845228 a40.98183992072282,40.98183992072282 0 0,0 -0.5880412028715459,-0.3897216443565311 l 11.181623062835506 -16.56035121300443" fill="#ff5a08" stroke="none" /><path d="M 87.07902340077011 116.55440617244103 l -18.63811367310191 23.87922473685508 a51.291857904801745,51.291857904801745 0 0,0 -0.6913226697409562,-0.549228539545608 l 19.046393835560224 -23.55486228330434" fill="#f7ff18" stroke="none" /><path d="M 86.79598089348748 116.32954008644616 l -9.665233081843324 11.953088660479244 a36.37182679617605,36.37182679617605 0 0,0 -0.4834506351529269,-0.39784695957918237 l 9.869553845540938 -11.784946582042881" fill="#ff0601" stroke="none" /><path d="M 85.44109423537348 115.13401014063109 l -18.768233410136112 19.509614207467028 a48.0716019448711,48.0716019448711 0 0,0 -0.5913952691347291,-0.5788047430527551 l 19.101278631646636 -19.183659361491703" fill="#ffd313" stroke="none" /><path d="M 84.67929136418377 114.36230785411682 l -23.9407587939797 22.44312298038636 a53.815449116906244,53.815449116906244 0 0,0 -0.6277279793575838,-0.6812747438110304 l 24.323533181333016 -22.027696981773985" fill="#d1ff1d" stroke="none" /><path d="M 83.72743513129214 113.27417163493432 l -19.362095325215325 15.794423229070002 a45.98708747576858,45.98708747576858 0 0,0 -0.49508841690654837,-0.6176989234150537 l 19.631101654176735 -15.458796472076688" fill="#ffb110" stroke="none" /><path d="M 83.28015986056508 112.70617746262583 l -15.434624367099168 11.729482736786448 a40.38577815373999,40.38577815373999 0 0,0 -0.4158556910237163,-0.5571066562920397 l 15.634241324817971 -11.4620632009851" fill="#ff5007" stroke="none" /><line stroke="#e1ed5e" stroke-width="0.3" x1="26.63291911575756" x2="22.317208475507996" y1="142.92168965132927" y2="145.44649492493687" /><path d="M 25.769776987707644 143.4266507060508 a86.0,86.0 0 0,1 -11.730757126820373,-40.83630448921669" fill="none" id="id9" stroke="none" /><text fill="#e1ed5e" style="font-size:6.75px; font-family:Arial;" text-anchor="middle"><textPath startOffset="21.46611528233685" xlink:href="#id9">September</textPath></text><path d="M 79.97269907076064 106.31721596034903 l -28.755790722404008 9.070445425764445 a51.152420803187056,51.152420803187056 0 0,0 -0.2576455544036978,-0.8420005790632991 l 28.907663049313836 -8.574117874149097" fill="#f9ff18" stroke="none" /><path d="M 79.4281124754447 104.21870165774334 l -29.54168342074378 6.058148464542262 a51.15646236132288,51.15646236132288 0 0,0 -0.16947421500976328,-0.8641453711640061 l 29.641587568729207 -5.548739366310301" fill="#f9ff18" stroke="none" /><line stroke="#e1ed5e" stroke-width="0.3" x1="15.007084014347285" x2="10.007500721073583" y1="101.09737516637583" y2="101.16192664675087" /><path d="M 14.007167355692545 101.11028546245083 a86.0,86.0 0 0,1 10.666146001902534,-42.60595125391555" fill="none" id="id10" stroke="none" /><text fill="#e1ed5e" style="font-size:6.75px; font-family:Arial;" text-anchor="middle"><textPath startOffset="22.20632615414155" xlink:href="#id10">October</textPath></text><path d="M 79.21141760316559 97.0276538004421 l -29.762287500514173 -4.255404262475051 a51.06496670046972,51.06496670046972 0 0,0 0.13190349977232205,-0.8690792583055305 l 29.684628107302547 4.767082633172674" fill="#fbff18" stroke="none" /><path d="M 79.32604984820605 96.31383870115002 l -26.41172813174025 -4.70920599886037 a47.82826874855442,47.82826874855442 0 0,0 0.15148869868831838,-0.80925868587491 l 26.32675370914207 5.163142762197853" fill="#ffcf13" stroke="none" /><path d="M 79.54389044137918 95.25157060432595 l -19.11570410344376 -4.437284177799405 a40.62395562176407,40.62395562176407 0 0,0 0.16397995049456532,-0.6798027597095793 l 19.03649135268838 4.765672169168381" fill="#ff5407" stroke="none" /><line stroke="#e1ed5e" stroke-width="0.3" x1="26.266209847984243" x2="21.928928074336255" y1="57.711370442889674" y2="55.22380399835377" /><path d="M 25.398753493254645 57.213857153982495 a86.0,86.0 0 0,1 29.58750427330803,-30.492523968695096" fill="none" id="id11" stroke="none" /><text fill="#e1ed5e" style="font-size:6.75px; font-family:Arial;" text-anchor="middle"><textPath startOffset="21.46611528233685" xlink:href="#id11">November</textPath></text><path d="M 84.31358615837235 86.03803664274999 l -47.05924152488297 -41.885890071750055 a84.0,84.0 0 0,0 0.9706254375358201,-1.071788850921776 l 46.331272446731106 42.68973170994139" fill="#4dd2ff" stroke="none" /><path d="M 87.22198572758235 83.33499621200491 l -27.560114716437052 -35.94372383339835 a66.29361109687302,66.29361109687302 0 0,0 0.9115492945460746,-0.6865600302533564 l 26.93731926813259 36.412800453157566" fill="#31ff3b" stroke="none" /><path d="M 87.51073957382395 83.11751280151077 l -17.713378477367634 -23.94424290804188 a50.78406529541904,50.78406529541904 0 0,0 0.7072398928686032,-0.5138398596709971 l 17.29859326814525 24.245602002529544" fill="#ffff18" stroke="none" /><path d="M 87.80319425747018 82.90503203632743 l -17.413184609511703 -24.4062125222776 a50.98136434399734,50.98136434399734 0 0,0 0.7187616401808338,-0.5035384619770924 l 16.99049182974721 24.702335827018633" fill="#fcff18" stroke="none" /><line stroke="#e1ed5e" stroke-width="0.3" x1="56.762969772571076" x2="54.21961505331055" y1="26.818313649435495" y2="22.513508569990535" /><path d="M 56.25429882871897 25.957352633546506 a86.0,86.0 0 0,1 42.265352541879196,-11.944610805530505" fill="none" id="id12" stroke="none" /><text fill="#e1ed5e" style="font-size:6.75px; font-family:Arial;" text-anchor="middle"><textPath startOffset="22.20632615414155" xlink:href="#id12">December</textPath></text><path d="M 89.3179101791058 81.91981866633112 l -7.658840027610257 -12.96312040307889 a36.05657069698294,36.05657069698294 0 0,0 0.537076815719593,-0.3111095575745313 l 7.434566479425344 13.093034118043468" fill="#ff0000" stroke="none" /><path d="M 91.23893434514133 80.91482961587045 l -18.31913124715552 -39.906531341572816 a64.9103838899917,64.9103838899917 0 0,0 1.0194573954335944,-0.45740081686124756 l 17.629491733255154 40.21595248895059" fill="#37ff2e" stroke="none" /><path d="M 92.57280143429618 80.3572730644239 l -10.72128103033796 -28.354593433243465 a51.31383901283402,51.31383901283402 0 0,0 0.8288838631244928,-0.3052849220274253 l 10.231614841440898 28.534941623077213" fill="#f7ff19" stroke="none" /><path d="M 92.91201910852362 80.23233633223022 l -10.256618787130874 -28.604675105197774 a51.387919751415154,51.387919751415154 0 0,0 0.8352200849957018,-0.2913918876787364 l 9.762716698071888 28.77698784604872" fill="#f6ff19" stroke="none" /><path d="M 98.91598698831166 79.02799685794201 l -1.179959053432115 -22.828236109026324 a43.85871097015818,43.85871097015818 0 0,0 0.754284549831407,-0.03248107939544292 l 0.7868336712113838 22.84516491494596" fill="#ff8d0d" stroke="none" /></svg>