<?xml version="1.0" encoding="utf-8" ?>
<svg baseProfile="full" height="200mm" version="1.1" viewBox="0,0,200,200" width="200mm" xmlns="http://www.w3.org/2000/svg" xmlns:ev="http://www.w3.org/2001/xml-events" xmlns:xlink="http://www.w3.org/1999/xlink"><defs /><rect fill="#1a1a1a" height="200" width="200" x="0" y="0" /><text alignment-baseline="middle" fill="#e1ed5e" style="dominant-baseline: central; font-size:9.0px; font-family:Arial;" text-anchor="middle" x="100.0" y="100.0">2016</text><line stroke="#e1ed5e" stroke-width="0.3" x1="100.0" x2="100.0" y1="15.0" y2="10.0" /><path d="M 100.0 14.0 a86.0,86.0 0 0,1 42.35913384403234,11.155469271406648" fill="none" id="id13" stroke="none" /><text fill="#e1ed5e" style="font-size:6.75px; font-family:Arial;" text-anchor="middle"><textPath startOffset="22.145653131862478" xlink:href="#id13">January</textPath></text><path d="M 100.0 79.0 l 0.0 -14.819024038904267 a35.81902403890427,35.81902403890427 0 0,0 0.6148811781436209,0.005278015395828859 l -0.2543882532947661 14.816840421702873" fill="#ffaf10" stroke="none" /><path d="M 100.36049292484886 79.00309439819443 l 1.0814787745465644 -62.990716805416696 a84.0,84.0 0 0,0 1.4415467437170346,0.03712913059981959 l -2.1626388323343404 62.96286995746683" fill="#4dd2ff" stroke="none" /><path d="M 101.80034050326958 79.07731436759882 l 1.2974800717583024 -15.078685174500773 a36.13440455149522,36.13440455149522 0 0,0 0.6175549319216291,0.05848309412242012 l -1.5561345670649445 15.054190324873169" fill="#ffb310" stroke="none" /><path d="M 102.15924093988457 79.11130261209362 l 0.25192624350490067 -2.437157876845003 a23.450143944513083,23.450143944513083 0 0,0 0.4000640322672627,0.04482800926926383 l -0.2937261773729601 2.432474107068768" fill="#ff0000" stroke="none" /><path d="M 102.87502721639298 79.19773525538626 l 4.768022261186272 -34.499033894311225 a55.826963346292516,55.826963346292516 0 0,0 0.9481941074182234,0.13935188093310882 l -5.359541474212177 34.412100940079235" fill="#61ff29" stroke="none" /><path d="M 103.23170211078529 79.25015418208739 l 2.0718229658885443 -13.302589666518253 a34.46296186720223,34.46296186720223 0 0,0 0.5837738498851425,0.0960597648465971 l -2.2998743188267574 13.265063903175987" fill="#ff9d0e" stroke="none" /><path d="M 103.94208987418118 79.37332000966035 l 3.123598564587764 -16.343987597040513 a37.639795628700156,37.639795628700156 0 0,0 0.6336095256496205,0.12673965039962215 l -3.4037045757683413 16.287958549978033" fill="#ffc712" stroke="none" /><path d="M 104.29559338865022 79.4440306129975 l 3.077710674192776 -14.727959719818157 a36.04609917894423,36.04609917894423 0 0,0 0.6046090888142062,0.13177173685404314 l -3.3300821796261166 14.672956524830395" fill="#ffb210" stroke="none" /><path d="M 104.64783097203109 79.52079915486377 l 3.3247176976762676 -14.649319627546014 a36.02186118026813,36.02186118026813 0 0,0 0.6018529928857869,0.14203566756030747 l -3.5757028443019396 14.59008781633948" fill="#ffb110" stroke="none" /><path d="M 105.3480935250658 79.69241777938227 l 5.709347866020006 -21.679323794899993 a43.418513181282655,43.418513181282655 0 0,0 0.7191317346767766,0.19600255212293574 l -6.0806610016314755 21.578120748632916" fill="#eeff19" stroke="none" /><path d="M 105.69591212413111 79.78721728523813 l 1.9323699722866514 -6.857299326807774 a28.124367183633467,28.124367183633467 0 0,0 0.463569909938957,0.13493844464297441 l -2.049799894607213 6.823117187862283" fill="#ff4406" stroke="none" /><path d="M 106.04205211174951 79.88797359093562 l 2.4272202211321097 -8.079426705555024 a29.436144492142624,29.436144492142624 0 0,0 0.4826958137149278,0.14954039696373134 l -2.565556667718668 8.036569720784646" fill="#ff5708" stroke="none" /><path d="M 107.74402155503746 80.48000691201159 l 3.2403757517293097 -8.167863664467209 a29.787151521040194,29.787151521040194 0 0,0 0.47368030306170383,0.192641655560035 l -3.3801105159814533 8.11103475232788" fill="#ff5c08" stroke="none" /><path d="M 108.4095320186766 80.7573450057729 l 2.5318273071854915 -5.79331635445754 a27.32239384222743,27.32239384222743 0 0,0 0.4281635054941367,0.19151208998760086 l -2.6309042155352595 5.749000513560087" fill="#ff3905" stroke="none" /><path d="M 109.06512990194946 81.05736502329252 l 6.366768036654535 -13.304096488874325 a35.74905822816643,35.74905822816643 0 0,0 0.5512841002726317,0.2696606786419012 l -6.594212386189233 13.192842060135202" fill="#ffae10" stroke="none" /><path d="M 110.34350942703115 81.72400993836675 l 1.4209933029827737 -2.5107590094220713 a23.884984015643067,23.884984015643067 0 0,0 0.35509866260560846,0.20501630844422417 l -1.4638844334487797 2.4859958037016754" fill="#ff0601" stroke="none" /><line stroke="#e1ed5e" stroke-width="0.3" x1="143.13028292997686" x2="145.6673583964461" y1="26.7553504044142" y2="22.446841604673864" /><path d="M 143.63769802327073 25.89364864446614 a86.0,86.0 0 0,1 29.32050498858742,28.57503671076993" fill="none" id="id14" stroke="none" /><text fill="#e1ed5e" style="font-size:6.75px; font-family:Arial;" text-anchor="middle"><textPath startOffset="20.669276256404974" xlink:href="#id14">February</textPath></text><path d="M 111.27062007382361 82.28071324371311 l 4.015352301057697 -6.312800749552735 a28.481611284019166,28.481611284019166 0 0,0 0.4102903157088926,0.26594522565553913 l -4.123128249023597 6.242941682193301" fill="#ff4a06" stroke="none" /><path d="M 111.5731344415666 82.4767994020092 l 6.114406019072302 -9.257990024287896 a32.09487901042106,32.09487901042106 0 0,0 0.4571284497664091,0.3075764219973607 l -6.272430756935712 9.151663928233416" fill="#ff7c0b" stroke="none" /><path d="M 112.16784306229584 82.88440491214696 l 6.048451846816259 -8.507904990923775 a31.438784272023284,31.438784272023284 0 0,0 0.43717723896128713,0.31648260686066826 l -6.193610096151514 8.402821612690031" fill="#ff730a" stroke="none" /><path d="M 112.7482090630111 83.31218511350987 l 9.47044220504601 -12.397112851684142 a36.600566740234434,36.600566740234434 0 0,0 0.49600749118978205,0.3856984252236638 l -9.68185964087102 12.232713374839687" fill="#ffb911" stroke="none" /><path d="M 113.31354834802062 83.75963576809568 l 5.934553753533587 -7.239190634368301 a30.36081242704421,30.36081242704421 0 0,0 0.4002215293096379,0.33387903412204484 l -6.057949617005117 7.136249416334385" fill="#ff6409" stroke="none" /><path d="M 113.59037401385872 83.9905735841838 l 7.102071886550435 -8.366222824450668 a31.974201995137932,31.974201995137932 0 0,0 0.4153913534514725,0.3588051576148814 l -7.2446427197647685 8.243073534371067" fill="#ff7b0b" stroke="none" /><path d="M 114.65682725009322 84.96080404539774 l 10.439781947962956 -10.712135973202226 a35.957904406346046,35.957904406346046 0 0,0 0.4383578125342386,0.43461118707702834 l -10.622131680627158 10.531344775896539" fill="#ffb110" stroke="none" /><path d="M 114.91283532996326 85.21462403516908 l 10.600633358823135 -10.510030199328613 a35.927630836773574,35.927630836773574 0 0,0 0.4304698153292064,0.44169995284867525 l -10.779489975303154 10.326507554412196" fill="#ffb010" stroke="none" /><path d="M 115.41159269507618 85.73525988315684 l 7.931413287632931 -7.341197729908024 a31.80742804041956,31.80742804041956 0 0,0 0.36745500823391997,0.40389742269205586 l -8.056265996708728 7.203962731658296" fill="#ff780b" stroke="none" /><path d="M 116.1254893667686 86.54754324733833 l 11.436483332691713 -9.540721148756136 a35.893572810352055,35.893572810352055 0 0,0 0.39064715403313693,0.4765260095816707 l -11.59857730596348 9.34299285747597" fill="#ffb010" stroke="none" /><line stroke="#e1ed5e" stroke-width="0.3" x1="172.87174338648825" x2="177.1583165268699" y1="56.24261187166439" y2="53.66864786411523" /><path d="M 173.72905801456457 55.72781907015455 a86.0,86.0 0 0,1 12.242430191666344,42.057860355516425" fill="none" id="id15" stroke="none" /><text fill="#e1ed5e" style="font-size:6.75px; font-family:Arial;" text-anchor="middle"><textPath startOffset="22.145653131862474" xlink:href="#id15">March</textPath></text><line stroke="#e1ed5e" stroke-width="0.3" x1="184.99686870605535" x2="189.99668451229388" y1="99.2704041080226" y2="99.22748670261217" /><path d="M 185.99683186730306 99.26182062694052 a86.0,86.0 0 0,1 -10.086455211305974,41.156179273409016" fill="none" id="id16" stroke="none" /><text fill="#e1ed5e" style="font-size:6.75px; font-family:Arial;" text-anchor="middle"><textPath startOffset="21.40746469413373" xlink:href="#id16">April</textPath></text><line stroke="#e1ed5e" stroke-width="0.3" x1="174.33088141563837" x2="178.70328620479359" y1="141.23008692659167" y2="143.65538615756765" /><path d="M 175.20536237346943 141.71514677278685 a86.0,86.0 0 0,1 -30.301960400862466,31.631185727798858" fill="none" id="id17" stroke="none" /><text fill="#e1ed5e" style="font-size:6.75px; font-family:Arial;" text-anchor="middle"><textPath startOffset="22.145653131862474" xlink:href="#id17">May</textPath></text><line stroke="#e1ed5e" stroke-width="0.3" x1="143.1302829299769" x2="145.66735839644613" y1="173.24464959558577" y2="177.55315839532614" /><path d="M 143.63769802327073 174.10635135553383 a86.0,86.0 0 0,1 -40.68552437913181,11.842963189579606" fill="none" id="id18" stroke="none" /><text fill="#e1ed5e" style="font-size:6.75px; font-family:Arial;" text-anchor="middle"><textPath startOffset="21.407464694133747" xlink:href="#id18">June</textPath></text><line stroke="#e1ed5e" stroke-width="0.3" x1="101.45913802915013" x2="101.54496967792366" y1="184.9874750549273" y2="189.98673829345242" /><path d="M 101.47630435890484 185.9873277026323 a86.0,86.0 0 0,1 -42.54439059252881,-10.42667462771756" fill="none" id="id19" stroke="none" /><text fill="#e1ed5e" style="font-size:6.75px; font-family:Arial;" text-anchor="middle"><textPath startOffset="22.145653131862474" xlink:href="#id19">July</textPath></text><line stroke="#e1ed5e" stroke-width="0.3" x1="58.13341422392154" x2="55.67067388415222" y1="173.97424548756322" y2="178.32567169271397" /><path d="M 57.64086615596768 174.84453072859336 a86.0,86.0 0 0,1 -31.369924170532247,-30.572349798747897" fill="none" id="id20" stroke="none" /><text fill="#e1ed5e" style="font-size:6.75px; font-family:Arial;" text-anchor="middle"><textPath startOffset="22.145653131862474" xlink:href="#id20">August</textPath></text><line stroke="#e1ed5e" stroke-width="0.3" x1="26.387840678322732" x2="22.057713659400548" y1="142.50000000000003" y2="145.00000000000006" /><path d="M 25.521815274538298 143.00000000000003 a86.0,86.0 0 0,1 -11.493303480769221,-40.785679425670985" fill="none" id="id21" stroke="none" /><text fill="#e1ed5e" style="font-size:6.75px; font-family:Arial;" text-anchor="middle"><textPath startOffset="21.40746469413373" xlink:href="#id21">September</textPath></text><line stroke="#e1ed5e" stroke-width="0.3" x1="15.003131293944662" x2="10.003315487706104" y1="100.72959589197737" y2="100.7725132973878" /><path d="M 14.003168132696942 100.73817937305945 a86.0,86.0 0 0,1 10.791469493833604,-42.45332614584628" fill="none" id="id22" stroke="none" /><text fill="#e1ed5e" style="font-size:6.75px; font-family:Arial;" text-anchor="middle"><textPath startOffset="22.145653131862435" xlink:href="#id22">October</textPath></text><line stroke="#e1ed5e" stroke-width="0.3" x1="26.387840678322718" x2="22.05771365940052" y1="57.49999999999999" y2="54.99999999999999" /><path d="M 25.521815274538284 56.99999999999999 a86.0,86.0 0 0,1 29.574782752854787,-30.34633250058573" fill="none" id="id23" stroke="none" /><text fill="#e1ed5e" style="font-size:6.75px; font-family:Arial;" text-anchor="middle"><textPath startOffset="21.40746469413373" xlink:href="#id23">November</textPath></text><path d="M 85.34317274990677 84.96080404539775 l -5.139641537896488 -5.273724995588447 a28.363972465128136,28.363972465128136 0 0,0 0.3516153544205654,-0.33683955567380086 l 5.048353697610623 5.361176681567816" fill="#ff4806" stroke="none" /><path d="M 85.60350026404147 84.71141617570332 l -5.066188658130489 -5.380116791588445 a28.389988106276082,28.389988106276082 0 0,0 0.35767360217483857,-0.331057346416201 l 4.973085284641698 5.466291884137012" fill="#ff4806" stroke="none" /><path d="M 85.86807049272753 84.46653392183569 l -13.86249032905432 -15.237305222505752 a41.599614281993865,41.599614281993865 0 0,0 0.5323462489632793,-0.4760272984328306 l 13.59887905326765 15.473028050821984" fill="#fff917" stroke="none" /><path d="M 86.40962598614128 83.9905735841838 l -7.929258081419589 -9.340646082076434 a33.252379481242315,33.252379481242315 0 0,0 0.43833867098075135,-0.36567770938721195 l 7.7677450762769285 9.475385975375527" fill="#ff8c0c" stroke="none" /><path d="M 87.25179093698888 83.31218511350988 l -8.83996368675692 -11.571796232611367 a35.561985648676476,35.561985648676476 0 0,0 0.4882948700092658,-0.36642557367067885 l 8.640015827836903 11.721840833546047" fill="#ffab0f" stroke="none" /><path d="M 87.83215693770416 82.88440491214696 l -35.73332760014552 -50.26340027681924 a82.67073948613779,82.67073948613779 0 0,0 1.1637084003998643,-0.8123588416280166 l 34.865224108571894 50.86940393425239" fill="#4bdeff" stroke="none" /><path d="M 88.72937992617638 82.28071324371311 l -12.178728053328069 -19.146983332794115 a43.69203357443347,43.69203357443347 0 0,0 0.6363138644374571,-0.39710691297890943 l 11.848250060100913 19.353226042614562" fill="#ebff1a" stroke="none" /><line stroke="#e1ed5e" stroke-width="0.3" x1="56.869717070023135" x2="54.33264160355391" y1="26.7553504044142" y2="22.446841604673864" /><path d="M 56.362301976729285 25.89364864446614 a86.0,86.0 0 0,1 42.16139366436587,-11.88097634709845" fill="none" id="id24" stroke="none" /><text fill="#e1ed5e" style="font-size:6.75px; font-family:Arial;" text-anchor="middle"><textPath startOffset="22.145653131862474" xlink:href="#id24">December</textPath></text><path d="M 89.34428304082924 81.90426304109057 l -6.560003258997541 -11.140319687474712 a33.92827774675324,33.92827774675324 0 0,0 0.5044125650028927,-0.29122273018704814 l 6.367798226134249 11.251289314937933" fill="#ff950d" stroke="none" /><path d="M 89.97174638481275 81.54914285379989 l -14.944343281291802 -27.495908421113626 a52.29470204381819,52.29470204381819 0 0,0 0.792417098354871,-0.4219174718033996 l 14.470137367150368 27.7483963606396" fill="#87ff25" stroke="none" /><path d="M 90.93487009805054 81.0573650232925 l -1.3883413547060492 -2.9010994646208768 a24.21618871038541,24.21618871038541 0 0,0 0.3765170914741836,-0.1762290102723797 l 1.338335549360343 2.9245047064637997" fill="#ff0b01" stroke="none" /><path d="M 93.27111125876988 80.10723608172694 l -2.827308554304831 -8.358435360995127 a29.8236679076889,29.8236679076889 0 0,0 0.4863775303965534,-0.1598819549266432 l 2.6834082862605166 8.4057382373238" fill="#ff5d08" stroke="none" /><path d="M 93.61358852112211 79.99465700312896 l -5.694296978379888 -17.837304181745484 a39.72416723248597,39.72416723248597 0 0,0 0.6513994803752834,-0.20180522413815166 l 5.387256865132988 17.932425993690277" fill="#ffe215" stroke="none" /><path d="M 94.6519064749342 79.69241777938228 l -3.7952764553350837 -14.411282881546734 a35.90265740277159,35.90265740277159 0 0,0 0.5973427836033851,-0.151842199701197 l 3.5473283785063208 14.474310313083196" fill="#ffb010" stroke="none" /><path d="M 95.00130118170881 79.60360301121753 l -1.4095120744877496 -5.7512902610848515 a26.921491700186383,26.921491700186383 0 0,0 0.44980408623587587,-0.10615253959863748 l 1.3105758345119678 5.7746389443297215" fill="#ff3304" stroke="none" /><path d="M 95.35216902796891 79.52079915486377 l -1.3085049351314804 -5.765514179552715 a26.91213488681431,26.91213488681431 0 0,0 0.45140311219770424,-0.09838120732235894 l 1.2093394063146579 5.787126845008789" fill="#ff3304" stroke="none" /><path d="M 95.70440661134978 79.44403061299748 l -3.302547343750457 -15.803884575442273 a37.14526514590626,37.14526514590626 0 0,0 0.6252848464267418,-0.12507448140880195 l 3.0307660117927386 15.858248453513943" fill="#ffc011" stroke="none" /><path d="M 96.41257539226777 79.30868818359171 l -2.020638741642401 -11.654507297943631 a32.82837779587918,32.82837779587918 0 0,0 0.556085358107962,-0.09150363406136948 l 1.8202758804813663 11.687476930500669" fill="#ff860c" stroke="none" /><path d="M 97.48249496171623 79.15144685158666 l -1.6140576168278677 -13.366712478151554 a34.46381017632128,34.46381017632128 0 0,0 0.5879593276295687,-0.06588206902669222 l 1.3843623875974997 13.392450307685218" fill="#ff9d0e" stroke="none" /><path d="M 98.5590905019552 79.04949213459386 l -0.2662400360019647 -3.8710716918126065 a24.880216463024098,24.880216463024098 0 0,0 0.426346972113599,-0.025647975129426535 l 0.1997487117558819 3.875071644766727" fill="#ff1502" stroke="none" /></svg>