<?xml version="1.0" encoding="utf-8" ?>
<svg baseProfile="full" height="200mm" version="1.1" viewBox="0,0,200,200" width="200mm" xmlns="http://www.w3.org/2000/svg" xmlns:ev="http://www.w3.org/2001/xml-events" xmlns:xlink="http://www.w3.org/1999/xlink"><defs /><rect fill="#1a1a1a" height="200" width="200" x="0" y="0" /><text alignment-baseline="middle" fill="#e1ed5e" style="dominant-baseline: central; font-size:9.0px; font-family:Arial;" text-anchor="middle" x="100.0" y="100.0">2024</text><line stroke="#e1ed5e" stroke-width="0.3" x1="100.0" x2="100.0" y1="15.0" y2="10.0" /><path d="M 100.0 14.0 a86.0,86.0 0 0,1 42.35913384403234,11.155469271406648" fill="none" id="id109" stroke="none" /><text fill="#e1ed5e" style="font-size:6.75px; font-family:Arial;" text-anchor="middle"><textPath startOffset="22.145653131862478" xlink:href="#id109">January</textPath></text><path d="M 101.44090949804482 79.04949213459386 l 0.3838412744352351 -5.5809678887083 a26.594152008906555,26.594152008906555 0 0,0 0.4551791804600727,0.03523374732194096 l -0.47958944967054123 5.5735563743913055" fill="#ff3f05" stroke="none" /><path d="M 102.15924093988457 79.11130261209362 l 4.736246946383663 -45.818892829390734 a67.0630326319091,67.0630326319091 0 0,0 1.1441084248470126,0.12819973538591367 l -5.522091272831473 45.73083733349785" fill="#38ff80" stroke="none" /><path d="M 104.29559338865022 79.4440306129975 l 0.39472221860814216 -1.8888887070915885 a22.929690694811235,22.929690694811235 0 0,0 0.38460470657195417,0.08382280571835693 l -0.4270893417992304 1.8818344432395129" fill="#ff0a01" stroke="none" /><path d="M 104.9986988182912 79.60360301121754 l 1.3309695870817841 -5.430810109778952 a26.591527384374857,26.591527384374857 0 0,0 0.4424256625310737,0.112462873323304 l -1.4240005428382523 5.40716200462038" fill="#ff3f05" stroke="none" /><path d="M 107.74402155503746 80.48000691201159 l 1.9715219537675983 -4.969523216955293 a26.34631273103672,26.34631273103672 0 0,0 0.4189635047910112,0.17038881004866568 l -2.0565399197490493 4.934947150327334" fill="#ff3c05" stroke="none" /><path d="M 108.73861861582097 80.90454125486305 l 3.193950468274418 -6.979358189465418 a28.675464828311597,28.675464828311597 0 0,0 0.44585061435354484,0.20868059983472384 l -3.313289796499468 6.923501358060161" fill="#ff5c08" stroke="none" /><path d="M 109.06512990194946 81.05736502329252 l 5.242915789943638 -10.95567753542734 a33.145576817949305,33.145576817949305 0 0,0 0.5111359683233195,0.2500222154569443 l -5.4302120075290246 10.864061569873174" fill="#ff990e" stroke="none" /><path d="M 110.02825361518725 81.54914285379988 l 5.140906062781235 -9.45868812320015 a31.76548634100236,31.76548634100236 0 0,0 0.4768692469070956,0.26451133268091925 l -5.30251949784443 9.369043875086085" fill="#ff860c" stroke="none" /><path d="M 110.34350942703115 81.72400993836675 l 7.16949971910031 -12.667819035455604 a35.5559391774365,35.5559391774365 0 0,0 0.5286110487377744,0.3051937312853645 l -7.385903235698482 12.542878406894069" fill="#ffb811" stroke="none" /><line stroke="#e1ed5e" stroke-width="0.3" x1="143.13028292997686" x2="145.6673583964461" y1="26.7553504044142" y2="22.446841604673864" /><path d="M 143.63769802327073 25.89364864446614 a86.0,86.0 0 0,1 29.32050498858742,28.57503671076993" fill="none" id="id110" stroke="none" /><text fill="#e1ed5e" style="font-size:6.75px; font-family:Arial;" text-anchor="middle"><textPath startOffset="20.669276256404974" xlink:href="#id110">February</textPath></text><path d="M 110.65571695917076 81.90426304109057 l 6.930016033905141 -11.768682271786933 a34.65748895824025,34.65748895824025 0 0,0 0.5100711703316416,0.30628308224906176 l -7.131019960794217 11.64798518900195" fill="#ffac10" stroke="none" /><path d="M 111.27062007382361 82.28071324371311 l 3.9112992046645703 -6.149211999262808 a28.287734193855275,28.287734193855275 0 0,0 0.4074974297398078,0.2641349107130694 l -4.016282266661386 6.081163246845843" fill="#ff5708" stroke="none" /><path d="M 111.8722381534696 82.67804972795209 l 8.490918878641926 -12.388504398123544 a36.019012771350994,36.019012771350994 0 0,0 0.5070189041088742,0.3539385721404585 l -8.702332873924561 12.240921010177958" fill="#ffbe11" stroke="none" /><path d="M 112.16784306229584 82.88440491214696 l 7.344942747038054 -10.331581806089359 a33.67634673607438,33.67634673607438 0 0,0 0.4682920356268745,0.33900732014185697 l -7.5212157930388965 10.203973714574428" fill="#ffa00e" stroke="none" /><path d="M 112.7482090630111 83.31218511350987 l 5.326218160025258 -6.972190545372932 a29.773827037796593,29.773827037796593 0 0,0 0.40349214690989227,0.3137579339375643 l -5.445120251570375 6.8797315598145765" fill="#ff6b09" stroke="none" /><path d="M 115.16444852881244 85.47280134310134 l 18.72017838250615 -17.933507422873873 a46.924038403750345,46.924038403750345 0 0,0 0.5522382070963142,0.5864578387122272 l -19.025272423338723 17.60950812421715" fill="#bcff1f" stroke="none" /><path d="M 115.6541949942343 86.00192230759917 l 9.660625551284138 -8.638590938331575 a33.95966586922473,33.95966586922473 0 0,0 0.38485832135897957,0.4378981222388941 l -9.807494936601707 8.471480538281382" fill="#ffa30f" stroke="none" /><path d="M 116.35404254752997 86.82634096563983 l 9.22630268776297 -7.432056349562792 a32.8473677612075,32.8473677612075 0 0,0 0.34995518253544416,0.4421569409996822 l -9.352524300939974 7.272579464648432" fill="#ff950d" stroke="none" /><path d="M 116.7966241395341 87.39550010848427 l 27.53593927317715 -20.663482179412046 a55.42684196139662,55.42684196139662 0 0,0 0.5645566455423429,0.7659295159213558 l -27.886597938303318 20.187746354221815" fill="#5fff29" stroke="none" /><path d="M 117.01052211995028 87.68569379921539 l 1.3015807178224896 -0.9422440646607274 a22.60684045331068,22.60684045331068 0 0,0 0.22486798288755722,0.316304978920358 l -1.3175637992400075 0.9197618590308654" fill="#ff0600" stroke="none" /><path d="M 117.42321728460499 88.27688183743584 l 14.160369082600639 -9.527728275966975 a38.067327226491344,38.067327226491344 0 0,0 0.36014512359578826,0.5453056194085709 l -14.32183864511715 9.283242778219345" fill="#ffd814" stroke="none" /><path d="M 117.62189284568427 88.57770195909679 l 4.395124305422998 -2.848866474389791 a26.23766721442114,26.23766721442114 0 0,0 0.24173925804751945,0.38005426547422155 l -4.443381255096408 2.7729985342368977" fill="#ff3a05" stroke="none" /><path d="M 117.81537515405839 88.88188828441811 l 10.850412588957335 -6.771459948554753 a33.79000090639109,33.79000090639109 0 0,0 0.30287431674589504,0.4947224345158531 l -10.965054870158633 6.584200397914345" fill="#ffa10e" stroke="none" /><line stroke="#e1ed5e" stroke-width="0.3" x1="172.87174338648825" x2="177.1583165268699" y1="56.24261187166439" y2="53.66864786411523" /><path d="M 173.72905801456457 55.72781907015455 a86.0,86.0 0 0,1 12.242430191666344,42.057860355516425" fill="none" id="id111" stroke="none" /><text fill="#e1ed5e" style="font-size:6.75px; font-family:Arial;" text-anchor="middle"><textPath startOffset="22.145653131862474" xlink:href="#id111">March</textPath></text><path d="M 118.18653347947321 89.5 l 7.490229347929683 -4.324485930319239 a29.648971860638476,29.648971860638476 0 0,0 0.2506984839937851,0.4429601997522417 l -7.563361196944844 4.195268960467879" fill="#ff6909" stroke="none" /><path d="M 118.36410011445183 89.81374322990088 l 5.001458957308058 -2.774224974092766 a26.719345758783692,26.719345758783692 0 0,0 0.21904093464810573,0.4030106486578854 l -5.048345241571505 2.687959491960277" fill="#ff4106" stroke="none" /><path d="M 118.53625476483649 90.13048839642627 l 15.079900630987664 -8.029197707220026 a38.08424475539055,38.08424475539055 0 0,0 0.3023017285669948,0.5797034245042095 l -15.215510428529603 7.769148039611319" fill="#ffd814" stroke="none" /><path d="M 118.70294669586156 90.45014215332178 l 12.475485529844693 -6.370071802892439 a35.00769624097302,35.00769624097302 0 0,0 0.2686925484941514,0.5375650869909439 l -12.582997991550581 6.154974859737744" fill="#ffb110" stroke="none" /><path d="M 118.8641267826498 90.77261029715802 l 14.69389184983856 -7.187518824066572 a37.35759409390829,37.35759409390829 0 0,0 0.2768388816060199,0.5784867882031192 l -14.81510998940449 6.934219533798349" fill="#ffcf13" stroke="none" /><path d="M 119.0197475246899 91.09779779509293 l 5.6323602189357045 -2.6362289770015135 a27.218776797331763,27.218776797331763 0 0,0 0.19443996986869688,0.4248864249906983 l -5.676784653659452 2.5391535697961314" fill="#ff4806" stroke="none" /><path d="M 119.16976305983485 91.42560881287824 l 15.629320001507155 -6.990796039749453 a38.1215324366392,38.1215324366392 0 0,0 0.26206941187817845,0.5996661010520102 l -15.747023295402304 6.721467868921593" fill="#ffd914" stroke="none" /><path d="M 119.31412917781788 91.75594674310238 l 9.596376753026012 -4.096122600032172 a31.43401490992381,31.43401490992381 0 0,0 0.20757549859339428,0.4981056314171811 l -9.66527809615589 3.930784459173713" fill="#ff820b" stroke="none" /><path d="M 119.71291397450082 92.76114493625339 l 5.064477376189406 -1.859746242857896 a26.395144778572526,26.395144778572526 0 0,0 0.15253858485681243,0.426677570170959 l -5.095656131090162 1.77253371630602" fill="#ff3c05" stroke="none" /><path d="M 119.83427380445688 93.10060997987247 l 5.098237162993975 -1.7734315331827235 a26.397877506300016,26.397877506300016 0 0,0 0.14520665197736168,0.42927766503988807 l -5.127929236543702 1.685652193668674" fill="#ff3c05" stroke="none" /><path d="M 119.94978838288452 93.4421083053983 l 5.150408803293947 -1.6930416737604101 a26.421540459144175,26.421540459144175 0 0,0 0.13793967132576052,0.4320940557736189 l -5.178713190396965 1.6043785842954041" fill="#ff3d05" stroke="none" /><path d="M 120.16314734710363 94.1308016681162 l 13.115143900661629 -3.81762724732736 a34.65947573425123,34.65947573425123 0 0,0 0.16138360958092943,0.5726934972124272 l -13.17874600231714 3.5919258262119196" fill="#ffac10" stroke="none" /><path d="M 120.26092885502905 94.47779374421319 l 5.186677458285623 -1.4136520053859218 a26.375875282093126,26.375875282093126 0 0,0 0.11531346685136434,0.43786401607472736 l -5.210180405941718 1.3244074849383958" fill="#ff3c05" stroke="none" /><path d="M 120.43855184770803 95.1765574152323 l 5.216886074435291 -1.231170908722411 a26.360194224104312,26.360194224104312 0 0,0 0.10015510411018387,0.44130186856637454 l -5.237252040103141 1.1414347062170103" fill="#ff3c05" stroke="none" /><path d="M 120.51834098615036 95.52812308129327 l 11.268421902209445 -2.4559001065804074 a32.5329431412669,32.5329431412669 0 0,0 0.11424065242179696,0.5466828774200202 l -11.30892026545561 2.262100777874983" fill="#ff900d" stroke="none" /><path d="M 120.592083275326 95.88100663000786 l 10.31982750210556 -2.0642545240465657 a31.524257048041967,31.524257048041967 0 0,0 0.10158873130911177,0.5315551695210532 l -10.353742525696829 1.886796789492198" fill="#ff830c" stroke="none" /><path d="M 120.65975698304385 96.23510406497455 l 5.199733826592339 -0.9475647154523108 a26.285367608537634,26.285367608537634 0 0,0 0.07708519816454773,0.4446069384188546 l -5.215233842249121 0.8581647441128635" fill="#ff3b05" stroke="none" /><path d="M 120.7213421655516 96.59031103205396 l 15.956920920952843 -2.6257052652222335 a37.17150745655328,37.17150745655328 0 0,0 0.09820094136480595,0.6305204881641825 l -15.999643354455914 2.3513965951266096" fill="#ffcd13" stroke="none" /><path d="M 120.86939407059847 97.66154086499901 l 6.5121027988324425 -0.7296947015557744 a27.552857179890303,27.552857179890303 0 0,0 0.04863421409299443,0.47049190394728224 l -6.5236694054071025 0.6177982753255609" fill="#ff4c07" stroke="none" /><path d="M 120.93736805541906 98.37931529534042 l 8.128952160372638 -0.6292323082993954 a29.153269069731156,29.153269069731156 0 0,0 0.034339828374959414,0.4992935680155651 l -8.138555949912663 0.4895953161294961" fill="#ff6309" stroke="none" /><path d="M 120.98066250479742 99.09900007780936 l 5.534357005096965 -0.23766910267144326 a26.539457921334044,26.539457921334044 0 0,0 0.015639718986213667,0.45533335385337137 l -5.537621411080026 0.14262948425395192" fill="#ff3e05" stroke="none" /><path d="M 120.99303781780057 99.45929381324524 l 42.38841633287159 -1.0917752426705027 a63.40247413051936,63.40247413051936 0 0,0 0.01868431180812032,1.0882674921684377 l -42.400912076278374 0.36396083453299866" fill="#33ff56" stroke="none" /><line stroke="#e1ed5e" stroke-width="0.3" x1="184.99686870605535" x2="189.99668451229388" y1="99.2704041080226" y2="99.22748670261217" /><path d="M 185.99683186730306 99.26182062694052 a86.0,86.0 0 0,1 -10.086455211305974,41.156179273409016" fill="none" id="id112" stroke="none" /><text fill="#e1ed5e" style="font-size:6.75px; font-family:Arial;" text-anchor="middle"><textPath startOffset="21.40746469413373" xlink:href="#id112">April</textPath></text><path d="M 120.99922638620191 100.18025310272382 l 5.254042372006836 0.04509963471887562 a26.25423593150279,26.25423593150279 0 0,0 -0.0077369588041335206,0.4506390623993243 l -5.252493981604035 -0.13528561308727097" fill="#ff3a05" stroke="none" /><path d="M 120.82617615685814 102.69636545807757 l 5.4524906858094955 0.7059340819445161 a26.497999418596745,26.497999418596745 0 0,0 -0.062277217696409586,0.45060692388991647 l -5.439568951557876 -0.7994293140345177" fill="#ff3e05" stroke="none" /><path d="M 120.77682067341334 103.0534771498775 l 6.4456607441768705 0.9472901608758493 a27.514898393521953,27.514898393521953 0 0,0 -0.07268978603998942,0.4667205705108507 l -6.4284494659986136 -1.0577989133181507" fill="#ff4c07" stroke="none" /><path d="M 120.7213421655516 103.40968896794604 l 10.396995156008808 1.7108215964005782 a31.536812554505335,31.536812554505335 0 0,0 -0.09248573128011461,0.5334331208970363 l -10.366094607236459 -1.8890477502182024" fill="#ff830c" stroke="none" /><path d="M 120.592083275326 104.11899336999214 l 16.397143283538963 3.2798878854883027 a37.72196078222527,37.72196078222527 0 0,0 -0.13246208287023037,0.6338790183478228 l -16.33842348984437 -3.5608833551215344" fill="#ffd413" stroke="none" /><path d="M 120.43855184770803 104.8234425847677 l 10.594855937609976 2.5003571529789035 a31.88589721755456,31.88589721755456 0 0,0 -0.130295605213596,0.5316505327557873 l -10.550372805880084 -2.6818635103427906" fill="#ff880c" stroke="none" /><path d="M 120.35273937422433 105.17358676015961 l 9.286128631320388 2.3604975849581034 a30.581447375319726,30.581447375319726 0 0,0 -0.13369993148909157,0.5076804171206487 l -9.244239219026564 -2.5195585064515553" fill="#ff760a" stroke="none" /><path d="M 120.16314734710363 105.8691983318838 l 5.232999361941068 1.5232498477111696 a26.450190127016462,26.450190127016462 0 0,0 -0.13064338364656236,0.4348693347016519 l -5.206079658290875 -1.612856786003545" fill="#ff3d05" stroke="none" /><path d="M 119.31412917781788 108.2440532568976 l 4.96382192695039 2.1187604135180846 a26.397098647640675,26.397098647640675 0 0,0 -0.18146888846548045,0.4152363300564033 l -4.926719156467944 -2.2036588133503328" fill="#ff3c05" stroke="none" /><path d="M 119.0197475246899 108.90220220490707 l 16.13652683122425 7.552709338017816 a38.81659104653305,38.81659104653305 0 0,0 -0.28765079533943383,0.6010795295611517 l -16.004496777924903 -7.828601369644071" fill="#ffe215" stroke="none" /><path d="M 118.8641267826498 109.22738970284198 l 6.7333402278071555 3.293614117402146 a28.495716415243898,28.495716415243898 0 0,0 -0.21871152594775597,0.4375695609384752 l -6.675808788647667 -3.408715534504367" fill="#ff5a08" stroke="none" /><line stroke="#e1ed5e" stroke-width="0.3" x1="174.33088141563837" x2="178.70328620479359" y1="141.23008692659167" y2="143.65538615756765" /><path d="M 175.20536237346943 141.71514677278685 a86.0,86.0 0 0,1 -30.301960400862466,31.631185727798858" fill="none" id="id113" stroke="none" /><text fill="#e1ed5e" style="font-size:6.75px; font-family:Arial;" text-anchor="middle"><textPath startOffset="22.145653131862474" xlink:href="#id113">May</textPath></text><path d="M 118.36410011445183 110.18625677009912 l 11.138373437258663 6.178267986236959 a33.73712519125057,33.73712519125057 0 0,0 -0.2852660854315644,0.5040378392892003 l -11.03067398680572 -6.368562595625282" fill="#ffa00e" stroke="none" /><path d="M 118.18653347947321 110.5 l 16.63447054855352 9.603916049034272 a40.20783209806855,40.20783209806855 0 0,0 -0.35024140711547674,0.5947864793673389 l -16.467155431308278 -9.88805369669516" fill="#fff316" stroke="none" /><path d="M 118.00360718960297 110.81064883170644 l 19.291615536829447 11.58406083673026 a43.50237532994922,43.50237532994922 0 0,0 -0.389930507589587,0.636922179732291 l -19.089917064784455 -11.913520132587108" fill="#e3ff1b" stroke="none" /><path d="M 117.21940702142032 112.02048342749411 l 4.433001566304411 3.094579377532033 a26.406285639022776,26.406285639022776 0 0,0 -0.26266068447128516,0.3694651466075557 l -4.379225783303165 -3.170221750849093" fill="#ff3c05" stroke="none" /><path d="M 117.01052211995028 112.31430620078461 l 4.294558023402833 3.108928822072709 a26.30176074875961,26.30176074875961 0 0,0 -0.26789969074042963,0.3634573821147394 l -4.240556313078575 -3.182192513456326" fill="#ff3b05" stroke="none" /><path d="M 116.79662413953412 112.60449989151573 l 8.405778815133882 6.307853130682664 a31.509335307583285,31.509335307583285 0 0,0 -0.3283693203307049,0.42984598110968764 l -8.296257517448872 -6.451220025033229" fill="#ff830c" stroke="none" /><path d="M 116.1254893667686 113.45245675266167 l 14.168040866359808 11.819483594552272 a39.45084210633032,39.45084210633032 0 0,0 -0.43829028274425247,0.516304851007489 l -13.963056020108441 -12.060955228009318" fill="#ffe915" stroke="none" /><path d="M 115.89218393027572 113.72728997021213 l 9.877749086765206 8.53216439992911 a34.05250000453969,34.05250000453969 0 0,0 -0.3859103926490791,0.4390951862409634 l -9.729827630157542 -8.700471863981367" fill="#ffa50f" stroke="none" /><path d="M 115.41159269507618 114.26474011684316 l 3.938676346906328 3.64558002567289 a26.36688225036329,26.36688225036329 0 0,0 -0.31030576813048766,0.32953397244027144 l -3.8755147450395806 -3.7126554580576587" fill="#ff3c05" stroke="none" /><path d="M 115.16444852881244 114.52719865689866 l 3.9269472559072613 3.7619266400184315 a26.43810691284733,26.43810691284733 0 0,0 -0.31677031675516554,0.3250342509325842 l -3.8617901380012887 -3.8287835830187533" fill="#ff3d05" stroke="none" /><path d="M 114.65682725009322 115.03919595460226 l 13.621195317561007 13.976546357630566 a40.51616791191709,40.51616791191709 0 0,0 -0.5022606321320469,0.48115432398735297 l -13.379262199563648 -14.208312811923498" fill="#fff717" stroke="none" /><path d="M 113.86319453409587 115.77377054828091 l 3.69750449987901 4.207081379323039 a26.600988596566875,26.600988596566875 0 0,0 -0.3455855022732248,0.29850852595333904 l -3.6247395178429294 -4.269934037741096" fill="#ff3f05" stroke="none" /><path d="M 113.31354834802062 116.24036423190432 l 3.441530209074467 4.198107270086328 a26.428465237166378,26.428465237166378 0 0,0 -0.35332244076321184,0.28461154789556653 l -3.3689569979560026 -4.256567111775298" fill="#ff3d05" stroke="none" /><path d="M 112.45986205192187 116.90419585922612 l 23.51951849082257 31.90874388711474 a60.64007677204507,60.64007677204507 0 0,0 -0.8432406642770296,0.6104412120708436 l -22.968296816171573 -32.30778587055866" fill="#30ff35" stroke="none" /><path d="M 111.27062007382361 117.71928675628689 l 2.9231010983027628 4.5956004407193225 a26.446472568703385,26.446472568703385 0 0,0 -0.3851561894518241,0.24036594824654473 l -2.8437807800612234 -4.645102185807414" fill="#ff3d05" stroke="none" /><line stroke="#e1ed5e" stroke-width="0.3" x1="143.1302829299769" x2="145.66735839644613" y1="173.24464959558577" y2="177.55315839532614" /><path d="M 143.63769802327073 174.10635135553383 a86.0,86.0 0 0,1 -40.68552437913181,11.842963189579606" fill="none" id="id114" stroke="none" /><text fill="#e1ed5e" style="font-size:6.75px; font-family:Arial;" text-anchor="middle"><textPath startOffset="21.407464694133747" xlink:href="#id114">June</textPath></text><path d="M 110.65571695917076 118.09573695890943 l 3.551685299804035 6.031538111639253 a27.999565733743836,27.999565733743836 0 0,0 -0.41627025327203393,0.2403337427822434 l -3.4476225786716026 -6.091618751697668" fill="#ff5307" stroke="none" /><path d="M 109.71004243097381 118.62028667847754 l 6.489973667394075 12.445380242332115 a35.035927029580165,35.035927029580165 0 0,0 -0.5356705919632143,0.2735172210604959 l -6.275375853717279 -12.554955415065448" fill="#ffb110" stroke="none" /><path d="M 109.06512990194946 118.94263497670748 l 4.391244928129415 9.176012993369826 a31.17262239903331,31.17262239903331 0 0,0 -0.48467681102410753,0.22685322032614594 l -4.2330794032338 -9.250042445266505" fill="#ff7e0b" stroke="none" /><path d="M 108.4095320186766 119.2426549942271 l 0.9946716936851656 2.276003491228666 a23.483860638261252,23.483860638261252 0 0,0 -0.3707821184396744,0.15826483829426946 l -0.95545450007506 -2.2927429791823397" fill="#ff1302" stroke="none" /><path d="M 108.07796709384702 119.3841803445677 l 4.074545350250867 9.777425554449561 a31.59244873879757,31.59244873879757 0 0,0 -0.502388443637673,0.20431700640924794 l -3.906102445422753 -9.8459298174381" fill="#ff840c" stroke="none" /><path d="M 107.407793817531 119.65005319985036 l 3.207669283095057 8.508723867445845 a30.093268063911573,30.093268063911573 0 0,0 -0.48494706547657535,0.17807927965977308 l -3.0611330659643543 -8.56253399611434" fill="#ff700a" stroke="none" /><path d="M 107.06938296918513 119.77432235084164 l 3.9175679926117857 10.958134911479354 a32.63735621672375,32.63735621672375 0 0,0 -0.5291824479764268,0.18407712510123903 l -3.728879772590337 -11.023770469149182" fill="#ff920d" stroke="none" /><path d="M 106.72888874123015 119.89276391827305 l 3.375664044515075 9.979550931416481 a31.535015165350615,31.535015165350615 0 0,0 -0.5142869362888791,0.16905633099469156 l -3.2038543705784615 -10.036028183813192" fill="#ff830c" stroke="none" /><path d="M 106.0420521117495 120.11202640906438 l 3.8460745343445653 12.80233125688322 a34.36757176658135,34.36757176658135 0 0,0 -0.5664757555123194,0.16489283652351489 l -3.625738766450639 -12.866467787709253" fill="#ffa90f" stroke="none" /><path d="M 105.69591212413111 120.21278271476187 l 1.4682010772394678 5.210127668594906 a26.413043942761348,26.413043942761348 0 0,0 -0.43747371148674236,0.11923540542489704 l -1.3785459648180305 -5.234563568163945" fill="#ff3c05" stroke="none" /><path d="M 105.3480935250658 120.30758222061773 l 2.736776943698824 10.391987825787119 a31.746318393332164,31.746318393332164 0 0,0 -0.5281902669624507,0.13426390038988095 l -2.5579813835109757 -10.43743695801227" fill="#ff860c" stroke="none" /><path d="M 104.9986988182912 120.39639698878246 l 1.2444731174612709 5.07787499673462 a26.228147647355264,26.228147647355264 0 0,0 -0.43821969887714274,0.10341865572462872 l -1.157121264844249 -5.098489796105473" fill="#ff3a05" stroke="none" /><path d="M 104.29559338865022 120.5559693870025 l 4.386908149174625 20.992943572427222 a42.446413288575975,42.446413288575975 0 0,0 -0.714521727338906,0.1429243568158448 l -4.02588993630476 -21.06515732590593" fill="#f0ff19" stroke="none" /><path d="M 102.875027216393 120.80226474461374 l 0.7405148440282556 5.3579965243315035 a26.408926787170877,26.408926787170877 0 0,0 -0.44960842983220856,0.05821081271613232 l -0.6484285923052717 -5.369918933248031" fill="#ff3c05" stroke="none" /><path d="M 102.51750503828377 120.84855314841334 l 1.2076708581341966 10.001247142990914 a31.073897622904976,31.073897622904976 0 0,0 -0.5301267578866247,0.0594018089597984 l -1.0358081986467726 -10.020504712457685" fill="#ff7d0b" stroke="none" /><path d="M 102.15924093988457 120.88869738790638 l 0.69443343361548 6.718013531002252 a27.75380956175493,27.75380956175493 0 0,0 -0.47432639854490394,0.04491920309749986 l -0.5790074716855608 -6.7289444896049355" fill="#ff4f07" stroke="none" /><path d="M 101.08105385017728 120.97215588758144 l 0.993207377719865 19.267957790281343 a40.29353928918229,40.29353928918229 0 0,0 -0.6910807079134201,0.0296779791350724 l -0.6623009092056154 -19.282168337842247" fill="#fff417" stroke="none" /><line stroke="#e1ed5e" stroke-width="0.3" x1="101.45913802915013" x2="101.54496967792366" y1="184.9874750549273" y2="189.98673829345242" /><path d="M 101.47630435890484 185.9873277026323 a86.0,86.0 0 0,1 -42.54439059252881,-10.42667462771756" fill="none" id="id115" stroke="none" /><text fill="#e1ed5e" style="font-size:6.75px; font-family:Arial;" text-anchor="middle"><textPath startOffset="22.145653131862474" xlink:href="#id115">July</textPath></text><path d="M 100.36049292484886 120.99690560180557 l 0.12495382440639288 7.2779338366922035 a28.279006414992576,28.279006414992576 0 0,0 -0.4854467492552442,0.004166976494807919 l -8.91421190709371e-16 -7.279006414992576" fill="#ff5708" stroke="none" /><path d="M 100.0 121.0 l 1.576286798598827e-15 12.871358498599754 a33.871358498599754,33.871358498599754 0 0,0 -0.5814469092268691,-0.004991022408624983 l 0.2209539843780154 -12.869461874385564" fill="#ffa20f" stroke="none" /><path d="M 99.27912038922189 120.98762331915562 l -0.23315146014563792 6.787950371582889 a27.791953316273627,27.791953316273627 0 0,0 -0.47666407843361197,-0.020470006487239453 l 0.3496412991800886 -6.782947796669821" fill="#ff5007" stroke="none" /><path d="M 98.91894614982273 120.97215588758144 l -0.2898909595434111 5.623807170149819 a26.63127373295363,26.63127373295363 0 0,0 -0.4563530601290568,-0.02745306687274688 l 0.38638837180491425 -5.618002125452381" fill="#ff4006" stroke="none" /><path d="M 98.55909050195518 120.95050786540614 l -0.37117092121387313 5.396743733629969 a26.409492654512906,26.409492654512906 0 0,0 -0.45201859487083773,-0.03498909800839415 l 0.46375851085994696 -5.389576868626521" fill="#ff3c05" stroke="none" /><path d="M 97.48249496171623 120.84855314841334 l -0.6518099756693547 5.3979216381916855 a26.437132907741,26.437132907741 0 0,0 -0.45008863524467274,-0.0582729849208232 l 0.7443764328048215 -5.385937057070465" fill="#ff3d05" stroke="none" /><path d="M 97.12497278360702 120.80226474461374 l -1.2549782267195657 9.08039728183843 a30.166710704803492,30.166710704803492 0 0,0 -0.5123670645142527,-0.07530031415471017 l 1.4106703968415033 -9.057515894384837" fill="#ff710a" stroke="none" /><path d="M 96.76829788921471 120.74984581791261 l -1.6587952396891352 10.650655378218973 a31.779056620725214,31.779056620725214 0 0,0 -0.5383107319877355,-0.08857882609732237 l 1.8413834747299342 -10.620610553625982" fill="#ff860c" stroke="none" /><path d="M 95.35216902796893 120.47920084513623 l -4.748660017386713 20.923472223180582 a42.45556948288571,42.45556948288571 0 0,0 -0.7093473441050786,-0.16740404175611792 l 5.107139515231679 -20.838872037778234" fill="#f0ff19" stroke="none" /><path d="M 94.30408787586889 120.21278271476187 l -2.0839728365036785 7.395284409192053 a28.68330490584125,28.68330490584125 0 0,0 -0.4727828002363089,-0.13762018273843263 l 2.210615649121594 -7.358420532151104" fill="#ff5c08" stroke="none" /><path d="M 93.95794788825049 120.11202640906438 l -1.5390573612793927 5.123021404420381 a26.349209836177458,26.349209836177458 0 0,0 -0.4320760582627902,-0.1338582673296199 l 1.6267740524138166 -5.095846549284112" fill="#ff3c05" stroke="none" /><path d="M 93.27111125876986 119.89276391827306 l -3.944888963267749 11.662363259069142 a33.31149323676854,33.31149323676854 0 0,0 -0.5401129129371897,-0.18787930821160306 l 4.14450764824996 -11.592925518288949" fill="#ff9b0e" stroke="none" /><path d="M 92.59220618246901 119.65005319985036 l -1.8786641691514383 4.983379907404397 a26.325735100619944,26.325735100619944 0 0,0 -0.42149725481315015,-0.16304419295404485 l 1.9639336864581167 -4.950395826312312" fill="#ff3b05" stroke="none" /><path d="M 91.92203290615298 119.3841803445677 l -8.5513919655891 20.520227692475615 a43.23074558129315,43.23074558129315 0 0,0 -0.6825618528089371,-0.29134506732750903 l 8.90238889356847 -20.3704079754887" fill="#e7ff1a" stroke="none" /><path d="M 91.59046798132341 119.24265499422711 l -2.188223165840083 5.007082836134149 a26.464357158113696,26.464357158113696 0 0,0 -0.41471739251317863,-0.18549781467886986 l 2.273853961208897 -4.968781270545424" fill="#ff3d05" stroke="none" /><path d="M 91.26138138417905 119.09545874513695 l -2.2398201660068144 4.894411285906754 a26.382569666215403,26.382569666215403 0 0,0 -0.4102003215757623,-0.19199446272591203 l 2.3235092014540664 -4.855240591610316" fill="#ff3c05" stroke="none" /><path d="M 89.97174638481275 118.45085714620012 l -3.1972583778501695 5.882595300528154 a27.695325877396037,27.695325877396037 0 0,0 -0.4157672592266565,-0.23061909010995843 l 3.297769825232929 -5.826843294985046" fill="#ff4e07" stroke="none" /><line stroke="#e1ed5e" stroke-width="0.3" x1="58.13341422392154" x2="55.67067388415222" y1="173.97424548756322" y2="178.32567169271397" /><path d="M 57.64086615596768 174.84453072859336 a86.0,86.0 0 0,1 -31.369924170532247,-30.572349798747897" fill="none" id="id116" stroke="none" /><text fill="#e1ed5e" style="font-size:6.75px; font-family:Arial;" text-anchor="middle"><textPath startOffset="22.145653131862474" xlink:href="#id116">August</textPath></text><path d="M 89.65649057296885 118.27599006163327 l -2.6142772203553015 4.619177353162753 a26.307659070140083,26.307659070140083 0 0,0 -0.3911166340313527,-0.22581129394254354 l 2.693186322247054 -4.573619161944038" fill="#ff3b05" stroke="none" /><path d="M 89.03521579738668 117.91015095944536 l -5.564978848973189 9.089974725400909 a31.658171986693887,31.658171986693887 0 0,0 -0.46105736240360196,-0.2877338937949317 l 5.720200340166503 -8.99310503476443" fill="#ff850c" stroke="none" /><path d="M 88.4268655584334 117.5232005979908 l -6.563597439782157 9.938123086919958 a32.90995809574015,32.90995809574015 0 0,0 -0.468737648809899,-0.3153876092159138 l 6.733231376689061 -9.823985803646924" fill="#ff950d" stroke="none" /><path d="M 87.83215693770417 117.11559508785305 l -8.107760705537657 11.404580795029199 a34.99286413743124,34.99286413743124 0 0,0 -0.48659908712067496,-0.3522602136238137 l 8.302340803032287 -11.26371981003232" fill="#ffb110" stroke="none" /><path d="M 87.54013794807813 116.9041958592261 l -3.0982733400444284 4.203402826394155 a26.221866812794868,26.221866812794868 0 0,0 -0.36004747241187474,-0.2701863356145714 l 3.1699738013670697 -4.149597463515569" fill="#ff3a05" stroke="none" /><path d="M 87.2517909369889 116.68781488649013 l -3.302693795306106 4.323332195950808 a26.440495159642943,26.440495159642943 0 0,0 -0.3583191419692744,-0.2786311320692615 l 3.376422881910609 -4.266000012260753" fill="#ff3d05" stroke="none" /><path d="M 86.96720088162412 116.46651593811092 l -7.808588800043111 9.865896862383904 a33.582129388436414,33.582129388436414 0 0,0 -0.448959855030164,-0.36165027901168306 l 7.976799425428537 -9.730398289578812" fill="#ff9e0e" stroke="none" /><path d="M 86.68645165197938 116.24036423190432 l -4.385800103828944 5.349963005549569 a27.917900455448528,27.917900455448528 0 0,0 -0.3680186372562637,-0.3070142362355756 l 4.4769930752471 -5.273886585402123" fill="#ff5207" stroke="none" /><path d="M 86.40962598614128 116.0094264158162 l -6.973748240295603 8.215057891827696 a31.775914842142477,31.775914842142477 0 0,0 -0.4128153151544899,-0.3565800370881996 l 7.113743035212956 -8.094133722274774" fill="#ff860c" stroke="none" /><path d="M 85.86807049272751 115.53346607816431 l -10.99195820395626 12.082087573808483 a37.334013141255234,37.334013141255234 0 0,0 -0.4703556378356785,-0.43535415637876324 l 11.197743613105906 -11.891615671297343" fill="#ffcf13" stroke="none" /><path d="M 85.60350026404147 115.28858382429668 l -7.610582037092883 8.082174386816963 a32.10146394680634,32.10146394680634 0 0,0 -0.397947348064587,-0.3812245575126753 l 7.748201871022785 -7.950337698998705" fill="#ff8b0c" stroke="none" /><path d="M 85.34317274990678 115.03919595460226 l -6.706140695909605 6.881091132753575 a30.60842017246305,30.60842017246305 0 0,0 -0.3731429941051232,-0.3699537569091174 l 6.823275610144691 -6.764957365615798" fill="#ff770a" stroke="none" /><path d="M 85.08716467003676 114.78537596483092 l -44.73850598988974 44.35612789449277 a84.0,84.0 0 0,0 -1.0064527953967621,-1.0327092317290507 l 45.493345586437314 -43.581595970695986" fill="#4dd2ff" stroke="none" /><path d="M 84.83555147118756 114.52719865689866 l -8.272289580888343 7.924666291730225 a32.45561481306696,32.45561481306696 0 0,0 -0.3819626601691786,-0.40563110859245394 l 8.407108074793774 -7.781493723193281" fill="#ff8f0d" stroke="none" /><path d="M 84.3458050057657 113.99807769240083 l -4.469750772148389 3.9968787023060917 a26.99614136975348,26.99614136975348 0 0,0 -0.3059420458005265,-0.3481058871142701 l 4.5377038819075075 -3.9195605373805216" fill="#ff4506" stroke="none" /><path d="M 84.1078160697243 113.72728997021213 l -6.212393746508998 5.366117755848425 a29.20908373884052,29.20908373884052 0 0,0 -0.32450657291654755,-0.382267926935521 l 6.303594882932658 -5.258683046463349" fill="#ff6309" stroke="none" /><path d="M 83.8745106332314 113.45245675266167 l -1.64666857666818 1.3737094924539743 a23.144433531505364,23.144433531505364 0 0,0 -0.2518920905021743,-0.3072673933316445 l 1.670007486408984 -1.3452398174238347" fill="#ff0e01" stroke="none" /><path d="M 83.20337586046588 112.60449989151573 l -15.021480513236535 11.272399020577664 a39.780624496769676,39.780624496769676 0 0,0 -0.4051902495025255,-0.5497183924907814 l 15.212772782322892 -11.012874318818003" fill="#ffed16" stroke="none" /><path d="M 82.78059297857968 112.02048342749411 l -17.29041556834635 12.070052908050144 a42.086598771002485,42.086598771002485 0 0,0 -0.40846098914599216,-0.5959567901685533 l 17.495066294307666 -11.77146138281154" fill="#f4ff19" stroke="none" /><path d="M 82.37810715431573 111.42229804090323 l -2.029344911526322 1.3153968538017144 a23.418369213525764,23.418369213525764 0 0,0 -0.2157638158947694,-0.3392165560038344 l 2.0516264190469813 -1.2803666231192081" fill="#ff1202" stroke="none" /><path d="M 82.18462484594161 111.11811171558189 l -2.754371935045419 1.7189317999358755 a24.246735481895104,24.246735481895104 0 0,0 -0.21733392262230858,-0.3549986293251665 l 2.7834738221231325 -1.671396054486152" fill="#ff1e03" stroke="none" /><path d="M 81.99639281039703 110.81064883170644 l -5.797257859981646 3.48108677617142 a27.76211237989687,27.76211237989687 0 0,0 -0.24182953412451974,-0.41067941792942336 l 5.8561611042359365 -3.381056189948438" fill="#ff4f07" stroke="none" /><line stroke="#e1ed5e" stroke-width="0.3" x1="26.387840678322732" x2="22.057713659400548" y1="142.50000000000003" y2="145.00000000000006" /><path d="M 25.521815274538298 143.00000000000003 a86.0,86.0 0 0,1 -11.493303480769221,-40.785679425670985" fill="none" id="id117" stroke="none" /><text fill="#e1ed5e" style="font-size:6.75px; font-family:Arial;" text-anchor="middle"><textPath startOffset="21.40746469413373" xlink:href="#id117">September</textPath></text><path d="M 81.81346652052679 110.50000000000001 l -10.43447989853707 6.024349778274123 a33.048699556548236,33.048699556548236 0 0,0 -0.2794450652702732,-0.49375265442357963 l 10.53635832882872 -5.844340353751422" fill="#ff970e" stroke="none" /><path d="M 81.4637452351635 109.86951160357371 l -4.7121564899481605 2.5089579176275842 a26.33847249858859,26.33847249858859 0 0,0 -0.20906718290666312,-0.40091388976488446 l 4.754531741829773 -2.427697784758197" fill="#ff3b05" stroke="none" /><path d="M 81.29705330413844 109.54985784667822 l -2.094733019949054 1.0695856055496789 a23.35200335723909,23.35200335723909 0 0,0 -0.17923228227617172,-0.35858462749841447 l 2.1127852154369626 -1.0334691218875116" fill="#ff1101" stroke="none" /><path d="M 81.1358732173502 109.22738970284198 l -15.435162935953757 7.550111657853342 a38.18279490960343,38.18279490960343 0 0,0 -0.28295404176176103,-0.5912651209911999 l 15.56249623567543 -7.284034034797037" fill="#ffda14" stroke="none" /><path d="M 80.83023694016515 108.57439118712176 l -7.721715646713332 3.4538251925169843 a29.458947983594797,29.458947983594797 0 0,0 -0.2025178076312214,-0.4634003763562677 l 7.779867336361521 -3.320762746384867" fill="#ff6709" stroke="none" /><path d="M 80.68587082218212 108.24405325689762 l -2.1623345207461324 0.9229720265479419 a23.351078038134936,23.351078038134936 0 0,0 -0.15419957267147535,-0.37002284002814145 l 2.1778599379540933 -0.8857166770785191" fill="#ff1101" stroke="none" /><path d="M 80.5471966667186 107.91128576633889 l -1.939451097307826 0.7887578770917199 a23.093707130312826,23.093707130312826 0 0,0 -0.14619562027847843,-0.36850846514931723 l 1.952705392552429 -0.7553483947288373" fill="#ff0d01" stroke="none" /><path d="M 80.41425534168474 107.57618678355246 l -4.998520939607908 1.9335352799001089 a26.359456153595914,26.359456153595914 0 0,0 -0.15962447686076908,-0.42342288940188283 l 5.030976100283112 -1.847444110304081" fill="#ff3c05" stroke="none" /><path d="M 80.28708602549918 107.23885506374661 l -2.0212288171732826 0.7422232186023568 a23.15319790952995,23.15319790952995 0 0,0 -0.13380324577330874,-0.37427149229903534 l 2.0336722329905346 -0.7074167699224" fill="#ff0e01" stroke="none" /><path d="M 80.16572619554312 106.89939002012753 l -17.558946755994647 6.10791316115833 a39.59094441829425,39.59094441829425 0 0,0 -0.2177776787633856,-0.6438210107063821 l 17.6612098563304 -5.8055904759777865" fill="#ffeb16" stroke="none" /><path d="M 79.83685265289637 105.86919833188381 l -10.331691111045588 3.007404706745748 a31.760498328804985,31.760498328804985 0 0,0 -0.1478852104311186,-0.5247924406184513 l 10.38179481355128 -2.8296043422243007" fill="#ff860c" stroke="none" /><path d="M 79.73907114497094 105.5222062557868 l -7.997763952997182 2.1798261298659436 a29.28950361627929,29.28950361627929 0 0,0 -0.1280516444753459,-0.48623295132753613 l 8.03400507827726 -2.042212674165605" fill="#ff6509" stroke="none" /><path d="M 79.48165901384964 104.47187691870673 l -10.448292777855102 2.2771567810827515 a31.693561847083984,31.693561847083984 0 0,0 -0.11129313346349916,-0.5325779321906838 l 10.485843622142967 -2.0974623976066584" fill="#ff850c" stroke="none" /><path d="M 79.34024301695615 103.76489593502545 l -10.656968390064701 1.942054642965023 a31.83247670217205,31.83247670217205 0 0,0 -0.09335280416083165,-0.5384341668573537 l 10.688736011717767 -1.7588274431870765" fill="#ff870c" stroke="none" /><path d="M 79.0935383218832 101.97986365728391 l -13.698321635732018 1.2972453009951284 a34.75960976942725,34.75960976942725 0 0,0 -0.0511568387815816,-0.5945200109815993 l 13.71857209721134 -1.0619042426378669" fill="#ffae10" stroke="none" /><path d="M 79.03789590574601 101.26102812881392 l -12.588547681161836 0.75729576837717 a33.611305626369024,33.611305626369024 0 0,0 -0.029703448034036437,-0.5762389565203923 l 12.599692718652445 -0.541085018480047" fill="#ff9f0e" stroke="none" /><line stroke="#e1ed5e" stroke-width="0.3" x1="15.003131293944662" x2="10.003315487706104" y1="100.72959589197737" y2="100.7725132973878" /><path d="M 14.003168132696942 100.73817937305945 a86.0,86.0 0 0,1 10.791469493833604,-42.45332614584628" fill="none" id="id118" stroke="none" /><text fill="#e1ed5e" style="font-size:6.75px; font-family:Arial;" text-anchor="middle"><textPath startOffset="22.145653131862435" xlink:href="#id118">October</textPath></text><path d="M 79.00077361379809 99.81974689727619 l -18.984325281152334 -0.16295760006160745 a39.98502466577322,39.98502466577322 0 0,0 0.011783336198722075,-0.6863202598014985 l 18.978730513354947 0.4888247758321582" fill="#fff016" stroke="none" /><path d="M 79.00696218219943 99.45929381324524 l -9.60018313532129 -0.24726666337186584 a30.603366963441644,30.603366963441644 0 0,0 0.01803458310108744,-0.5250572095320394 l 9.594523865223353 0.41203013746804373" fill="#ff760a" stroke="none" /><path d="M 79.03789590574601 98.7389718711861 l -3.132248863408049 -0.1884283135625522 a24.137911434644554,24.137911434644554 0 0,0 0.028432205459124733,-0.413398027364306 l 3.128552696783861 0.24216976508118315" fill="#ff1c02" stroke="none" /><path d="M 79.0935383218832 98.0201363427161 l -7.745272601580103 -0.7334853680991946 a28.77992599309293,28.77992599309293 0 0,0 0.050800142910415846,-0.49144530048359886 l 7.731540066188023 0.8663351908657063" fill="#ff5e08" stroke="none" /><path d="M 79.22317932658666 96.9465228501225 l -5.573613028965993 -0.8191291773521936 a26.633483363412832,26.633483363412832 0 0,0 0.07036123410297238,-0.45176959668475075 l 5.558730302724753 0.9146869559683943" fill="#ff4006" stroke="none" /><path d="M 79.34024301695615 96.23510406497455 l -1.193228202556293 -0.21744592702851998 a22.212879332232607,22.212879332232607 0 0,0 0.07158228111910359,-0.3745487426080032 l 1.18931962915503 0.2378972346698377" fill="#ff0000" stroke="none" /><path d="M 79.407916724674 95.88100663000787 l -34.124089126347236 -6.825773526123216 a55.800066708740864,55.800066708740864 0 0,0 0.19594403120264722,-0.9376631218424466 l 34.00188738432022 7.4105530992510715" fill="#5bff2a" stroke="none" /><path d="M 79.56144815229197 95.17655741523228 l -17.656517582730274 -4.1668900733195295 a39.14154309953793,39.14154309953793 0 0,0 0.15994441092096523,-0.6526277777215966 l 17.582385645293012 4.469373675649243" fill="#ffe615" stroke="none" /><path d="M 79.64726062577567 94.8264132398404 l -10.585766864589216 -2.6908605416592555 a31.922416883002303,31.922416883002303 0 0,0 0.13956255561887781,-0.5299417558549508 l 10.538014828165613 2.872182801886991" fill="#ff880c" stroke="none" /><path d="M 79.73907114497095 94.47779374421319 l -5.303139102635611 -1.4453941444354397 a26.49658517396675,26.49658517396675 0 0,0 0.12337505015165437,-0.43781452852358876 l 5.277545560409374 1.5362165968620416" fill="#ff3e05" stroke="none" /><path d="M 79.94057633289273 93.78553927170692 l -21.498559879745393 -6.660308805711632 a43.50661658913747,43.50661658913747 0 0,0 0.22713620358666595,-0.7115009226678862 l 21.38105896038147 7.02837876207091" fill="#e3ff1b" stroke="none" /><path d="M 80.28708602549916 92.7611449362534 l -32.7120311179252 -12.012310935345893 a55.84784920002291,55.84784920002291 0 0,0 0.33819679967625776,-0.8971071913381797 l 32.501003634434504 12.572086406878217" fill="#5bff2a" stroke="none" /><path d="M 80.5471966667186 92.08871423366112 l -12.863289751960123 -5.231387958817581 a34.88638337431831,34.88638337431831 0 0,0 0.23037332150524892,-0.5528121071496152 l 12.771590585918394 5.451432575408459" fill="#ffaf10" stroke="none" /><path d="M 80.9802524753101 91.09779779509293 l -26.5874505745673 -12.444269347977569 a50.35561901340309,50.35561901340309 0 0,0 0.3731608950835289,-0.7797627501872512 l 26.369910421523866 12.898844600229907" fill="#95ff23" stroke="none" /><path d="M 81.29705330413844 90.45014215332179 l -12.10827594166953 -6.182571970698289 a34.59538680775495,34.59538680775495 0 0,0 0.2746081824544553,-0.5265973983024931 l 12.000359690240135 6.389515612105269" fill="#ffac0f" stroke="none" /><path d="M 81.46374523516351 90.13048839642627 l -14.224272755387467 -7.573624056894678 a37.11489114995295,37.11489114995295 0 0,0 0.30426195761830804,-0.5598077322792007 l 14.092165448153809 7.816686622648498" fill="#ffcc13" stroke="none" /><line stroke="#e1ed5e" stroke-width="0.3" x1="26.387840678322718" x2="22.05771365940052" y1="57.49999999999999" y2="54.99999999999999" /><path d="M 25.521815274538284 56.99999999999999 a86.0,86.0 0 0,1 29.574782752854787,-30.34633250058573" fill="none" id="id119" stroke="none" /><text fill="#e1ed5e" style="font-size:6.75px; font-family:Arial;" text-anchor="middle"><textPath startOffset="21.40746469413373" xlink:href="#id119">November</textPath></text><path d="M 81.99639281039701 89.18935116829357 l -20.34008224717916 -12.213634971399808 a44.72534141032776,44.72534141032776 0 0,0 0.40089247876635703,-0.6548277358254175 l 20.12742180395741 12.560999823349768" fill="#d5ff1c" stroke="none" /><path d="M 82.18462484594161 88.88188828441811 l -9.027559591909188 -5.63386486077195 a31.641299988954007,31.641299988954007 0 0,0 0.29152532199145353,-0.4583262272395094 l 8.929516578291844 5.7880047626901305" fill="#ff840c" stroke="none" /><path d="M 82.78059297857968 87.97951657250589 l -14.54590332979146 -10.154170215976906 a38.739517368143666,38.739517368143666 0 0,0 0.38533810802100554,-0.5420263061448893 l 14.369450123240483 10.402373748831316" fill="#ffe115" stroke="none" /><path d="M 82.98947788004972 87.6856937992154 l -5.152586200334875 -3.730075052925321 a27.361022280446534,27.361022280446534 0 0,0 0.27868892418617386,-0.3780950494161734 l 5.087795256564883 3.8179764116103576" fill="#ff4a06" stroke="none" /><path d="M 83.42222388311158 87.10902102172516 l -12.02527609233545 -9.350927423632239 a36.23309255466309,36.23309255466309 0 0,0 0.3860266250547348,-0.4877320302617451 l 11.862983036639154 9.555979397808667" fill="#ffc111" stroke="none" /><path d="M 83.8745106332314 86.54754324733833 l -4.580863245510268 -3.82151904345171 a26.965594343695432,26.965594343695432 0 0,0 0.2995818932688546,-0.3529067169827548 l 4.514586788734299 3.8995925428840215" fill="#ff4406" stroke="none" /><path d="M 84.34580500576568 86.00192230759919 l -10.341514968033659 -9.24744645336148 a34.87307455980296,34.87307455980296 0 0,0 0.4028708603295826,-0.4428256480893154 l 10.181246406862211 9.423609677008454" fill="#ffaf10" stroke="none" /><path d="M 84.83555147118756 85.47280134310135 l -2.9289104573963898 -2.805829963550762 a25.056007674031843,25.056007674031843 0 0,0 0.30021058291681874,-0.30804250518151577 l 2.8803130733287685 2.8556951608000083" fill="#ff2904" stroke="none" /><path d="M 85.08716467003674 85.21462403516908 l -28.210668130658185 -27.96955275787136 a60.72578102257378,60.72578102257378 0 0,0 0.7402995522950774,-0.7339722437145473 l 27.726376658233132 28.449705011814583" fill="#30ff36" stroke="none" /><path d="M 85.60350026404147 84.71141617570332 l -4.323781789194497 -4.5917064240939425 a27.307048187990603,27.307048187990603 0 0,0 0.3440300944684558,-0.3184291193689162 l 4.2443219234120875 4.665253289595224" fill="#ff4906" stroke="none" /><path d="M 85.86807049272753 84.46653392183569 l -5.564633644335519 -6.11650715546065 a29.26902699103541,29.26902699103541 0 0,0 0.3745529134924438,-0.33492752485281907 l 5.458815704019683 6.21113021019687" fill="#ff6409" stroke="none" /><path d="M 88.4268655584334 82.4767994020092 l -2.6592016838120762 -4.0263702777521875 a25.82524726918271,25.82524726918271 0 0,0 0.37202420711632256,-0.2411415963838439 l 2.5896918444387276 4.071425715839938" fill="#ff3405" stroke="none" /><path d="M 89.03521579738668 82.08984904055464 l -0.8080494419639188 -1.3198880361749457 a22.547594368268363,22.547594368268363 0 0,0 0.331843944650563,-0.19926275411169855 l 0.7852727407559216 1.3335647908225676" fill="#ff0500" stroke="none" /><line stroke="#e1ed5e" stroke-width="0.3" x1="56.869717070023135" x2="54.33264160355391" y1="26.7553504044142" y2="22.446841604673864" /><path d="M 56.362301976729285 25.89364864446614 a86.0,86.0 0 0,1 42.16139366436587,-11.88097634709845" fill="none" id="id120" stroke="none" /><text fill="#e1ed5e" style="font-size:6.75px; font-family:Arial;" text-anchor="middle"><textPath startOffset="22.145653131862474" xlink:href="#id120">December</textPath></text><path d="M 89.65649057296885 81.72400993836675 l -3.4062040445064468 -6.018436170475134 a27.915475394424845,27.915475394424845 0 0,0 0.41907218373703553,-0.23245227602480098 l 3.3023876726133086 6.076021361933081" fill="#ff5207" stroke="none" /><path d="M 90.28995756902619 81.37971332152246 l -2.536727138002422 -4.864508767130258 a26.48620361617805,26.48620361617805 0 0,0 0.40495233244314516,-0.20677154634507727 l 2.4528475838456942 4.9073382651481685" fill="#ff3d05" stroke="none" /><path d="M 91.5904679813234 80.7573450057729 l -5.440053770602689 -12.447907639244047 a34.58471897472299,34.58471897472299 0 0,0 0.5460514165288471,-0.2330768794918444 l 5.225567278903411 12.539459168395295" fill="#ffab0f" stroke="none" /><path d="M 92.25597844496254 80.48000691201159 l -0.8722532879716984 -2.1986480837087923 a23.365349698115224,23.365349698115224 0 0,0 0.37409898404975134,-0.14470952359193648 l 0.8343820414284177 2.2132974954387694" fill="#ff1101" stroke="none" /><path d="M 92.592206182469 80.34994680014964 l -5.710022279243394 -15.14651248714969 a37.18706875727775,37.18706875727775 0 0,0 0.5992622612212701,-0.2200574029676757 l 5.449170866367997 15.242300739126089" fill="#ffcd13" stroke="none" /><path d="M 93.27111125876988 80.10723608172694 l -7.282404618169599 -21.52913525511876 a43.7274521637586,43.7274521637586 0 0,0 0.713126576508692,-0.23441887019203886 l 6.911755304013146 21.650975046712826" fill="#e1ff1b" stroke="none" /><path d="M 93.61358852112211 79.99465700312896 l -4.075687803131372 -12.767033993890553 a34.401805403368265,34.401805403368265 0 0,0 0.5641230446084624,-0.1747667612401536 l 3.8559241256512937 12.835117342937348" fill="#ffa90f" stroke="none" /><path d="M 94.30408787586887 79.78721728523814 l -2.9407659815942586 -10.435741020143537 a31.84217668173732,31.84217668173732 0 0,0 0.5273952992682072,-0.14374393403827118 l 2.761189281391374 10.484685448325948" fill="#ff870c" stroke="none" /><path d="M 96.41257539226777 79.30868818359171 l -3.9234956512001045 -22.629680287726593 a43.96728647554403,43.96728647554403 0 0,0 0.7447691870981611,-0.12255148631908924 l 3.5344489610488705 22.69369777254135" fill="#deff1b" stroke="none" /><path d="M 97.84075906011542 79.11130261209362 l -0.5462849213626202 -5.284811064452118 a26.312970468792734,26.312970468792734 0 0,0 0.44970174237556687,-0.04258722255610517 l 0.45548361560203776 5.293410042513407" fill="#ff3b05" stroke="none" /><path d="M 98.5590905019552 79.04949213459386 l -1.2566232175241492 -18.27102579191475 a39.31418809010202,39.31418809010202 0 0,0 0.6736872678832883,-0.040527353122794124 l 0.9427915975083772 18.289905122862237" fill="#ffe815" stroke="none" /><path d="M 99.63950707515114 79.00309439819443 l -0.4464137674529929 -26.00136393380477 a47.005195859095835,47.005195859095835 0 0,0 0.8069066923018386,-0.006926323485497404 l 6.369435974008344e-15 26.005195859095835" fill="#bbff1f" stroke="none" /></svg>