<?xml version="1.0" encoding="utf-8" ?>
<svg baseProfile="full" height="200mm" version="1.1" viewBox="0,0,200,200" width="200mm" xmlns="http://www.w3.org/2000/svg" xmlns:ev="http://www.w3.org/2001/xml-events" xmlns:xlink="http://www.w3.org/1999/xlink"><defs /><rect fill="#1a1a1a" height="200" width="200" x="0" y="0" /><text alignment-baseline="middle" fill="#e1ed5e" style="dominant-baseline: central; font-size:9.0px; font-family:Arial;" text-anchor="middle" x="100.0" y="100.0">2015</text><line stroke="#e1ed5e" stroke-width="0.3" x1="100.0" x2="100.0" y1="15.0" y2="10.0" /><path d="M 100.0 14.0 a86.0,86.0 0 0,1 42.46469731375804,11.215312516191453" fill="none" id="id1" stroke="none" /><text fill="#e1ed5e" style="font-size:6.75px; font-family:Arial;" text-anchor="middle"><textPath startOffset="22.20632615414155" xlink:href="#id1">January</textPath></text><line stroke="#e1ed5e" stroke-width="0.3" x1="143.23703022742887" x2="145.7803849466894" y1="26.81831364943548" y2="22.513508569990506" /><path d="M 143.74570117128098 25.957352633546492 a86.0,86.0 0 0,1 28.547481713284135,27.462654790039103" fill="none" id="id2" stroke="none" /><text fill="#e1ed5e" style="font-size:6.75px; font-family:Arial;" text-anchor="middle"><textPath startOffset="19.985693538727396" xlink:href="#id2">February</textPath></text><line stroke="#e1ed5e" stroke-width="0.3" x1="172.23445277983987" x2="176.4835382374775" y1="55.19839476539836" y2="52.563006222186495" /><path d="M 173.08426987136738 54.67131705675599 a86.0,86.0 0 0,1 12.851231095245387,41.99856678651699" fill="none" id="id3" stroke="none" /><text fill="#e1ed5e" style="font-size:6.75px; font-family:Arial;" text-anchor="middle"><textPath startOffset="22.20632615414155" xlink:href="#id3">March</textPath></text><line stroke="#e1ed5e" stroke-width="0.3" x1="184.98032266829074" x2="189.97916517819016" y1="98.17113171792111" y2="98.06355123074" /><path d="M 185.9800911702706 98.14961562048488 a86.0,86.0 0 0,1 -9.607161424134198,41.387399972396054" fill="none" id="id4" stroke="none" /><text fill="#e1ed5e" style="font-size:6.75px; font-family:Arial;" text-anchor="middle"><textPath startOffset="21.466115282336823" xlink:href="#id4">April</textPath></text><line stroke="#e1ed5e" stroke-width="0.3" x1="174.80103733775053" x2="179.2010983576182" y1="140.37084112569926" y2="142.7455964860345" /><path d="M 175.68104954172406 140.8457921977663 a86.0,86.0 0 0,1 -30.038265399797805,32.042727171017184" fill="none" id="id5" stroke="none" /><text fill="#e1ed5e" style="font-size:6.75px; font-family:Arial;" text-anchor="middle"><textPath startOffset="22.206326154141568" xlink:href="#id5">May</textPath></text><line stroke="#e1ed5e" stroke-width="0.3" x1="143.8653032363475" x2="146.44561519142675" y1="172.8068346515853" y2="177.08958963109032" /><path d="M 144.38136562736335 173.6633856474863 a86.0,86.0 0 0,1 -40.68145358897372,12.25698825130547" fill="none" id="id6" stroke="none" /><text fill="#e1ed5e" style="font-size:6.75px; font-family:Arial;" text-anchor="middle"><textPath startOffset="21.466115282336833" xlink:href="#id6">June</textPath></text><line stroke="#e1ed5e" stroke-width="0.3" x1="102.19456741930631" x2="102.32365962044197" y1="184.97166512339345" y2="189.96999836594603" /><path d="M 102.22038585953345 185.97133177190398 a86.0,86.0 0 0,1 -42.740103519485714,-10.115201625700543" fill="none" id="id7" stroke="none" /><text fill="#e1ed5e" style="font-size:6.75px; font-family:Arial;" text-anchor="middle"><textPath startOffset="22.20632615414155" xlink:href="#id7">July</textPath></text><path d="M 98.01472825383883 120.90594882070398 l -0.1407439163348654 1.482106979768229 a22.488774646970782,22.488774646970782 0 0,0 -0.38505858596824993,-0.039912896845175114 l 0.1662350989087087 -1.479464714467293" fill="#ff0000" stroke="none" /><path d="M 94.81253420990036 120.34920634021253 l -3.705163921315999 14.534485278547162 a35.999316717641705,35.999316717641705 0 0,0 -0.5991478688129478,-0.15824039772373916 l 3.9548022329404358 -14.468553531519841" fill="#ffbb11" stroke="none" /><path d="M 94.11515582081647 120.15858648285463 l -4.021297423996977 13.774990369612537 a35.349954447842784,35.349954447842784 0 0,0 -0.582643042228368,-0.17554556912965233 l 4.257815440665591 -13.703729431377159" fill="#ffb310" stroke="none" /><line stroke="#e1ed5e" stroke-width="0.3" x1="58.666819895761336" x2="56.23545636021788" y1="174.27360380694188" y2="178.64263932499728" /><path d="M 58.180547188652646 175.14741091055294 a86.0,86.0 0 0,1 -31.652253787137756,-30.449443065178592" fill="none" id="id8" stroke="none" /><text fill="#e1ed5e" style="font-size:6.75px; font-family:Arial;" text-anchor="middle"><textPath startOffset="22.20632615414155" xlink:href="#id8">August</textPath></text><path d="M 88.8546689885994 117.79835938074946 l -0.8111963746154396 1.295427169367874 a22.528453829634934,22.528453829634934 0 0,0 -0.32689665969692583,-0.20864091479871932 l 0.833374836359289 -1.2812718257453506" fill="#ff0100" stroke="none" /><path d="M 87.65650970185807 116.9893568818739 l -8.932216793850145 12.294141704784334 a36.196394872128586,36.196394872128586 0 0,0 -0.5009150650716655,-0.3705649899521224 l 9.142516829340375 -12.138566766092445" fill="#ffbe11" stroke="none" /><path d="M 86.51685102203217 116.09983520530335 l -4.7768356753628805 5.703880250958074 a28.439919958352313,28.439919958352313 0 0,0 -0.3726097059013295,-0.3175460749640529 l 4.874310857841267 -5.62080978577107" fill="#ff5507" stroke="none" /><path d="M 83.06392112726016 112.41649034213515 l -11.909959081032268 8.731648749161653 a35.767830415826126,35.767830415826126 0 0,0 -0.35975659841451696,-0.4996704499964775 l 12.058495471822392 -8.525344693714038" fill="#ffb811" stroke="none" /><path d="M 82.85270091963577 112.12312394758628 l -2.398165402576667 1.6955006316733903 a23.93699160538817,23.93699160538817 0 0,0 -0.23496903499058733,-0.33849041972267363 l 2.4269953447293884 -1.653968949763704" fill="#ff1502" stroke="none" /><line stroke="#e1ed5e" stroke-width="0.3" x1="26.63291911575756" x2="22.317208475507996" y1="142.92168965132927" y2="145.44649492493687" /><path d="M 25.769776987707644 143.4266507060508 a86.0,86.0 0 0,1 -11.730757126820373,-40.83630448921669" fill="none" id="id9" stroke="none" /><text fill="#e1ed5e" style="font-size:6.75px; font-family:Arial;" text-anchor="middle"><textPath startOffset="21.46611528233685" xlink:href="#id9">September</textPath></text><path d="M 81.51974371655577 109.97397251340807 l -27.731723165088706 14.967078397382831 a52.51288475304223,52.51288475304223 0 0,0 -0.42247238880486226,-0.7991585467421427 l 27.985248062118455 -14.487504835554562" fill="#7fff26" stroke="none" /><path d="M 80.20201598880116 107.00284435728193 l -23.711559321168522 8.387134735570783 a46.151184356087725,46.151184356087725 0 0,0 -0.25846678300501674,-0.751225457031857 l 23.852416935116768 -7.9777365754496286" fill="#c6ff1e" stroke="none" /><path d="M 79.4281124754447 104.21870165774334 l -61.715662573665874 12.656104973230022 a84.0,84.0 0 0,0 -0.2782802680973342,-1.4189450917281805 l 61.92437277473888 -11.591896154433886" fill="#4dd2ff" stroke="none" /><path d="M 79.29508885075956 103.50808413554451 l -7.276909434020807 1.2329447036636554 a28.3806208108284,28.3806208108284 0 0,0 -0.07746320928638693,-0.4823634781707468 l 7.297054397668484 -1.107501995799695" fill="#ff5507" stroke="none" /><path d="M 79.23777060512086 103.15116336523772 l -11.623347202951779 1.764120085120233 a32.7564586451487,32.7564586451487 0 0,0 -0.07981025199593154,-0.5581927165739625 l 11.65199150596431 -1.5637818965658699" fill="#ff900d" stroke="none" /><path d="M 79.18660465613746 102.79330883721812 l -11.170494659166419 1.4991615222812957 a32.270644888397214,32.270644888397214 0 0,0 -0.06914906264803762,-0.55118606567447 l 11.194645231061305 -1.3066577023194172" fill="#ff8a0c" stroke="none" /><path d="M 79.1416061653843 102.43462659150553 l -14.700243382364734 1.715836977865166 a35.800042298431705,35.800042298431705 0 0,0 -0.06617501181857674,-0.6126984227969874 l 14.727600695684364 -1.4625422331833966" fill="#ffb811" stroke="none" /><path d="M 79.0095281055655 100.63252640178507 l -31.808119569822313 0.95850515034794 a52.82255807900045,52.82255807900045 0 0,0 -0.019564311693143738,-0.9090766878937224 l 31.819905944200467 -0.41083864666408876" fill="#7cff26" stroke="none" /><line stroke="#e1ed5e" stroke-width="0.3" x1="15.007084014347285" x2="10.007500721073583" y1="101.09737516637583" y2="101.16192664675087" /><path d="M 14.007167355692545 101.11028546245083 a86.0,86.0 0 0,1 10.666146001902534,-42.60595125391555" fill="none" id="id10" stroke="none" /><text fill="#e1ed5e" style="font-size:6.75px; font-family:Arial;" text-anchor="middle"><textPath startOffset="22.20632615414155" xlink:href="#id10">October</textPath></text><path d="M 79.05617556472873 98.46500227214037 l -26.150916075956733 -1.9166316487278947 a47.221058111537715,47.221058111537715 0 0,0 0.06639171977774645,-0.810147145348085 l 26.11404987235949 2.366492711283758" fill="#baff1f" stroke="none" /><path d="M 79.26566170972629 96.67025291283419 l -31.402203432703725 -5.042909686666116 a52.80454870827097,52.80454870827097 0 0,0 0.15184611427415218,-0.8962043619617553 l 31.310745456909352 5.582699836943699" fill="#7cff26" stroke="none" /><path d="M 80.95270993114464 91.15688171328213 l -12.50484721555576 -5.80564703350158 a34.786832172837904,34.786832172837904 0 0,0 0.25682920431431694,-0.5409478038990554 l 12.403059817399692 6.020037253041167" fill="#ffab0f" stroke="none" /><path d="M 81.43458229118936 90.18545643968196 l -22.385369462095557 -11.833947781055606 a46.32088241035986,46.32088241035986 0 0,0 0.37871049271011137,-0.7016930268359923 l 22.178350870166973 12.217521791224073" fill="#c4ff1e" stroke="none" /><line stroke="#e1ed5e" stroke-width="0.3" x1="26.266209847984243" x2="21.928928074336255" y1="57.711370442889674" y2="55.22380399835377" /><path d="M 25.398753493254645 57.213857153982495 a86.0,86.0 0 0,1 29.58750427330803,-30.492523968695096" fill="none" id="id11" stroke="none" /><text fill="#e1ed5e" style="font-size:6.75px; font-family:Arial;" text-anchor="middle"><textPath startOffset="21.46611528233685" xlink:href="#id11">November</textPath></text><path d="M 84.5562425177563 85.77008943001954 l -23.381315319366262 -21.543593026867363 a52.79327454935901,52.79327454935901 0 0,0 0.621534411847,-0.6630095753247451 l 23.007013585548805 21.94287201907016" fill="#7cff26" stroke="none" /><path d="M 86.93701828274178 83.55741782278169 l -10.074570691877785 -12.68102184377581 a37.19584173879092,37.19584173879092 0 0,0 0.504743046618935,-0.39395995398761885 l 9.854795090099424 12.85256018698665" fill="#ffca12" stroke="none" /><path d="M 87.51073957382395 83.11751280151077 l -5.394947403785502 -7.292676057105676 a30.071305394676905,30.071305394676905 0 0,0 0.418785433620431,-0.3042654276344101 l 5.268616653811289 7.384460719556754" fill="#ff6c09" stroke="none" /><path d="M 88.09926311788651 82.69761687909137 l -8.238601490845745 -11.978034703829756 a35.53780829049261,35.53780829049261 0 0,0 0.5069981207100928,-0.342327394294304 l 8.031198675729113 12.118074010422726" fill="#ffb510" stroke="none" /><line stroke="#e1ed5e" stroke-width="0.3" x1="56.762969772571076" x2="54.21961505331055" y1="26.818313649435495" y2="22.513508569990535" /><path d="M 56.25429882871897 25.957352633546506 a86.0,86.0 0 0,1 42.265352541879196,-11.944610805530505" fill="none" id="id12" stroke="none" /><text fill="#e1ed5e" style="font-size:6.75px; font-family:Arial;" text-anchor="middle"><textPath startOffset="22.20632615414155" xlink:href="#id12">December</textPath></text><path d="M 89.63071344664047 81.73862282372117 l -7.221720462181455 -12.718190450510711 a35.62551246176872,35.62551246176872 0 0,0 0.5358686286255422,-0.29821031165746215 l 7.001727744483867 12.840616159728357" fill="#ffb610" stroke="none" /><path d="M 90.58718382345135 81.22770947309562 l -5.53814230313264 -11.044900308662488 a33.355599661612544,33.355599661612544 0 0,0 0.5154690712519325,-0.25293843460572474 l 5.347201964870282 11.138593903403041" fill="#ff980e" stroke="none" /><path d="M 98.19473922651362 79.07773832637324 l -1.6396902887182478 -19.003364936587435 a40.07397344959979,40.07397344959979 0 0,0 0.6877644372604337,-0.0533837571580515 l 1.31233566209548 19.02877395593395" fill="#ffef16" stroke="none" /><path d="M 98.55514903715128 79.0497635885617 l -0.5142317646085919 -7.456324088665968 a28.47403527038459,28.47403527038459 0 0,0 0.48926250229685175,-0.029513650256481685 l 0.3858072134721171 7.464071008302756" fill="#ff5607" stroke="none" /></svg>