<?xml version="1.0" encoding="utf-8" ?>
<svg baseProfile="full" height="200mm" version="1.1" viewBox="0,0,200,200" width="200mm" xmlns="http://www.w3.org/2000/svg" xmlns:ev="http://www.w3.org/2001/xml-events" xmlns:xlink="http://www.w3.org/1999/xlink"><defs /><rect fill="#1a1a1a" height="200" width="200" x="0" y="0" /><text alignment-baseline="middle" fill="#e1ed5e" style="dominant-baseline: central; font-size:9.0px; font-family:Arial;" text-anchor="middle" x="100.0" y="100.0">2023</text><line stroke="#e1ed5e" stroke-width="0.3" x1="100.0" x2="100.0" y1="15.0" y2="10.0" /><path d="M 100.0 14.0 a86.0,86.0 0 0,1 42.46469731375804,11.215312516191453" fill="none" id="id97" stroke="none" /><text fill="#e1ed5e" style="font-size:6.75px; font-family:Arial;" text-anchor="middle"><textPath startOffset="22.20632615414155" xlink:href="#id97">January</textPath></text><line stroke="#e1ed5e" stroke-width="0.3" x1="143.23703022742887" x2="145.7803849466894" y1="26.81831364943548" y2="22.513508569990506" /><path d="M 143.74570117128098 25.957352633546492 a86.0,86.0 0 0,1 28.547481713284135,27.462654790039103" fill="none" id="id98" stroke="none" /><text fill="#e1ed5e" style="font-size:6.75px; font-family:Arial;" text-anchor="middle"><textPath startOffset="19.985693538727396" xlink:href="#id98">February</textPath></text><path d="M 113.6212207817346 84.01681056812373 l 7.6855371932972 -9.018236971162043 a32.84888518036986,32.84888518036986 0 0,0 0.4272016309666388,0.3704650446594933 l -7.839632622910603 8.884606933082878" fill="#ff9b0e" stroke="none" /><line stroke="#e1ed5e" stroke-width="0.3" x1="172.23445277983987" x2="176.4835382374775" y1="55.19839476539836" y2="52.563006222186495" /><path d="M 173.08426987136738 54.67131705675599 a86.0,86.0 0 0,1 12.851231095245387,41.99856678651699" fill="none" id="id99" stroke="none" /><text fill="#e1ed5e" style="font-size:6.75px; font-family:Arial;" text-anchor="middle"><textPath startOffset="22.20632615414155" xlink:href="#id99">March</textPath></text><path d="M 118.56541770881063 90.18545643968196 l 10.839872321752306 -5.73046083631261 a33.2613626220092,33.2613626220092 0 0,0 0.26322498609612516,0.5084668903073873 l -10.936906741008547 5.543021223744878" fill="#ffa00e" stroke="none" /><path d="M 119.04729006885535 91.15688171328212 l 2.7880127559792625 -1.2943955017683288 a24.07383715289232,24.07383715289232 0 0,0 0.17126549964018134,0.3773608263548766 l -2.8098805725827907 1.2462126665713895" fill="#ff2303" stroke="none" /><path d="M 120.96714384426684 98.82574320788733 l 3.0795250943216805 -0.17246761339300976 a24.084350804338968,24.084350804338968 0 0,0 0.019618873347663175,0.41412340855439156 l -3.08203757590284 0.11943309821561841" fill="#ff2303" stroke="none" /><line stroke="#e1ed5e" stroke-width="0.3" x1="184.98032266829074" x2="189.97916517819016" y1="98.17113171792111" y2="98.06355123074" /><path d="M 185.9800911702706 98.14961562048488 a86.0,86.0 0 0,1 -9.607161424134198,41.387399972396054" fill="none" id="id100" stroke="none" /><text fill="#e1ed5e" style="font-size:6.75px; font-family:Arial;" text-anchor="middle"><textPath startOffset="21.466115282336823" xlink:href="#id100">April</textPath></text><path d="M 120.92983693683757 101.71520430193887 l 3.106882456207216 0.25460963554502525 a24.117297653930493,24.117297653930493 0 0,0 -0.03746840822216315,0.4134607625394702 l -3.1020394517079777 -0.3080517866330659" fill="#ff2303" stroke="none" /><path d="M 118.81262510543309 109.33194174019688 l 5.693891985003893 2.824436673842231 a27.355930180660934,27.355930180660934 0 0,0 -0.21288297615988377,0.42003830817663196 l -5.64443033905774 -2.9220291937215572" fill="#ff5107" stroke="none" /><line stroke="#e1ed5e" stroke-width="0.3" x1="174.80103733775053" x2="179.2010983576182" y1="140.37084112569926" y2="142.7455964860345" /><path d="M 175.68104954172406 140.8457921977663 a86.0,86.0 0 0,1 -30.038265399797805,32.042727171017184" fill="none" id="id101" stroke="none" /><text fill="#e1ed5e" style="font-size:6.75px; font-family:Arial;" text-anchor="middle"><textPath startOffset="22.206326154141568" xlink:href="#id101">May</textPath></text><line stroke="#e1ed5e" stroke-width="0.3" x1="143.8653032363475" x2="146.44561519142675" y1="172.8068346515853" y2="177.08958963109032" /><path d="M 144.38136562736335 173.6633856474863 a86.0,86.0 0 0,1 -40.68145358897372,12.25698825130547" fill="none" id="id102" stroke="none" /><text fill="#e1ed5e" style="font-size:6.75px; font-family:Arial;" text-anchor="middle"><textPath startOffset="21.466115282336833" xlink:href="#id102">June</textPath></text><path d="M 108.59647513512805 119.15986991738527 l 1.2599450230311715 2.808172229299964 a24.077871461005568,24.077871461005568 0 0,0 -0.37960406852319273,0.1664072681053213 l -1.211420279850225 -2.8294440506997396" fill="#ff2303" stroke="none" /><path d="M 105.18746579009965 120.34920634021253 l 1.4527330190303631 5.698729429292458 a26.880982089146762,26.880982089146762 0 0,0 -0.44935621263197834,0.11044082428260386 l -1.3544235216551737 -5.722891511889092" fill="#ff4a06" stroke="none" /><path d="M 101.98527174616119 120.90594882070398 l 1.0571621166765954 11.132469471327246 a32.182551956998424,32.182551956998424 0 0,0 -0.5519394741376691,0.04762366026878524 l -0.8653783247973846 -11.149017383874696" fill="#ff920d" stroke="none" /><line stroke="#e1ed5e" stroke-width="0.3" x1="102.19456741930631" x2="102.32365962044197" y1="184.97166512339345" y2="189.96999836594603" /><path d="M 102.22038585953345 185.97133177190398 a86.0,86.0 0 0,1 -42.740103519485714,-10.115201625700543" fill="none" id="id103" stroke="none" /><text fill="#e1ed5e" style="font-size:6.75px; font-family:Arial;" text-anchor="middle"><textPath startOffset="22.20632615414155" xlink:href="#id103">July</textPath></text><path d="M 95.51606077576429 120.51570834832081 l -0.6951049867201955 3.1803667413546743 a24.255442143868976,24.255442143868976 0 0,0 -0.40712164872766665,-0.09265956177612408 l 0.7497467848407248 -3.1679304460008635" fill="#ff2503" stroke="none" /><path d="M 90.42595943632237 118.69057910512821 l -4.27824900743928 8.352058984202207 a30.384045174936446,30.384045174936446 0 0,0 -0.4634421946465752,-0.24245105260828928 l 4.421382104612351 -8.277178512649202" fill="#ff7a0b" stroke="none" /><line stroke="#e1ed5e" stroke-width="0.3" x1="58.666819895761336" x2="56.23545636021788" y1="174.27360380694188" y2="178.64263932499728" /><path d="M 58.180547188652646 175.14741091055294 a86.0,86.0 0 0,1 -31.652253787137756,-30.449443065178592" fill="none" id="id104" stroke="none" /><text fill="#e1ed5e" style="font-size:6.75px; font-family:Arial;" text-anchor="middle"><textPath startOffset="22.20632615414155" xlink:href="#id104">August</textPath></text><line stroke="#e1ed5e" stroke-width="0.3" x1="26.63291911575756" x2="22.317208475507996" y1="142.92168965132927" y2="145.44649492493687" /><path d="M 25.769776987707644 143.4266507060508 a86.0,86.0 0 0,1 -11.730757126820373,-40.83630448921669" fill="none" id="id105" stroke="none" /><text fill="#e1ed5e" style="font-size:6.75px; font-family:Arial;" text-anchor="middle"><textPath startOffset="21.46611528233685" xlink:href="#id105">September</textPath></text><line stroke="#e1ed5e" stroke-width="0.3" x1="15.007084014347285" x2="10.007500721073583" y1="101.09737516637583" y2="101.16192664675087" /><path d="M 14.007167355692545 101.11028546245083 a86.0,86.0 0 0,1 10.666146001902534,-42.60595125391555" fill="none" id="id106" stroke="none" /><text fill="#e1ed5e" style="font-size:6.75px; font-family:Arial;" text-anchor="middle"><textPath startOffset="22.20632615414155" xlink:href="#id106">October</textPath></text><line stroke="#e1ed5e" stroke-width="0.3" x1="26.266209847984243" x2="21.928928074336255" y1="57.711370442889674" y2="55.22380399835377" /><path d="M 25.398753493254645 57.213857153982495 a86.0,86.0 0 0,1 29.58750427330803,-30.492523968695096" fill="none" id="id107" stroke="none" /><text fill="#e1ed5e" style="font-size:6.75px; font-family:Arial;" text-anchor="middle"><textPath startOffset="21.46611528233685" xlink:href="#id107">November</textPath></text><path d="M 83.84228863543731 86.58626213691792 l -48.47313409368807 -40.241213589246236 a84.0,84.0 0 0,0 0.9331575460515031,-1.1045642014835364 l 47.77326593414944 41.06963674035889" fill="#4dd2ff" stroke="none" /><path d="M 84.80347519578584 85.50635884689758 l -6.393094502002243 -6.097395211318123 a29.8345846350882,29.8345846350882 0 0,0 0.35763957762978854,-0.3685790221539061 l 6.287190660669336 6.206538429022152" fill="#ff730a" stroke="none" /><path d="M 85.57189188830299 84.74124197986013 l -4.55567660615302 -4.817954399367529 a27.630752139405818,27.630752139405818 0 0,0 0.3484002538730035,-0.323800065943614 l 4.472068468485161 4.89565905138579" fill="#ff5407" stroke="none" /><path d="M 86.37877921826538 84.01681056812374 l -2.702094110715787 -3.170646943205026 a25.165851008091902,25.165851008091902 0 0,0 0.3321202825191736,-0.2781411853418043 l 2.647116291237503 3.216689285940643" fill="#ff3204" stroke="none" /><path d="M 87.51073957382395 83.11751280151077 l -0.39486837584399603 -0.5337674187898732 a21.663949314031786,21.663949314031786 0 0,0 0.3017011163410892,-0.2191986917684951 l 0.38562194314912507 0.5404853453750362" fill="#ff0000" stroke="none" /><path d="M 88.09926311788651 82.69761687909137 l -1.9498244162587195 -2.8348336244048613 a24.440653561795354,24.440653561795354 0 0,0 0.34868119394047514,-0.2354310986279235 l 1.9007385279117048 2.86797663533145" fill="#ff2803" stroke="none" /><line stroke="#e1ed5e" stroke-width="0.3" x1="56.762969772571076" x2="54.21961505331055" y1="26.818313649435495" y2="22.513508569990535" /><path d="M 56.25429882871897 25.957352633546506 a86.0,86.0 0 0,1 42.265352541879196,-11.944610805530505" fill="none" id="id108" stroke="none" /><text fill="#e1ed5e" style="font-size:6.75px; font-family:Arial;" text-anchor="middle"><textPath startOffset="22.20632615414155" xlink:href="#id108">December</textPath></text><path d="M 89.94658935756843 81.56283822128135 l -6.2423012380753375 -11.447887875199172 a34.03918945141948,34.03918945141948 0 0,0 0.5168363889879314,-0.2760760998197134 l 6.044319802559101 11.553642701520634" fill="#ffaa0f" stroke="none" /><path d="M 90.58718382345135 81.22770947309562 l -0.6867960232206881 -1.369700017380841 a22.532242446587624,22.532242446587624 0 0,0 0.34820762345738004,-0.1708639685814305 l 0.6631171327528821 1.381319146097101" fill="#ff0d01" stroke="none" /><path d="M 91.23893434514133 80.91482961587045 l -1.2968954503235588 -2.8251666652105247 a24.10861777889896,24.10861777889896 0 0,0 0.37864063059670067,-0.16988501383927632 l 1.2480727012600838 2.84707200956633" fill="#ff2303" stroke="none" /><path d="M 91.90106846888425 80.62456947434976 l -0.5683695085145463 -1.3597354024802366 a22.47374497894553,22.47374497894553 0 0,0 0.3582059502481053,-0.14612120112197663 l 0.5448796886780605 1.3693174897857903" fill="#ff0c01" stroke="none" /><path d="M 92.23578459929587 80.48803036053334 l -2.0798313093883563 -5.226749036395545 a26.62535365688006,26.62535365688006 0 0,0 0.4272948771526672,-0.16578377391102161 l 1.989553267236013 5.261775514197119" fill="#ff4706" stroke="none" /><path d="M 92.57280143429618 80.3572730644239 l -2.1907374885673145 -5.793847827653947 a27.194191100848002,27.194191100848002 0 0,0 0.43927382179647373,-0.16178825575192085 l 2.0906813409982714 5.83069935121219" fill="#ff4e07" stroke="none" /><path d="M 92.91201910852362 80.23233633223022 l -2.909045835714187 -8.113035370013023 a29.61881027690994,29.61881027690994 0 0,0 0.48140156979736526,-0.16795155513469617 l 2.7689622618535363 8.161907778319929" fill="#ff700a" stroke="none" /><path d="M 93.59665428221793 80.00007090966166 l -0.9373341047889527 -2.9276282206152815 a24.074020530533833,24.074020530533833 0 0,0 0.395747810704881,-0.122960771187637 l 0.886800921373343 2.9433291266854438" fill="#ff2303" stroke="none" /><path d="M 94.63758080256005 79.69619591428918 l -3.321311775017339 -12.575530018188525 a34.00673160887198,34.00673160887198 0 0,0 0.567250276545844,-0.14460472584580394 l 3.1043526097864955 12.630837740203193" fill="#ffaa0f" stroke="none" /><path d="M 97.11714578562143 79.19881850522333 l -4.470079912688575 -32.2537792914492 a53.56206217375274,53.56206217375274 0 0,0 0.9143433523827026,-0.11870800896920085 l 3.9142218317980144 32.325945623582534" fill="#70ff27" stroke="none" /><path d="M 98.19473922651362 79.07773832637324 l -0.7006897612247927 -8.120718486595292 a29.1508916616537,29.1508916616537 0 0,0 0.5002984449378914,-0.03883278815272886 l 0.560801126924567 8.131576536936484" fill="#ff6909" stroke="none" /><path d="M 98.55514903715128 79.0497635885617 l -0.2561047607367184 -3.7135008533685623 a24.72232161915666,24.72232161915666 0 0,0 0.42479770861830396,-0.025624957856076665 l 0.19214500327879144 3.7173590806049455" fill="#ff2c04" stroke="none" /><path d="M 99.63851952072746 79.00311137660856 l -0.324568547538934 -18.852828946795658 a39.855622610754274,39.855622610754274 0 0,0 0.6860490268114651,-0.005905040567173848 l 4.618295575238136e-15 18.855622610754274" fill="#fff316" stroke="none" /></svg>