<?xml version="1.0" encoding="utf-8" ?>
<svg baseProfile="full" height="200mm" version="1.1" viewBox="0,0,200,200" width="200mm" xmlns="http://www.w3.org/2000/svg" xmlns:ev="http://www.w3.org/2001/xml-events" xmlns:xlink="http://www.w3.org/1999/xlink"><defs /><rect fill="#1a1a1a" height="200" width="200" x="0" y="0" /><text alignment-baseline="middle" fill="#e1ed5e" style="dominant-baseline: central; font-size:9.0px; font-family:Arial;" text-anchor="middle" x="100.0" y="100.0">2022</text><line stroke="#e1ed5e" stroke-width="0.3" x1="100.0" x2="100.0" y1="15.0" y2="10.0" /><path d="M 100.0 14.0 a86.0,86.0 0 0,1 42.46469731375804,11.215312516191453" fill="none" id="id97" stroke="none" /><text fill="#e1ed5e" style="font-size:6.75px; font-family:Arial;" text-anchor="middle"><textPath startOffset="22.20632615414155" xlink:href="#id97">January</textPath></text><path d="M 100.0 79.0 l 0.0 -27.801303591730232 a48.80130359173023,48.80130359173023 0 0,0 0.8400342195934669,0.007230439736309017 l -0.4785537403209385 27.797184528602482" fill="#a8ff21" stroke="none" /><path d="M 100.72285384407766 79.0124445844662 l 0.2768734232036597 -8.038826050638045 a29.043592677708972,29.043592677708972 0 0,0 0.4994933217097466,0.021509233144934494 l -0.4152075773027378 8.032869090968916" fill="#ff5e08" stroke="none" /><path d="M 103.2404852339499 79.25152402106235 l 1.3670503008037072 -8.753075012056573 a29.859184425872208,29.859184425872208 0 0,0 0.5071380482486464,0.08368212328750177 l -1.5175175551912288 8.728246625829446" fill="#ff6909" stroke="none" /><path d="M 103.59715602781102 79.31037775812273 l 1.2285130937338051 -7.065990919504162 a28.171992198545023,28.171992198545023 0 0,0 0.4770522797168393,0.08717825487681893 l -1.3499604945535453 7.043797183276604" fill="#ff5207" stroke="none" /><path d="M 105.36241919743992 79.69619591428918 l 4.471912831658354 -16.932067165825995 a38.51264979613289,38.51264979613289 0 0,0 0.6394972512142648,0.17479875590547445 l -4.7627079720963295 16.852581869094227" fill="#ffdb14" stroke="none" /><line stroke="#e1ed5e" stroke-width="0.3" x1="143.23703022742887" x2="145.7803849466894" y1="26.81831364943548" y2="22.513508569990506" /><path d="M 143.74570117128098 25.957352633546492 a86.0,86.0 0 0,1 28.547481713284135,27.462654790039103" fill="none" id="id98" stroke="none" /><text fill="#e1ed5e" style="font-size:6.75px; font-family:Arial;" text-anchor="middle"><textPath startOffset="19.985693538727396" xlink:href="#id98">February</textPath></text><path d="M 111.90073688211348 82.69761687909136 l 4.1961970023708846 -6.100816185168487 a28.40459501984546,28.40459501984546 0 0,0 0.40046267038635947,0.28054969248895134 l -4.300590812340895 6.0276816499156" fill="#ff5507" stroke="none" /><path d="M 115.19652480421416 85.50635884689758 l 5.199136816922456 -4.958661555927617 a28.184660609055452,28.184660609055452 0 0,0 0.33181757722525634,0.3539598560723959 l -5.283721716118175 4.868432282977166" fill="#ff5207" stroke="none" /><path d="M 116.82858285166822 87.43820079747576 l 5.7568850004544805 -4.297262226127623 a28.1838838763277,28.1838838763277 0 0,0 0.28685474804502914,0.3912695539595699 l -5.830002361013136 4.19753022849656" fill="#ff5207" stroke="none" /><path d="M 117.2510076193507 88.02491185347247 l 11.83885805263208 -8.218150027101576 a35.41168102125221,35.41168102125221 0 0,0 0.3432834231176091,0.5037260644755377 l -11.978565941418422 8.013145939355631" fill="#ffb310" stroke="none" /><line stroke="#e1ed5e" stroke-width="0.3" x1="172.23445277983987" x2="176.4835382374775" y1="55.19839476539836" y2="52.563006222186495" /><path d="M 173.08426987136738 54.67131705675599 a86.0,86.0 0 0,1 12.851231095245387,41.99856678651699" fill="none" id="id99" stroke="none" /><text fill="#e1ed5e" style="font-size:6.75px; font-family:Arial;" text-anchor="middle"><textPath startOffset="22.20632615414155" xlink:href="#id99">March</textPath></text><path d="M 119.04729006885535 91.15688171328212 l 7.97882817458496 -3.7043443493635144 a29.79680999557295,29.79680999557295 0 0,0 0.21197973215342772,0.46706924082178325 l -8.041410223701735 3.566453099699668" fill="#ff6809" stroke="none" /><path d="M 119.196687751892 91.48605970444005 l 16.12760848046561 -7.152770180330581 a38.64261535464095,38.64261535464095 0 0,0 0.26444299154465606,0.610370884216442 l -16.248342181852948 6.874100151527537" fill="#ffdd14" stroke="none" /><path d="M 119.34039704204932 91.81776055985345 l 6.564025569364069 -2.7770075652019854 a28.12728578720219,28.12728578720219 0 0,0 0.184807402161333,0.4475257831253159 l -6.6108546584116 2.6636072116233662" fill="#ff5107" stroke="none" /><path d="M 119.61058180528143 92.48833698450437 l 6.93291214484437 -2.6555917751549143 a28.424111966046915,28.424111966046915 0 0,0 0.1710798727821132,0.45840900349465524 l -6.977596606128109 2.5358596346309255" fill="#ff5507" stroke="none" /><path d="M 119.7369772167798 92.82701384747503 l 13.332905533469825 -4.845561998379113 a35.18611437443552,35.18611437443552 0 0,0 0.2019798898148513,0.5710243474110591 l -13.414338504094486 4.61534002454144" fill="#ffb110" stroke="none" /><path d="M 119.97218684219823 93.5106431181261 l 6.849382288132097 -2.2254992124429305 a28.201866735337568,28.201866735337568 0 0,0 0.14603801690322868,0.46298042207009205 l -6.886675788803532 2.1072686239464193" fill="#ff5207" stroke="none" /><path d="M 120.18372546131832 94.20196356495316 l 7.468135034070634 -2.145318470189058 a28.770162947174757,28.770162947174757 0 0,0 0.13263487553561662,0.4771582168236125 l -7.503956680172614 2.016448949946494" fill="#ff5a08" stroke="none" /><path d="M 120.37134235888165 94.90015583598534 l 27.804547690762583 -6.960702823394453 a49.66259332446215,49.66259332446215 0 0,0 0.20046471275716088,0.8310556537289996 l -27.920245203780564 6.481061938006047" fill="#9eff22" stroke="none" /><path d="M 120.53481517161879 95.60439243477599 l 7.755358013129794 -1.6600836223083815 a28.93104378659411,28.93104378659411 0 0,0 0.10004727474745326,0.4878660427350115 l -7.782784583792244 1.5263419234099582" fill="#ff5c08" stroke="none" /><path d="M 120.98425023603335 99.18683210126433 l 8.706839428121956 -0.33740172952365405 a29.713374360957104,29.713374360957104 0 0,0 0.015406109466471574,0.5112537703500211 l -8.711357232044072 0.18747781174863387" fill="#ff6709" stroke="none" /><line stroke="#e1ed5e" stroke-width="0.3" x1="184.98032266829074" x2="189.97916517819016" y1="98.17113171792111" y2="98.06355123074" /><path d="M 185.9800911702706 98.14961562048488 a86.0,86.0 0 0,1 -9.607161424134198,41.387399972396054" fill="none" id="id100" stroke="none" /><text fill="#e1ed5e" style="font-size:6.75px; font-family:Arial;" text-anchor="middle"><textPath startOffset="21.466115282336823" xlink:href="#id100">April</textPath></text><path d="M 120.99513854157772 99.54816195383933 l 7.537639873470993 -0.1622181471366438 a28.539385226223704,28.539385226223704 0 0,0 0.006342528938836189,0.4912358560249889 l -7.5393154095275445 0.03244603305119212" fill="#ff5708" stroke="none" /><path d="M 120.76222939487914 103.15116336523771 l 7.207309356974334 1.093881045993743 a28.28984800321064,28.28984800321064 0 0,0 -0.07721545032999245,0.4808206829127662 l -7.187412152283054 -1.217780958599714" fill="#ff5307" stroke="none" /><path d="M 120.41448212921028 104.9243191809786 l 6.97530872617415 1.6825627187671173 a28.175371009782438,28.175371009782438 0 0,0 -0.11778470429513543,0.4704913441800182 l -6.945312707583954 -1.8023819023445313" fill="#ff5207" stroke="none" /><path d="M 120.02730092923936 106.31721596034902 l 15.613660920778086 4.925020516579578 a37.37199543237667,37.37199543237667 0 0,0 -0.19879721356104274,0.6118349114131386 l -15.526571456200797 -5.193054327970512" fill="#ffcd13" stroke="none" /><path d="M 119.9155931802556 106.66101706037122 l 6.801040260363176 2.2746922370086917 a28.171357848844835,28.171357848844835 0 0,0 -0.1577719041811207,0.4585590049416501 l -6.760877525238825 -2.391423945039642" fill="#ff5207" stroke="none" /><path d="M 119.41010516605496 108.01547362559984 l 6.387758335673543 2.6378480707996697 a27.910983938600086,27.910983938600086 0 0,0 -0.18720165246233558,0.442489407946787 l -6.341405702018898 -2.7474120044126202" fill="#ff4e07" stroke="none" /><path d="M 119.26925614724726 108.34839909993367 l 6.812334439790403 2.951441730339854 a28.42421098886245,28.42421098886245 0 0,0 -0.19837245380462445,0.44727751453106773 l -6.760520901254506 -3.0682675813636093" fill="#ff5507" stroke="none" /><path d="M 118.81262510543309 109.33194174019688 l 10.230408790368699 5.074761139132416 a32.41991526401583,32.41991526401583 0 0,0 -0.25229074656485273,0.4977935778017827 l -10.141539374017578 -5.250108928636894" fill="#ff8c0c" stroke="none" /><path d="M 118.64920377521936 109.65438752849418 l 16.007748923692755 8.286949589425445 a39.02558068694779,39.02558068694779 0 0,0 -0.31396542724413734,0.5939042673853837 l -15.862730988223726 -8.561268871896964" fill="#ffe215" stroke="none" /><line stroke="#e1ed5e" stroke-width="0.3" x1="174.80103733775053" x2="179.2010983576182" y1="140.37084112569926" y2="142.7455964860345" /><path d="M 175.68104954172406 140.8457921977663 a86.0,86.0 0 0,1 -30.038265399797805,32.042727171017184" fill="none" id="id101" stroke="none" /><text fill="#e1ed5e" style="font-size:6.75px; font-family:Arial;" text-anchor="middle"><textPath startOffset="22.206326154141568" xlink:href="#id101">May</textPath></text><path d="M 118.12598468904814 110.60418214915192 l 19.6484808368232 11.49488280621161 a43.76389970816837,43.76389970816837 0 0,0 -0.3859957704751216,0.6469511137515394 l -19.44770419064985 -11.831396013849252" fill="#e2ff1b" stroke="none" /><path d="M 117.55443506779139 111.5257021239791 l 7.575443448250111 4.973803161673894 a30.062343037466235,30.062343037466235 0 0,0 -0.2877351235527783,0.4301249692971753 l -7.4887052192866115 -5.103465045176876" fill="#ff6c09" stroke="none" /><path d="M 117.14729908036423 112.12312394758627 l 20.000288108905075 14.140184445102808 a45.494006217455265,45.494006217455265 0 0,0 -0.4575834970912628,0.6355434560761273 l -19.75392481943821 -14.482361506630067" fill="#ceff1d" stroke="none" /><path d="M 116.498646956653 112.99209946851258 l 6.028870182850361 4.747521497013197 a28.673736772020824,28.673736772020824 0 0,0 -0.30869610850514195,0.3851458595567096 l -5.946256162290366 -4.850595190148157" fill="#ff5908" stroke="none" /><path d="M 115.07121518719521 114.62390073753431 l 5.259796092382571 5.103685071129847 a28.328919172614516,28.328919172614516 0 0,0 -0.34259021932997313,0.34704208344802323 l -5.171165247997061 -5.193467648558536" fill="#ff5407" stroke="none" /><path d="M 114.29624159901734 115.38237550388516 l 31.823432055689434 34.24116599544864 a67.74599743861447,67.74599743861447 0 0,0 -0.8610208208658515,0.7865221052543347 l -31.22931168535672 -34.78388086728956" fill="#39ff87" stroke="none" /><path d="M 112.92097659922987 116.55440617244103 l 5.246193943770794 6.721444368977367 a29.52645092057152,29.52645092057152 0 0,0 -0.4033471675551812,0.30926940847574885 l -5.129718047722119 -6.810753119280488" fill="#ff6509" stroke="none" /><path d="M 111.7513745106137 117.40417183066458 l 1.03037668318267 1.526021728626271 a22.841308889210616,22.841308889210616 0 0,0 -0.3277459182007107,0.2172121231447533 l -1.003956066241995 -1.5435318728623428" fill="#ff0500" stroke="none" /><path d="M 111.45004920935366 117.60387380957326 l 3.324714044347977 5.111580345157444 a27.097702608498103,27.097702608498103 0 0,0 -0.3931982432157016,0.25095772235125324 l -3.236233999085345 -5.168052496332506" fill="#ff4306" stroke="none" /><line stroke="#e1ed5e" stroke-width="0.3" x1="143.8653032363475" x2="146.44561519142675" y1="172.8068346515853" y2="177.08958963109032" /><path d="M 144.38136562736335 173.6633856474863 a86.0,86.0 0 0,1 -40.68145358897372,12.25698825130547" fill="none" id="id102" stroke="none" /><text fill="#e1ed5e" style="font-size:6.75px; font-family:Arial;" text-anchor="middle"><textPath startOffset="21.466115282336833" xlink:href="#id102">June</textPath></text><path d="M 110.8373102113329 117.98757091392108 l 3.5487288883307437 5.89011583947993 a27.876550103457802,27.876550103457802 0 0,0 -0.41314657319443554,0.24409427774041167 l -3.446814444107926 -5.950328689514091" fill="#ff4e07" stroke="none" /><path d="M 110.21172684928248 118.3499491758327 l 6.929390184669603 12.45175860898937 a35.25000844869702,35.25000844869702 0 0,0 -0.5327404077644684,0.29049254702828997 l -6.714026965036486 -12.569191807777433" fill="#ffb110" stroke="none" /><path d="M 109.89434966115114 118.52300852407294 l 3.387124731453009 6.340966553783887 a28.18891304597757,28.18891304597757 0 0,0 -0.4299602522150557,0.22493488278244358 l -3.277473576711458 -6.398330855511047" fill="#ff5207" stroke="none" /><path d="M 104.83641907484287 120.43548508189849 l 1.655613818787873 6.995521060449836 a28.188767072604215,28.188767072604215 0 0,0 -0.4731415431690925,0.10768547480867262 l -1.5349521262259185 -7.022983268836193" fill="#ff5207" stroke="none" /><path d="M 104.13013068566511 120.58985236759428 l 1.436880138678705 7.163247891406273 a28.305939014710276,28.305939014710276 0 0,0 -0.47854881191335474,0.09171501875896614 l -1.3133637121936457 -7.186920108513708" fill="#ff5407" stroke="none" /><line stroke="#e1ed5e" stroke-width="0.3" x1="102.19456741930631" x2="102.32365962044197" y1="184.97166512339345" y2="189.96999836594603" /><path d="M 102.22038585953345 185.97133177190398 a86.0,86.0 0 0,1 -42.740103519485714,-10.115201625700543" fill="none" id="id103" stroke="none" /><text fill="#e1ed5e" style="font-size:6.75px; font-family:Arial;" text-anchor="middle"><textPath startOffset="22.20632615414155" xlink:href="#id103">July</textPath></text><path d="M 100.18074693466247 120.99922214144158 l 0.06294462027599942 7.312921053144185 a28.31319194023657,28.31319194023657 0 0,0 -0.4873831098769047,0.0 l 0.06294462027599439 -7.312921053144185" fill="#ff5407" stroke="none" /><path d="M 98.37488393609728 120.93702456842531 l -0.884684084892395 11.397741264217627 a32.432023961491296,32.432023961491296 0 0,0 -0.5562179865177889,-0.04799282831998318 l 1.0807463891517255 -11.380824183618982" fill="#ff8c0c" stroke="none" /><path d="M 97.65516085044442 120.86867818915974 l -0.8675328491966162 7.720897977944597 a28.769483820065794,28.769483820065794 0 0,0 -0.4916466093327796,-0.05953155753550464 l 1.0003068815807852 -7.704820891683744" fill="#ff5a08" stroke="none" /><path d="M 97.2962882734958 120.8252237178851 l -1.915141548659539 14.751295713696328 a35.87509638235389,35.87509638235389 0 0,0 -0.6117069668065561,-0.08477701171280902 l 2.168777106652926 -14.716144136490914" fill="#ffba11" stroke="none" /><path d="M 95.86986931433489 120.58985236759428 l -1.4334664214006558 7.146229559510953 a28.288581679484103,28.288581679484103 0 0,0 -0.4766067496311283,-0.09987757834583254 l 1.5562646324611709 -7.12049600043858" fill="#ff5307" stroke="none" /><path d="M 93.76903079525671 120.05430185196036 l -1.2952759885208909 4.1688306909975275 a25.36541970681419,25.36541970681419 0 0,0 -0.41584631323170207,-0.13314085750304328 l 1.3668436468435334 -4.145916986834777" fill="#ff2a04" stroke="none" /><path d="M 93.42475214034765 119.94407469862007 l -2.3097797498380346 7.006035491195213 a28.376965215903407,28.376965215903407 0 0,0 -0.46258543241863176,-0.1569340943367086 l 2.4300349151938923 -6.9652384099603815" fill="#ff5507" stroke="none" /><path d="M 92.40401165467489 119.57807347666478 l -5.349107878931422 13.786912555332986 a35.78823562528149,35.78823562528149 0 0,0 -0.5724054320085707,-0.22777193449800467 l 5.585634386981851 -13.692793776428914" fill="#ffb811" stroke="none" /><path d="M 92.06813273071674 119.44442032107085 l -2.7933195589772235 6.84762840222481 a28.39544784942201,28.39544784942201 0 0,0 -0.45098534657779266,-0.18851191144551258 l 2.9107763650524783 -6.798531447759324" fill="#ff5507" stroke="none" /><path d="M 91.7346041902142 119.30500536409082 l -3.554843001549613 8.30284051638109 a30.031836435970575,30.031836435970575 0 0,0 -0.4734723879052448,-0.20755638078678743 l 3.6972360641126008 -8.24041958229985" fill="#ff6c09" stroke="none" /><path d="M 91.40352486487194 119.15986991738527 l -2.5425606148731674 5.6668727440356115 a27.211123986638643,27.211123986638643 0 0,0 -0.42570119527388767,-0.19541853942512932 l 2.6397298059144747 -5.622267134276408" fill="#ff4406" stroke="none" /><path d="M 91.07499286063937 119.00905698771935 l -3.700231787233703 7.8809927894729865 a29.70642077015463,29.70642077015463 0 0,0 -0.4609974384784708,-0.22130678523786992 l 3.835341893712416 -7.816131727735555" fill="#ff6709" stroke="none" /><path d="M 90.10565033884886 118.52300852407294 l -11.456797409328573 21.448034821813668 a45.31617578066357,45.31617578066357 0 0,0 -0.6848724021968294,-0.3734470402543582 l 11.824292623394042 -21.247647129799542" fill="#d0ff1d" stroke="none" /><line stroke="#e1ed5e" stroke-width="0.3" x1="58.666819895761336" x2="56.23545636021788" y1="174.27360380694188" y2="178.64263932499728" /><path d="M 58.180547188652646 175.14741091055294 a86.0,86.0 0 0,1 -31.652253787137756,-30.449443065178592" fill="none" id="id104" stroke="none" /><text fill="#e1ed5e" style="font-size:6.75px; font-family:Arial;" text-anchor="middle"><textPath startOffset="22.20632615414155" xlink:href="#id104">August</textPath></text><path d="M 89.1626897886671 117.98757091392108 l -4.80658034690683 7.977874874619117 a30.313952015463144,30.313952015463144 0 0,0 -0.4446346549055505,-0.2731309208255599 l 4.943194201744689 -7.8939554869651785" fill="#ff6f0a" stroke="none" /><path d="M 88.54995079064634 117.60387380957326 l -6.264109243059159 9.630752377388212 a32.48870993469449,32.48870993469449 0 0,0 -0.46617477660103873,-0.30895522219755395 l 6.4289587184001595 -9.52149913409934" fill="#ff8d0d" stroke="none" /><path d="M 88.24862548938628 117.40417183066458 l -4.144946281674442 6.138801656774767 a28.407122616724216,28.407122616724216 0 0,0 -0.4028983761459378,-0.2771171769367098 l 4.25000154244327 -6.0665436904729555" fill="#ff5507" stroke="none" /><path d="M 87.95078237400918 117.19931262002967 l -10.179415928540651 14.53031742630538 a38.7412128434169,38.7412128434169 0 0,0 -0.5428800107527292,-0.3873304733138004 l 10.428023267142267 -14.35294269114736" fill="#ffde14" stroke="none" /><path d="M 87.65650970185807 116.9893568818739 l -4.354144892034765 5.992966308508563 a28.40771374418256,28.40771374418256 0 0,0 -0.39312897952888437,-0.29082742066894485 l 4.456658841982214 -5.917128939099851" fill="#ff5507" stroke="none" /><path d="M 87.36589467227662 116.77436683061367 l -8.441210225740637 11.207438370027887 a35.03070578741931,35.03070578741931 0 0,0 -0.4785382433813119,-0.36692271910726776 l 8.632877197615436 -11.060476309093252" fill="#ffaf10" stroke="none" /><path d="M 87.07902340077011 116.55440617244103 l -4.554760638947488 5.835577292189959 a28.402689160786668,28.402689160786668 0 0,0 -0.38281754064945595,-0.3041334068245237 l 4.654535672314301 -5.756309971360305" fill="#ff5507" stroke="none" /><path d="M 86.24171649860922 115.8653595955263 l -7.440247245729874 8.579718394463674 a32.35644516589101,32.35644516589101 0 0,0 -0.41764104261778245,-0.3685196618188107 l 7.586830641254244 -8.450375590872573" fill="#ff8b0c" stroke="none" /><path d="M 85.97065885151581 115.62618273729859 l -9.128858954839204 10.16791998295334 a34.664650108842515,34.664650108842515 0 0,0 -0.4405719396011388,-0.4024520209657734 l 9.302530443907198 -10.00927519540099" fill="#ffaa0f" stroke="none" /><path d="M 85.44109423537348 115.13401014063109 l -14.17979036131546 14.739918960226627 a41.453157840414356,41.453157840414356 0 0,0 -0.509972633440227,-0.49911555683253545 l 14.43141294713148 -14.493653300471522" fill="#feff18" stroke="none" /><path d="M 85.18274418774928 114.88116024355367 l -5.227178496106972 5.249722472761303 a28.408304871640894,28.408304871640894 0 0,0 -0.3435502546873224,-0.3480145941964292 l 5.316769375849828 -5.1589673845842094" fill="#ff5507" stroke="none" /><path d="M 84.9287848128048 114.62390073753433 l -5.31390576577307 5.156188766603287 a28.404314761297105,28.404314761297105 0 0,0 -0.33746144978636183,-0.35382698094790305 l 5.401873766938389 -5.063954669072883" fill="#ff5507" stroke="none" /><path d="M 83.95833913139862 113.55231037782056 l -10.51717994550166 8.885120318171598 a34.76794963218736,34.76794963218736 0 0,0 -0.38228850693200533,-0.460491133496603 l 10.668564452327201 -8.702767927561235" fill="#ffab0f" stroke="none" /><path d="M 83.72743513129214 113.27417163493432 l -5.732217710597899 4.6759956007678145 a28.397516795526197,28.397516795526197 0 0,0 -0.30572237569474847,-0.3814356706434206 l 5.8118579983475085 -4.576632096546135" fill="#ff5507" stroke="none" /><path d="M 83.50135304334701 112.99209946851258 l -8.679762675359354 6.835005339385021 a32.047876632637745,32.047876632637745 0 0,0 -0.33756056351313496,-0.4363425319626096 l 8.796130056090558 -6.68458481330916" fill="#ff870c" stroke="none" /><path d="M 82.6465618267979 111.8261652097733 l -6.116144188385383 4.168080751302424 a28.401359124005406,28.401359124005406 0 0,0 -0.271837380287605,-0.4063600001498728 l 6.186984674083718 -4.06218383694673" fill="#ff5507" stroke="none" /><path d="M 82.24976979558568 111.22182372390057 l -14.99999045657716 9.483102293627617 a38.7462374268128,38.7462374268128 0 0,0 -0.35154896712517664,-0.5668088706337808 l 15.161004063370294 -9.223497091628573" fill="#ffde14" stroke="none" /><path d="M 82.05923443525364 110.91462005526583 l -6.325670252382014 3.8483467804359144 a28.404314761297105,28.404314761297105 0 0,0 -0.25052487173710647,-0.4198940951950904 l 6.3909759998173525 -3.738890591354713" fill="#ff5507" stroke="none" /><line stroke="#e1ed5e" stroke-width="0.3" x1="26.63291911575756" x2="22.317208475507996" y1="142.92168965132927" y2="145.44649492493687" /><path d="M 25.769776987707644 143.4266507060508 a86.0,86.0 0 0,1 -11.730757126820373,-40.83630448921669" fill="none" id="id105" stroke="none" /><text fill="#e1ed5e" style="font-size:6.75px; font-family:Arial;" text-anchor="middle"><textPath startOffset="21.46611528233685" xlink:href="#id105">September</textPath></text><path d="M 81.69416730710424 110.29060199501025 l -12.887649055106293 7.244776531194749 a35.784393296802286,35.784393296802286 0 0,0 -0.2972210649727304,-0.5395425666197592 l 13.010446529530538 -7.021863446177167" fill="#ffb811" stroke="none" /><path d="M 81.51974371655577 109.97397251340807 l -11.711898833589212 6.321024733335771 a34.30879137892209,34.30879137892209 0 0,0 -0.27601829758593044,-0.5221225988212409 l 11.818969639400027 -6.118487119428404" fill="#ffa50f" stroke="none" /><path d="M 81.35079622478065 109.6543875284942 l -1.3123876699645822 0.6794016144695482 a22.477818645848973,22.477818645848973 0 0,0 -0.17492166778131887,-0.34513704535546946 l 1.323888007532168 -0.6567103574113937" fill="#ff0000" stroke="none" /><path d="M 81.02952815118164 109.00673069616217 l -19.32793929074141 9.176447770555724 a42.39571057273683,42.39571057273683 0 0,0 -0.3073192041086988,-0.6619382252502509 l 19.483033111689934 -8.842389478026647" fill="#f3ff19" stroke="none" /><path d="M 80.87730276802145 108.67885076344099 l -4.042104625503908 1.8345122756165346 a25.438923866536555,25.438923866536555 0 0,0 -0.17753814702300727,-0.4003016528348889 l 4.0730838572581956 -1.7646622862889498" fill="#ff2b04" stroke="none" /><path d="M 80.73074385275274 108.34839909993369 l -14.226028813295517 6.16342246078416 a36.503795413601566,36.503795413601566 0 0,0 -0.2448344650839314,-0.5787163525266094 l 14.330014259571755 -5.917631582591392" fill="#ffc212" stroke="none" /><path d="M 80.58989483394504 108.01547362559985 l -6.88526383359292 2.8432947782259483 a28.44924044813091,28.44924044813091 0 0,0 -0.18301990528121273,-0.4542403955547774 l 6.9331863531315205 -2.7243550148283653" fill="#ff5607" stroke="none" /><path d="M 80.45479744820244 107.68017299344265 l -11.188251185803113 4.396357846552736 a33.021020210929294,33.021020210929294 0 0,0 -0.20332413366340518,-0.530815153444558 l 11.262269599060026 -4.203119126275021" fill="#ff940d" stroke="none" /><path d="M 80.20201598880116 107.00284435728193 l -19.796822986201928 7.002433685299183 a41.99876848446179,41.99876848446179 0 0,0 -0.23521144108882266,-0.6836345478391429 l 19.91442525823398 -6.660626434370743" fill="#f8ff18" stroke="none" /><path d="M 80.0844068197444 106.66101706037122 l -14.038189115515944 4.695246400587965 a35.80257046614623,35.80257046614623 0 0,0 -0.19044878831453851,-0.5861411004706325 l 14.116930154846733 -4.452906400139529" fill="#ffb911" stroke="none" /><path d="M 79.97269907076064 106.31721596034903 l -12.519834836973986 3.9491342708889796 a34.12790637667017,34.12790637667017 0 0,0 -0.17189613357471514,-0.5617665103658976 l 12.585957743054832 -3.733040787971034" fill="#ffa30f" stroke="none" /><path d="M 79.86692584326677 105.97154293290107 l -14.596979370208265 4.329517108082491 a36.225522162588206,36.225522162588206 0 0,0 -0.1721701830700917,-0.5993469938730407 l 14.66934219016446 -4.077612638704855" fill="#ffbe11" stroke="none" /><path d="M 79.76711848015287 105.62410040840567 l -3.5265538874857403 0.9802703158923567 a24.660261222038734,24.660261222038734 0 0,0 -0.11016316872160889,-0.4099581325177803 l 3.542905132549124 -0.9194212501990374" fill="#ff2003" stroke="none" /><path d="M 79.67330655649465 105.27499134158121 l -32.96111922552878 8.553758091877164 a55.05293171070411,55.05293171070411 0 0,0 -0.23014402471840995,-0.9193109766904975 l 33.10347456454225 -7.985119275789273" fill="#64ff29" stroke="none" /><path d="M 79.58551787078972 104.9243191809786 l -3.5547586638069046 0.8574680543518329 a24.656714457288697,24.656714457288697 0 0,0 -0.09597266122622271,-0.4134477127246614 l 3.5689918909636824 -0.7961516842785973" fill="#ff2003" stroke="none" /><path d="M 79.50377843672027 104.57218783832718 l -14.458571174182888 3.22534097702292 a35.813949669719264,35.813949669719264 0 0,0 -0.12904271089684788,-0.6028445847795622 l 14.511947923804177 -2.9759825728271943" fill="#ffb911" stroke="none" /><path d="M 79.35854240842038 103.8639653848113 l -7.26090230801986 1.3592002917531445 a28.387024283140672,28.387024283140672 0 0,0 -0.08577417534138651,-0.48106712689765246 l 7.283222925700435 -1.2340144141222782" fill="#ff5507" stroke="none" /><path d="M 79.29508885075956 103.50808413554451 l -14.620356796115574 2.477163092503054 a35.82872785617776,35.82872785617776 0 0,0 -0.09779237258013625,-0.6089531974066275 l 14.660830923057002 -2.2251306654032126" fill="#ffb911" stroke="none" /><path d="M 79.18660465613746 102.79330883721812 l -10.696900958609133 1.4356018076282229 a31.792805134364208,31.792805134364208 0 0,0 -0.06812515465978321,-0.5430245115760267 l 10.720027622515765 -1.2512595417647876" fill="#ff840c" stroke="none" /><path d="M 79.1416061653843 102.43462659150553 l -58.89365816065073 6.874166216528283 a80.29348305434621,80.29348305434621 0 0,0 -0.14841943888733386,-1.374179673257807 l 59.003259901039115 -5.859390221385694" fill="#48f5ff" stroke="none" /><path d="M 79.04373962182676 101.35467743843564 l -18.209654350292496 1.1771283361102713 a39.24766129334935,39.24766129334935 0 0,0 -0.037778021612798585,-0.6745519537360315 l 18.227218722792827 -0.8635046660388024" fill="#ffe415" stroke="none" /><path d="M 79.0235259727143 100.99374915477108 l -15.607176892242595 0.7393815960134312 a36.624680978832004,36.624680978832004 0 0,0 -0.02441273422423053,-0.629984194781324 l 15.617591759318026 -0.47062015421811043" fill="#ffc312" stroke="none" /><path d="M 79.0095281055655 100.63252640178507 l -47.16548753728441 1.4212837267516356 a68.18689714382225,68.18689714382225 0 0,0 -0.025254924366118744,-1.1734970979737305 l 47.18296452433554 -0.6091968129877763" fill="#39ff8c" stroke="none" /><line stroke="#e1ed5e" stroke-width="0.3" x1="15.007084014347285" x2="10.007500721073583" y1="101.09737516637583" y2="101.16192664675087" /><path d="M 14.007167355692545 101.11028546245083 a86.0,86.0 0 0,1 10.666146001902534,-42.60595125391555" fill="none" id="id106" stroke="none" /><text fill="#e1ed5e" style="font-size:6.75px; font-family:Arial;" text-anchor="middle"><textPath startOffset="22.20632615414155" xlink:href="#id106">October</textPath></text><path d="M 79.00019446554 99.90962569577889 l -15.456657646610685 -0.06651893409699706 a36.45680078066357,36.45680078066357 0 0,0 0.008102077607343763,-0.6275148394915505 l 15.453222561885626 0.33257003164901955" fill="#ffc111" stroke="none" /><path d="M 79.00486145842228 99.54816195383935 l -15.261150612497032 -0.3284364359519898 a36.2646843567032,36.2646843567032 0 0,0 0.01880290303549396,-0.6239768120136514 l 15.253236015005893 0.5910833953906356" fill="#ffbf11" stroke="none" /><path d="M 79.01574976396665 99.18683210126434 l -7.412495014224102 -0.2872441439320407 a28.4180584747035,28.4180584747035 0 0,0 0.023149068643410355,-0.4886402517406336 l 7.406452337347193 0.41479550229568335" fill="#ff5507" stroke="none" /><path d="M 79.03285615573316 98.82574320788736 l -7.382254031041412 -0.4134402854980004 a28.393822248911576,28.393822248911576 0 0,0 0.03152986447477914,-0.4877530479764769 l 7.37404357556222 0.5404523977274891" fill="#ff5507" stroke="none" /><path d="M 79.05617556472873 98.46500227214037 l -46.238106622269335 -3.3888456630769883 a67.36212655757394,67.36212655757394 0 0,0 0.09470959798232072,-1.1556969859991522 l 46.17292254046752 4.184256566283919" fill="#38ff82" stroke="none" /><path d="M 79.08570108090925 98.10471618934814 l -46.177926618519216 -4.184710043025134 a67.36715114096984,67.36715114096984 0 0,0 0.1145975368264367,-1.1539815567685623 l 46.09905195601055 4.978967130498126" fill="#38ff82" stroke="none" /><path d="M 79.21141760316559 97.0276538004421 l -16.07757199202709 -2.298767135555008 a37.241079136015614,37.241079136015614 0 0,0 0.09619566976616237,-0.6338092732708724 l 16.035620428821623 2.575175521217972" fill="#ffcb12" stroke="none" /><path d="M 79.26566170972629 96.67025291283419 l -4.40144578417824 -0.7068323605996429 a25.457839945203425,25.457839945203425 0 0,0 0.07320721733366392,-0.4320731407262621 l 4.388626705324354 0.782491289641733" fill="#ff2b04" stroke="none" /><path d="M 79.32604984820605 96.31383870115002 l -19.87343011173881 -3.543428731104626 a41.18685492043237,41.18685492043237 0 0,0 0.13045303997438631,-0.6968853558856251 l 19.80949134785456 3.884992164452824" fill="#fffc17" stroke="none" /><path d="M 79.46518482838121 95.60439243477599 l -22.392276062984568 -4.7932088622388225 a43.899538826752746,43.899538826752746 0 0,0 0.16453048160416317,-0.7375578878460733 l 22.30645119437837 5.1779449196348555" fill="#e1ff1b" stroke="none" /><path d="M 79.54389044137918 95.25157060432595 l -19.841952182098943 -4.605866464443677 a41.3695133050593,41.3695133050593 0 0,0 0.16698941892584965,-0.6922789492600436 l 19.759729962912278 4.946730645363118" fill="#ffff18" stroke="none" /><path d="M 79.62865764111835 94.90015583598534 l -10.26714622711078 -2.570318874670883 a31.58398935970575,31.58398935970575 0 0,0 0.13656867085859356,-0.5262547986851283 l 10.22138122438188 2.7466700989048753" fill="#ff810b" stroke="none" /><path d="M 79.71946130924805 94.55025226153421 l -14.391625983125213 -3.8672903294303014 a35.90217544287645,35.90217544287645 0 0,0 0.16551454991990314,-0.5954438994963756 l 14.322924662638949 4.114445532345619" fill="#ffba11" stroke="none" /><path d="M 79.91906864156998 93.8553929516997 l -19.395369236116867 -5.934830431189133 a41.283060914277144,41.283060914277144 0 0,0 0.21377649941384952,-0.6777299228383447 l 19.290337252934815 6.267810520453892" fill="#fffe18" stroke="none" /><path d="M 80.14247586403 93.16781622104843 l -9.800804979143447 -3.372066947554574 a31.364681072661764,31.364681072661764 0 0,0 0.18004360355677398,-0.5090075121874036 l 9.741308294776864 3.540272086168589" fill="#ff7e0b" stroke="none" /><path d="M 80.2630227832202 92.82701384747504 l -18.526611385405314 -6.7331043381730895 a40.71217957138568,40.71217957138568 0 0,0 0.24503965190099639,-0.6565844410445254 l 18.40796714500269 7.0510119162469564" fill="#fff717" stroke="none" /><path d="M 80.38941819471856 92.48833698450439 l -18.93252113540771 -7.2519377657949216 a41.27389843867287,41.27389843867287 0 0,0 0.2598416950057406,-0.6612687715010802 l 18.804885890520282 7.576755542191766" fill="#fffe18" stroke="none" /><path d="M 80.65960295795068 91.81776055985345 l -24.837001541241392 -10.507658821268551 a47.96826912250414,47.96826912250414 0 0,0 0.32826123360334886,-0.7576721857445162 l 24.652449597795364 10.933630151599665" fill="#b1ff20" stroke="none" /><path d="M 80.95270993114464 91.15688171328213 l -13.511787560761073 -6.273140968236108 a35.89700307761598,35.89700307761598 0 0,0 0.2650255329915136,-0.5582113624176502 l 13.401803833927808 6.504794746294291" fill="#ffba11" stroke="none" /><path d="M 81.26839172434947 90.50648371742162 l -33.42539109695179 -16.940589935513263 a58.47319518465696,58.47319518465696 0 0,0 0.46274730727035385,-0.8938805081366896 l 33.128834356521324 17.51344316591029" fill="#41ff2d" stroke="none" /><path d="M 81.43458229118936 90.18545643968196 l -34.01215322612567 -17.980406616954458 a59.47234837111546,59.47234837111546 0 0,0 0.4862343112275255,-0.9009183325108508 l 33.69761081567967 18.56320593279778" fill="#37ff2e" stroke="none" /><path d="M 81.6062741919709 89.86733742301443 l -6.8559672051967855 -3.7767879685807633 a28.827414239603666,28.827414239603666 0 0,0 0.24316934065921736,-0.4325711234685675 l 6.789940223245138 3.894242601984115" fill="#ff5b08" stroke="none" /><line stroke="#e1ed5e" stroke-width="0.3" x1="26.266209847984243" x2="21.928928074336255" y1="57.711370442889674" y2="55.22380399835377" /><path d="M 25.398753493254645 57.213857153982495 a86.0,86.0 0 0,1 29.58750427330803,-30.492523968695096" fill="none" id="id107" stroke="none" /><text fill="#e1ed5e" style="font-size:6.75px; font-family:Arial;" text-anchor="middle"><textPath startOffset="21.46611528233685" xlink:href="#id107">November</textPath></text><path d="M 82.15384107792192 88.93136811851018 l -12.875989596473255 -7.9860091785319325 a36.15148344843117,36.15148344843117 0 0,0 0.3325461408098926,-0.5260081336327975 l 12.7366158594174 8.206464959878945" fill="#ffbd11" stroke="none" /><path d="M 82.54541684631803 88.32363383020206 l -14.454617618124523 -9.669518124128423 a38.39067426062152,38.39067426062152 0 0,0 0.3721620012353982,-0.5461018144340205 l 14.286031151220385 9.916897961832861" fill="#ffda14" stroke="none" /><path d="M 82.7489923806493 88.02491185347247 l -20.343008260177363 -14.121454378577937 a45.7639548303558,45.7639548303558 0 0,0 0.45477904004574304,-0.64325270028258 l 20.09691660032774 14.469533579192303" fill="#cbff1d" stroke="none" /><path d="M 83.6137871275137 86.86637796730984 l -11.67146357450576 -9.354729634524201 a35.95774142396037,35.95774142396037 0 0,0 0.39125705413819567,-0.4796348856185962 l 11.50870802829117 9.55424868975088" fill="#ffbb11" stroke="none" /><path d="M 84.31358615837235 86.03803664274999 l -47.05924152488297 -41.885890071750055 a84.0,84.0 0 0,0 0.9706254375358201,-1.071788850921776 l 46.331272446731106 42.68973170994139" fill="#4dd2ff" stroke="none" /><path d="M 84.5562425177563 85.77008943001954 l -11.081145235955336 -10.210190486473559 a36.067838913076116,36.067838913076116 0 0,0 0.42462611453419086,-0.4529615327854342 l 10.90375179945069 10.399421436137043" fill="#ffbc11" stroke="none" /><path d="M 85.31137513191541 84.99185889309783 l -5.44083887476895 -5.559191435944093 a28.77864622429065,28.77864622429065 0 0,0 0.357015217503698,-0.3434483563757677 l 5.344340413652824 5.652022879082174" fill="#ff5a08" stroke="none" /><path d="M 85.57189188830299 84.74124197986013 l -5.541722391085398 -5.8607684615150255 a29.065934169043686,29.065934169043686 0 0,0 0.3664966770524037,-0.34061871906942154 l 5.440017830238138 5.955291766659094" fill="#ff5e08" stroke="none" /><path d="M 86.10567301691215 84.25364557470407 l -22.360367675094018 -25.34086573034661 a54.79564348446179,54.79564348446179 0 0,0 0.7126204782260493,-0.617977456438826 l 21.920853398221194 25.72200818020512" fill="#67ff28" stroke="none" /><path d="M 86.65592168130627 83.78471172551755 l -9.70014302999343 -11.787297090028808 a36.265423266026126,36.265423266026126 0 0,0 0.48543272522380176,-0.3925195042144354 l 9.495806906205127 11.952522691507378" fill="#ffbf11" stroke="none" /><path d="M 86.93701828274178 83.55741782278169 l -9.881625483563065 -12.438158651276359 a36.88566375168894,36.88566375168894 0 0,0 0.5005339690746377,-0.3906747022010131 l 9.666058959329002 12.606411742700592" fill="#ffc712" stroke="none" /><path d="M 87.80319425747018 82.90503203632743 l -7.128326618449055 -9.991018775683598 a33.27328385377571,33.27328385377571 0 0,0 0.4691039634712748,-0.3286373048709933 l 6.95529151539412 10.112240923318533" fill="#ff970e" stroke="none" /><path d="M 88.39885842347998 82.49532879139004 l -16.858398692904522 -25.437214456568544 a51.51651169118752,51.51651169118752 0 0,0 0.7433905599523379,-0.483521898946712 l 16.418041107167898 25.723635279674788" fill="#8aff24" stroke="none" /><path d="M 88.70189139769569 82.29822771554957 l -12.783837022035723 -20.02959786025147 a44.76155044287644,44.76155044287644 0 0,0 0.6530515126581485,-0.4089407973154735 l 12.437166357005331 20.246682998889877" fill="#d7ff1c" stroke="none" /><line stroke="#e1ed5e" stroke-width="0.3" x1="56.762969772571076" x2="54.21961505331055" y1="26.818313649435495" y2="22.513508569990535" /><path d="M 56.25429882871897 25.957352633546506 a86.0,86.0 0 0,1 42.265352541879196,-11.944610805530505" fill="none" id="id108" stroke="none" /><text fill="#e1ed5e" style="font-size:6.75px; font-family:Arial;" text-anchor="middle"><textPath startOffset="22.20632615414155" xlink:href="#id108">December</textPath></text><path d="M 89.3179101791058 81.91981866633112 l -3.788761135688774 -6.412742217278599 a28.448353756943405,28.448353756943405 0 0,0 0.42374942910258967,-0.24546302046930366 l 3.677814974120864 6.477009395137951" fill="#ff5607" stroke="none" /><path d="M 89.63071344664047 81.73862282372117 l -14.647702093216468 -25.796105770009046 a50.664697023720166,50.664697023720166 0 0,0 0.7620836821074489,-0.4240987440023023 l 14.201494322036973 26.04441991157153" fill="#93ff23" stroke="none" /><path d="M 90.26544431104013 81.39251694778311 l -4.357628513434733 -8.329553120082634 a30.400552188109895,30.400552188109895 0 0,0 0.46576470657308666,-0.23858277310608506 l 4.213603319272882 8.403328418501225" fill="#ff710a" stroke="none" /><path d="M 90.58718382345135 81.22770947309562 l -7.650341949601519 -15.257329901532446 a38.067918668368115,38.067918668368115 0 0,0 0.5882920672855074,-0.2886723624926005 l 7.386578615305586 15.386757424159876" fill="#ffd614" stroke="none" /><path d="M 90.91171255644093 81.06846463323043 l -3.2154711626846733 -6.698050255918592 a28.42988102387029,28.42988102387029 0 0,0 0.4429941200557217,-0.20799167926880147 l 3.0996988313293428 6.752406917827401" fill="#ff5507" stroke="none" /><path d="M 91.23893434514133 80.91482961587045 l -6.204884837374023 -13.51676713774102 a35.87291463368864,35.87291463368864 0 0,0 0.5634061289954969,-0.25278390718581034 l 5.971296589911752 13.62157137544336" fill="#ffb911" stroke="none" /><path d="M 92.23578459929587 80.48803036053334 l -11.597148376958144 -29.144375233983812 a52.3669963218736,52.3669963218736 0 0,0 0.8404075885176872,-0.32606508782960136 l 11.09375762344078 29.339683025703966" fill="#81ff25" stroke="none" /><path d="M 92.91201910852362 80.23233633223022 l -6.798312478580184 -18.959807686076243 a41.141781451733976,41.141781451733976 0 0,0 0.6686871616367687,-0.23329182067847073 l 6.47094331288013 19.074020359926923" fill="#fffc17" stroke="none" /><path d="M 94.63758080256005 79.69619591428918 l -0.5853321866894831 -2.216251584597804 a23.29224450157634,23.29224450157634 0 0,0 0.38852696245132806,-0.09904417364252562 l 0.5470963355531556 2.225998754409193" fill="#ff0c01" stroke="none" /><path d="M 94.98787191387505 79.60689891045804 l -14.996104198082044 -61.01541373361619 a83.83123311064405,83.83123311064405 0 0,0 1.4042781952879384,-0.33234727841584216 l 13.943602315831571 61.264506924172906" fill="#4dd4ff" stroke="none" /><path d="M 95.692805502759 79.44645832069477 l -3.0922698971674905 -14.756031624716439 a36.07655804308662,36.07655804308662 0 0,0 0.60889257148945,-0.1221381216768736 l 2.837810916210904 14.807073702470523" fill="#ffbc11" stroke="none" /><path d="M 97.11714578562143 79.19881850522333 l -0.3096655442708103 -2.234386032054154 a23.25574238102387,23.25574238102387 0 0,0 0.39699243434346004,-0.051541011736938244 l 0.27115838141949244 2.2393853669552293" fill="#ff0b01" stroke="none" /><path d="M 97.47563105711357 79.15227682838746 l -0.18579962731043426 -1.5344425807773008 a22.54565052169344,22.54565052169344 0 0,0 0.3856737313536086,-0.04333493746158378 l 0.1593591924471077 1.5374134717094832" fill="#ff0100" stroke="none" /><path d="M 99.27714615592234 79.0124445844662 l -0.1533290368013593 -4.451801263898672 a25.45444096231797,25.45444096231797 0 0,0 0.43802652284695937,-0.011312932781016603 l 0.07667587875952088 4.453780988822049" fill="#ff2b04" stroke="none" /></svg>