<?xml version="1.0" encoding="utf-8" ?>
<svg baseProfile="full" height="200mm" version="1.1" viewBox="0,0,200,200" width="200mm" xmlns="http://www.w3.org/2000/svg" xmlns:ev="http://www.w3.org/2001/xml-events" xmlns:xlink="http://www.w3.org/1999/xlink"><defs /><rect fill="#1a1a1a" height="200" width="200" x="0" y="0" /><text alignment-baseline="middle" fill="#e1ed5e" style="dominant-baseline: central; font-size:9.0px; font-family:Arial;" text-anchor="middle" x="100.0" y="100.0">2023</text><line stroke="#e1ed5e" stroke-width="0.3" x1="100.0" x2="100.0" y1="15.0" y2="10.0" /><path d="M 100.0 14.0 a86.0,86.0 0 0,1 42.46469731375804,11.215312516191453" fill="none" id="id97" stroke="none" /><text fill="#e1ed5e" style="font-size:6.75px; font-family:Arial;" text-anchor="middle"><textPath startOffset="22.20632615414155" xlink:href="#id97">January</textPath></text><path d="M 100.0 79.0 l 0.0 -1.5403254891123375 a22.540325489112337,22.540325489112337 0 0,0 0.3879946505125293,0.0033395924512441607 l -0.026514171240000925 1.540097273269652" fill="#ff0000" stroke="none" /><path d="M 100.36148047927253 79.00311137660856 l 0.1266601377289097 -7.357157460534134 a28.3582476643276,28.3582476643276 0 0,0 0.48799597040168313,0.01260349618712446 l -0.25328274332546064 7.35388717220465" fill="#ff5407" stroke="none" /><path d="M 102.16513564639614 79.11191278185805 l 1.6821376888548007 -16.228377568956347 a37.315324873408784,37.315324873408784 0 0,0 0.6383289125657229,0.0717236909261866 l -1.9612333049302488 16.19701792455956" fill="#ffcb13" stroke="none" /><path d="M 102.52436894288641 79.15227682838746 l 1.5927010099541319 -13.153461519260025 a34.249537593658246,34.249537593658246 0 0,0 0.5846645134639671,0.07590623383151396 l -1.818880251925945 13.124096962264375" fill="#ffa40f" stroke="none" /><path d="M 103.95276090670814 79.375362276772 l 3.047209883620977 -15.89967149535035 a37.18904079106893,37.18904079106893 0 0,0 0.6276688217167666,0.1259044608346823 l -3.320445114804869 15.844863078438461" fill="#ffca12" stroke="none" /><path d="M 104.66035177308747 79.52364482259891 l 3.484008346124334 -15.307812759595425 a36.69928169180668,36.69928169180668 0 0,0 0.6147589526032151,0.14549358201603257 l -3.7469909856900725 15.245573265438523" fill="#ffc412" stroke="none" /><path d="M 106.40334571778207 80.00007090966166 l 2.266086001026918 -7.077793598944521 a28.43170962789251,28.43170962789251 0 0,0 0.4648140146795782,0.15324187265352238 l -2.387582837948914 7.037738002031763" fill="#ff5507" stroke="none" /><path d="M 106.74666289553966 80.11325718540242 l 3.2948901543155995 -9.712154603803258 a31.255839710973582,31.255839710973582 0 0,0 0.5080085986413834,0.1772342250556653 l -3.4615807570202564 9.653999525575385" fill="#ff7c0b" stroke="none" /><path d="M 107.08798089147638 80.2323363322302 l 7.282427525011356 -20.3099557128389 a42.57609908474005,42.57609908474005 0 0,0 0.6877412052000884,0.25330088996197864 l -7.630951055984021 20.181591555070597" fill="#f1ff19" stroke="none" /><path d="M 108.09893153111575 80.62456947434976 l 4.738194404677892 -11.335391113278586 a33.2858283362383,33.2858283362383 0 0,0 0.5267343519778741,0.22552016037283326 l -4.932612514446081 11.252151424942962" fill="#ff970d" stroke="none" /><path d="M 110.05341064243156 81.56283822128135 l 5.884636194872032 -10.791958410197571 a33.29208320316097,33.29208320316097 0 0,0 0.5007698623089558,0.2786778862029078 l -6.069530146253023 10.689065126434482" fill="#ff970d" stroke="none" /><line stroke="#e1ed5e" stroke-width="0.3" x1="143.23703022742887" x2="145.7803849466894" y1="26.81831364943548" y2="22.513508569990506" /><path d="M 143.74570117128098 25.957352633546492 a86.0,86.0 0 0,1 28.547481713284135,27.462654790039103" fill="none" id="id98" stroke="none" /><text fill="#e1ed5e" style="font-size:6.75px; font-family:Arial;" text-anchor="middle"><textPath startOffset="19.985693538727396" xlink:href="#id98">February</textPath></text><path d="M 112.48926042617603 83.11751280151076 l 7.408798221204607 -10.014919767669015 a33.457484057199196,33.457484057199196 0 0,0 0.4600465336706595,0.34649751139587714 l -7.5800909086336485 9.885905666767291" fill="#ff990e" stroke="none" /><path d="M 113.6212207817346 84.01681056812373 l 17.855317167431682 -20.951493351901334 a48.52775735188659,48.52775735188659 0 0,0 0.63110626050311,0.5472891300839361 l -18.213317226581555 20.641039228397727" fill="#abff21" stroke="none" /><path d="M 113.89432698308785 84.25364557470407 l 4.870718916857581 -5.5199554799730395 a28.36164460347813,28.36164460347813 0 0,0 0.3632843224782429,0.32616025165108925 l -4.965014226931814 5.435296219552653" fill="#ff5407" stroke="none" /><path d="M 114.16331599549186 84.49514656593476 l 4.936897390855204 -5.4045161802923385 a28.31995566864135,28.31995566864135 0 0,0 0.35709052344455555,0.3318767244105773 l -5.029195798094607 5.318734869807121" fill="#ff5307" stroke="none" /><path d="M 114.94478906791727 85.2469230424477 l 5.219523240240938 -5.152567071710348 a28.33432820944693,28.33432820944693 0 0,0 0.33965537972775667,0.35004472536023584 l -5.307442883671804 5.061958150799998" fill="#ff5307" stroke="none" /><path d="M 115.4437574822437 85.77008943001954 l 5.387353059741198 -4.963918420576646 a28.325575682254808,28.325575682254808 0 0,0 0.32730386059575733,0.36141709776407704 l -5.47200056095299 4.87044853554302" fill="#ff5307" stroke="none" /><path d="M 115.68641384162765 86.03803664274999 l 17.58613676994883 -15.652844535187604 a44.543231480281094,44.543231480281094 0 0,0 0.5048405483258205,0.5771200172493156 l -17.852969181852497 15.34780896173534" fill="#daff1c" stroke="none" /><path d="M 115.9244219780498 86.31012108654704 l 13.150071483069182 -11.304830188160745 a38.34138303576101,38.34138303576101 0 0,0 0.4259351298318161,0.5041728468651333 l -13.342717226388116 11.076798391666504" fill="#ffd814" stroke="none" /><path d="M 116.38621287248628 86.86637796730983 l 9.398004594031207 -7.53254221460408 a33.04415553553773,33.04415553553773 0 0,0 0.3519138355114947,0.4468948336900727 l -9.526272510136666 7.369654986960969" fill="#ff940d" stroke="none" /><path d="M 116.60985879189232 87.15038557335679 l 6.205841241516943 -4.800923845624616 a28.846103191164364,28.846103191164364 0 0,0 0.3004446094612202,0.39534988832970497 l -6.287561791202276 4.6933891814138775" fill="#ff5a08" stroke="none" /><path d="M 116.82858285166822 87.43820079747576 l 17.747504021867577 -13.247733563411252 a43.146700512115544,43.146700512115544 0 0,0 0.43914585933888356,0.5989944586161942 l -17.972912493720088 12.940276661123564" fill="#eaff1a" stroke="none" /><path d="M 117.2510076193507 88.02491185347247 l 18.391303023276794 -12.766644111048587 a43.38810462616614,43.38810462616614 0 0,0 0.42060745632822255,0.6171895419275606 l -18.60833494527375 12.44817654585062" fill="#e7ff1a" stroke="none" /><path d="M 117.65298651832404 88.62581576622439 l 6.219715586935278 -4.007491360969104 a28.398976212328815,28.398976212328815 0 0,0 0.2612332618614039,0.4132082849612082 l -6.287776445042637 3.8998354282936902" fill="#ff5407" stroke="none" /><line stroke="#e1ed5e" stroke-width="0.3" x1="172.23445277983987" x2="176.4835382374775" y1="55.19839476539836" y2="52.563006222186495" /><path d="M 173.08426987136738 54.67131705675599 a86.0,86.0 0 0,1 12.851231095245387,41.99856678651699" fill="none" id="id99" stroke="none" /><text fill="#e1ed5e" style="font-size:6.75px; font-family:Arial;" text-anchor="middle"><textPath startOffset="22.20632615414155" xlink:href="#id99">March</textPath></text><path d="M 118.03404312379186 89.2402003453031 l 3.104949235653331 -1.852531430933474 a24.615602641134757,24.615602641134757 0 0,0 0.21396857710580044,0.3657416572071368 l -3.1363774872294585 1.7988103613724418" fill="#ff1e03" stroke="none" /><path d="M 118.3937258080291 89.86733742301442 l 9.71390144904958 -5.351155427485267 a32.09029962494037,32.09029962494037 0 0,0 0.2623640256788094,0.48612069339299047 l -9.804573573946854 5.183153750759818" fill="#ff870c" stroke="none" /><path d="M 118.89224826269711 90.83032412892265 l 15.778836000792955 -7.658527970746757 a38.53923362689004,38.53923362689004 0 0,0 0.2845329709270265,0.5992990017267651 l -15.908327165561738 7.385786553379452" fill="#ffdb14" stroke="none" /><path d="M 119.04729006885535 91.15688171328212 l 6.660623606207294 -3.0923392356640975 a28.343464357644386,28.343464357644386 0 0,0 0.20164037639352514,0.44428784093837964 l -6.712866299564166 2.977229385883655" fill="#ff5307" stroke="none" /><path d="M 119.196687751892 91.48605970444005 l 6.756608279025418 -2.9966294306390844 a28.39131540260373,28.39131540260373 0 0,0 0.19429027538765462,0.4484487431121532 l -6.807189264255753 2.8798815429403284" fill="#ff5407" stroke="none" /><path d="M 119.7369772167798 92.82701384747503 l 14.584864567078903 -5.300559980743489 a36.518189667274115,36.518189667274115 0 0,0 0.20962644089490193,0.5926421770100047 l -14.673944088783614 5.04872017730687" fill="#ffc112" stroke="none" /><path d="M 120.08093135843002 93.85539295169968 l 14.166688736228721 -4.334895324621706 a35.81507297398892,35.81507297398892 0 0,0 0.17531325220190988,0.5910691335387201 l -14.239207885542333 4.090396804336456" fill="#ffb811" stroke="none" /><path d="M 120.18372546131832 94.20196356495316 l 20.13782701491187 -5.78485151212037 a41.952245318814775,41.952245318814775 0 0,0 0.19340630244317308,0.695785373368494 l -20.234420087921407 5.437354835332925" fill="#f9ff18" stroke="none" /><path d="M 120.28053869075195 94.5502522615342 l 2.126603312931286 -0.5714567927402249 a23.202045530078628,23.202045530078628 0 0,0 0.10032527820206603,0.3865942221691824 l -2.136124923003655 0.5347661450221921" fill="#ff0a01" stroke="none" /><path d="M 120.37134235888165 94.90015583598534 l 4.8039359189877775 -1.2026367300272072 a25.95218491356608,25.95218491356608 0 0,0 0.10475685915411449,0.4342848118730038 l -4.8239255784027115 1.1197666864947973" fill="#ff3204" stroke="none" /><path d="M 120.45610955862082 95.25157060432595 l 30.37616921542655 -7.051149898134659 a52.18381585197989,52.18381585197989 0 0,0 0.19557901024775548,0.8767423537506264 l -30.49304261267634 6.527229374834069" fill="#83ff25" stroke="none" /><path d="M 120.6074358757038 95.95851677861258 l 7.881278374846721 -1.5456583005836375 a29.031413848382467,29.031413848382467 0 0,0 0.09195254647611648,0.4912141801232018 l -7.906716645232697 1.409766042997873" fill="#ff5d08" stroke="none" /><path d="M 120.67395015179393 96.31383870115 l 7.281273886803652 -1.2982497205805494 a28.39610720255164,28.39610720255164 0 0,0 0.08165657400163243,0.4819417220712572 l -7.302542322325508 1.1727222101934542" fill="#ff5407" stroke="none" /><path d="M 120.83666639777658 97.38593545837742 l 43.85311668839794 -5.501593929968121 a65.19687069303106,65.19687069303106 0 0,0 0.13011323028645672,1.1147306982837 l -43.941320271687985 4.745919493359568" fill="#35ff69" stroke="none" /><path d="M 120.96714384426684 98.82574320788733 l 7.341737864510277 -0.4111711932414322 a28.353242592308206,28.353242592308206 0 0,0 0.023096270268320864,0.4875257614907714 l -7.347727743012094 0.28473432512766106" fill="#ff5307" stroke="none" /><line stroke="#e1ed5e" stroke-width="0.3" x1="184.98032266829074" x2="189.97916517819016" y1="98.17113171792111" y2="98.06355123074" /><path d="M 185.9800911702706 98.14961562048488 a86.0,86.0 0 0,1 -9.607161424134198,41.387399972396054" fill="none" id="id100" stroke="none" /><text fill="#e1ed5e" style="font-size:6.75px; font-family:Arial;" text-anchor="middle"><textPath startOffset="21.466115282336823" xlink:href="#id100">April</textPath></text><path d="M 120.99980553446 99.90962569577887 l 62.99941660337998 -0.27112291266339017 a84.0,84.0 0 0,0 -0.006222810841987947,1.4459620871852612 l -62.994749495248485 -0.8133486527255557" fill="#4dd2ff" stroke="none" /><path d="M 120.92983693683757 101.71520430193887 l 8.987007337675825 0.7364870397058554 a30.017134469835405,30.017134469835405 0 0,0 -0.04663433955636658,0.5146060510276659 l -8.972998401842384 -0.8910744792820918" fill="#ff6b09" stroke="none" /><path d="M 120.89721153311464 102.0752229133903 l 8.860851373027403 0.8799375826920038 a29.904435816171368,29.904435816171368 0 0,0 -0.05527720825206122,0.5117982963948652 l -8.84439186327429 -1.0323322009716605" fill="#ff6909" stroke="none" /><path d="M 120.32669344350535 105.2749913415812 l 2.693834981456337 0.6990785905403134 a23.78306625560185,23.78306625560185 0 0,0 -0.10624453313947499,0.3953754317484414 l -2.681402371975085 -0.745344955464303" fill="#ff1202" stroke="none" /><path d="M 120.02730092923936 106.31721596034902 l 7.0726581437068035 2.230930122105776 a28.416167637497217,28.416167637497217 0 0,0 -0.1511574343585612,0.46521474724699613 l -7.033208458331996 -2.3523437693305675" fill="#ff5407" stroke="none" /><path d="M 119.79798401119884 107.00284435728193 l 21.15774165210916 7.483811061646044 a43.44231404788309,43.44231404788309 0 0,0 -0.25543199193835164,0.702839138139037 l -21.02578539916558 -7.846897996791212" fill="#e7ff1a" stroke="none" /><path d="M 119.54520255179757 107.68017299344265 l 6.918983931331723 2.7187742562734587 a28.433980905181414,28.433980905181414 0 0,0 -0.1829217374545348,0.45399675105965226 l -6.871159579619795 -2.8374703751759243" fill="#ff5507" stroke="none" /><path d="M 119.26925614724726 108.34839909993367 l 6.86310861383974 2.9734396251051853 a28.47954564459011,28.47954564459011 0 0,0 -0.1987586341436823,0.44814824924701113 l -6.8109088949647845 -3.0911362108448843" fill="#ff5507" stroke="none" /><path d="M 118.97047184881838 109.00673069616215 l 13.28591125842069 6.3078359732605955 a35.707285019070994,35.707285019070994 0 0,0 -0.26839422168526456,0.5529715924141694 l -13.175363780120712 -6.5355965216400405" fill="#ffb710" stroke="none" /><path d="M 118.81262510543309 109.33194174019688 l 12.58189577510525 6.241208640287123 a35.0448135120124,35.0448135120124 0 0,0 -0.2727176210107237,0.538097738981567 l -12.472599484308258 -6.4568605909713845" fill="#ffae10" stroke="none" /><path d="M 118.64920377521936 109.65438752849418 l 14.013431933858776 7.254524328455249 a36.779873186975934,36.779873186975934 0 0,0 -0.29589844394029013,0.5597283436949332 l -13.886480981693593 -7.494667687236316" fill="#ffc512" stroke="none" /><line stroke="#e1ed5e" stroke-width="0.3" x1="174.80103733775053" x2="179.2010983576182" y1="140.37084112569926" y2="142.7455964860345" /><path d="M 175.68104954172406 140.8457921977663 a86.0,86.0 0 0,1 -30.038265399797805,32.042727171017184" fill="none" id="id101" stroke="none" /><text fill="#e1ed5e" style="font-size:6.75px; font-family:Arial;" text-anchor="middle"><textPath startOffset="22.206326154141568" xlink:href="#id101">May</textPath></text><path d="M 118.48025628344425 109.97397251340804 l 3.5435476257094054 1.9124868225145024 a25.026702822653093,25.026702822653093 0 0,0 -0.207868922186533,0.37734247337851606 l -3.5101022940713626 -1.9731998142908236" fill="#ff2403" stroke="none" /><path d="M 118.30583269289576 110.29060199501025 l 3.353270061048128 1.8850367617214017 a24.846788751070537,24.846788751070537 0 0,0 -0.21279263613826413,0.37102189745174197 l -3.3203254287574846 -1.9424785050314588" fill="#ff2203" stroke="none" /><path d="M 118.12598468904814 110.60418214915192 l 16.650764494808193 9.741139179724751 a40.29087221408959,40.29087221408959 0 0,0 -0.3553638128023001,0.5956101907449771 l -16.48061980630767 -10.026311464355832" fill="#fff116" stroke="none" /><path d="M 117.94076556474637 110.91462005526583 l 6.783043188884706 4.12659866480909 a28.939678295918505,28.939678295918505 0 0,0 -0.26257295390505075,0.4233512067435683 l -6.7110055953116925 -4.242746202917933" fill="#ff5c08" stroke="none" /><path d="M 116.93607887273984 112.41649034213515 l 9.681780458096398 7.098085362965662 a33.00498599160885,33.00498599160885 0 0,0 -0.3398550649319871,0.45529139779736016 l -9.558164126469318 -7.263689640272338" fill="#ff930d" stroke="none" /><path d="M 116.71984013943494 112.70617746262583 l 5.890038104968469 4.476111541691271 a28.397845862928097,28.397845862928097 0 0,0 -0.29911475764627493,0.38664614533290814 l -5.8121165301041255 -4.576835681137432" fill="#ff5407" stroke="none" /><path d="M 116.27256486870786 113.27417163493432 l 10.679603498407504 8.71177291193451 a34.78219569416694,34.78219569416694 0 0,0 -0.38244514848898653,0.46067981834278177 l -10.528062350024973 -8.894313987391062" fill="#ffab0f" stroke="none" /><path d="M 115.80600337817218 113.82643327865902 l 8.679349382481153 7.59233325894199 a32.53146261399709,32.53146261399709 0 0,0 -0.3723166260604827,0.41830167628040604 l -8.547373906772332 -7.740609104963262" fill="#ff8d0d" stroke="none" /><path d="M 115.07121518719521 114.62390073753431 l 2.331862460345056 2.2626526613886755 a24.24918137383184,24.24918137383184 0 0,0 -0.29325271164825156,0.2970634486478689 l -2.2925691236412686 -2.302456604017209" fill="#ff1902" stroke="none" /><path d="M 114.81725581225074 114.88116024355365 l 5.240638204812316 5.2632402310165185 a28.427380865630177,28.427380865630177 0 0,0 -0.349724533355571,0.34227906314549694 l -5.149263719080952 -5.352669397084587" fill="#ff5507" stroke="none" /><path d="M 114.0293411484842 115.62618273729858 l 5.390091535820277 6.003600198901301 a29.068227941299696,29.068227941299696 0 0,0 -0.37519835575922283,0.3310689253927157 l -5.285950827154466 -6.095492266066306" fill="#ff5d08" stroke="none" /><path d="M 113.48314897796784 116.09983520530334 l 9.691055838381683 11.571807314321736 a36.093816210038526,36.093816210038526 0 0,0 -0.4797553466209332,0.39480598869132133 l -9.490430363216058 -11.736908421870236" fill="#ffbc11" stroke="none" /><path d="M 113.20401910651253 116.32954008644616 l 13.818696863366421 17.08971810420151 a42.977598774267534,42.977598774267534 0 0,0 -0.5792613006693514,0.46020021056322075 l -13.52247806997972 -17.325052228769856" fill="#ecff1a" stroke="none" /><path d="M 112.04921762599082 117.19931262002967 l 4.235382524914823 6.045676190152676 a28.381643836472527,28.381643836472527 0 0,0 -0.4025370104656534,0.2768686263267049 l -4.130688629826287 -6.117685605844476" fill="#ff5407" stroke="none" /><path d="M 111.7513745106137 117.40417183066458 l 4.150050400808461 6.146361024946759 a28.416243805204562,28.416243805204562 0 0,0 -0.40773967739437583,0.27022762481194834 l -4.043636024674122 -6.216886670850026" fill="#ff5407" stroke="none" /><path d="M 111.45004920935366 117.60387380957326 l 4.0172247624787785 6.176280685815607 a28.36780414385803,28.36780414385803 0 0,0 -0.4116279123143827,0.2627204091396453 l -3.910315048117465 -6.244515523779061" fill="#ff5407" stroke="none" /><line stroke="#e1ed5e" stroke-width="0.3" x1="143.8653032363475" x2="146.44561519142675" y1="172.8068346515853" y2="177.08958963109032" /><path d="M 144.38136562736335 173.6633856474863 a86.0,86.0 0 0,1 -40.68145358897372,12.25698825130547" fill="none" id="id102" stroke="none" /><text fill="#e1ed5e" style="font-size:6.75px; font-family:Arial;" text-anchor="middle"><textPath startOffset="21.466115282336833" xlink:href="#id102">June</textPath></text><path d="M 110.8373102113329 117.98757091392108 l 4.378947907796298 7.268098308885127 a29.48530717221318,29.48530717221318 0 0,0 -0.4369892821233344,0.2581809704373289 l -4.2531907546445815 -7.342397851616206" fill="#ff6309" stroke="none" /><path d="M 109.89434966115114 118.52300852407294 l 3.637351843068488 6.809411583537204 a28.720000941987273,28.720000941987273 0 0,0 -0.43806083719838756,0.2291727259884328 l -3.519600103343605 -6.871013728470353" fill="#ff5908" stroke="none" /><path d="M 109.2508944713604 118.85261126421891 l 5.215241292295022 10.62826054681846 a32.83886244484312,32.83886244484312 0 0,0 -0.50960806038368,0.24464283781499566 l -5.031520563911109 -10.716457661133015" fill="#ff910d" stroke="none" /><path d="M 108.92500713936063 119.00905698771935 l 6.44452287167807 13.725961292078605 a36.163571097707226,36.163571097707226 0 0,0 -0.5657566901398656,0.25971114782986765 l -6.207298185770785 -13.834859510242547" fill="#ffbd11" stroke="none" /><path d="M 108.59647513512805 119.15986991738527 l 3.0350143536402268 6.764456279937546 a28.414120371965154,28.414120371965154 0 0,0 -0.4479679906163618,0.1963760025204906 l -2.918125688366111 -6.815696835752491" fill="#ff5407" stroke="none" /><path d="M 107.59598834532513 119.57807347666477 l 2.3170346234890267 5.97197784466885 a27.405713763794207,27.405713763794207 0 0,0 -0.4412708545170873,0.16685087913228003 l -2.2138935482116646 -6.010976973907762" fill="#ff4606" stroke="none" /><path d="M 106.91757812671514 119.82793768551818 l 4.699786771066828 13.471055552239399 a35.26735201027208,35.26735201027208 0 0,0 -0.5749086682034888,0.19504023440407023 l -4.467208369926111 -13.549958773541592" fill="#ffb110" stroke="none" /><path d="M 105.88484417918355 120.15858648285463 l 2.061619355407603 7.06209558066447 a28.356865389351086,28.356865389351086 0 0,0 -0.4697366494861189,0.1327522692173472 l -1.9397515378168786 -7.096536643220336" fill="#ff5407" stroke="none" /><path d="M 105.18746579009965 120.34920634021253 l 3.0959360342826487 12.144627786838212 a33.53302852502988,33.53302852502988 0 0,0 -0.5605552150630448,0.13777083362187229 l -2.8864275344763928 -12.196119878774114" fill="#ff9a0e" stroke="none" /><path d="M 104.48393922423573 120.51570834832081 l 2.156408312879119 9.86637905076939 a31.099283756054945,31.099283756054945 0 0,0 -0.5239615303010897,0.10980123305712869 l -1.986255321148651 -9.902036264553061" fill="#ff790b" stroke="none" /><path d="M 104.13013068566511 120.58985236759428 l 1.4587346317181047 7.2721986291666205 a28.417060039383976,28.417060039383976 0 0,0 -0.4804274577448376,0.09207506570378458 l -1.3333395594015627 -7.2962308932188735" fill="#ff5407" stroke="none" /><path d="M 103.06178313531738 120.77559828337769 l 2.6323326795664976 17.861580615575463 a39.0545073990573,39.0545073990573 0 0,0 -0.6659191659468953,0.09229032853098029 l -2.324484922432772 -17.904245509599043" fill="#ffe115" stroke="none" /><path d="M 102.70371172650421 120.8252237178851 l 2.076879879585996 15.997078277082103 a37.131334211320564,37.131334211320564 0 0,0 -0.6345436949503359,0.07683440456548685 l -1.8012087615842798 -16.03045821037294" fill="#ffc912" stroke="none" /><path d="M 102.34483914955558 120.86867818915974 l 1.7216357969859626 15.322272068447424 a36.41869161624901,36.41869161624901 0 0,0 -0.6235702085464746,0.06463560174059893 l -1.4576329918338853 -15.349637038643781" fill="#ffc011" stroke="none" /><path d="M 101.98527174616119 120.90594882070398 l 2.547550038052836 26.827033032983486 a47.94772184339838,47.94772184339838 0 0,0 -0.8223164034879965,0.0709529194199175 l -2.085389316823298 -26.866910204682064" fill="#b2ff20" stroke="none" /><path d="M 101.62511606390274 120.93702456842531 l 1.5184745986565995 19.563119634823725 a40.62196256629777,40.62196256629777 0 0,0 -0.697609163411965,0.04811121228672947 l -1.181502674465704 -19.58635919162674" fill="#fff517" stroke="none" /><path d="M 101.26447882468166 120.96189622390904 l 0.8959236282390467 14.852172889825143 a35.879170632024284,35.879170632024284 0 0,0 -0.6168004139804496,0.03188153605740495 l -0.6401351458451174 -14.86539423264475" fill="#ffb911" stroke="none" /><line stroke="#e1ed5e" stroke-width="0.3" x1="102.19456741930631" x2="102.32365962044197" y1="184.97166512339345" y2="189.96999836594603" /><path d="M 102.22038585953345 185.97133177190398 a86.0,86.0 0 0,1 -42.740103519485714,-10.115201625700543" fill="none" id="id103" stroke="none" /><text fill="#e1ed5e" style="font-size:6.75px; font-family:Arial;" text-anchor="middle"><textPath startOffset="22.20632615414155" xlink:href="#id103">July</textPath></text><path d="M 100.18074693466247 120.99922214144158 l 0.16240555808042276 18.868316619058305 a39.869015544069256,39.869015544069256 0 0,0 -0.6863049854857435,0.0 l 0.16240555808040977 -18.868316619058305" fill="#ffec16" stroke="none" /><path d="M 99.45781275523022 120.99299961872073 l -0.25190112776259244 9.753383780396472 a30.756636169596007,30.756636169596007 0 0,0 -0.5291307951915524,-0.018224334456837042 l 0.41975227462878784 -9.747602647513542" fill="#ff750a" stroke="none" /><path d="M 99.09653310690486 120.98055641714683 l -0.32037045041509987 7.439730620669184 a28.446625338609554,28.446625338609554 0 0,0 -0.4890271981242488,-0.025277120275318966 l 0.4483857169528376 -7.433113693631663" fill="#ff5507" stroke="none" /><path d="M 98.73552117531835 120.96189622390904 l -0.5431928411346106 9.004778682870155 a30.021147243567896,30.021147243567896 0 0,0 -0.5155592219128362,-0.035555982450852196 l 0.6981148238263769 -8.994094355903018" fill="#ff6b09" stroke="none" /><path d="M 98.01472825383883 120.90594882070398 l -1.0620565065134524 11.184009953699961 a32.23432430845253,32.23432430845253 0 0,0 -0.55192439484588,-0.05720922020846901 l 1.2544134979649257 -11.164071365035731" fill="#ff890c" stroke="none" /><path d="M 97.65516085044442 120.86867818915974 l -1.6770386212369046 14.925364626404416 a36.01928652660453,36.01928652660453 0 0,0 -0.61553972265014,-0.07453328817637024 l 1.933705766938434 -14.894285809502698" fill="#ffbb11" stroke="none" /><path d="M 97.2962882734958 120.8252237178851 l -1.030485492318576 7.9372703477217454 a29.00388411477215,29.00388411477215 0 0,0 -0.49454579266811216,-0.06853954055227153 l 1.1669598761735192 -7.918356241676869" fill="#ff5d08" stroke="none" /><path d="M 96.93821686468263 120.77559828337769 l -2.22206992944387 15.077760302221453 a36.240618442260924,36.240618442260924 0 0,0 -0.6163737708677796,-0.09626490664271474 l 2.481279563920167 -15.037277088231631" fill="#ffbe11" stroke="none" /><path d="M 96.22490169976321 120.6578951692458 l -1.2875487813534754 7.045656996222298 a28.162336516303952,28.162336516303952 0 0,0 -0.4761210244103834,-0.09124972750583632 l 1.4086374203355538 -7.022450070367993" fill="#ff5107" stroke="none" /><path d="M 95.51606077576429 120.51570834832081 l -1.661563747218324 7.602279053165468 a28.781737652238647,28.781737652238647 0 0,0 -0.48309440894642375,-0.10995071465584123 l 1.7921783055576104 -7.57255160493194" fill="#ff5908" stroke="none" /><path d="M 95.16358092515715 120.4354850818985 l -6.595308426310038 27.867379743298528 a49.637195166345485,49.637195166345485 0 0,0 -0.8297606817955129,-0.20393498760824777 l 7.074022392848762 -27.749723497376248" fill="#9fff22" stroke="none" /><path d="M 94.11515582081647 120.15858648285463 l -2.0843916731751704 7.140102359290229 a28.43812814815286,28.43812814815286 0 0,0 -0.4687213253405225,-0.14122189034543794 l 2.2069879729559387 -7.103165099839066" fill="#ff5507" stroke="none" /><path d="M 93.76903079525671 120.05430185196036 l -3.7709176879284585 12.136654682075154 a33.70898135497367,33.70898135497367 0 0,0 -0.5526325123449956,-0.17693547889332262 l 3.9792715453643943 -12.069946356522125" fill="#ff9c0e" stroke="none" /><path d="M 93.08242187328487 119.8279376855182 l -10.018571886353502 28.716353530340434 a51.41382486175536,51.41382486175536 0 0,0 -0.8331009006506855,-0.29872034266303443 l 10.511392347633914 -28.539645646637442" fill="#8bff24" stroke="none" /><path d="M 92.40401165467489 119.57807347666478 l -3.226227996029334 8.31535356391227 a29.919285395996248,29.919285395996248 0 0,0 -0.478536065923989,-0.19041937649001842 l 3.3688851379951807 -8.258587343016185" fill="#ff6909" stroke="none" /><path d="M 92.06813273071674 119.44442032107085 l -4.404773410823798 10.797995315783213 a32.66184940909359,32.66184940909359 0 0,0 -0.5187456649299361,-0.2168357300122332 l 4.5899905352511965 -10.720574542751008" fill="#ff8e0d" stroke="none" /><path d="M 90.42595943632237 118.69057910512821 l -9.968148345581684 19.459961961262135 a42.864448334529094,42.864448334529094 0 0,0 -0.6538034647491748,-0.34203907209672413 l 10.301642712857353 -19.285493470220693" fill="#eeff19" stroke="none" /><path d="M 90.10565033884886 118.52300852407294 l -7.275722570899579 13.620730600285194 a36.44216438891398,36.44216438891398 0 0,0 -0.5507576982463943,-0.3003170103623298 l 7.509103081014613 -13.4934729381631" fill="#ffc011" stroke="none" /><line stroke="#e1ed5e" stroke-width="0.3" x1="58.666819895761336" x2="56.23545636021788" y1="174.27360380694188" y2="178.64263932499728" /><path d="M 58.180547188652646 175.14741091055294 a86.0,86.0 0 0,1 -31.652253787137756,-30.449443065178592" fill="none" id="id104" stroke="none" /><text fill="#e1ed5e" style="font-size:6.75px; font-family:Arial;" text-anchor="middle"><textPath startOffset="22.20632615414155" xlink:href="#id104">August</textPath></text><path d="M 88.54995079064634 117.60387380957326 l -5.6566504627471295 8.696815106237054 a31.374598182569304,31.374598182569304 0 0,0 -0.45018858329882583,-0.2983604449773245 l 5.805513744785917 -8.59815664016841" fill="#ff7d0b" stroke="none" /><path d="M 88.24862548938628 117.40417183066458 l -25.09610458850916 37.16815561824288 a65.84736622789916,65.84736622789916 0 0,0 -0.9339135569854746,-0.6423542603730724 l 25.732175030117524 -36.7306605685047" fill="#36ff71" stroke="none" /><path d="M 86.24171649860922 115.8653595955263 l -6.57357871866785 7.580319898962823 a31.033602889348103,31.033602889348103 0 0,0 -0.40056644666752467,-0.35345331612193803 l 6.703087518241962 -7.466043441068596" fill="#ff780b" stroke="none" /><path d="M 84.19399662182784 113.82643327865904 l -9.024739273819101 7.894465946975101 a32.990350768362134,32.990350768362134 0 0,0 -0.3702106319262834,-0.43063860249057456 l 9.159292415316164 -7.737950245322996" fill="#ff930d" stroke="none" /><path d="M 83.72743513129214 113.27417163493432 l -3.788426759238393 3.090368816117779 a25.889024108116743,25.889024108116743 0 0,0 -0.2787164107250036,-0.34774157698672165 l 3.841061082018258 -3.0246994055527976" fill="#ff3104" stroke="none" /><path d="M 83.28015986056508 112.70617746262583 l -12.257155160065459 9.314777375377183 a36.39489948556852,36.39489948556852 0 0,0 -0.374761283977097,-0.502053982501072 l 12.415677710737642 -9.102410513366804" fill="#ffc011" stroke="none" /><line stroke="#e1ed5e" stroke-width="0.3" x1="26.63291911575756" x2="22.317208475507996" y1="142.92168965132927" y2="145.44649492493687" /><path d="M 25.769776987707644 143.4266507060508 a86.0,86.0 0 0,1 -11.730757126820373,-40.83630448921669" fill="none" id="id105" stroke="none" /><text fill="#e1ed5e" style="font-size:6.75px; font-family:Arial;" text-anchor="middle"><textPath startOffset="21.46611528233685" xlink:href="#id105">September</textPath></text><path d="M 80.45479744820244 107.68017299344265 l -1.7703842432408332 0.6956621307413443 a22.90215829227302,22.90215829227302 0 0,0 -0.14101809889742153,-0.36815375752990204 l 1.7820966217317638 -0.6650848063782845" fill="#ff0500" stroke="none" /><path d="M 79.97269907076064 106.31721596034903 l -7.026173313213949 2.2162674017451516 a28.367425101306296,28.367425101306296 0 0,0 -0.14288162422170375,-0.46694541503197995 l 7.063281709941783 -2.094995014161124" fill="#ff5407" stroke="none" /><path d="M 79.76711848015287 105.62410040840567 l -26.730004114227004 7.430094764704839 a48.74345739375478,48.74345739375478 0 0,0 -0.2177484525648034,-0.8103229964062671 l 26.85394064313358 -6.968880835123033" fill="#a9ff21" stroke="none" /><path d="M 79.67330655649465 105.27499134158121 l -3.1395782913130597 0.8147536808641282 a24.243574480070695,24.243574480070695 0 0,0 -0.10134816859025077,-0.40483555445984015 l 3.153137774198369 -0.7605902870068962" fill="#ff1902" stroke="none" /><path d="M 79.58551787078972 104.9243191809786 l -3.634541119463846 0.8767129352266165 a24.738785193063006,24.738785193063006 0 0,0 -0.09629210958316818,-0.41482388788564223 l 3.6490937949775692 -0.8140203899924" fill="#ff2003" stroke="none" /><path d="M 79.4281124754447 104.21870165774334 l -10.062086748643706 2.0634442024919704 a31.27148439681573,31.27148439681573 0 0,0 -0.10359806025889862,-0.5282442773323341 l 10.09611474187827 -1.8899361980916813" fill="#ff7c0b" stroke="none" /><path d="M 79.23777060512086 103.15116336523772 l -7.604568372259056 1.1541745738065374 a28.691656458473965,28.691656458473965 0 0,0 -0.0699064681239784,-0.4889256752403663 l 7.623308891399633 -1.0231034265857706" fill="#ff5808" stroke="none" /><path d="M 79.18660465613746 102.79330883721812 l -15.683526723619178 2.1048432066011 a36.824139010222694,36.824139010222694 0 0,0 -0.07890622279734691,-0.6289602322199676 l 15.717434455663371 -1.8345652200937241" fill="#ffc512" stroke="none" /><path d="M 79.07016306316243 101.71520430193888 l -14.812077969602887 1.2138527371611578 a35.86173247791484,35.86173247791484 0 0,0 -0.045123351634546796,-0.6156722823835662 l 14.830777879901769 -0.958707318280831" fill="#ffb911" stroke="none" /><path d="M 79.0235259727143 100.99374915477108 l -50.075059599176306 2.37227896771705 a71.13122082456931,71.13122082456931 0 0,0 -0.04741358948734361,-1.223534067119345 l 50.108475321514845 -1.5099676535837083" fill="#3dffac" stroke="none" /><line stroke="#e1ed5e" stroke-width="0.3" x1="15.007084014347285" x2="10.007500721073583" y1="101.09737516637583" y2="101.16192664675087" /><path d="M 14.007167355692545 101.11028546245083 a86.0,86.0 0 0,1 10.666146001902534,-42.60595125391555" fill="none" id="id106" stroke="none" /><text fill="#e1ed5e" style="font-size:6.75px; font-family:Arial;" text-anchor="middle"><textPath startOffset="22.20632615414155" xlink:href="#id106">October</textPath></text><path d="M 79.00175016825051 100.2711162175752 l -17.37460245438168 0.22432995783212656 a38.376050597813844,38.376050597813844 0 0,0 -0.0028429393301518334,-0.6605989788136134 l 17.375889691001333 0.07477849918516222" fill="#ffd914" stroke="none" /><path d="M 79.00019446554 99.90962569577889 l -15.229139975461964 -0.0655397940190409 a36.22928100262168,36.22928100262168 0 0,0 0.008051514122358027,-0.6235986418564899 l 15.22575545422189 0.32767469393600285" fill="#ffbd11" stroke="none" /><path d="M 79.00486145842228 99.54816195383935 l -18.026877727797782 -0.3879578691407374 a39.03105188060863,39.03105188060863 0 0,0 0.02023723898064934,-0.6715754391365576 l 18.01752879436149 0.6982034557022895" fill="#ffe115" stroke="none" /><path d="M 79.05617556472873 98.46500227214037 l -7.564079243014345 -0.5543803371376402 a28.584367630383255,28.584367630383255 0 0,0 0.04018896233239642,-0.4904071353639791 l 7.553415796862452 0.6845013897093978" fill="#ff5708" stroke="none" /><path d="M 79.12142395522702 97.74499172005258 l -12.531884054499459 -1.353516745856441 a33.604765985004704,33.604765985004704 0 0,0 0.06706494665850238,-0.5745715070973159 l 12.506728754837368 1.5690319912786186" fill="#ff9b0e" stroke="none" /><path d="M 79.16333360222342 97.38593545837743 l -11.881564540330324 -1.4906019979852303 a32.97470125900569,32.97470125900569 0 0,0 0.07550264601931793,-0.5625824112856724 l 11.854145895253172 1.6949027513355621" fill="#ff930d" stroke="none" /><path d="M 79.32604984820605 96.31383870115002 l -39.636141069921706 -7.06711625862297 a61.261244530287776,61.261244530287776 0 0,0 0.19403558725300193,-1.036545865882729 l 39.50861975875885 7.748340201968271" fill="#31ff3b" stroke="none" /><path d="M 79.46518482838121 95.60439243477599 l -7.305183539566054 -1.5637209180361518 a28.47067129890284,28.47067129890284 0 0,0 0.10670483985922109,-0.47833687437239714 l 7.277184312704795 1.6892359619585082" fill="#ff5507" stroke="none" /><path d="M 79.62865764111835 94.90015583598534 l -7.817667528509945 -1.9571064792446513 a29.058919987034255,29.058919987034255 0 0,0 0.12565031079571196,-0.484181903483469 l 7.782820885843926 2.091384808276984" fill="#ff5d08" stroke="none" /><path d="M 79.71946130924805 94.55025226153421 l -9.948901520869883 -2.6734498718371653 a31.30184331511566,31.30184331511566 0 0,0 0.14430631136010091,-0.51914658137172 l 9.901408438943422 2.844307756627828" fill="#ff7c0b" stroke="none" /><path d="M 79.81627453868168 94.20196356495316 l -10.220853709294232 -2.936072546039327 a31.634207659360406,31.634207659360406 0 0,0 0.15484809509171055,-0.5220707975377077 l 10.168799717090815 3.111572730323574" fill="#ff810b" stroke="none" /><path d="M 79.91906864156998 93.8553929516997 l -9.71805146734329 -2.9736473112794544 a31.162829461021797,31.162829461021797 0 0,0 0.1613708006739419,-0.511589536684252 l 9.665425182901144 3.1404870143901205" fill="#ff7a0b" stroke="none" /><path d="M 80.14247586403 93.16781622104843 l -14.509914541859727 -4.992284138146662 a36.344722901638306,36.344722901638306 0 0,0 0.20863068450541225,-0.5898270396069258 l 14.421830776544505 5.241308804180199" fill="#ffbf11" stroke="none" /><path d="M 80.2630227832202 92.82701384747504 l -54.78318810802331 -19.909788888844577 a79.28891312142838,79.28891312142838 0 0,0 0.47722641910674474,-1.2787295411580215 l 54.43235710041494 20.84984156703194" fill="#47feff" stroke="none" /><path d="M 80.52162464483688 92.15188598940014 l -6.954066016616956 -2.801891941217845 a28.497308357919415,28.497308357919415 0 0,0 0.18723859692902486,-0.4534131140959175 l 6.904805732801731 2.9211796257670737" fill="#ff5607" stroke="none" /><path d="M 80.65960295795068 91.81776055985345 l -9.254731300137458 -3.91535020130691 a31.04888146196471,31.04888146196471 0 0,0 0.21247679595608085,-0.49042574002680833 l 9.185963794338697 4.074075085920318" fill="#ff790b" stroke="none" /><path d="M 80.803312248108 91.48605970444005 l -40.05081859100791 -17.76297466934294 a64.81314116693237,64.81314116693237 0 0,0 0.4610920533650908,-1.015955219522194 l 39.739124220679464 18.449751897707202" fill="#35ff65" stroke="none" /><path d="M 80.95270993114464 91.15688171328213 l -6.7461834321557825 -3.1320622439617747 a28.437795694985446,28.437795694985446 0 0,0 0.2099546289385622,-0.4422179936505962 l 6.6912706093754695 3.247722653252903" fill="#ff5507" stroke="none" /><path d="M 81.26839172434947 90.50648371742162 l -22.728701648168283 -11.51931515988624 a46.48114009153108,46.48114009153108 0 0,0 0.3678441437702714,-0.7105578033247716 l 22.527048071237896 11.908845685471347" fill="#c3ff1e" stroke="none" /><path d="M 81.6062741919709 89.86733742301443 l -6.505061354900953 -3.583482348259631 a28.426787257712057,28.426787257712057 0 0,0 0.23978991168139954,-0.42655949640384827 l 6.442413801927122 3.6949253545982637" fill="#ff5507" stroke="none" /><line stroke="#e1ed5e" stroke-width="0.3" x1="26.266209847984243" x2="21.928928074336255" y1="57.711370442889674" y2="55.22380399835377" /><path d="M 25.398753493254645 57.213857153982495 a86.0,86.0 0 0,1 29.58750427330803,-30.492523968695096" fill="none" id="id107" stroke="none" /><text fill="#e1ed5e" style="font-size:6.75px; font-family:Arial;" text-anchor="middle"><textPath startOffset="21.46611528233685" xlink:href="#id107">November</textPath></text><path d="M 81.78341655067845 89.55222093294921 l -6.768050711528548 -3.881688283939967 a28.80218010350305,28.80218010350305 0 0,0 0.2503599681932274,-0.42794634101828893 l 6.700231068864995 3.997614037312148" fill="#ff5a08" stroke="none" /><path d="M 82.34701348167596 88.62581576622439 l -15.22914874206942 -9.812455435575487 a39.1166015875834,39.1166015875834 0 0,0 0.36956501754001264,-0.5628728761119152 l 15.057987089171487 10.073146375665068" fill="#ffe215" stroke="none" /><path d="M 82.7489923806493 88.02491185347247 l -7.316940222576895 -5.079181811382732 a29.90705911588358,29.90705911588358 0 0,0 0.29720122934591836,-0.4203700620961673 l 7.228426373427099 5.204378373810685" fill="#ff6909" stroke="none" /><path d="M 82.95767976084542 87.72973835380427 l -6.742218646010956 -4.8543147706111816 a29.30794103029094,29.30794103029094 0 0,0 0.2982953689723275,-0.40687454804718004 l 6.657660664524996 4.969651762329862" fill="#ff6108" stroke="none" /><path d="M 84.80347519578584 85.50635884689758 l -7.751032562598359 -7.392524670979984 a31.71111230440181,31.71111230440181 0 0,0 0.3801342954638901,-0.3917618062234693 l 7.622634003431351 7.524850672753577" fill="#ff820b" stroke="none" /><path d="M 85.57189188830299 84.74124197986013 l -8.70125992578917 -9.202205767388087 a33.664616665398725,33.664616665398725 0 0,0 0.42448214705075626,-0.3945098939480771 l 8.541569894943558 9.350620247410811" fill="#ff9c0e" stroke="none" /><path d="M 86.37877921826538 84.01681056812374 l -6.33343128361462 -7.431671036088483 a30.764327227869046,30.764327227869046 0 0,0 0.4060048296060729,-0.3400173687212586 l 6.2045689170494365 7.539589562203554" fill="#ff750a" stroke="none" /><path d="M 88.09926311788651 82.69761687909137 l -3.7070056232893878 -5.389584877043752 a27.541369568978492,27.541369568978492 0 0,0 0.39291738249907354,-0.2652995706087804 l 3.6136835463837746 5.452596359951198" fill="#ff4806" stroke="none" /><line stroke="#e1ed5e" stroke-width="0.3" x1="56.762969772571076" x2="54.21961505331055" y1="26.818313649435495" y2="22.513508569990535" /><path d="M 56.25429882871897 25.957352633546506 a86.0,86.0 0 0,1 42.265352541879196,-11.944610805530505" fill="none" id="id108" stroke="none" /><text fill="#e1ed5e" style="font-size:6.75px; font-family:Arial;" text-anchor="middle"><textPath startOffset="22.20632615414155" xlink:href="#id108">December</textPath></text><path d="M 89.94658935756843 81.56283822128135 l -15.083342553346403 -27.661659978967844 a52.50673984044718,52.50673984044718 0 0,0 0.7972397185131507,-0.42585784746982347 l 14.604957788304947 27.917196552939416" fill="#80ff26" stroke="none" /><path d="M 90.58718382345135 81.22770947309562 l -1.361475320985118 -2.7152352485560067 a24.037452469529775,24.037452469529775 0 0,0 0.3714687616301717,-0.18227810806080535 l 1.3145352923445204 2.7382685167516416" fill="#ff1602" stroke="none" /><path d="M 91.23893434514133 80.91482961587045 l -3.09619542827113 -6.744775078628343 a28.42148347645759,28.42148347645759 0 0,0 0.44637683191603894,-0.20027627290838707 l 2.9796364778883166 6.797071682053259" fill="#ff5407" stroke="none" /><path d="M 91.90106846888425 80.62456947434976 l -0.9256691205639281 -2.214518997514636 a23.4001995148568,23.4001995148568 0 0,0 0.3729725824987012,-0.1521448811850495 l 0.8874126684768464 2.2301247648832625" fill="#ff0d01" stroke="none" /><path d="M 92.23578459929587 80.48803036053334 l -4.802631959135357 -12.069321127757856 a33.98975697308654,33.98975697308654 0 0,0 0.5454819198809432,-0.2116385103437176 l 4.5941668742547375 12.150202341992125" fill="#ffa00e" stroke="none" /><path d="M 92.57280143429618 80.3572730644239 l -5.250114956709298 -13.884989550599458 a35.84441450104782,35.84441450104782 0 0,0 0.5790028057661633,-0.21325161976936127 l 5.010329825170566 13.973304438175143" fill="#ffb811" stroke="none" /><path d="M 92.91201910852362 80.23233633223022 l -7.042144756457178 -19.63983131117022 a41.86419844379648,41.86419844379648 0 0,0 0.6804287768730259,-0.23738823968174225 l 6.703033975520867 19.75814040402417" fill="#faff18" stroke="none" /><path d="M 93.59665428221793 80.00007090966166 l -2.2625841721479056 -7.066856140254401 a28.420225255550235,28.420225255550235 0 0,0 0.46719416519390045,-0.145159501310408 l 2.1406046342432767 7.104755776447334" fill="#ff5407" stroke="none" /><path d="M 94.63758080256005 79.69619591428918 l -8.029445511363363 -30.402003755588993 a52.444456229593165,52.444456229593165 0 0,0 0.8748012788083379,-0.2230063242312318 l 7.5049353438700255 30.535713075989086" fill="#80ff25" stroke="none" /><path d="M 98.19473922651362 79.07773832637324 l -1.6485230673203197 -19.105733363316645 a40.17672223435585,40.17672223435585 0 0,0 0.6895278501202995,-0.05352063193490888 l 1.319405027837686 19.131279257440017" fill="#ffef16" stroke="none" /><path d="M 98.55514903715128 79.0497635885617 l -0.6071724310382918 -8.803957155331764 a29.824869401522626,29.824869401522626 0 0,0 0.5124735604033925,-0.030913804668118328 l 0.45553682179527627 8.813104229380189" fill="#ff6809" stroke="none" /><path d="M 99.63851952072746 79.00311137660856 l -0.7787006009100927 -45.23145985968936 a66.23816238160595,66.23816238160595 0 0,0 1.1401810801826173,-0.00981389852514537 l 1.1080154151988385e-14 45.238162381605946" fill="#37ff75" stroke="none" /></svg>